M48
; DRILL file {KiCad 8.0.4+dfsg-1} date 2025-02-17T18:06:49+0100
; FORMAT={-:-/ absolute / inch / decimal}
; #@! TF.CreationDate,2025-02-17T18:06:49+01:00
; #@! TF.GenerationSoftware,Kicad,Pcbnew,8.0.4+dfsg-1
; #@! TF.FileFunction,Plated,1,2,PTH
FMAT,2
INCH
; #@! TA.AperFunction,Plated,PTH,ViaDrill
T1C0.0118
; #@! TA.AperFunction,Plated,PTH,ComponentDrill
T2C0.0236
; #@! TA.AperFunction,Plated,PTH,ComponentDrill
T3C0.0315
; #@! TA.AperFunction,Plated,PTH,ComponentDrill
T4C0.1063
%
G90
G05
T1
X3.0906Y-3.6811
X3.0906Y-4.0748
X3.0906Y-4.4685
X3.189Y-3.5039
X3.5039Y-4.6457
X3.5846Y-3.6594
X3.8976Y-3.5039
X3.8976Y-3.5827
X3.8976Y-4.0157
X3.8976Y-4.6457
X3.9173Y-3.7008
X4.0157Y-3.7205
X4.1339Y-3.6417
X4.2913Y-4.6457
X4.4488Y-3.5039
X4.685Y-4.6457
X4.7047Y-3.8976
X4.7835Y-3.5039
X4.7835Y-3.5827
X4.8031Y-3.7008
X4.9016Y-3.7205
X5.0197Y-3.6417
X5.0787Y-4.6457
X5.3543Y-3.5039
X5.4724Y-4.6457
X5.5906Y-3.5039
X5.6693Y-3.8976
X5.8465Y-3.5039
X5.8661Y-4.6457
X5.9646Y-3.6811
X6.0039Y-3.5433
X6.122Y-3.7205
X6.2402Y-3.6417
X6.2598Y-4.6457
X6.4961Y-3.8976
X6.5551Y-3.5039
X6.5551Y-3.5433
X6.5748Y-3.6811
X6.6535Y-3.7205
X6.6535Y-4.6457
X6.7913Y-3.6417
X7.0472Y-4.6457
X7.1063Y-3.5039
X7.4409Y-3.5433
X7.4409Y-3.8976
X7.4409Y-4.6457
X7.5394Y-3.6811
X7.6575Y-3.6417
X7.8346Y-4.6457
X7.9724Y-3.5433
X8.248Y-3.6811
X8.248Y-4.0748
X8.248Y-4.4685
T2
X3.2635Y-4.0487
X3.276Y-4.1516
X3.3003Y-3.9518
X3.3349Y-4.2369
X3.3778Y-3.8831
X3.4266Y-4.285
X3.4785Y-3.8583
X3.5303Y-4.285
X3.5791Y-3.8831
X3.622Y-4.2369
X3.6567Y-3.9518
X3.6809Y-4.1516
X3.6934Y-4.0487
X4.0961Y-4.0487
X4.1086Y-4.1516
X4.1328Y-3.9518
X4.1674Y-4.2369
X4.2104Y-3.8831
X4.2592Y-4.285
X4.311Y-3.8583
X4.3628Y-4.285
X4.4117Y-3.8831
X4.4546Y-4.2369
X4.4892Y-3.9518
X4.5135Y-4.1516
X4.526Y-4.0487
X5.0409Y-4.0487
X5.0534Y-4.1516
X5.0777Y-3.9518
X5.1123Y-4.2369
X5.1553Y-3.8831
X5.2041Y-4.285
X5.2559Y-3.8583
X5.3077Y-4.285
X5.3565Y-3.8831
X5.3995Y-4.2369
X5.4341Y-3.9518
X5.4584Y-4.1516
X5.4709Y-4.0487
X5.8677Y-4.0487
X5.8802Y-4.1516
X5.9045Y-3.9518
X5.9391Y-4.2369
X5.982Y-3.8831
X6.0309Y-4.285
X6.0827Y-3.8583
X6.1345Y-4.285
X6.1833Y-3.8831
X6.2263Y-4.2369
X6.2609Y-3.9518
X6.2851Y-4.1516
X6.2976Y-4.0487
X6.8126Y-4.0487
X6.8251Y-4.1516
X6.8494Y-3.9518
X6.884Y-4.2369
X6.9269Y-3.8831
X6.9757Y-4.285
X7.0276Y-3.8583
X7.0794Y-4.285
X7.1282Y-3.8831
X7.1711Y-4.2369
X7.2058Y-3.9518
X7.23Y-4.1516
X7.2425Y-4.0487
X7.6394Y-4.0487
X7.6519Y-4.1516
X7.6761Y-3.9518
X7.7107Y-4.2369
X7.7537Y-3.8831
X7.8025Y-4.285
X7.8543Y-3.8583
X7.9062Y-4.285
X7.955Y-3.8831
X7.9979Y-4.2369
X8.0325Y-3.9518
X8.0568Y-4.1516
X8.0693Y-4.0487
T3
X3.4646Y-3.5039
X3.4646Y-3.5827
X3.5433Y-3.5039
X3.5433Y-3.5827
X3.622Y-3.5039
X3.622Y-3.5827
X3.7008Y-3.5039
X3.7008Y-3.5827
X3.7795Y-3.5039
X3.7795Y-3.5827
X4.0157Y-3.5039
X4.0157Y-3.5827
X4.0945Y-3.5039
X4.0945Y-3.5827
X4.1732Y-3.5039
X4.1732Y-3.5827
X4.252Y-3.5039
X4.252Y-3.5827
X4.3307Y-3.5039
X4.3307Y-3.5827
X4.9016Y-3.5039
X4.9016Y-3.5827
X4.9803Y-3.5039
X4.9803Y-3.5827
X5.0591Y-3.5039
X5.0591Y-3.5827
X5.1378Y-3.5039
X5.1378Y-3.5827
X5.2165Y-3.5039
X5.2165Y-3.5827
X6.122Y-3.5039
X6.122Y-3.5827
X6.2008Y-3.5039
X6.2008Y-3.5827
X6.2795Y-3.5039
X6.2795Y-3.5827
X6.3583Y-3.5039
X6.3583Y-3.5827
X6.437Y-3.5039
X6.437Y-3.5827
X6.6732Y-3.5039
X6.6732Y-3.5827
X6.752Y-3.5039
X6.752Y-3.5827
X6.8307Y-3.5039
X6.8307Y-3.5827
X6.9094Y-3.5039
X6.9094Y-3.5827
X6.9882Y-3.5039
X6.9882Y-3.5827
X7.2244Y-3.5039
X7.2244Y-3.5827
X7.3031Y-3.5039
X7.3031Y-3.5827
X7.5394Y-3.5039
X7.5394Y-3.5827
X7.6181Y-3.5039
X7.6181Y-3.5827
X7.6969Y-3.5039
X7.6969Y-3.5827
X7.7756Y-3.5039
X7.7756Y-3.5827
X7.8543Y-3.5039
X7.8543Y-3.5827
T4
X3.2283Y-3.6614
X3.2283Y-4.5669
X8.1102Y-3.5827
X8.1102Y-4.5669
M30
