%TF.GenerationSoftware,KiCad,Pcbnew,8.0.4+dfsg-1*%
%TF.CreationDate,2025-02-17T18:06:49+01:00*%
%TF.ProjectId,nixie-clock-tubes,6e697869-652d-4636-9c6f-636b2d747562,rev?*%
%TF.SameCoordinates,Original*%
%TF.FileFunction,Soldermask,Bot*%
%TF.FilePolarity,Negative*%
%FSLAX46Y46*%
G04 Gerber Fmt 4.6, Leading zero omitted, Abs format (unit mm)*
G04 Created by KiCad (PCBNEW 8.0.4+dfsg-1) date 2025-02-17 18:06:49*
%MOMM*%
%LPD*%
G01*
G04 APERTURE LIST*
G04 Aperture macros list*
%AMRoundRect*
0 Rectangle with rounded corners*
0 $1 Rounding radius*
0 $2 $3 $4 $5 $6 $7 $8 $9 X,Y pos of 4 corners*
0 Add a 4 corners polygon primitive as box body*
4,1,4,$2,$3,$4,$5,$6,$7,$8,$9,$2,$3,0*
0 Add four circle primitives for the rounded corners*
1,1,$1+$1,$2,$3*
1,1,$1+$1,$4,$5*
1,1,$1+$1,$6,$7*
1,1,$1+$1,$8,$9*
0 Add four rect primitives between the rounded corners*
20,1,$1+$1,$2,$3,$4,$5,0*
20,1,$1+$1,$4,$5,$6,$7,0*
20,1,$1+$1,$6,$7,$8,$9,0*
20,1,$1+$1,$8,$9,$2,$3,0*%
G04 Aperture macros list end*
%ADD10R,1.350000X1.350000*%
%ADD11O,1.350000X1.350000*%
%ADD12C,4.700000*%
%ADD13RoundRect,0.250000X0.625000X-0.312500X0.625000X0.312500X-0.625000X0.312500X-0.625000X-0.312500X0*%
%ADD14O,1.300000X1.300000*%
G04 APERTURE END LIST*
D10*
%TO.C,J5*%
X102000000Y-89000000D03*
D11*
X102000000Y-91000000D03*
X104000000Y-89000000D03*
X104000000Y-91000000D03*
X106000000Y-89000000D03*
X106000000Y-91000000D03*
X108000000Y-89000000D03*
X108000000Y-91000000D03*
X110000000Y-89000000D03*
X110000000Y-91000000D03*
%TD*%
D12*
%TO.C,H3*%
X206000000Y-116000000D03*
%TD*%
D10*
%TO.C,J3*%
X155500000Y-89000000D03*
D11*
X155500000Y-91000000D03*
X157500000Y-89000000D03*
X157500000Y-91000000D03*
X159500000Y-89000000D03*
X159500000Y-91000000D03*
X161500000Y-89000000D03*
X161500000Y-91000000D03*
X163500000Y-89000000D03*
X163500000Y-91000000D03*
%TD*%
D12*
%TO.C,H2*%
X206000000Y-91000000D03*
%TD*%
D10*
%TO.C,J7*%
X183500000Y-89000000D03*
D11*
X183500000Y-91000000D03*
X185500000Y-89000000D03*
X185500000Y-91000000D03*
%TD*%
D10*
%TO.C,J4*%
X88000000Y-89000000D03*
D11*
X88000000Y-91000000D03*
X90000000Y-89000000D03*
X90000000Y-91000000D03*
X92000000Y-89000000D03*
X92000000Y-91000000D03*
X94000000Y-89000000D03*
X94000000Y-91000000D03*
X96000000Y-89000000D03*
X96000000Y-91000000D03*
%TD*%
D10*
%TO.C,J1*%
X169500000Y-89000000D03*
D11*
X169500000Y-91000000D03*
X171500000Y-89000000D03*
X171500000Y-91000000D03*
X173500000Y-89000000D03*
X173500000Y-91000000D03*
X175500000Y-89000000D03*
X175500000Y-91000000D03*
X177500000Y-89000000D03*
X177500000Y-91000000D03*
%TD*%
D12*
%TO.C,H4*%
X82000000Y-116000000D03*
%TD*%
D10*
%TO.C,J2*%
X191500000Y-89000000D03*
D11*
X191500000Y-91000000D03*
X193500000Y-89000000D03*
X193500000Y-91000000D03*
X195500000Y-89000000D03*
X195500000Y-91000000D03*
X197500000Y-89000000D03*
X197500000Y-91000000D03*
X199500000Y-89000000D03*
X199500000Y-91000000D03*
%TD*%
D12*
%TO.C,H1*%
X82000000Y-93000000D03*
%TD*%
D10*
%TO.C,J6*%
X124500000Y-89000000D03*
D11*
X124500000Y-91000000D03*
X126500000Y-89000000D03*
X126500000Y-91000000D03*
X128500000Y-89000000D03*
X128500000Y-91000000D03*
X130500000Y-89000000D03*
X130500000Y-91000000D03*
X132500000Y-89000000D03*
X132500000Y-91000000D03*
%TD*%
D13*
%TO.C,R3*%
X97500000Y-96962500D03*
X97500000Y-94037500D03*
%TD*%
D14*
%TO.C,N1*%
X88352826Y-98000000D03*
X90908803Y-98629992D03*
X92879237Y-100375644D03*
X93812724Y-102837049D03*
X93495415Y-105450326D03*
X92000000Y-107616809D03*
X89669062Y-108840179D03*
X87036590Y-108840179D03*
X84705652Y-107616809D03*
X83210237Y-105450326D03*
X82892928Y-102837049D03*
X83826415Y-100375644D03*
X85796849Y-98629992D03*
%TD*%
D13*
%TO.C,R1*%
X142500000Y-96962500D03*
X142500000Y-94037500D03*
%TD*%
%TO.C,R5*%
X187500000Y-96962500D03*
X187500000Y-94037500D03*
%TD*%
D14*
%TO.C,N5*%
X178500000Y-98000000D03*
X181055977Y-98629992D03*
X183026411Y-100375644D03*
X183959898Y-102837049D03*
X183642589Y-105450326D03*
X182147174Y-107616809D03*
X179816236Y-108840179D03*
X177183764Y-108840179D03*
X174852826Y-107616809D03*
X173357411Y-105450326D03*
X173040102Y-102837049D03*
X173973589Y-100375644D03*
X175944023Y-98629992D03*
%TD*%
%TO.C,N3*%
X133500000Y-98000000D03*
X136055977Y-98629992D03*
X138026411Y-100375644D03*
X138959898Y-102837049D03*
X138642589Y-105450326D03*
X137147174Y-107616809D03*
X134816236Y-108840179D03*
X132183764Y-108840179D03*
X129852826Y-107616809D03*
X128357411Y-105450326D03*
X128040102Y-102837049D03*
X128973589Y-100375644D03*
X130944023Y-98629992D03*
%TD*%
D13*
%TO.C,R6*%
X190000000Y-96962500D03*
X190000000Y-94037500D03*
%TD*%
D14*
%TO.C,N6*%
X199500000Y-98000000D03*
X202055977Y-98629992D03*
X204026411Y-100375644D03*
X204959898Y-102837049D03*
X204642589Y-105450326D03*
X203147174Y-107616809D03*
X200816236Y-108840179D03*
X198183764Y-108840179D03*
X195852826Y-107616809D03*
X194357411Y-105450326D03*
X194040102Y-102837049D03*
X194973589Y-100375644D03*
X196944023Y-98629992D03*
%TD*%
D13*
%TO.C,R2*%
X118500000Y-96962500D03*
X118500000Y-94037500D03*
%TD*%
D14*
%TO.C,N2*%
X109500000Y-98000000D03*
X112055977Y-98629992D03*
X114026411Y-100375644D03*
X114959898Y-102837049D03*
X114642589Y-105450326D03*
X113147174Y-107616809D03*
X110816236Y-108840179D03*
X108183764Y-108840179D03*
X105852826Y-107616809D03*
X104357411Y-105450326D03*
X104040102Y-102837049D03*
X104973589Y-100375644D03*
X106944023Y-98629992D03*
%TD*%
D13*
%TO.C,R4*%
X163500000Y-96962500D03*
X163500000Y-94037500D03*
%TD*%
D14*
%TO.C,N4*%
X154500000Y-98000000D03*
X157055977Y-98629992D03*
X159026411Y-100375644D03*
X159959898Y-102837049D03*
X159642589Y-105450326D03*
X158147174Y-107616809D03*
X155816236Y-108840179D03*
X153183764Y-108840179D03*
X150852826Y-107616809D03*
X149357411Y-105450326D03*
X149040102Y-102837049D03*
X149973589Y-100375644D03*
X151944023Y-98629992D03*
%TD*%
M02*
