%TF.GenerationSoftware,KiCad,Pcbnew,8.0.4+dfsg-1*%
%TF.CreationDate,2025-02-17T18:06:49+01:00*%
%TF.ProjectId,nixie-clock-tubes,6e697869-652d-4636-9c6f-636b2d747562,rev?*%
%TF.SameCoordinates,Original*%
%TF.FileFunction,Legend,Bot*%
%TF.FilePolarity,Positive*%
%FSLAX46Y46*%
G04 Gerber Fmt 4.6, Leading zero omitted, Abs format (unit mm)*
G04 Created by KiCad (PCBNEW 8.0.4+dfsg-1) date 2025-02-17 18:06:49*
%MOMM*%
%LPD*%
G01*
G04 APERTURE LIST*
G04 Aperture macros list*
%AMRoundRect*
0 Rectangle with rounded corners*
0 $1 Rounding radius*
0 $2 $3 $4 $5 $6 $7 $8 $9 X,Y pos of 4 corners*
0 Add a 4 corners polygon primitive as box body*
4,1,4,$2,$3,$4,$5,$6,$7,$8,$9,$2,$3,0*
0 Add four circle primitives for the rounded corners*
1,1,$1+$1,$2,$3*
1,1,$1+$1,$4,$5*
1,1,$1+$1,$6,$7*
1,1,$1+$1,$8,$9*
0 Add four rect primitives between the rounded corners*
20,1,$1+$1,$2,$3,$4,$5,0*
20,1,$1+$1,$4,$5,$6,$7,0*
20,1,$1+$1,$6,$7,$8,$9,0*
20,1,$1+$1,$8,$9,$2,$3,0*%
G04 Aperture macros list end*
%ADD10C,0.150000*%
%ADD11C,0.120000*%
%ADD12R,1.350000X1.350000*%
%ADD13O,1.350000X1.350000*%
%ADD14C,4.700000*%
%ADD15RoundRect,0.250000X0.625000X-0.312500X0.625000X0.312500X-0.625000X0.312500X-0.625000X-0.312500X0*%
%ADD16O,1.300000X1.300000*%
G04 APERTURE END LIST*
D10*
X99774819Y-95333333D02*
X99298628Y-95000000D01*
X99774819Y-94761905D02*
X98774819Y-94761905D01*
X98774819Y-94761905D02*
X98774819Y-95142857D01*
X98774819Y-95142857D02*
X98822438Y-95238095D01*
X98822438Y-95238095D02*
X98870057Y-95285714D01*
X98870057Y-95285714D02*
X98965295Y-95333333D01*
X98965295Y-95333333D02*
X99108152Y-95333333D01*
X99108152Y-95333333D02*
X99203390Y-95285714D01*
X99203390Y-95285714D02*
X99251009Y-95238095D01*
X99251009Y-95238095D02*
X99298628Y-95142857D01*
X99298628Y-95142857D02*
X99298628Y-94761905D01*
X98774819Y-95666667D02*
X98774819Y-96285714D01*
X98774819Y-96285714D02*
X99155771Y-95952381D01*
X99155771Y-95952381D02*
X99155771Y-96095238D01*
X99155771Y-96095238D02*
X99203390Y-96190476D01*
X99203390Y-96190476D02*
X99251009Y-96238095D01*
X99251009Y-96238095D02*
X99346247Y-96285714D01*
X99346247Y-96285714D02*
X99584342Y-96285714D01*
X99584342Y-96285714D02*
X99679580Y-96238095D01*
X99679580Y-96238095D02*
X99727200Y-96190476D01*
X99727200Y-96190476D02*
X99774819Y-96095238D01*
X99774819Y-96095238D02*
X99774819Y-95809524D01*
X99774819Y-95809524D02*
X99727200Y-95714286D01*
X99727200Y-95714286D02*
X99679580Y-95666667D01*
X144774819Y-95333333D02*
X144298628Y-95000000D01*
X144774819Y-94761905D02*
X143774819Y-94761905D01*
X143774819Y-94761905D02*
X143774819Y-95142857D01*
X143774819Y-95142857D02*
X143822438Y-95238095D01*
X143822438Y-95238095D02*
X143870057Y-95285714D01*
X143870057Y-95285714D02*
X143965295Y-95333333D01*
X143965295Y-95333333D02*
X144108152Y-95333333D01*
X144108152Y-95333333D02*
X144203390Y-95285714D01*
X144203390Y-95285714D02*
X144251009Y-95238095D01*
X144251009Y-95238095D02*
X144298628Y-95142857D01*
X144298628Y-95142857D02*
X144298628Y-94761905D01*
X144774819Y-96285714D02*
X144774819Y-95714286D01*
X144774819Y-96000000D02*
X143774819Y-96000000D01*
X143774819Y-96000000D02*
X143917676Y-95904762D01*
X143917676Y-95904762D02*
X144012914Y-95809524D01*
X144012914Y-95809524D02*
X144060533Y-95714286D01*
X185954819Y-95333333D02*
X185478628Y-95000000D01*
X185954819Y-94761905D02*
X184954819Y-94761905D01*
X184954819Y-94761905D02*
X184954819Y-95142857D01*
X184954819Y-95142857D02*
X185002438Y-95238095D01*
X185002438Y-95238095D02*
X185050057Y-95285714D01*
X185050057Y-95285714D02*
X185145295Y-95333333D01*
X185145295Y-95333333D02*
X185288152Y-95333333D01*
X185288152Y-95333333D02*
X185383390Y-95285714D01*
X185383390Y-95285714D02*
X185431009Y-95238095D01*
X185431009Y-95238095D02*
X185478628Y-95142857D01*
X185478628Y-95142857D02*
X185478628Y-94761905D01*
X184954819Y-96238095D02*
X184954819Y-95761905D01*
X184954819Y-95761905D02*
X185431009Y-95714286D01*
X185431009Y-95714286D02*
X185383390Y-95761905D01*
X185383390Y-95761905D02*
X185335771Y-95857143D01*
X185335771Y-95857143D02*
X185335771Y-96095238D01*
X185335771Y-96095238D02*
X185383390Y-96190476D01*
X185383390Y-96190476D02*
X185431009Y-96238095D01*
X185431009Y-96238095D02*
X185526247Y-96285714D01*
X185526247Y-96285714D02*
X185764342Y-96285714D01*
X185764342Y-96285714D02*
X185859580Y-96238095D01*
X185859580Y-96238095D02*
X185907200Y-96190476D01*
X185907200Y-96190476D02*
X185954819Y-96095238D01*
X185954819Y-96095238D02*
X185954819Y-95857143D01*
X185954819Y-95857143D02*
X185907200Y-95761905D01*
X185907200Y-95761905D02*
X185859580Y-95714286D01*
X192454819Y-95333333D02*
X191978628Y-95000000D01*
X192454819Y-94761905D02*
X191454819Y-94761905D01*
X191454819Y-94761905D02*
X191454819Y-95142857D01*
X191454819Y-95142857D02*
X191502438Y-95238095D01*
X191502438Y-95238095D02*
X191550057Y-95285714D01*
X191550057Y-95285714D02*
X191645295Y-95333333D01*
X191645295Y-95333333D02*
X191788152Y-95333333D01*
X191788152Y-95333333D02*
X191883390Y-95285714D01*
X191883390Y-95285714D02*
X191931009Y-95238095D01*
X191931009Y-95238095D02*
X191978628Y-95142857D01*
X191978628Y-95142857D02*
X191978628Y-94761905D01*
X191454819Y-96190476D02*
X191454819Y-96000000D01*
X191454819Y-96000000D02*
X191502438Y-95904762D01*
X191502438Y-95904762D02*
X191550057Y-95857143D01*
X191550057Y-95857143D02*
X191692914Y-95761905D01*
X191692914Y-95761905D02*
X191883390Y-95714286D01*
X191883390Y-95714286D02*
X192264342Y-95714286D01*
X192264342Y-95714286D02*
X192359580Y-95761905D01*
X192359580Y-95761905D02*
X192407200Y-95809524D01*
X192407200Y-95809524D02*
X192454819Y-95904762D01*
X192454819Y-95904762D02*
X192454819Y-96095238D01*
X192454819Y-96095238D02*
X192407200Y-96190476D01*
X192407200Y-96190476D02*
X192359580Y-96238095D01*
X192359580Y-96238095D02*
X192264342Y-96285714D01*
X192264342Y-96285714D02*
X192026247Y-96285714D01*
X192026247Y-96285714D02*
X191931009Y-96238095D01*
X191931009Y-96238095D02*
X191883390Y-96190476D01*
X191883390Y-96190476D02*
X191835771Y-96095238D01*
X191835771Y-96095238D02*
X191835771Y-95904762D01*
X191835771Y-95904762D02*
X191883390Y-95809524D01*
X191883390Y-95809524D02*
X191931009Y-95761905D01*
X191931009Y-95761905D02*
X192026247Y-95714286D01*
X120774819Y-95333333D02*
X120298628Y-95000000D01*
X120774819Y-94761905D02*
X119774819Y-94761905D01*
X119774819Y-94761905D02*
X119774819Y-95142857D01*
X119774819Y-95142857D02*
X119822438Y-95238095D01*
X119822438Y-95238095D02*
X119870057Y-95285714D01*
X119870057Y-95285714D02*
X119965295Y-95333333D01*
X119965295Y-95333333D02*
X120108152Y-95333333D01*
X120108152Y-95333333D02*
X120203390Y-95285714D01*
X120203390Y-95285714D02*
X120251009Y-95238095D01*
X120251009Y-95238095D02*
X120298628Y-95142857D01*
X120298628Y-95142857D02*
X120298628Y-94761905D01*
X119870057Y-95714286D02*
X119822438Y-95761905D01*
X119822438Y-95761905D02*
X119774819Y-95857143D01*
X119774819Y-95857143D02*
X119774819Y-96095238D01*
X119774819Y-96095238D02*
X119822438Y-96190476D01*
X119822438Y-96190476D02*
X119870057Y-96238095D01*
X119870057Y-96238095D02*
X119965295Y-96285714D01*
X119965295Y-96285714D02*
X120060533Y-96285714D01*
X120060533Y-96285714D02*
X120203390Y-96238095D01*
X120203390Y-96238095D02*
X120774819Y-95666667D01*
X120774819Y-95666667D02*
X120774819Y-96285714D01*
X165774819Y-95333333D02*
X165298628Y-95000000D01*
X165774819Y-94761905D02*
X164774819Y-94761905D01*
X164774819Y-94761905D02*
X164774819Y-95142857D01*
X164774819Y-95142857D02*
X164822438Y-95238095D01*
X164822438Y-95238095D02*
X164870057Y-95285714D01*
X164870057Y-95285714D02*
X164965295Y-95333333D01*
X164965295Y-95333333D02*
X165108152Y-95333333D01*
X165108152Y-95333333D02*
X165203390Y-95285714D01*
X165203390Y-95285714D02*
X165251009Y-95238095D01*
X165251009Y-95238095D02*
X165298628Y-95142857D01*
X165298628Y-95142857D02*
X165298628Y-94761905D01*
X165108152Y-96190476D02*
X165774819Y-96190476D01*
X164727200Y-95952381D02*
X165441485Y-95714286D01*
X165441485Y-95714286D02*
X165441485Y-96333333D01*
D11*
%TO.C,R3*%
X96590000Y-94772936D02*
X96590000Y-96227064D01*
X98410000Y-94772936D02*
X98410000Y-96227064D01*
%TO.C,N1*%
X97722826Y-103500000D02*
G75*
G02*
X78982826Y-103500000I-9370000J0D01*
G01*
X78982826Y-103500000D02*
G75*
G02*
X97722826Y-103500000I9370000J0D01*
G01*
%TO.C,R1*%
X141590000Y-94772936D02*
X141590000Y-96227064D01*
X143410000Y-94772936D02*
X143410000Y-96227064D01*
%TO.C,R5*%
X186590000Y-94772936D02*
X186590000Y-96227064D01*
X188410000Y-94772936D02*
X188410000Y-96227064D01*
%TO.C,N5*%
X187870000Y-103500000D02*
G75*
G02*
X169130000Y-103500000I-9370000J0D01*
G01*
X169130000Y-103500000D02*
G75*
G02*
X187870000Y-103500000I9370000J0D01*
G01*
%TO.C,N3*%
X142870000Y-103500000D02*
G75*
G02*
X124130000Y-103500000I-9370000J0D01*
G01*
X124130000Y-103500000D02*
G75*
G02*
X142870000Y-103500000I9370000J0D01*
G01*
%TO.C,R6*%
X189090000Y-94772936D02*
X189090000Y-96227064D01*
X190910000Y-94772936D02*
X190910000Y-96227064D01*
%TO.C,N6*%
X208870000Y-103500000D02*
G75*
G02*
X190130000Y-103500000I-9370000J0D01*
G01*
X190130000Y-103500000D02*
G75*
G02*
X208870000Y-103500000I9370000J0D01*
G01*
%TO.C,R2*%
X117590000Y-94772936D02*
X117590000Y-96227064D01*
X119410000Y-94772936D02*
X119410000Y-96227064D01*
%TO.C,N2*%
X118870000Y-103500000D02*
G75*
G02*
X100130000Y-103500000I-9370000J0D01*
G01*
X100130000Y-103500000D02*
G75*
G02*
X118870000Y-103500000I9370000J0D01*
G01*
%TO.C,R4*%
X162590000Y-94772936D02*
X162590000Y-96227064D01*
X164410000Y-94772936D02*
X164410000Y-96227064D01*
%TO.C,N4*%
X163870000Y-103500000D02*
G75*
G02*
X145130000Y-103500000I-9370000J0D01*
G01*
X145130000Y-103500000D02*
G75*
G02*
X163870000Y-103500000I9370000J0D01*
G01*
%TD*%
%LPC*%
D12*
%TO.C,J5*%
X102000000Y-89000000D03*
D13*
X102000000Y-91000000D03*
X104000000Y-89000000D03*
X104000000Y-91000000D03*
X106000000Y-89000000D03*
X106000000Y-91000000D03*
X108000000Y-89000000D03*
X108000000Y-91000000D03*
X110000000Y-89000000D03*
X110000000Y-91000000D03*
%TD*%
D14*
%TO.C,H3*%
X206000000Y-116000000D03*
%TD*%
D12*
%TO.C,J3*%
X155500000Y-89000000D03*
D13*
X155500000Y-91000000D03*
X157500000Y-89000000D03*
X157500000Y-91000000D03*
X159500000Y-89000000D03*
X159500000Y-91000000D03*
X161500000Y-89000000D03*
X161500000Y-91000000D03*
X163500000Y-89000000D03*
X163500000Y-91000000D03*
%TD*%
D14*
%TO.C,H2*%
X206000000Y-91000000D03*
%TD*%
D12*
%TO.C,J7*%
X183500000Y-89000000D03*
D13*
X183500000Y-91000000D03*
X185500000Y-89000000D03*
X185500000Y-91000000D03*
%TD*%
D12*
%TO.C,J4*%
X88000000Y-89000000D03*
D13*
X88000000Y-91000000D03*
X90000000Y-89000000D03*
X90000000Y-91000000D03*
X92000000Y-89000000D03*
X92000000Y-91000000D03*
X94000000Y-89000000D03*
X94000000Y-91000000D03*
X96000000Y-89000000D03*
X96000000Y-91000000D03*
%TD*%
D12*
%TO.C,J1*%
X169500000Y-89000000D03*
D13*
X169500000Y-91000000D03*
X171500000Y-89000000D03*
X171500000Y-91000000D03*
X173500000Y-89000000D03*
X173500000Y-91000000D03*
X175500000Y-89000000D03*
X175500000Y-91000000D03*
X177500000Y-89000000D03*
X177500000Y-91000000D03*
%TD*%
D14*
%TO.C,H4*%
X82000000Y-116000000D03*
%TD*%
D12*
%TO.C,J2*%
X191500000Y-89000000D03*
D13*
X191500000Y-91000000D03*
X193500000Y-89000000D03*
X193500000Y-91000000D03*
X195500000Y-89000000D03*
X195500000Y-91000000D03*
X197500000Y-89000000D03*
X197500000Y-91000000D03*
X199500000Y-89000000D03*
X199500000Y-91000000D03*
%TD*%
D14*
%TO.C,H1*%
X82000000Y-93000000D03*
%TD*%
D12*
%TO.C,J6*%
X124500000Y-89000000D03*
D13*
X124500000Y-91000000D03*
X126500000Y-89000000D03*
X126500000Y-91000000D03*
X128500000Y-89000000D03*
X128500000Y-91000000D03*
X130500000Y-89000000D03*
X130500000Y-91000000D03*
X132500000Y-89000000D03*
X132500000Y-91000000D03*
%TD*%
D15*
%TO.C,R3*%
X97500000Y-96962500D03*
X97500000Y-94037500D03*
%TD*%
D16*
%TO.C,N1*%
X88352826Y-98000000D03*
X90908803Y-98629992D03*
X92879237Y-100375644D03*
X93812724Y-102837049D03*
X93495415Y-105450326D03*
X92000000Y-107616809D03*
X89669062Y-108840179D03*
X87036590Y-108840179D03*
X84705652Y-107616809D03*
X83210237Y-105450326D03*
X82892928Y-102837049D03*
X83826415Y-100375644D03*
X85796849Y-98629992D03*
%TD*%
D15*
%TO.C,R1*%
X142500000Y-96962500D03*
X142500000Y-94037500D03*
%TD*%
%TO.C,R5*%
X187500000Y-96962500D03*
X187500000Y-94037500D03*
%TD*%
D16*
%TO.C,N5*%
X178500000Y-98000000D03*
X181055977Y-98629992D03*
X183026411Y-100375644D03*
X183959898Y-102837049D03*
X183642589Y-105450326D03*
X182147174Y-107616809D03*
X179816236Y-108840179D03*
X177183764Y-108840179D03*
X174852826Y-107616809D03*
X173357411Y-105450326D03*
X173040102Y-102837049D03*
X173973589Y-100375644D03*
X175944023Y-98629992D03*
%TD*%
%TO.C,N3*%
X133500000Y-98000000D03*
X136055977Y-98629992D03*
X138026411Y-100375644D03*
X138959898Y-102837049D03*
X138642589Y-105450326D03*
X137147174Y-107616809D03*
X134816236Y-108840179D03*
X132183764Y-108840179D03*
X129852826Y-107616809D03*
X128357411Y-105450326D03*
X128040102Y-102837049D03*
X128973589Y-100375644D03*
X130944023Y-98629992D03*
%TD*%
D15*
%TO.C,R6*%
X190000000Y-96962500D03*
X190000000Y-94037500D03*
%TD*%
D16*
%TO.C,N6*%
X199500000Y-98000000D03*
X202055977Y-98629992D03*
X204026411Y-100375644D03*
X204959898Y-102837049D03*
X204642589Y-105450326D03*
X203147174Y-107616809D03*
X200816236Y-108840179D03*
X198183764Y-108840179D03*
X195852826Y-107616809D03*
X194357411Y-105450326D03*
X194040102Y-102837049D03*
X194973589Y-100375644D03*
X196944023Y-98629992D03*
%TD*%
D15*
%TO.C,R2*%
X118500000Y-96962500D03*
X118500000Y-94037500D03*
%TD*%
D16*
%TO.C,N2*%
X109500000Y-98000000D03*
X112055977Y-98629992D03*
X114026411Y-100375644D03*
X114959898Y-102837049D03*
X114642589Y-105450326D03*
X113147174Y-107616809D03*
X110816236Y-108840179D03*
X108183764Y-108840179D03*
X105852826Y-107616809D03*
X104357411Y-105450326D03*
X104040102Y-102837049D03*
X104973589Y-100375644D03*
X106944023Y-98629992D03*
%TD*%
D15*
%TO.C,R4*%
X163500000Y-96962500D03*
X163500000Y-94037500D03*
%TD*%
D16*
%TO.C,N4*%
X154500000Y-98000000D03*
X157055977Y-98629992D03*
X159026411Y-100375644D03*
X159959898Y-102837049D03*
X159642589Y-105450326D03*
X158147174Y-107616809D03*
X155816236Y-108840179D03*
X153183764Y-108840179D03*
X150852826Y-107616809D03*
X149357411Y-105450326D03*
X149040102Y-102837049D03*
X149973589Y-100375644D03*
X151944023Y-98629992D03*
%TD*%
%LPD*%
M02*
