%TF.GenerationSoftware,KiCad,Pcbnew,8.0.4+dfsg-1*%
%TF.CreationDate,2025-02-17T18:06:48+01:00*%
%TF.ProjectId,nixie-clock-tubes,6e697869-652d-4636-9c6f-636b2d747562,rev?*%
%TF.SameCoordinates,Original*%
%TF.FileFunction,Copper,L1,Top*%
%TF.FilePolarity,Positive*%
%FSLAX46Y46*%
G04 Gerber Fmt 4.6, Leading zero omitted, Abs format (unit mm)*
G04 Created by KiCad (PCBNEW 8.0.4+dfsg-1) date 2025-02-17 18:06:48*
%MOMM*%
%LPD*%
G01*
G04 APERTURE LIST*
%TA.AperFunction,ComponentPad*%
%ADD10R,1.350000X1.350000*%
%TD*%
%TA.AperFunction,ComponentPad*%
%ADD11O,1.350000X1.350000*%
%TD*%
%TA.AperFunction,ComponentPad*%
%ADD12C,4.700000*%
%TD*%
%TA.AperFunction,ComponentPad*%
%ADD13O,1.300000X1.300000*%
%TD*%
%TA.AperFunction,ViaPad*%
%ADD14C,0.600000*%
%TD*%
%TA.AperFunction,Conductor*%
%ADD15C,0.200000*%
%TD*%
G04 APERTURE END LIST*
D10*
%TO.P,J5,1,Pin_1*%
%TO.N,D2-0*%
X102000000Y-89000000D03*
D11*
%TO.P,J5,2,Pin_2*%
%TO.N,D2-1*%
X102000000Y-91000000D03*
%TO.P,J5,3,Pin_3*%
%TO.N,D2-5*%
X104000000Y-89000000D03*
%TO.P,J5,4,Pin_4*%
%TO.N,D2-4*%
X104000000Y-91000000D03*
%TO.P,J5,5,Pin_5*%
%TO.N,D2-8*%
X106000000Y-89000000D03*
%TO.P,J5,6,Pin_6*%
%TO.N,D2-9*%
X106000000Y-91000000D03*
%TO.P,J5,7,Pin_7*%
%TO.N,D2-6*%
X108000000Y-89000000D03*
%TO.P,J5,8,Pin_8*%
%TO.N,D2-7*%
X108000000Y-91000000D03*
%TO.P,J5,9,Pin_9*%
%TO.N,D2-2*%
X110000000Y-89000000D03*
%TO.P,J5,10,Pin_10*%
%TO.N,D2-3*%
X110000000Y-91000000D03*
%TD*%
D12*
%TO.P,H3,1,1*%
%TO.N,GND*%
X206000000Y-116000000D03*
%TD*%
D10*
%TO.P,J3,1,Pin_1*%
%TO.N,D4-0*%
X155500000Y-89000000D03*
D11*
%TO.P,J3,2,Pin_2*%
%TO.N,D4-1*%
X155500000Y-91000000D03*
%TO.P,J3,3,Pin_3*%
%TO.N,D4-5*%
X157500000Y-89000000D03*
%TO.P,J3,4,Pin_4*%
%TO.N,D4-4*%
X157500000Y-91000000D03*
%TO.P,J3,5,Pin_5*%
%TO.N,D4-8*%
X159500000Y-89000000D03*
%TO.P,J3,6,Pin_6*%
%TO.N,D4-9*%
X159500000Y-91000000D03*
%TO.P,J3,7,Pin_7*%
%TO.N,D4-6*%
X161500000Y-89000000D03*
%TO.P,J3,8,Pin_8*%
%TO.N,D4-7*%
X161500000Y-91000000D03*
%TO.P,J3,9,Pin_9*%
%TO.N,D4-2*%
X163500000Y-89000000D03*
%TO.P,J3,10,Pin_10*%
%TO.N,D4-3*%
X163500000Y-91000000D03*
%TD*%
D12*
%TO.P,H2,1,1*%
%TO.N,GND*%
X206000000Y-91000000D03*
%TD*%
D10*
%TO.P,J7,1,Pin_1*%
%TO.N,ANODE*%
X183500000Y-89000000D03*
D11*
%TO.P,J7,2,Pin_2*%
X183500000Y-91000000D03*
%TO.P,J7,3,Pin_3*%
%TO.N,GND*%
X185500000Y-89000000D03*
%TO.P,J7,4,Pin_4*%
X185500000Y-91000000D03*
%TD*%
D10*
%TO.P,J4,1,Pin_1*%
%TO.N,D1-0*%
X88000000Y-89000000D03*
D11*
%TO.P,J4,2,Pin_2*%
%TO.N,D1-1*%
X88000000Y-91000000D03*
%TO.P,J4,3,Pin_3*%
%TO.N,D1-5*%
X90000000Y-89000000D03*
%TO.P,J4,4,Pin_4*%
%TO.N,D1-4*%
X90000000Y-91000000D03*
%TO.P,J4,5,Pin_5*%
%TO.N,D1-8*%
X92000000Y-89000000D03*
%TO.P,J4,6,Pin_6*%
%TO.N,D1-9*%
X92000000Y-91000000D03*
%TO.P,J4,7,Pin_7*%
%TO.N,D1-6*%
X94000000Y-89000000D03*
%TO.P,J4,8,Pin_8*%
%TO.N,D1-7*%
X94000000Y-91000000D03*
%TO.P,J4,9,Pin_9*%
%TO.N,D1-2*%
X96000000Y-89000000D03*
%TO.P,J4,10,Pin_10*%
%TO.N,D1-3*%
X96000000Y-91000000D03*
%TD*%
D10*
%TO.P,J1,1,Pin_1*%
%TO.N,D5-0*%
X169500000Y-89000000D03*
D11*
%TO.P,J1,2,Pin_2*%
%TO.N,D5-1*%
X169500000Y-91000000D03*
%TO.P,J1,3,Pin_3*%
%TO.N,D5-5*%
X171500000Y-89000000D03*
%TO.P,J1,4,Pin_4*%
%TO.N,D5-4*%
X171500000Y-91000000D03*
%TO.P,J1,5,Pin_5*%
%TO.N,D5-8*%
X173500000Y-89000000D03*
%TO.P,J1,6,Pin_6*%
%TO.N,D5-9*%
X173500000Y-91000000D03*
%TO.P,J1,7,Pin_7*%
%TO.N,D5-6*%
X175500000Y-89000000D03*
%TO.P,J1,8,Pin_8*%
%TO.N,D5-7*%
X175500000Y-91000000D03*
%TO.P,J1,9,Pin_9*%
%TO.N,D5-2*%
X177500000Y-89000000D03*
%TO.P,J1,10,Pin_10*%
%TO.N,D5-3*%
X177500000Y-91000000D03*
%TD*%
D12*
%TO.P,H4,1,1*%
%TO.N,GND*%
X82000000Y-116000000D03*
%TD*%
D10*
%TO.P,J2,1,Pin_1*%
%TO.N,D6-0*%
X191500000Y-89000000D03*
D11*
%TO.P,J2,2,Pin_2*%
%TO.N,D6-1*%
X191500000Y-91000000D03*
%TO.P,J2,3,Pin_3*%
%TO.N,D6-5*%
X193500000Y-89000000D03*
%TO.P,J2,4,Pin_4*%
%TO.N,D6-4*%
X193500000Y-91000000D03*
%TO.P,J2,5,Pin_5*%
%TO.N,D6-8*%
X195500000Y-89000000D03*
%TO.P,J2,6,Pin_6*%
%TO.N,D6-9*%
X195500000Y-91000000D03*
%TO.P,J2,7,Pin_7*%
%TO.N,D6-6*%
X197500000Y-89000000D03*
%TO.P,J2,8,Pin_8*%
%TO.N,D6-7*%
X197500000Y-91000000D03*
%TO.P,J2,9,Pin_9*%
%TO.N,D6-2*%
X199500000Y-89000000D03*
%TO.P,J2,10,Pin_10*%
%TO.N,D6-3*%
X199500000Y-91000000D03*
%TD*%
D12*
%TO.P,H1,1,1*%
%TO.N,GND*%
X82000000Y-93000000D03*
%TD*%
D10*
%TO.P,J6,1,Pin_1*%
%TO.N,D3-0*%
X124500000Y-89000000D03*
D11*
%TO.P,J6,2,Pin_2*%
%TO.N,D3-1*%
X124500000Y-91000000D03*
%TO.P,J6,3,Pin_3*%
%TO.N,D3-5*%
X126500000Y-89000000D03*
%TO.P,J6,4,Pin_4*%
%TO.N,D3-4*%
X126500000Y-91000000D03*
%TO.P,J6,5,Pin_5*%
%TO.N,D3-8*%
X128500000Y-89000000D03*
%TO.P,J6,6,Pin_6*%
%TO.N,D3-9*%
X128500000Y-91000000D03*
%TO.P,J6,7,Pin_7*%
%TO.N,D3-6*%
X130500000Y-89000000D03*
%TO.P,J6,8,Pin_8*%
%TO.N,D3-7*%
X130500000Y-91000000D03*
%TO.P,J6,9,Pin_9*%
%TO.N,D3-2*%
X132500000Y-89000000D03*
%TO.P,J6,10,Pin_10*%
%TO.N,D3-3*%
X132500000Y-91000000D03*
%TD*%
D13*
%TO.P,N1,1,A*%
%TO.N,Net-(N1-A)*%
X88352826Y-98000000D03*
%TO.P,N1,2,DPL*%
%TO.N,unconnected-(N1-DPL-Pad2)*%
X90908803Y-98629992D03*
%TO.P,N1,3,1*%
%TO.N,D1-1*%
X92879237Y-100375644D03*
%TO.P,N1,4,2*%
%TO.N,D1-2*%
X93812724Y-102837049D03*
%TO.P,N1,5,3*%
%TO.N,D1-3*%
X93495415Y-105450326D03*
%TO.P,N1,6,4*%
%TO.N,D1-4*%
X92000000Y-107616809D03*
%TO.P,N1,7,5*%
%TO.N,D1-5*%
X89669062Y-108840179D03*
%TO.P,N1,8,6*%
%TO.N,D1-6*%
X87036590Y-108840179D03*
%TO.P,N1,9,7*%
%TO.N,D1-7*%
X84705652Y-107616809D03*
%TO.P,N1,10,8*%
%TO.N,D1-8*%
X83210237Y-105450326D03*
%TO.P,N1,11,9*%
%TO.N,D1-9*%
X82892928Y-102837049D03*
%TO.P,N1,12,0*%
%TO.N,D1-0*%
X83826415Y-100375644D03*
%TO.P,N1,13,DPR*%
%TO.N,unconnected-(N1-DPR-Pad13)*%
X85796849Y-98629992D03*
%TD*%
%TO.P,N5,1,A*%
%TO.N,Net-(N5-A)*%
X178500000Y-98000000D03*
%TO.P,N5,2,DPL*%
%TO.N,unconnected-(N5-DPL-Pad2)*%
X181055977Y-98629992D03*
%TO.P,N5,3,1*%
%TO.N,D5-1*%
X183026411Y-100375644D03*
%TO.P,N5,4,2*%
%TO.N,D5-2*%
X183959898Y-102837049D03*
%TO.P,N5,5,3*%
%TO.N,D5-3*%
X183642589Y-105450326D03*
%TO.P,N5,6,4*%
%TO.N,D5-4*%
X182147174Y-107616809D03*
%TO.P,N5,7,5*%
%TO.N,D5-5*%
X179816236Y-108840179D03*
%TO.P,N5,8,6*%
%TO.N,D5-6*%
X177183764Y-108840179D03*
%TO.P,N5,9,7*%
%TO.N,D5-7*%
X174852826Y-107616809D03*
%TO.P,N5,10,8*%
%TO.N,D5-8*%
X173357411Y-105450326D03*
%TO.P,N5,11,9*%
%TO.N,D5-9*%
X173040102Y-102837049D03*
%TO.P,N5,12,0*%
%TO.N,D5-0*%
X173973589Y-100375644D03*
%TO.P,N5,13,DPR*%
%TO.N,unconnected-(N5-DPR-Pad13)*%
X175944023Y-98629992D03*
%TD*%
%TO.P,N3,1,A*%
%TO.N,Net-(N3-A)*%
X133500000Y-98000000D03*
%TO.P,N3,2,DPL*%
%TO.N,unconnected-(N3-DPL-Pad2)*%
X136055977Y-98629992D03*
%TO.P,N3,3,1*%
%TO.N,D3-1*%
X138026411Y-100375644D03*
%TO.P,N3,4,2*%
%TO.N,D3-2*%
X138959898Y-102837049D03*
%TO.P,N3,5,3*%
%TO.N,D3-3*%
X138642589Y-105450326D03*
%TO.P,N3,6,4*%
%TO.N,D3-4*%
X137147174Y-107616809D03*
%TO.P,N3,7,5*%
%TO.N,D3-5*%
X134816236Y-108840179D03*
%TO.P,N3,8,6*%
%TO.N,D3-6*%
X132183764Y-108840179D03*
%TO.P,N3,9,7*%
%TO.N,D3-7*%
X129852826Y-107616809D03*
%TO.P,N3,10,8*%
%TO.N,D3-8*%
X128357411Y-105450326D03*
%TO.P,N3,11,9*%
%TO.N,D3-9*%
X128040102Y-102837049D03*
%TO.P,N3,12,0*%
%TO.N,D3-0*%
X128973589Y-100375644D03*
%TO.P,N3,13,DPR*%
%TO.N,unconnected-(N3-DPR-Pad13)*%
X130944023Y-98629992D03*
%TD*%
%TO.P,N6,1,A*%
%TO.N,Net-(N6-A)*%
X199500000Y-98000000D03*
%TO.P,N6,2,DPL*%
%TO.N,unconnected-(N6-DPL-Pad2)*%
X202055977Y-98629992D03*
%TO.P,N6,3,1*%
%TO.N,D6-1*%
X204026411Y-100375644D03*
%TO.P,N6,4,2*%
%TO.N,D6-2*%
X204959898Y-102837049D03*
%TO.P,N6,5,3*%
%TO.N,D6-3*%
X204642589Y-105450326D03*
%TO.P,N6,6,4*%
%TO.N,D6-4*%
X203147174Y-107616809D03*
%TO.P,N6,7,5*%
%TO.N,D6-5*%
X200816236Y-108840179D03*
%TO.P,N6,8,6*%
%TO.N,D6-6*%
X198183764Y-108840179D03*
%TO.P,N6,9,7*%
%TO.N,D6-7*%
X195852826Y-107616809D03*
%TO.P,N6,10,8*%
%TO.N,D6-8*%
X194357411Y-105450326D03*
%TO.P,N6,11,9*%
%TO.N,D6-9*%
X194040102Y-102837049D03*
%TO.P,N6,12,0*%
%TO.N,D6-0*%
X194973589Y-100375644D03*
%TO.P,N6,13,DPR*%
%TO.N,unconnected-(N6-DPR-Pad13)*%
X196944023Y-98629992D03*
%TD*%
%TO.P,N2,1,A*%
%TO.N,Net-(N2-A)*%
X109500000Y-98000000D03*
%TO.P,N2,2,DPL*%
%TO.N,unconnected-(N2-DPL-Pad2)*%
X112055977Y-98629992D03*
%TO.P,N2,3,1*%
%TO.N,D2-1*%
X114026411Y-100375644D03*
%TO.P,N2,4,2*%
%TO.N,D2-2*%
X114959898Y-102837049D03*
%TO.P,N2,5,3*%
%TO.N,D2-3*%
X114642589Y-105450326D03*
%TO.P,N2,6,4*%
%TO.N,D2-4*%
X113147174Y-107616809D03*
%TO.P,N2,7,5*%
%TO.N,D2-5*%
X110816236Y-108840179D03*
%TO.P,N2,8,6*%
%TO.N,D2-6*%
X108183764Y-108840179D03*
%TO.P,N2,9,7*%
%TO.N,D2-7*%
X105852826Y-107616809D03*
%TO.P,N2,10,8*%
%TO.N,D2-8*%
X104357411Y-105450326D03*
%TO.P,N2,11,9*%
%TO.N,D2-9*%
X104040102Y-102837049D03*
%TO.P,N2,12,0*%
%TO.N,D2-0*%
X104973589Y-100375644D03*
%TO.P,N2,13,DPR*%
%TO.N,unconnected-(N2-DPR-Pad13)*%
X106944023Y-98629992D03*
%TD*%
%TO.P,N4,1,A*%
%TO.N,Net-(N4-A)*%
X154500000Y-98000000D03*
%TO.P,N4,2,DPL*%
%TO.N,unconnected-(N4-DPL-Pad2)*%
X157055977Y-98629992D03*
%TO.P,N4,3,1*%
%TO.N,D4-1*%
X159026411Y-100375644D03*
%TO.P,N4,4,2*%
%TO.N,D4-2*%
X159959898Y-102837049D03*
%TO.P,N4,5,3*%
%TO.N,D4-3*%
X159642589Y-105450326D03*
%TO.P,N4,6,4*%
%TO.N,D4-4*%
X158147174Y-107616809D03*
%TO.P,N4,7,5*%
%TO.N,D4-5*%
X155816236Y-108840179D03*
%TO.P,N4,8,6*%
%TO.N,D4-6*%
X153183764Y-108840179D03*
%TO.P,N4,9,7*%
%TO.N,D4-7*%
X150852826Y-107616809D03*
%TO.P,N4,10,8*%
%TO.N,D4-8*%
X149357411Y-105450326D03*
%TO.P,N4,11,9*%
%TO.N,D4-9*%
X149040102Y-102837049D03*
%TO.P,N4,12,0*%
%TO.N,D4-0*%
X149973589Y-100375644D03*
%TO.P,N4,13,DPR*%
%TO.N,unconnected-(N4-DPR-Pad13)*%
X151944023Y-98629992D03*
%TD*%
D14*
%TO.N,D5-1*%
X172500000Y-92500000D03*
%TO.N,D5-9*%
X167000000Y-93500000D03*
%TO.N,D5-7*%
X169000000Y-94500000D03*
%TO.N,D5-8*%
X166500000Y-90000000D03*
%TO.N,D6-9*%
X191500000Y-93500000D03*
%TO.N,D6-8*%
X189000000Y-90000000D03*
%TO.N,D6-1*%
X194500000Y-92500000D03*
%TO.N,D4-8*%
X152500000Y-90000000D03*
%TO.N,D4-1*%
X158500000Y-92500000D03*
%TO.N,D4-7*%
X155500000Y-94500000D03*
%TO.N,D4-9*%
X151500000Y-93500000D03*
%TO.N,D1-1*%
X91050000Y-92950000D03*
%TO.N,D2-1*%
X105000000Y-92500000D03*
%TO.N,D2-9*%
X99500000Y-94000000D03*
%TO.N,D2-7*%
X102000000Y-94500000D03*
%TO.N,D2-8*%
X99000000Y-91000000D03*
%TO.N,D3-9*%
X122000000Y-94000000D03*
%TO.N,D3-1*%
X127500000Y-92500000D03*
%TO.N,D3-8*%
X121500000Y-91000000D03*
%TO.N,D3-7*%
X124500000Y-94500000D03*
%TO.N,GND*%
X99000000Y-102000000D03*
X139000000Y-118000000D03*
X179000000Y-118000000D03*
X99000000Y-118000000D03*
X189000000Y-118000000D03*
X144000000Y-99000000D03*
X189000000Y-99000000D03*
X129000000Y-118000000D03*
X165000000Y-99000000D03*
X149000000Y-118000000D03*
X180500000Y-89000000D03*
X119500000Y-99000000D03*
X121500000Y-89000000D03*
X159000000Y-118000000D03*
X99000000Y-89000000D03*
X209500000Y-113500000D03*
X148500000Y-89000000D03*
X119000000Y-118000000D03*
X166500000Y-89000000D03*
X199000000Y-118000000D03*
X109000000Y-118000000D03*
X209500000Y-93500000D03*
X78500000Y-113500000D03*
X89000000Y-118000000D03*
X169000000Y-118000000D03*
X209500000Y-103500000D03*
X81000000Y-89000000D03*
X78500000Y-93500000D03*
X202500000Y-90000000D03*
X113000000Y-89000000D03*
X78500000Y-103500000D03*
X136000000Y-89000000D03*
X142000000Y-89000000D03*
%TD*%
D15*
%TO.N,D5-4*%
X179000000Y-96000000D02*
X174000000Y-96000000D01*
X171500000Y-93500000D02*
X171500000Y-91000000D01*
X180000000Y-105469635D02*
X180000000Y-97000000D01*
X180000000Y-97000000D02*
X179000000Y-96000000D01*
X174000000Y-96000000D02*
X171500000Y-93500000D01*
X182147174Y-107616809D02*
X180000000Y-105469635D01*
%TO.N,D5-1*%
X183026411Y-100375644D02*
X183026411Y-98526411D01*
X179500000Y-95000000D02*
X175000000Y-95000000D01*
X175000000Y-95000000D02*
X172500000Y-92500000D01*
X183026411Y-98526411D02*
X179500000Y-95000000D01*
%TO.N,D5-5*%
X173000000Y-97000000D02*
X170500000Y-94500000D01*
X177000000Y-106023943D02*
X177000000Y-97500000D01*
X176500000Y-97000000D02*
X173000000Y-97000000D01*
X177000000Y-97500000D02*
X176500000Y-97000000D01*
X170500000Y-94500000D02*
X170500000Y-90000000D01*
X170500000Y-90000000D02*
X171500000Y-89000000D01*
X179816236Y-108840179D02*
X177000000Y-106023943D01*
%TO.N,D5-9*%
X173040102Y-102837049D02*
X167000000Y-96796947D01*
X167000000Y-96796947D02*
X167000000Y-93500000D01*
%TO.N,D5-2*%
X177500000Y-93000000D02*
X176525000Y-92025000D01*
X185500000Y-101296947D02*
X185500000Y-98000000D01*
X180500000Y-93000000D02*
X177500000Y-93000000D01*
X176525000Y-92025000D02*
X176525000Y-89975000D01*
X176525000Y-89975000D02*
X177500000Y-89000000D01*
X185500000Y-98000000D02*
X180500000Y-93000000D01*
X183959898Y-102837049D02*
X185500000Y-101296947D01*
%TO.N,D5-3*%
X180000000Y-91000000D02*
X177500000Y-91000000D01*
X186500000Y-102592915D02*
X186500000Y-97500000D01*
X186500000Y-97500000D02*
X180000000Y-91000000D01*
X183642589Y-105450326D02*
X186500000Y-102592915D01*
%TO.N,D5-0*%
X173973589Y-100375644D02*
X172375644Y-100375644D01*
X172375644Y-100375644D02*
X168000000Y-96000000D01*
X168000000Y-96000000D02*
X168000000Y-89500000D01*
X168500000Y-89000000D02*
X169500000Y-89000000D01*
X168000000Y-89500000D02*
X168500000Y-89000000D01*
%TO.N,D5-7*%
X173500000Y-98000000D02*
X175000000Y-99500000D01*
X171500000Y-97500000D02*
X169000000Y-95000000D01*
X171500000Y-97500000D02*
X172000000Y-98000000D01*
X175000000Y-101500000D02*
X174852826Y-101647174D01*
X172000000Y-98000000D02*
X173500000Y-98000000D01*
X175000000Y-99500000D02*
X175000000Y-101500000D01*
X174852826Y-101647174D02*
X174852826Y-107616809D01*
X169000000Y-95000000D02*
X169000000Y-94500000D01*
%TO.N,D5-6*%
X184500000Y-100500000D02*
X184500000Y-98500000D01*
X182000000Y-110000000D02*
X183500000Y-108500000D01*
X174500000Y-90000000D02*
X175500000Y-89000000D01*
X182000000Y-103000000D02*
X184500000Y-100500000D01*
X178343585Y-110000000D02*
X182000000Y-110000000D01*
X184500000Y-98500000D02*
X180000000Y-94000000D01*
X177183764Y-108840179D02*
X178343585Y-110000000D01*
X174500000Y-92500000D02*
X174500000Y-90000000D01*
X176000000Y-94000000D02*
X174500000Y-92500000D01*
X183500000Y-107000000D02*
X182000000Y-105500000D01*
X182000000Y-105500000D02*
X182000000Y-103000000D01*
X180000000Y-94000000D02*
X176000000Y-94000000D01*
X183500000Y-108500000D02*
X183500000Y-107000000D01*
%TO.N,D5-8*%
X173357411Y-105450326D02*
X172450326Y-105450326D01*
X166000000Y-93000000D02*
X166500000Y-92500000D01*
X166000000Y-98000000D02*
X166000000Y-93000000D01*
X171500000Y-103500000D02*
X166000000Y-98000000D01*
X172450326Y-105450326D02*
X171500000Y-104500000D01*
X171500000Y-104500000D02*
X171500000Y-103500000D01*
X166500000Y-92500000D02*
X166500000Y-90000000D01*
%TO.N,D6-9*%
X191500000Y-95000000D02*
X191500000Y-93500000D01*
X194040102Y-102837049D02*
X195662951Y-102837049D01*
X196500000Y-100000000D02*
X195500000Y-99000000D01*
X196500000Y-102000000D02*
X196500000Y-100000000D01*
X195500000Y-99000000D02*
X191500000Y-95000000D01*
X195662951Y-102837049D02*
X196500000Y-102000000D01*
%TO.N,D6-8*%
X189000000Y-90000000D02*
X189000000Y-95500000D01*
X189000000Y-95500000D02*
X192500000Y-99000000D01*
X192500000Y-99000000D02*
X192500000Y-103592915D01*
X192500000Y-103592915D02*
X194357411Y-105450326D01*
%TO.N,D6-5*%
X203027041Y-108840179D02*
X198500000Y-104313138D01*
X200816236Y-108840179D02*
X203027041Y-108840179D01*
X192500000Y-90000000D02*
X193500000Y-89000000D01*
X198500000Y-104313138D02*
X198500000Y-98500000D01*
X197000000Y-97000000D02*
X195000000Y-97000000D01*
X195000000Y-97000000D02*
X192500000Y-94500000D01*
X198500000Y-98500000D02*
X197000000Y-97000000D01*
X192500000Y-94500000D02*
X192500000Y-90000000D01*
%TO.N,D6-0*%
X190500000Y-89000000D02*
X190000000Y-89500000D01*
X190000000Y-89500000D02*
X190000000Y-95402055D01*
X191500000Y-89000000D02*
X190500000Y-89000000D01*
X190000000Y-95402055D02*
X194973589Y-100375644D01*
%TO.N,D6-2*%
X205500000Y-102000000D02*
X205500000Y-98000000D01*
X205500000Y-98000000D02*
X200500000Y-93000000D01*
X199000000Y-93000000D02*
X198500000Y-92500000D01*
X198500000Y-90000000D02*
X199500000Y-89000000D01*
X198500000Y-92500000D02*
X198500000Y-90000000D01*
X204959898Y-102837049D02*
X204959898Y-102540102D01*
X200500000Y-93000000D02*
X199000000Y-93000000D01*
X204959898Y-102540102D02*
X205500000Y-102000000D01*
%TO.N,D6-3*%
X206500000Y-97000000D02*
X206500000Y-103592915D01*
X200500000Y-91000000D02*
X206500000Y-97000000D01*
X206500000Y-103592915D02*
X204642589Y-105450326D01*
X199500000Y-91000000D02*
X200500000Y-91000000D01*
%TO.N,D6-4*%
X199500000Y-96000000D02*
X196000000Y-96000000D01*
X203147174Y-107616809D02*
X201000000Y-105469635D01*
X201000000Y-105469635D02*
X201000000Y-97500000D01*
X193500000Y-93500000D02*
X193500000Y-91000000D01*
X201000000Y-97500000D02*
X199500000Y-96000000D01*
X196000000Y-96000000D02*
X193500000Y-93500000D01*
%TO.N,D6-1*%
X200500000Y-95000000D02*
X197000000Y-95000000D01*
X197000000Y-95000000D02*
X194500000Y-92500000D01*
X204026411Y-98526411D02*
X200500000Y-95000000D01*
X204026411Y-100375644D02*
X204026411Y-98526411D01*
%TO.N,D4-8*%
X146500000Y-97000000D02*
X146500000Y-102592915D01*
X146500000Y-102592915D02*
X149357411Y-105450326D01*
X152500000Y-90000000D02*
X152500000Y-91000000D01*
X152500000Y-91000000D02*
X146500000Y-97000000D01*
%TO.N,D4-1*%
X158500000Y-96500000D02*
X159026411Y-97026411D01*
X159026411Y-97026411D02*
X159026411Y-100375644D01*
X158500000Y-92500000D02*
X158500000Y-96500000D01*
%TO.N,D4-7*%
X150500000Y-97500000D02*
X150500000Y-99000000D01*
X155500000Y-94500000D02*
X153500000Y-94500000D01*
X150500000Y-99000000D02*
X151000000Y-99500000D01*
X151000000Y-99500000D02*
X151000000Y-101000000D01*
X151000000Y-101000000D02*
X150852826Y-101147174D01*
X150852826Y-101147174D02*
X150852826Y-107616809D01*
X153500000Y-94500000D02*
X150500000Y-97500000D01*
%TO.N,D4-6*%
X153183764Y-108840179D02*
X154343585Y-110000000D01*
X158000000Y-105500000D02*
X158000000Y-103000000D01*
X161500000Y-99500000D02*
X161500000Y-93000000D01*
X154343585Y-110000000D02*
X158000000Y-110000000D01*
X159500000Y-107000000D02*
X158000000Y-105500000D01*
X158000000Y-110000000D02*
X159500000Y-108500000D01*
X160525000Y-89975000D02*
X161500000Y-89000000D01*
X160525000Y-92025000D02*
X160525000Y-89975000D01*
X161500000Y-93000000D02*
X160525000Y-92025000D01*
X158000000Y-103000000D02*
X161500000Y-99500000D01*
X159500000Y-108500000D02*
X159500000Y-107000000D01*
%TO.N,D4-0*%
X154000000Y-90500000D02*
X155500000Y-89000000D01*
X149500000Y-97065686D02*
X154000000Y-92565686D01*
X149973589Y-100375644D02*
X149500000Y-99902055D01*
X149500000Y-99902055D02*
X149500000Y-97065686D01*
X154000000Y-92565686D02*
X154000000Y-90500000D01*
%TO.N,D4-3*%
X163500000Y-101592915D02*
X159642589Y-105450326D01*
X163500000Y-91000000D02*
X163500000Y-101592915D01*
%TO.N,D4-9*%
X148000000Y-97000000D02*
X151500000Y-93500000D01*
X148000000Y-101796947D02*
X148000000Y-97000000D01*
X149040102Y-102837049D02*
X148000000Y-101796947D01*
%TO.N,D4-5*%
X154000000Y-96000000D02*
X155500000Y-96000000D01*
X155500000Y-96000000D02*
X156525000Y-94975000D01*
X153000000Y-106023943D02*
X153000000Y-97000000D01*
X156525000Y-89975000D02*
X157500000Y-89000000D01*
X153000000Y-97000000D02*
X154000000Y-96000000D01*
X155816236Y-108840179D02*
X153000000Y-106023943D01*
X156525000Y-94975000D02*
X156525000Y-89975000D01*
%TO.N,D4-4*%
X156105977Y-96894023D02*
X157500000Y-95500000D01*
X158147174Y-107616809D02*
X156105977Y-105575612D01*
X157500000Y-95500000D02*
X157500000Y-91000000D01*
X156105977Y-105575612D02*
X156105977Y-96894023D01*
%TO.N,D4-2*%
X162475000Y-100321947D02*
X162475000Y-90025000D01*
X162475000Y-90025000D02*
X163500000Y-89000000D01*
X159959898Y-102837049D02*
X162475000Y-100321947D01*
%TO.N,D1-5*%
X89000000Y-90000000D02*
X90000000Y-89000000D01*
X88000000Y-107171117D02*
X88000000Y-99500000D01*
X87402826Y-97097174D02*
X89000000Y-95500000D01*
X87402826Y-98902826D02*
X87402826Y-97097174D01*
X88000000Y-99500000D02*
X87402826Y-98902826D01*
X89669062Y-108840179D02*
X88000000Y-107171117D01*
X89000000Y-95500000D02*
X89000000Y-90000000D01*
%TO.N,D1-6*%
X88196411Y-110000000D02*
X92000000Y-110000000D01*
X92000000Y-110000000D02*
X93500000Y-108500000D01*
X94500000Y-93500000D02*
X93000000Y-92000000D01*
X94500000Y-100500000D02*
X94500000Y-93500000D01*
X93500000Y-108500000D02*
X93500000Y-107000000D01*
X93500000Y-107000000D02*
X92000000Y-105500000D01*
X92000000Y-105500000D02*
X92000000Y-103000000D01*
X92000000Y-103000000D02*
X94500000Y-100500000D01*
X93000000Y-92000000D02*
X93000000Y-90000000D01*
X87036590Y-108840179D02*
X88196411Y-110000000D01*
X93000000Y-90000000D02*
X94000000Y-89000000D01*
%TO.N,D1-1*%
X91050000Y-92950000D02*
X92879237Y-94779237D01*
X92879237Y-94779237D02*
X92879237Y-100375644D01*
%TO.N,D1-3*%
X96000000Y-91000000D02*
X96500000Y-91500000D01*
X96500000Y-91500000D02*
X96500000Y-102445741D01*
X96500000Y-102445741D02*
X93495415Y-105450326D01*
%TO.N,D1-2*%
X95500000Y-92689430D02*
X95500000Y-101149773D01*
X95025000Y-89975000D02*
X95025000Y-92214430D01*
X95500000Y-101149773D02*
X93812724Y-102837049D01*
X96000000Y-89000000D02*
X95025000Y-89975000D01*
X95025000Y-92214430D02*
X95500000Y-92689430D01*
%TO.N,D1-4*%
X91000000Y-106616809D02*
X91000000Y-101000000D01*
X89500000Y-99500000D02*
X89500000Y-96500000D01*
X91000000Y-101000000D02*
X89500000Y-99500000D01*
X92000000Y-107616809D02*
X91000000Y-106616809D01*
X89500000Y-96500000D02*
X90000000Y-96000000D01*
X90000000Y-96000000D02*
X90000000Y-91000000D01*
%TO.N,D1-0*%
X86000000Y-90000000D02*
X86000000Y-96000000D01*
X83826415Y-98173585D02*
X83826415Y-100375644D01*
X88000000Y-89000000D02*
X87000000Y-89000000D01*
X86000000Y-96000000D02*
X83826415Y-98173585D01*
X87000000Y-89000000D02*
X86000000Y-90000000D01*
%TO.N,D2-5*%
X107000000Y-97000000D02*
X104500000Y-97000000D01*
X108000000Y-98000000D02*
X107000000Y-97000000D01*
X110816236Y-108840179D02*
X110816236Y-106816236D01*
X110816236Y-106816236D02*
X108000000Y-104000000D01*
X103025000Y-95525000D02*
X103025000Y-89975000D01*
X103025000Y-89975000D02*
X104000000Y-89000000D01*
X108000000Y-104000000D02*
X108000000Y-98000000D01*
X104500000Y-97000000D02*
X103025000Y-95525000D01*
%TO.N,D2-1*%
X105000000Y-94500000D02*
X105500000Y-95000000D01*
X114026411Y-98526411D02*
X114026411Y-100375644D01*
X105000000Y-92500000D02*
X105000000Y-94500000D01*
X105500000Y-95000000D02*
X110500000Y-95000000D01*
X110500000Y-95000000D02*
X114026411Y-98526411D01*
%TO.N,D2-9*%
X99500000Y-98296947D02*
X99500000Y-94000000D01*
X104040102Y-102837049D02*
X99500000Y-98296947D01*
%TO.N,D2-7*%
X106500000Y-100000000D02*
X105500000Y-99000000D01*
X106500000Y-106969635D02*
X106500000Y-100000000D01*
X105000000Y-99000000D02*
X102000000Y-96000000D01*
X105852826Y-107616809D02*
X106500000Y-106969635D01*
X102000000Y-96000000D02*
X102000000Y-94500000D01*
X105500000Y-99000000D02*
X105000000Y-99000000D01*
%TO.N,D2-3*%
X117500000Y-97500000D02*
X111000000Y-91000000D01*
X111000000Y-91000000D02*
X110000000Y-91000000D01*
X114642589Y-105450326D02*
X117500000Y-102592915D01*
X117500000Y-102592915D02*
X117500000Y-97500000D01*
%TO.N,D2-4*%
X105000000Y-96000000D02*
X104000000Y-95000000D01*
X111000000Y-105469635D02*
X111000000Y-97000000D01*
X110000000Y-96000000D02*
X105000000Y-96000000D01*
X113147174Y-107616809D02*
X111000000Y-105469635D01*
X111000000Y-97000000D02*
X110000000Y-96000000D01*
X104000000Y-95000000D02*
X104000000Y-91000000D01*
%TO.N,D2-0*%
X101000000Y-89000000D02*
X100500000Y-89500000D01*
X100500000Y-95902055D02*
X104973589Y-100375644D01*
X100500000Y-89500000D02*
X100500000Y-95902055D01*
X102000000Y-89000000D02*
X101000000Y-89000000D01*
%TO.N,D2-6*%
X109343585Y-110000000D02*
X113000000Y-110000000D01*
X114500000Y-108500000D02*
X114500000Y-107000000D01*
X114500000Y-107000000D02*
X113000000Y-105500000D01*
X115500000Y-98500000D02*
X111000000Y-94000000D01*
X107000000Y-90000000D02*
X108000000Y-89000000D01*
X115500000Y-100500000D02*
X115500000Y-98500000D01*
X107000000Y-92500000D02*
X107000000Y-90000000D01*
X108183764Y-108840179D02*
X109343585Y-110000000D01*
X113000000Y-110000000D02*
X114500000Y-108500000D01*
X111000000Y-94000000D02*
X108500000Y-94000000D01*
X113000000Y-103000000D02*
X115500000Y-100500000D01*
X113000000Y-105500000D02*
X113000000Y-103000000D01*
X108500000Y-94000000D02*
X107000000Y-92500000D01*
%TO.N,D2-2*%
X109500000Y-93000000D02*
X109000000Y-92500000D01*
X109000000Y-92500000D02*
X109000000Y-90000000D01*
X116500000Y-98000000D02*
X111500000Y-93000000D01*
X109000000Y-90000000D02*
X110000000Y-89000000D01*
X111500000Y-93000000D02*
X109500000Y-93000000D01*
X116500000Y-101296947D02*
X116500000Y-98000000D01*
X114959898Y-102837049D02*
X116500000Y-101296947D01*
%TO.N,D2-8*%
X104357411Y-105450326D02*
X98500000Y-99592915D01*
X98500000Y-99592915D02*
X98500000Y-91500000D01*
X98500000Y-91500000D02*
X99000000Y-91000000D01*
%TO.N,D3-6*%
X132183764Y-108840179D02*
X133343585Y-110000000D01*
X131000000Y-94000000D02*
X129500000Y-92500000D01*
X129500000Y-92500000D02*
X129500000Y-90000000D01*
X138500000Y-107000000D02*
X137000000Y-105500000D01*
X137000000Y-103000000D02*
X139500000Y-100500000D01*
X139500000Y-98500000D02*
X135000000Y-94000000D01*
X135000000Y-94000000D02*
X131000000Y-94000000D01*
X137000000Y-110000000D02*
X138500000Y-108500000D01*
X133343585Y-110000000D02*
X137000000Y-110000000D01*
X138500000Y-108500000D02*
X138500000Y-107000000D01*
X139500000Y-100500000D02*
X139500000Y-98500000D01*
X129500000Y-90000000D02*
X130500000Y-89000000D01*
X137000000Y-105500000D02*
X137000000Y-103000000D01*
%TO.N,D3-9*%
X128040102Y-102837049D02*
X122000000Y-96796947D01*
X122000000Y-96796947D02*
X122000000Y-94000000D01*
%TO.N,D3-1*%
X134500000Y-95000000D02*
X130000000Y-95000000D01*
X138026411Y-100375644D02*
X138026411Y-98526411D01*
X138026411Y-98526411D02*
X134500000Y-95000000D01*
X130000000Y-95000000D02*
X127500000Y-92500000D01*
%TO.N,D3-5*%
X125500000Y-94000000D02*
X125500000Y-90000000D01*
X125500000Y-90000000D02*
X126500000Y-89000000D01*
X132000000Y-98000000D02*
X131000000Y-97000000D01*
X134816236Y-108840179D02*
X132000000Y-106023943D01*
X131000000Y-97000000D02*
X128500000Y-97000000D01*
X132000000Y-106023943D02*
X132000000Y-98000000D01*
X128500000Y-97000000D02*
X125500000Y-94000000D01*
%TO.N,D3-2*%
X140500000Y-101296947D02*
X140500000Y-98000000D01*
X140500000Y-98000000D02*
X135500000Y-93000000D01*
X132000000Y-93000000D02*
X131500000Y-92500000D01*
X131500000Y-92500000D02*
X131500000Y-90000000D01*
X135500000Y-93000000D02*
X132000000Y-93000000D01*
X138959898Y-102837049D02*
X140500000Y-101296947D01*
X131500000Y-90000000D02*
X132500000Y-89000000D01*
%TO.N,D3-0*%
X123000000Y-94402055D02*
X128973589Y-100375644D01*
X124500000Y-89000000D02*
X123500000Y-89000000D01*
X123000000Y-89500000D02*
X123000000Y-94402055D01*
X123500000Y-89000000D02*
X123000000Y-89500000D01*
%TO.N,D3-3*%
X138642589Y-105450326D02*
X141500000Y-102592915D01*
X135000000Y-91000000D02*
X132500000Y-91000000D01*
X141500000Y-102592915D02*
X141500000Y-97500000D01*
X141500000Y-97500000D02*
X135000000Y-91000000D01*
%TO.N,D3-8*%
X121000000Y-98092915D02*
X121000000Y-97500000D01*
X121000000Y-97500000D02*
X121000000Y-91500000D01*
X121000000Y-91500000D02*
X121500000Y-91000000D01*
X128357411Y-105450326D02*
X121000000Y-98092915D01*
%TO.N,D3-7*%
X129000000Y-99000000D02*
X129500000Y-99000000D01*
X129883191Y-107616809D02*
X129852826Y-107616809D01*
X124500000Y-94500000D02*
X129000000Y-99000000D01*
X130500000Y-100000000D02*
X130500000Y-107000000D01*
X130500000Y-107000000D02*
X129883191Y-107616809D01*
X129500000Y-99000000D02*
X130500000Y-100000000D01*
%TO.N,D3-4*%
X126500000Y-93375000D02*
X126500000Y-91000000D01*
X137147174Y-107616809D02*
X135105977Y-105575612D01*
X129125000Y-96000000D02*
X126500000Y-93375000D01*
X135105977Y-105575612D02*
X135105977Y-97105977D01*
X134000000Y-96000000D02*
X129125000Y-96000000D01*
X135105977Y-97105977D02*
X134000000Y-96000000D01*
%TD*%
%TA.AperFunction,Conductor*%
%TO.N,GND*%
G36*
X185750000Y-90684314D02*
G01*
X185745606Y-90679920D01*
X185654394Y-90627259D01*
X185552661Y-90600000D01*
X185447339Y-90600000D01*
X185345606Y-90627259D01*
X185254394Y-90679920D01*
X185250000Y-90684314D01*
X185250000Y-89315686D01*
X185254394Y-89320080D01*
X185345606Y-89372741D01*
X185447339Y-89400000D01*
X185552661Y-89400000D01*
X185654394Y-89372741D01*
X185745606Y-89320080D01*
X185750000Y-89315686D01*
X185750000Y-90684314D01*
G37*
%TD.AperFunction*%
%TA.AperFunction,Conductor*%
G36*
X210442539Y-87520185D02*
G01*
X210488294Y-87572989D01*
X210499500Y-87624500D01*
X210499500Y-119375500D01*
X210479815Y-119442539D01*
X210427011Y-119488294D01*
X210375500Y-119499500D01*
X77624500Y-119499500D01*
X77557461Y-119479815D01*
X77511706Y-119427011D01*
X77500500Y-119375500D01*
X77500500Y-115999996D01*
X79145170Y-115999996D01*
X79145170Y-116000003D01*
X79164473Y-116331426D01*
X79164474Y-116331437D01*
X79222118Y-116658351D01*
X79222121Y-116658365D01*
X79317336Y-116976408D01*
X79448827Y-117281236D01*
X79448833Y-117281249D01*
X79614824Y-117568755D01*
X79812357Y-117834087D01*
X80884728Y-116761716D01*
X80970278Y-116879466D01*
X81120534Y-117029722D01*
X81238281Y-117115270D01*
X80169289Y-118184263D01*
X80295215Y-118289925D01*
X80572588Y-118472356D01*
X80869252Y-118621347D01*
X80869258Y-118621350D01*
X81181213Y-118734892D01*
X81181234Y-118734899D01*
X81504248Y-118811456D01*
X81504263Y-118811458D01*
X81834012Y-118849999D01*
X81834013Y-118850000D01*
X82165987Y-118850000D01*
X82165987Y-118849999D01*
X82495736Y-118811458D01*
X82495751Y-118811456D01*
X82818765Y-118734899D01*
X82818786Y-118734892D01*
X83130741Y-118621350D01*
X83130747Y-118621347D01*
X83427411Y-118472356D01*
X83704789Y-118289922D01*
X83830708Y-118184263D01*
X83830709Y-118184262D01*
X82761718Y-117115270D01*
X82879466Y-117029722D01*
X83029722Y-116879466D01*
X83115270Y-116761718D01*
X84187641Y-117834088D01*
X84385175Y-117568756D01*
X84551166Y-117281249D01*
X84551172Y-117281236D01*
X84682663Y-116976408D01*
X84777878Y-116658365D01*
X84777881Y-116658351D01*
X84834605Y-116336655D01*
X138202062Y-116336655D01*
X149945082Y-116336655D01*
X149945082Y-115999996D01*
X203145170Y-115999996D01*
X203145170Y-116000003D01*
X203164473Y-116331426D01*
X203164474Y-116331437D01*
X203222118Y-116658351D01*
X203222121Y-116658365D01*
X203317336Y-116976408D01*
X203448827Y-117281236D01*
X203448833Y-117281249D01*
X203614824Y-117568755D01*
X203812357Y-117834087D01*
X204884728Y-116761716D01*
X204970278Y-116879466D01*
X205120534Y-117029722D01*
X205238281Y-117115270D01*
X204169289Y-118184263D01*
X204295215Y-118289925D01*
X204572588Y-118472356D01*
X204869252Y-118621347D01*
X204869258Y-118621350D01*
X205181213Y-118734892D01*
X205181234Y-118734899D01*
X205504248Y-118811456D01*
X205504263Y-118811458D01*
X205834012Y-118849999D01*
X205834013Y-118850000D01*
X206165987Y-118850000D01*
X206165987Y-118849999D01*
X206495736Y-118811458D01*
X206495751Y-118811456D01*
X206818765Y-118734899D01*
X206818786Y-118734892D01*
X207130741Y-118621350D01*
X207130747Y-118621347D01*
X207427411Y-118472356D01*
X207704789Y-118289922D01*
X207830708Y-118184263D01*
X207830709Y-118184262D01*
X206761718Y-117115270D01*
X206879466Y-117029722D01*
X207029722Y-116879466D01*
X207115270Y-116761718D01*
X208187641Y-117834088D01*
X208385175Y-117568756D01*
X208551166Y-117281249D01*
X208551172Y-117281236D01*
X208682663Y-116976408D01*
X208777878Y-116658365D01*
X208777881Y-116658351D01*
X208835525Y-116331437D01*
X208835526Y-116331426D01*
X208854830Y-116000003D01*
X208854830Y-115999996D01*
X208835526Y-115668573D01*
X208835525Y-115668562D01*
X208777881Y-115341648D01*
X208777878Y-115341634D01*
X208682663Y-115023591D01*
X208551172Y-114718763D01*
X208551166Y-114718750D01*
X208385172Y-114431239D01*
X208187642Y-114165910D01*
X207115270Y-115238281D01*
X207029722Y-115120534D01*
X206879466Y-114970278D01*
X206761717Y-114884728D01*
X207830709Y-113815736D01*
X207830709Y-113815735D01*
X207704784Y-113710074D01*
X207427411Y-113527643D01*
X207130747Y-113378652D01*
X207130741Y-113378649D01*
X206818786Y-113265107D01*
X206818765Y-113265100D01*
X206495751Y-113188543D01*
X206495736Y-113188541D01*
X206165987Y-113150000D01*
X205834013Y-113150000D01*
X205504263Y-113188541D01*
X205504248Y-113188543D01*
X205181234Y-113265100D01*
X205181213Y-113265107D01*
X204869258Y-113378649D01*
X204869252Y-113378652D01*
X204572581Y-113527646D01*
X204295220Y-113710070D01*
X204295213Y-113710075D01*
X204169289Y-113815735D01*
X205238282Y-114884728D01*
X205120534Y-114970278D01*
X204970278Y-115120534D01*
X204884728Y-115238282D01*
X203812357Y-114165911D01*
X203812356Y-114165911D01*
X203614829Y-114431236D01*
X203614825Y-114431242D01*
X203448833Y-114718750D01*
X203448827Y-114718763D01*
X203317336Y-115023591D01*
X203222121Y-115341634D01*
X203222118Y-115341648D01*
X203164474Y-115668562D01*
X203164473Y-115668573D01*
X203145170Y-115999996D01*
X149945082Y-115999996D01*
X149945082Y-113520629D01*
X138202062Y-113520629D01*
X138202062Y-116336655D01*
X84834605Y-116336655D01*
X84835525Y-116331437D01*
X84835526Y-116331426D01*
X84854830Y-116000003D01*
X84854830Y-115999996D01*
X84835526Y-115668573D01*
X84835525Y-115668562D01*
X84777881Y-115341648D01*
X84777878Y-115341634D01*
X84682663Y-115023591D01*
X84551172Y-114718763D01*
X84551166Y-114718750D01*
X84385172Y-114431239D01*
X84187642Y-114165910D01*
X83115270Y-115238281D01*
X83029722Y-115120534D01*
X82879466Y-114970278D01*
X82761717Y-114884728D01*
X83830709Y-113815736D01*
X83830709Y-113815735D01*
X83704784Y-113710074D01*
X83427411Y-113527643D01*
X83130747Y-113378652D01*
X83130741Y-113378649D01*
X82818786Y-113265107D01*
X82818765Y-113265100D01*
X82495751Y-113188543D01*
X82495736Y-113188541D01*
X82165987Y-113150000D01*
X81834013Y-113150000D01*
X81504263Y-113188541D01*
X81504248Y-113188543D01*
X81181234Y-113265100D01*
X81181213Y-113265107D01*
X80869258Y-113378649D01*
X80869252Y-113378652D01*
X80572581Y-113527646D01*
X80295220Y-113710070D01*
X80295213Y-113710075D01*
X80169289Y-113815735D01*
X81238282Y-114884728D01*
X81120534Y-114970278D01*
X80970278Y-115120534D01*
X80884728Y-115238282D01*
X79812357Y-114165911D01*
X79812356Y-114165911D01*
X79614829Y-114431236D01*
X79614825Y-114431242D01*
X79448833Y-114718750D01*
X79448827Y-114718763D01*
X79317336Y-115023591D01*
X79222121Y-115341634D01*
X79222118Y-115341648D01*
X79164474Y-115668562D01*
X79164473Y-115668573D01*
X79145170Y-115999996D01*
X77500500Y-115999996D01*
X77500500Y-107616808D01*
X83550223Y-107616808D01*
X83550223Y-107616809D01*
X83569896Y-107829119D01*
X83628248Y-108034201D01*
X83628248Y-108034203D01*
X83723284Y-108225062D01*
X83851779Y-108395215D01*
X83851780Y-108395216D01*
X84009350Y-108538861D01*
X84190633Y-108651107D01*
X84389454Y-108728130D01*
X84599042Y-108767309D01*
X84599044Y-108767309D01*
X84812260Y-108767309D01*
X84812262Y-108767309D01*
X85021850Y-108728130D01*
X85220671Y-108651107D01*
X85401954Y-108538861D01*
X85559524Y-108395216D01*
X85688018Y-108225064D01*
X85783057Y-108034198D01*
X85841408Y-107829119D01*
X85861081Y-107616809D01*
X85841408Y-107404499D01*
X85783057Y-107199420D01*
X85783055Y-107199415D01*
X85783055Y-107199414D01*
X85688019Y-107008555D01*
X85559524Y-106838402D01*
X85482534Y-106768216D01*
X85401954Y-106694757D01*
X85220671Y-106582511D01*
X85220669Y-106582510D01*
X85095263Y-106533928D01*
X85021850Y-106505488D01*
X84812262Y-106466309D01*
X84599042Y-106466309D01*
X84389454Y-106505488D01*
X84389451Y-106505488D01*
X84389451Y-106505489D01*
X84190634Y-106582510D01*
X84190632Y-106582511D01*
X84009351Y-106694756D01*
X83851779Y-106838402D01*
X83723284Y-107008555D01*
X83628248Y-107199414D01*
X83628248Y-107199416D01*
X83569896Y-107404498D01*
X83550223Y-107616808D01*
X77500500Y-107616808D01*
X77500500Y-105450325D01*
X82054808Y-105450325D01*
X82054808Y-105450326D01*
X82074481Y-105662636D01*
X82132833Y-105867718D01*
X82132833Y-105867720D01*
X82227869Y-106058579D01*
X82261415Y-106103000D01*
X82356365Y-106228733D01*
X82513935Y-106372378D01*
X82695218Y-106484624D01*
X82894039Y-106561647D01*
X83103627Y-106600826D01*
X83103629Y-106600826D01*
X83316845Y-106600826D01*
X83316847Y-106600826D01*
X83526435Y-106561647D01*
X83725256Y-106484624D01*
X83906539Y-106372378D01*
X84064109Y-106228733D01*
X84192603Y-106058581D01*
X84231472Y-105980521D01*
X84287640Y-105867720D01*
X84287640Y-105867719D01*
X84287642Y-105867715D01*
X84345993Y-105662636D01*
X84365666Y-105450326D01*
X84345993Y-105238016D01*
X84287642Y-105032937D01*
X84287640Y-105032932D01*
X84287640Y-105032931D01*
X84192604Y-104842072D01*
X84064109Y-104671919D01*
X84044786Y-104654304D01*
X83906539Y-104528274D01*
X83725256Y-104416028D01*
X83725254Y-104416027D01*
X83603131Y-104368717D01*
X83526435Y-104339005D01*
X83316847Y-104299826D01*
X83103627Y-104299826D01*
X82894039Y-104339005D01*
X82894036Y-104339005D01*
X82894036Y-104339006D01*
X82695219Y-104416027D01*
X82695217Y-104416028D01*
X82513936Y-104528273D01*
X82356364Y-104671919D01*
X82227869Y-104842072D01*
X82132833Y-105032931D01*
X82132833Y-105032933D01*
X82074481Y-105238015D01*
X82054808Y-105450325D01*
X77500500Y-105450325D01*
X77500500Y-102837049D01*
X81737499Y-102837049D01*
X81757172Y-103049359D01*
X81809540Y-103233412D01*
X81815524Y-103254441D01*
X81815524Y-103254443D01*
X81910560Y-103445302D01*
X82039055Y-103615455D01*
X82039056Y-103615456D01*
X82196626Y-103759101D01*
X82377909Y-103871347D01*
X82576730Y-103948370D01*
X82786318Y-103987549D01*
X82786320Y-103987549D01*
X82999536Y-103987549D01*
X82999538Y-103987549D01*
X83209126Y-103948370D01*
X83407947Y-103871347D01*
X83589230Y-103759101D01*
X83746800Y-103615456D01*
X83875294Y-103445304D01*
X83879155Y-103437550D01*
X83970331Y-103254443D01*
X83970331Y-103254442D01*
X83970333Y-103254438D01*
X84028684Y-103049359D01*
X84048357Y-102837049D01*
X84028684Y-102624739D01*
X83970333Y-102419660D01*
X83970331Y-102419655D01*
X83970331Y-102419654D01*
X83875295Y-102228795D01*
X83746800Y-102058642D01*
X83723276Y-102037197D01*
X83589230Y-101914997D01*
X83407947Y-101802751D01*
X83407945Y-101802750D01*
X83275045Y-101751265D01*
X83209126Y-101725728D01*
X82999538Y-101686549D01*
X82786318Y-101686549D01*
X82576730Y-101725728D01*
X82576727Y-101725728D01*
X82576727Y-101725729D01*
X82377910Y-101802750D01*
X82377908Y-101802751D01*
X82196627Y-101914996D01*
X82039055Y-102058642D01*
X81910560Y-102228795D01*
X81815524Y-102419654D01*
X81815524Y-102419656D01*
X81757172Y-102624738D01*
X81747636Y-102727656D01*
X81737499Y-102837049D01*
X77500500Y-102837049D01*
X77500500Y-100375643D01*
X82670986Y-100375643D01*
X82670986Y-100375644D01*
X82690659Y-100587954D01*
X82749011Y-100793036D01*
X82749011Y-100793038D01*
X82844047Y-100983897D01*
X82953325Y-101128603D01*
X82972543Y-101154051D01*
X83130113Y-101297696D01*
X83311396Y-101409942D01*
X83510217Y-101486965D01*
X83719805Y-101526144D01*
X83719807Y-101526144D01*
X83933023Y-101526144D01*
X83933025Y-101526144D01*
X84142613Y-101486965D01*
X84341434Y-101409942D01*
X84522717Y-101297696D01*
X84680287Y-101154051D01*
X84808781Y-100983899D01*
X84812485Y-100976460D01*
X84903818Y-100793038D01*
X84903818Y-100793037D01*
X84903820Y-100793033D01*
X84962171Y-100587954D01*
X84981844Y-100375644D01*
X84962171Y-100163334D01*
X84903820Y-99958255D01*
X84903818Y-99958250D01*
X84903818Y-99958249D01*
X84808782Y-99767390D01*
X84680287Y-99597237D01*
X84676167Y-99593481D01*
X84522717Y-99453592D01*
X84485636Y-99430632D01*
X84439002Y-99378605D01*
X84426915Y-99325206D01*
X84426915Y-98908177D01*
X84446600Y-98841138D01*
X84499404Y-98795383D01*
X84568562Y-98785439D01*
X84632118Y-98814464D01*
X84669892Y-98873242D01*
X84670172Y-98874212D01*
X84710144Y-99014697D01*
X84719445Y-99047384D01*
X84719445Y-99047386D01*
X84814481Y-99238245D01*
X84924058Y-99383347D01*
X84942977Y-99408399D01*
X85100547Y-99552044D01*
X85281830Y-99664290D01*
X85480651Y-99741313D01*
X85690239Y-99780492D01*
X85690241Y-99780492D01*
X85903457Y-99780492D01*
X85903459Y-99780492D01*
X86113047Y-99741313D01*
X86311868Y-99664290D01*
X86493151Y-99552044D01*
X86650721Y-99408399D01*
X86740581Y-99289405D01*
X86796690Y-99247770D01*
X86866402Y-99243079D01*
X86927216Y-99276452D01*
X87034110Y-99383346D01*
X87034111Y-99383347D01*
X87214235Y-99563471D01*
X87363181Y-99712416D01*
X87396666Y-99773739D01*
X87399500Y-99800097D01*
X87399500Y-107084447D01*
X87399499Y-107084465D01*
X87399499Y-107250171D01*
X87399498Y-107250171D01*
X87439998Y-107401318D01*
X87440423Y-107402902D01*
X87467705Y-107450155D01*
X87519480Y-107539833D01*
X87519482Y-107539835D01*
X87524426Y-107546278D01*
X87522884Y-107547461D01*
X87551288Y-107599479D01*
X87546304Y-107669171D01*
X87504432Y-107725104D01*
X87438968Y-107749521D01*
X87385328Y-107741464D01*
X87352788Y-107728858D01*
X87143200Y-107689679D01*
X86929980Y-107689679D01*
X86720392Y-107728858D01*
X86720389Y-107728858D01*
X86720389Y-107728859D01*
X86521572Y-107805880D01*
X86521570Y-107805881D01*
X86340289Y-107918126D01*
X86182717Y-108061772D01*
X86054222Y-108231925D01*
X85959186Y-108422784D01*
X85959186Y-108422786D01*
X85900834Y-108627868D01*
X85888487Y-108761122D01*
X85881161Y-108840179D01*
X85900834Y-109052489D01*
X85943229Y-109201491D01*
X85959186Y-109257571D01*
X85959186Y-109257573D01*
X86054222Y-109448432D01*
X86054224Y-109448434D01*
X86182718Y-109618586D01*
X86340288Y-109762231D01*
X86521571Y-109874477D01*
X86720392Y-109951500D01*
X86929980Y-109990679D01*
X86929982Y-109990679D01*
X87143198Y-109990679D01*
X87143200Y-109990679D01*
X87242949Y-109972032D01*
X87312464Y-109979063D01*
X87353415Y-110006240D01*
X87827695Y-110480520D01*
X87827697Y-110480521D01*
X87827701Y-110480524D01*
X87964620Y-110559573D01*
X87964627Y-110559577D01*
X88117354Y-110600501D01*
X88117356Y-110600501D01*
X88283065Y-110600501D01*
X88283081Y-110600500D01*
X91913331Y-110600500D01*
X91913347Y-110600501D01*
X91920943Y-110600501D01*
X92079054Y-110600501D01*
X92079057Y-110600501D01*
X92231785Y-110559577D01*
X92281904Y-110530639D01*
X92368716Y-110480520D01*
X92480520Y-110368716D01*
X92480520Y-110368714D01*
X92490728Y-110358507D01*
X92490730Y-110358504D01*
X93858506Y-108990728D01*
X93858511Y-108990724D01*
X93868714Y-108980520D01*
X93868716Y-108980520D01*
X93980520Y-108868716D01*
X94059577Y-108731784D01*
X94100500Y-108579057D01*
X94100500Y-106920943D01*
X94059577Y-106768216D01*
X93986139Y-106641017D01*
X93969667Y-106573119D01*
X93992520Y-106507092D01*
X94028247Y-106473594D01*
X94191717Y-106372378D01*
X94349287Y-106228733D01*
X94477781Y-106058581D01*
X94516650Y-105980521D01*
X94572818Y-105867720D01*
X94572818Y-105867719D01*
X94572820Y-105867715D01*
X94631171Y-105662636D01*
X94650844Y-105450326D01*
X94642789Y-105363402D01*
X94630642Y-105232307D01*
X94632265Y-105232156D01*
X94638513Y-105170251D01*
X94665698Y-105129276D01*
X96868713Y-102926262D01*
X96868716Y-102926261D01*
X96980520Y-102814457D01*
X97030639Y-102727645D01*
X97059577Y-102677526D01*
X97100501Y-102524798D01*
X97100501Y-102366684D01*
X97100501Y-102359089D01*
X97100500Y-102359071D01*
X97100500Y-99671969D01*
X97899498Y-99671969D01*
X97940423Y-99824700D01*
X97960455Y-99859397D01*
X97965836Y-99868716D01*
X98017529Y-99958251D01*
X98019479Y-99961629D01*
X98019481Y-99961632D01*
X98138349Y-100080500D01*
X98138355Y-100080505D01*
X103187125Y-105129275D01*
X103220610Y-105190598D01*
X103221221Y-105232217D01*
X103222184Y-105232307D01*
X103201982Y-105450325D01*
X103201982Y-105450326D01*
X103221655Y-105662636D01*
X103280007Y-105867718D01*
X103280007Y-105867720D01*
X103375043Y-106058579D01*
X103408589Y-106103000D01*
X103503539Y-106228733D01*
X103661109Y-106372378D01*
X103842392Y-106484624D01*
X104041213Y-106561647D01*
X104250801Y-106600826D01*
X104250803Y-106600826D01*
X104464019Y-106600826D01*
X104464021Y-106600826D01*
X104673609Y-106561647D01*
X104872430Y-106484624D01*
X105053713Y-106372378D01*
X105211283Y-106228733D01*
X105339777Y-106058581D01*
X105378646Y-105980521D01*
X105434814Y-105867720D01*
X105434814Y-105867719D01*
X105434816Y-105867715D01*
X105493167Y-105662636D01*
X105512840Y-105450326D01*
X105493167Y-105238016D01*
X105434816Y-105032937D01*
X105434814Y-105032932D01*
X105434814Y-105032931D01*
X105339778Y-104842072D01*
X105211283Y-104671919D01*
X105191960Y-104654304D01*
X105053713Y-104528274D01*
X104872430Y-104416028D01*
X104872428Y-104416027D01*
X104750305Y-104368717D01*
X104673609Y-104339005D01*
X104464021Y-104299826D01*
X104250801Y-104299826D01*
X104204910Y-104308404D01*
X104151049Y-104318472D01*
X104081534Y-104311440D01*
X104040584Y-104284264D01*
X103955550Y-104199230D01*
X103922065Y-104137907D01*
X103927049Y-104068215D01*
X103968921Y-104012282D01*
X104034385Y-103987865D01*
X104043231Y-103987549D01*
X104146710Y-103987549D01*
X104146712Y-103987549D01*
X104356300Y-103948370D01*
X104555121Y-103871347D01*
X104736404Y-103759101D01*
X104893974Y-103615456D01*
X105022468Y-103445304D01*
X105026329Y-103437550D01*
X105117505Y-103254443D01*
X105117505Y-103254442D01*
X105117507Y-103254438D01*
X105175858Y-103049359D01*
X105195531Y-102837049D01*
X105175858Y-102624739D01*
X105117507Y-102419660D01*
X105117505Y-102419655D01*
X105117505Y-102419654D01*
X105022469Y-102228795D01*
X104893974Y-102058642D01*
X104870450Y-102037197D01*
X104736404Y-101914997D01*
X104555121Y-101802751D01*
X104555119Y-101802750D01*
X104422219Y-101751265D01*
X104356300Y-101725728D01*
X104146712Y-101686549D01*
X103933492Y-101686549D01*
X103887601Y-101695127D01*
X103833740Y-101705195D01*
X103764225Y-101698163D01*
X103723275Y-101670987D01*
X100136819Y-98084531D01*
X100103334Y-98023208D01*
X100100500Y-97996850D01*
X100100500Y-96651152D01*
X100120185Y-96584113D01*
X100172989Y-96538358D01*
X100242147Y-96528414D01*
X100305703Y-96557439D01*
X100312181Y-96563471D01*
X103803303Y-100054593D01*
X103836788Y-100115916D01*
X103837399Y-100157535D01*
X103838362Y-100157625D01*
X103818160Y-100375643D01*
X103818160Y-100375644D01*
X103837833Y-100587954D01*
X103896185Y-100793036D01*
X103896185Y-100793038D01*
X103991221Y-100983897D01*
X104100499Y-101128603D01*
X104119717Y-101154051D01*
X104277287Y-101297696D01*
X104458570Y-101409942D01*
X104657391Y-101486965D01*
X104866979Y-101526144D01*
X104866981Y-101526144D01*
X105080197Y-101526144D01*
X105080199Y-101526144D01*
X105289787Y-101486965D01*
X105488608Y-101409942D01*
X105669891Y-101297696D01*
X105691960Y-101277576D01*
X105754763Y-101246958D01*
X105824151Y-101255154D01*
X105878092Y-101299563D01*
X105899461Y-101366085D01*
X105899500Y-101369212D01*
X105899500Y-106342309D01*
X105879815Y-106409348D01*
X105827011Y-106455103D01*
X105775500Y-106466309D01*
X105746216Y-106466309D01*
X105536628Y-106505488D01*
X105536625Y-106505488D01*
X105536625Y-106505489D01*
X105337808Y-106582510D01*
X105337806Y-106582511D01*
X105156525Y-106694756D01*
X104998953Y-106838402D01*
X104870458Y-107008555D01*
X104775422Y-107199414D01*
X104775422Y-107199416D01*
X104717070Y-107404498D01*
X104697397Y-107616808D01*
X104697397Y-107616809D01*
X104717070Y-107829119D01*
X104775422Y-108034201D01*
X104775422Y-108034203D01*
X104870458Y-108225062D01*
X104998953Y-108395215D01*
X104998954Y-108395216D01*
X105156524Y-108538861D01*
X105337807Y-108651107D01*
X105536628Y-108728130D01*
X105746216Y-108767309D01*
X105746218Y-108767309D01*
X105959434Y-108767309D01*
X105959436Y-108767309D01*
X106169024Y-108728130D01*
X106367845Y-108651107D01*
X106549128Y-108538861D01*
X106706698Y-108395216D01*
X106835192Y-108225064D01*
X106930231Y-108034198D01*
X106988582Y-107829119D01*
X107008255Y-107616809D01*
X106988582Y-107404499D01*
X106987676Y-107401314D01*
X106987689Y-107399724D01*
X106987529Y-107398867D01*
X106987696Y-107398835D01*
X106988262Y-107331451D01*
X106999555Y-107305381D01*
X107050402Y-107217311D01*
X107050403Y-107217309D01*
X107059577Y-107201420D01*
X107100500Y-107048693D01*
X107100500Y-106890578D01*
X107100500Y-100089060D01*
X107100501Y-100089047D01*
X107100501Y-99920944D01*
X107096948Y-99907685D01*
X107098611Y-99837835D01*
X107137773Y-99779973D01*
X107193934Y-99753703D01*
X107252719Y-99742715D01*
X107322231Y-99749747D01*
X107376909Y-99793244D01*
X107399391Y-99859398D01*
X107399500Y-99864604D01*
X107399500Y-103913330D01*
X107399499Y-103913348D01*
X107399499Y-104079054D01*
X107399498Y-104079054D01*
X107440423Y-104231785D01*
X107441746Y-104234075D01*
X107441757Y-104234095D01*
X107519477Y-104368712D01*
X107519481Y-104368717D01*
X107638349Y-104487585D01*
X107638355Y-104487590D01*
X110179417Y-107028652D01*
X110212902Y-107089975D01*
X110215736Y-107116333D01*
X110215736Y-107789741D01*
X110196051Y-107856780D01*
X110157014Y-107895167D01*
X110140160Y-107905603D01*
X110119935Y-107918126D01*
X109962363Y-108061772D01*
X109833868Y-108231925D01*
X109738832Y-108422784D01*
X109738832Y-108422786D01*
X109680480Y-108627868D01*
X109660807Y-108840178D01*
X109660807Y-108840179D01*
X109680480Y-109052489D01*
X109722875Y-109201491D01*
X109722289Y-109271359D01*
X109684022Y-109329818D01*
X109620225Y-109358308D01*
X109551152Y-109347784D01*
X109515928Y-109323107D01*
X109354050Y-109161229D01*
X109320565Y-109099906D01*
X109319954Y-109058287D01*
X109318991Y-109058198D01*
X109339193Y-108840179D01*
X109339193Y-108840178D01*
X109334265Y-108786994D01*
X109319520Y-108627869D01*
X109261169Y-108422790D01*
X109261167Y-108422785D01*
X109261167Y-108422784D01*
X109166131Y-108231925D01*
X109037636Y-108061772D01*
X109007389Y-108034198D01*
X108880066Y-107918127D01*
X108698783Y-107805881D01*
X108698781Y-107805880D01*
X108532502Y-107741464D01*
X108499962Y-107728858D01*
X108290374Y-107689679D01*
X108077154Y-107689679D01*
X107867566Y-107728858D01*
X107867563Y-107728858D01*
X107867563Y-107728859D01*
X107668746Y-107805880D01*
X107668744Y-107805881D01*
X107487463Y-107918126D01*
X107329891Y-108061772D01*
X107201396Y-108231925D01*
X107106360Y-108422784D01*
X107106360Y-108422786D01*
X107048008Y-108627868D01*
X107035661Y-108761122D01*
X107028335Y-108840179D01*
X107048008Y-109052489D01*
X107090403Y-109201491D01*
X107106360Y-109257571D01*
X107106360Y-109257573D01*
X107201396Y-109448432D01*
X107201398Y-109448434D01*
X107329892Y-109618586D01*
X107487462Y-109762231D01*
X107668745Y-109874477D01*
X107867566Y-109951500D01*
X108077154Y-109990679D01*
X108077156Y-109990679D01*
X108290372Y-109990679D01*
X108290374Y-109990679D01*
X108390123Y-109972032D01*
X108459638Y-109979063D01*
X108500589Y-110006240D01*
X108974869Y-110480520D01*
X108974871Y-110480521D01*
X108974875Y-110480524D01*
X109111794Y-110559573D01*
X109111801Y-110559577D01*
X109264528Y-110600501D01*
X109264530Y-110600501D01*
X109430239Y-110600501D01*
X109430255Y-110600500D01*
X112913331Y-110600500D01*
X112913347Y-110600501D01*
X112920943Y-110600501D01*
X113079054Y-110600501D01*
X113079057Y-110600501D01*
X113231785Y-110559577D01*
X113281904Y-110530639D01*
X113368716Y-110480520D01*
X113480520Y-110368716D01*
X113480520Y-110368714D01*
X113490728Y-110358507D01*
X113490730Y-110358504D01*
X114858506Y-108990728D01*
X114858511Y-108990724D01*
X114868714Y-108980520D01*
X114868716Y-108980520D01*
X114980520Y-108868716D01*
X115059577Y-108731784D01*
X115100500Y-108579057D01*
X115100500Y-106920943D01*
X115059577Y-106768216D01*
X115016058Y-106692838D01*
X114999585Y-106624937D01*
X115022438Y-106558911D01*
X115077359Y-106515720D01*
X115078579Y-106515239D01*
X115157608Y-106484624D01*
X115338891Y-106372378D01*
X115496461Y-106228733D01*
X115624955Y-106058581D01*
X115663824Y-105980521D01*
X115719992Y-105867720D01*
X115719992Y-105867719D01*
X115719994Y-105867715D01*
X115778345Y-105662636D01*
X115798018Y-105450326D01*
X115789963Y-105363402D01*
X115777816Y-105232307D01*
X115779439Y-105232156D01*
X115785687Y-105170251D01*
X115812872Y-105129276D01*
X117858506Y-103083643D01*
X117858511Y-103083639D01*
X117868714Y-103073435D01*
X117868716Y-103073435D01*
X117980520Y-102961631D01*
X118059577Y-102824699D01*
X118100500Y-102671972D01*
X118100500Y-98171969D01*
X120399498Y-98171969D01*
X120440423Y-98324700D01*
X120465833Y-98368712D01*
X120465836Y-98368716D01*
X120511237Y-98447354D01*
X120519479Y-98461629D01*
X120519481Y-98461632D01*
X120638349Y-98580500D01*
X120638355Y-98580505D01*
X127187125Y-105129275D01*
X127220610Y-105190598D01*
X127221221Y-105232217D01*
X127222184Y-105232307D01*
X127201982Y-105450325D01*
X127201982Y-105450326D01*
X127221655Y-105662636D01*
X127280007Y-105867718D01*
X127280007Y-105867720D01*
X127375043Y-106058579D01*
X127408589Y-106103000D01*
X127503539Y-106228733D01*
X127661109Y-106372378D01*
X127842392Y-106484624D01*
X128041213Y-106561647D01*
X128250801Y-106600826D01*
X128250803Y-106600826D01*
X128464019Y-106600826D01*
X128464021Y-106600826D01*
X128673609Y-106561647D01*
X128872430Y-106484624D01*
X129053713Y-106372378D01*
X129211283Y-106228733D01*
X129339777Y-106058581D01*
X129378646Y-105980521D01*
X129434814Y-105867720D01*
X129434814Y-105867719D01*
X129434816Y-105867715D01*
X129493167Y-105662636D01*
X129512840Y-105450326D01*
X129493167Y-105238016D01*
X129434816Y-105032937D01*
X129434814Y-105032932D01*
X129434814Y-105032931D01*
X129339778Y-104842072D01*
X129211283Y-104671919D01*
X129191960Y-104654304D01*
X129053713Y-104528274D01*
X128872430Y-104416028D01*
X128872428Y-104416027D01*
X128750305Y-104368717D01*
X128673609Y-104339005D01*
X128464021Y-104299826D01*
X128250801Y-104299826D01*
X128204910Y-104308404D01*
X128151049Y-104318472D01*
X128081534Y-104311440D01*
X128040584Y-104284264D01*
X127955550Y-104199230D01*
X127922065Y-104137907D01*
X127927049Y-104068215D01*
X127968921Y-104012282D01*
X128034385Y-103987865D01*
X128043231Y-103987549D01*
X128146710Y-103987549D01*
X128146712Y-103987549D01*
X128356300Y-103948370D01*
X128555121Y-103871347D01*
X128736404Y-103759101D01*
X128893974Y-103615456D01*
X129022468Y-103445304D01*
X129026329Y-103437550D01*
X129117505Y-103254443D01*
X129117505Y-103254442D01*
X129117507Y-103254438D01*
X129175858Y-103049359D01*
X129195531Y-102837049D01*
X129175858Y-102624739D01*
X129117507Y-102419660D01*
X129117505Y-102419655D01*
X129117505Y-102419654D01*
X129022469Y-102228795D01*
X128893974Y-102058642D01*
X128870450Y-102037197D01*
X128736404Y-101914997D01*
X128555121Y-101802751D01*
X128555119Y-101802750D01*
X128422219Y-101751265D01*
X128356300Y-101725728D01*
X128146712Y-101686549D01*
X127933492Y-101686549D01*
X127887601Y-101695127D01*
X127833740Y-101705195D01*
X127764225Y-101698163D01*
X127723275Y-101670987D01*
X122636819Y-96584531D01*
X122603334Y-96523208D01*
X122600500Y-96496850D01*
X122600500Y-95151152D01*
X122620185Y-95084113D01*
X122672989Y-95038358D01*
X122742147Y-95028414D01*
X122805703Y-95057439D01*
X122812180Y-95063470D01*
X125321336Y-97572627D01*
X127803302Y-100054593D01*
X127836787Y-100115916D01*
X127837404Y-100157537D01*
X127838362Y-100157626D01*
X127818160Y-100375643D01*
X127818160Y-100375644D01*
X127837833Y-100587954D01*
X127896185Y-100793036D01*
X127896185Y-100793038D01*
X127991221Y-100983897D01*
X128100499Y-101128603D01*
X128119717Y-101154051D01*
X128277287Y-101297696D01*
X128458570Y-101409942D01*
X128657391Y-101486965D01*
X128866979Y-101526144D01*
X128866981Y-101526144D01*
X129080197Y-101526144D01*
X129080199Y-101526144D01*
X129289787Y-101486965D01*
X129488608Y-101409942D01*
X129669891Y-101297696D01*
X129691960Y-101277576D01*
X129754763Y-101246958D01*
X129824151Y-101255154D01*
X129878092Y-101299563D01*
X129899461Y-101366085D01*
X129899500Y-101369212D01*
X129899500Y-106342309D01*
X129879815Y-106409348D01*
X129827011Y-106455103D01*
X129775500Y-106466309D01*
X129746216Y-106466309D01*
X129536628Y-106505488D01*
X129536625Y-106505488D01*
X129536625Y-106505489D01*
X129337808Y-106582510D01*
X129337806Y-106582511D01*
X129156525Y-106694756D01*
X128998953Y-106838402D01*
X128870458Y-107008555D01*
X128775422Y-107199414D01*
X128775422Y-107199416D01*
X128717070Y-107404498D01*
X128697397Y-107616808D01*
X128697397Y-107616809D01*
X128717070Y-107829119D01*
X128775422Y-108034201D01*
X128775422Y-108034203D01*
X128870458Y-108225062D01*
X128998953Y-108395215D01*
X128998954Y-108395216D01*
X129156524Y-108538861D01*
X129337807Y-108651107D01*
X129536628Y-108728130D01*
X129746216Y-108767309D01*
X129746218Y-108767309D01*
X129959434Y-108767309D01*
X129959436Y-108767309D01*
X130169024Y-108728130D01*
X130367845Y-108651107D01*
X130549128Y-108538861D01*
X130706698Y-108395216D01*
X130835192Y-108225064D01*
X130930231Y-108034198D01*
X130988582Y-107829119D01*
X131008255Y-107616809D01*
X130988582Y-107404499D01*
X130988581Y-107404496D01*
X130988249Y-107400910D01*
X131001664Y-107332341D01*
X131004319Y-107327494D01*
X131059577Y-107231784D01*
X131100501Y-107079057D01*
X131100501Y-106920942D01*
X131100501Y-106913347D01*
X131100500Y-106913329D01*
X131100500Y-100089060D01*
X131100501Y-100089047D01*
X131100501Y-99920944D01*
X131096948Y-99907685D01*
X131098611Y-99837835D01*
X131137773Y-99779973D01*
X131193934Y-99753703D01*
X131252719Y-99742715D01*
X131322231Y-99749747D01*
X131376909Y-99793244D01*
X131399391Y-99859398D01*
X131399500Y-99864604D01*
X131399500Y-105937273D01*
X131399499Y-105937291D01*
X131399499Y-106102997D01*
X131399498Y-106102997D01*
X131440424Y-106255731D01*
X131440962Y-106256662D01*
X131440985Y-106256701D01*
X131519477Y-106392655D01*
X131519481Y-106392660D01*
X131638349Y-106511528D01*
X131638355Y-106511533D01*
X132664978Y-107538156D01*
X132698463Y-107599479D01*
X132693479Y-107669171D01*
X132651607Y-107725104D01*
X132586143Y-107749521D01*
X132532504Y-107741464D01*
X132499967Y-107728859D01*
X132499962Y-107728858D01*
X132290374Y-107689679D01*
X132077154Y-107689679D01*
X131867566Y-107728858D01*
X131867563Y-107728858D01*
X131867563Y-107728859D01*
X131668746Y-107805880D01*
X131668744Y-107805881D01*
X131487463Y-107918126D01*
X131329891Y-108061772D01*
X131201396Y-108231925D01*
X131106360Y-108422784D01*
X131106360Y-108422786D01*
X131048008Y-108627868D01*
X131035661Y-108761122D01*
X131028335Y-108840179D01*
X131048008Y-109052489D01*
X131090403Y-109201491D01*
X131106360Y-109257571D01*
X131106360Y-109257573D01*
X131201396Y-109448432D01*
X131201398Y-109448434D01*
X131329892Y-109618586D01*
X131487462Y-109762231D01*
X131668745Y-109874477D01*
X131867566Y-109951500D01*
X132077154Y-109990679D01*
X132077156Y-109990679D01*
X132290372Y-109990679D01*
X132290374Y-109990679D01*
X132390123Y-109972032D01*
X132459638Y-109979063D01*
X132500589Y-110006240D01*
X132974869Y-110480520D01*
X132974871Y-110480521D01*
X132974875Y-110480524D01*
X133111794Y-110559573D01*
X133111801Y-110559577D01*
X133264528Y-110600501D01*
X133264530Y-110600501D01*
X133430239Y-110600501D01*
X133430255Y-110600500D01*
X136913331Y-110600500D01*
X136913347Y-110600501D01*
X136920943Y-110600501D01*
X137079054Y-110600501D01*
X137079057Y-110600501D01*
X137231785Y-110559577D01*
X137281904Y-110530639D01*
X137368716Y-110480520D01*
X137480520Y-110368716D01*
X137480520Y-110368714D01*
X137490728Y-110358507D01*
X137490730Y-110358504D01*
X138858506Y-108990728D01*
X138858511Y-108990724D01*
X138868714Y-108980520D01*
X138868716Y-108980520D01*
X138980520Y-108868716D01*
X139059577Y-108731784D01*
X139100500Y-108579057D01*
X139100500Y-106920943D01*
X139059577Y-106768216D01*
X139016058Y-106692838D01*
X138999585Y-106624937D01*
X139022438Y-106558911D01*
X139077359Y-106515720D01*
X139078579Y-106515239D01*
X139157608Y-106484624D01*
X139338891Y-106372378D01*
X139496461Y-106228733D01*
X139624955Y-106058581D01*
X139663824Y-105980521D01*
X139719992Y-105867720D01*
X139719992Y-105867719D01*
X139719994Y-105867715D01*
X139778345Y-105662636D01*
X139798018Y-105450326D01*
X139789963Y-105363402D01*
X139777816Y-105232307D01*
X139779439Y-105232156D01*
X139785687Y-105170251D01*
X139812872Y-105129276D01*
X141858506Y-103083643D01*
X141858511Y-103083639D01*
X141868714Y-103073435D01*
X141868716Y-103073435D01*
X141980520Y-102961631D01*
X142059577Y-102824699D01*
X142100500Y-102671972D01*
X142100500Y-102671969D01*
X145899498Y-102671969D01*
X145899499Y-102671971D01*
X145899499Y-102671972D01*
X145940423Y-102824700D01*
X145940424Y-102824702D01*
X145940423Y-102824702D01*
X145947553Y-102837050D01*
X145947554Y-102837051D01*
X146019477Y-102961627D01*
X146019481Y-102961632D01*
X146138349Y-103080500D01*
X146138355Y-103080505D01*
X148187125Y-105129275D01*
X148220610Y-105190598D01*
X148221221Y-105232217D01*
X148222184Y-105232307D01*
X148201982Y-105450325D01*
X148201982Y-105450326D01*
X148221655Y-105662636D01*
X148280007Y-105867718D01*
X148280007Y-105867720D01*
X148375043Y-106058579D01*
X148408589Y-106103000D01*
X148503539Y-106228733D01*
X148661109Y-106372378D01*
X148842392Y-106484624D01*
X149041213Y-106561647D01*
X149250801Y-106600826D01*
X149250803Y-106600826D01*
X149464019Y-106600826D01*
X149464021Y-106600826D01*
X149673609Y-106561647D01*
X149872430Y-106484624D01*
X150053713Y-106372378D01*
X150053713Y-106372377D01*
X150058587Y-106369360D01*
X150059199Y-106370348D01*
X150118957Y-106347772D01*
X150187292Y-106362335D01*
X150236906Y-106411531D01*
X150252326Y-106471418D01*
X150252326Y-106566371D01*
X150232641Y-106633410D01*
X150193604Y-106671797D01*
X150176750Y-106682233D01*
X150156525Y-106694756D01*
X149998953Y-106838402D01*
X149870458Y-107008555D01*
X149775422Y-107199414D01*
X149775422Y-107199416D01*
X149717070Y-107404498D01*
X149697397Y-107616808D01*
X149697397Y-107616809D01*
X149717070Y-107829119D01*
X149775422Y-108034201D01*
X149775422Y-108034203D01*
X149870458Y-108225062D01*
X149998953Y-108395215D01*
X149998954Y-108395216D01*
X150156524Y-108538861D01*
X150337807Y-108651107D01*
X150536628Y-108728130D01*
X150746216Y-108767309D01*
X150746218Y-108767309D01*
X150959434Y-108767309D01*
X150959436Y-108767309D01*
X151169024Y-108728130D01*
X151367845Y-108651107D01*
X151549128Y-108538861D01*
X151706698Y-108395216D01*
X151835192Y-108225064D01*
X151930231Y-108034198D01*
X151988582Y-107829119D01*
X152008255Y-107616809D01*
X151988582Y-107404499D01*
X151930231Y-107199420D01*
X151930229Y-107199415D01*
X151930229Y-107199414D01*
X151835193Y-107008555D01*
X151706698Y-106838402D01*
X151629708Y-106768216D01*
X151549128Y-106694757D01*
X151512047Y-106671797D01*
X151465413Y-106619770D01*
X151453326Y-106566371D01*
X151453326Y-101446247D01*
X151473011Y-101379208D01*
X151478956Y-101370753D01*
X151480511Y-101368724D01*
X151480520Y-101368716D01*
X151559577Y-101231784D01*
X151591567Y-101112396D01*
X151600500Y-101079058D01*
X151600500Y-100920943D01*
X151600500Y-100920942D01*
X151600500Y-99885532D01*
X151620185Y-99818493D01*
X151672989Y-99772738D01*
X151742147Y-99762794D01*
X151747274Y-99763642D01*
X151837413Y-99780492D01*
X151837414Y-99780492D01*
X152050631Y-99780492D01*
X152050633Y-99780492D01*
X152252718Y-99742715D01*
X152322230Y-99749746D01*
X152376908Y-99793243D01*
X152399391Y-99859397D01*
X152399500Y-99864604D01*
X152399500Y-105937273D01*
X152399499Y-105937291D01*
X152399499Y-106102997D01*
X152399498Y-106102997D01*
X152440424Y-106255731D01*
X152440962Y-106256662D01*
X152440985Y-106256701D01*
X152519477Y-106392655D01*
X152519481Y-106392660D01*
X152638349Y-106511528D01*
X152638355Y-106511533D01*
X153664978Y-107538156D01*
X153698463Y-107599479D01*
X153693479Y-107669171D01*
X153651607Y-107725104D01*
X153586143Y-107749521D01*
X153532504Y-107741464D01*
X153499967Y-107728859D01*
X153499962Y-107728858D01*
X153290374Y-107689679D01*
X153077154Y-107689679D01*
X152867566Y-107728858D01*
X152867563Y-107728858D01*
X152867563Y-107728859D01*
X152668746Y-107805880D01*
X152668744Y-107805881D01*
X152487463Y-107918126D01*
X152329891Y-108061772D01*
X152201396Y-108231925D01*
X152106360Y-108422784D01*
X152106360Y-108422786D01*
X152048008Y-108627868D01*
X152035661Y-108761122D01*
X152028335Y-108840179D01*
X152048008Y-109052489D01*
X152090403Y-109201491D01*
X152106360Y-109257571D01*
X152106360Y-109257573D01*
X152201396Y-109448432D01*
X152201398Y-109448434D01*
X152329892Y-109618586D01*
X152487462Y-109762231D01*
X152668745Y-109874477D01*
X152867566Y-109951500D01*
X153077154Y-109990679D01*
X153077156Y-109990679D01*
X153290372Y-109990679D01*
X153290374Y-109990679D01*
X153390123Y-109972032D01*
X153459638Y-109979063D01*
X153500589Y-110006240D01*
X153974869Y-110480520D01*
X153974871Y-110480521D01*
X153974875Y-110480524D01*
X154111794Y-110559573D01*
X154111801Y-110559577D01*
X154264528Y-110600501D01*
X154264530Y-110600501D01*
X154430239Y-110600501D01*
X154430255Y-110600500D01*
X157913331Y-110600500D01*
X157913347Y-110600501D01*
X157920943Y-110600501D01*
X158079054Y-110600501D01*
X158079057Y-110600501D01*
X158231785Y-110559577D01*
X158281904Y-110530639D01*
X158368716Y-110480520D01*
X158480520Y-110368716D01*
X158480520Y-110368714D01*
X158490728Y-110358507D01*
X158490730Y-110358504D01*
X159858506Y-108990728D01*
X159858511Y-108990724D01*
X159868714Y-108980520D01*
X159868716Y-108980520D01*
X159980520Y-108868716D01*
X160059577Y-108731784D01*
X160100500Y-108579057D01*
X160100500Y-106920943D01*
X160059577Y-106768216D01*
X160016058Y-106692838D01*
X159999585Y-106624937D01*
X160022438Y-106558911D01*
X160077359Y-106515720D01*
X160078579Y-106515239D01*
X160157608Y-106484624D01*
X160338891Y-106372378D01*
X160496461Y-106228733D01*
X160624955Y-106058581D01*
X160663824Y-105980521D01*
X160719992Y-105867720D01*
X160719992Y-105867719D01*
X160719994Y-105867715D01*
X160778345Y-105662636D01*
X160798018Y-105450326D01*
X160789963Y-105363402D01*
X160777816Y-105232307D01*
X160779439Y-105232156D01*
X160785687Y-105170251D01*
X160812872Y-105129276D01*
X163858506Y-102083643D01*
X163858511Y-102083639D01*
X163868714Y-102073435D01*
X163868716Y-102073435D01*
X163980520Y-101961631D01*
X164047718Y-101845240D01*
X164059577Y-101824700D01*
X164100501Y-101671972D01*
X164100501Y-101513858D01*
X164100501Y-101506263D01*
X164100500Y-101506245D01*
X164100500Y-98079054D01*
X165399498Y-98079054D01*
X165440423Y-98231785D01*
X165451409Y-98250813D01*
X165519477Y-98368712D01*
X165519480Y-98368716D01*
X165638349Y-98487585D01*
X165638355Y-98487590D01*
X170863181Y-103712416D01*
X170896666Y-103773739D01*
X170899500Y-103800097D01*
X170899500Y-104413330D01*
X170899499Y-104413348D01*
X170899499Y-104579054D01*
X170899498Y-104579054D01*
X170940423Y-104731785D01*
X170969358Y-104781900D01*
X170969359Y-104781904D01*
X170969360Y-104781904D01*
X171019479Y-104868714D01*
X171019481Y-104868717D01*
X171138349Y-104987585D01*
X171138355Y-104987590D01*
X171965465Y-105814700D01*
X171965475Y-105814711D01*
X171969805Y-105819041D01*
X171969806Y-105819042D01*
X172081610Y-105930846D01*
X172167649Y-105980520D01*
X172218541Y-106009903D01*
X172327490Y-106039096D01*
X172387149Y-106075460D01*
X172394345Y-106084138D01*
X172503539Y-106228733D01*
X172661109Y-106372378D01*
X172842392Y-106484624D01*
X173041213Y-106561647D01*
X173250801Y-106600826D01*
X173250803Y-106600826D01*
X173464019Y-106600826D01*
X173464021Y-106600826D01*
X173673609Y-106561647D01*
X173872430Y-106484624D01*
X174053713Y-106372378D01*
X174053713Y-106372377D01*
X174058587Y-106369360D01*
X174059199Y-106370348D01*
X174118957Y-106347772D01*
X174187292Y-106362335D01*
X174236906Y-106411531D01*
X174252326Y-106471418D01*
X174252326Y-106566371D01*
X174232641Y-106633410D01*
X174193604Y-106671797D01*
X174176750Y-106682233D01*
X174156525Y-106694756D01*
X173998953Y-106838402D01*
X173870458Y-107008555D01*
X173775422Y-107199414D01*
X173775422Y-107199416D01*
X173717070Y-107404498D01*
X173697397Y-107616808D01*
X173697397Y-107616809D01*
X173717070Y-107829119D01*
X173775422Y-108034201D01*
X173775422Y-108034203D01*
X173870458Y-108225062D01*
X173998953Y-108395215D01*
X173998954Y-108395216D01*
X174156524Y-108538861D01*
X174337807Y-108651107D01*
X174536628Y-108728130D01*
X174746216Y-108767309D01*
X174746218Y-108767309D01*
X174959434Y-108767309D01*
X174959436Y-108767309D01*
X175169024Y-108728130D01*
X175367845Y-108651107D01*
X175549128Y-108538861D01*
X175706698Y-108395216D01*
X175835192Y-108225064D01*
X175930231Y-108034198D01*
X175988582Y-107829119D01*
X176008255Y-107616809D01*
X175988582Y-107404499D01*
X175930231Y-107199420D01*
X175930229Y-107199415D01*
X175930229Y-107199414D01*
X175835193Y-107008555D01*
X175706698Y-106838402D01*
X175629708Y-106768216D01*
X175549128Y-106694757D01*
X175512047Y-106671797D01*
X175465413Y-106619770D01*
X175453326Y-106566371D01*
X175453326Y-101946247D01*
X175473011Y-101879208D01*
X175478956Y-101870753D01*
X175480511Y-101868724D01*
X175480520Y-101868716D01*
X175559577Y-101731784D01*
X175589534Y-101619981D01*
X175600500Y-101579058D01*
X175600500Y-101420943D01*
X175600500Y-99885532D01*
X175620185Y-99818493D01*
X175672989Y-99772738D01*
X175742147Y-99762794D01*
X175747274Y-99763642D01*
X175837413Y-99780492D01*
X175837414Y-99780492D01*
X176050631Y-99780492D01*
X176050633Y-99780492D01*
X176252718Y-99742715D01*
X176322230Y-99749746D01*
X176376908Y-99793243D01*
X176399391Y-99859397D01*
X176399500Y-99864604D01*
X176399500Y-105937273D01*
X176399499Y-105937291D01*
X176399499Y-106102997D01*
X176399498Y-106102997D01*
X176440424Y-106255731D01*
X176440962Y-106256662D01*
X176440985Y-106256701D01*
X176519477Y-106392655D01*
X176519481Y-106392660D01*
X176638349Y-106511528D01*
X176638355Y-106511533D01*
X177664978Y-107538156D01*
X177698463Y-107599479D01*
X177693479Y-107669171D01*
X177651607Y-107725104D01*
X177586143Y-107749521D01*
X177532504Y-107741464D01*
X177499967Y-107728859D01*
X177499962Y-107728858D01*
X177290374Y-107689679D01*
X177077154Y-107689679D01*
X176867566Y-107728858D01*
X176867563Y-107728858D01*
X176867563Y-107728859D01*
X176668746Y-107805880D01*
X176668744Y-107805881D01*
X176487463Y-107918126D01*
X176329891Y-108061772D01*
X176201396Y-108231925D01*
X176106360Y-108422784D01*
X176106360Y-108422786D01*
X176048008Y-108627868D01*
X176035661Y-108761122D01*
X176028335Y-108840179D01*
X176048008Y-109052489D01*
X176090403Y-109201491D01*
X176106360Y-109257571D01*
X176106360Y-109257573D01*
X176201396Y-109448432D01*
X176201398Y-109448434D01*
X176329892Y-109618586D01*
X176487462Y-109762231D01*
X176668745Y-109874477D01*
X176867566Y-109951500D01*
X177077154Y-109990679D01*
X177077156Y-109990679D01*
X177290372Y-109990679D01*
X177290374Y-109990679D01*
X177390123Y-109972032D01*
X177459638Y-109979063D01*
X177500589Y-110006240D01*
X177974869Y-110480520D01*
X177974871Y-110480521D01*
X177974875Y-110480524D01*
X178111794Y-110559573D01*
X178111801Y-110559577D01*
X178264528Y-110600501D01*
X178264530Y-110600501D01*
X178430239Y-110600501D01*
X178430255Y-110600500D01*
X181913331Y-110600500D01*
X181913347Y-110600501D01*
X181920943Y-110600501D01*
X182079054Y-110600501D01*
X182079057Y-110600501D01*
X182231785Y-110559577D01*
X182281904Y-110530639D01*
X182368716Y-110480520D01*
X182480520Y-110368716D01*
X182480520Y-110368714D01*
X182490728Y-110358507D01*
X182490730Y-110358504D01*
X183858506Y-108990728D01*
X183858511Y-108990724D01*
X183868714Y-108980520D01*
X183868716Y-108980520D01*
X183980520Y-108868716D01*
X183996996Y-108840179D01*
X197028335Y-108840179D01*
X197048008Y-109052489D01*
X197090403Y-109201491D01*
X197106360Y-109257571D01*
X197106360Y-109257573D01*
X197201396Y-109448432D01*
X197201398Y-109448434D01*
X197329892Y-109618586D01*
X197487462Y-109762231D01*
X197668745Y-109874477D01*
X197867566Y-109951500D01*
X198077154Y-109990679D01*
X198077156Y-109990679D01*
X198290372Y-109990679D01*
X198290374Y-109990679D01*
X198499962Y-109951500D01*
X198698783Y-109874477D01*
X198880066Y-109762231D01*
X199037636Y-109618586D01*
X199166130Y-109448434D01*
X199169991Y-109440680D01*
X199261167Y-109257573D01*
X199261167Y-109257572D01*
X199261169Y-109257568D01*
X199319520Y-109052489D01*
X199339193Y-108840179D01*
X199319520Y-108627869D01*
X199261169Y-108422790D01*
X199261167Y-108422785D01*
X199261167Y-108422784D01*
X199166131Y-108231925D01*
X199037636Y-108061772D01*
X199007389Y-108034198D01*
X198880066Y-107918127D01*
X198698783Y-107805881D01*
X198698781Y-107805880D01*
X198532502Y-107741464D01*
X198499962Y-107728858D01*
X198290374Y-107689679D01*
X198077154Y-107689679D01*
X197867566Y-107728858D01*
X197867563Y-107728858D01*
X197867563Y-107728859D01*
X197668746Y-107805880D01*
X197668744Y-107805881D01*
X197487463Y-107918126D01*
X197329891Y-108061772D01*
X197201396Y-108231925D01*
X197106360Y-108422784D01*
X197106360Y-108422786D01*
X197048008Y-108627868D01*
X197035661Y-108761122D01*
X197028335Y-108840179D01*
X183996996Y-108840179D01*
X184059577Y-108731784D01*
X184100500Y-108579057D01*
X184100500Y-107616808D01*
X194697397Y-107616808D01*
X194697397Y-107616809D01*
X194717070Y-107829119D01*
X194775422Y-108034201D01*
X194775422Y-108034203D01*
X194870458Y-108225062D01*
X194998953Y-108395215D01*
X194998954Y-108395216D01*
X195156524Y-108538861D01*
X195337807Y-108651107D01*
X195536628Y-108728130D01*
X195746216Y-108767309D01*
X195746218Y-108767309D01*
X195959434Y-108767309D01*
X195959436Y-108767309D01*
X196169024Y-108728130D01*
X196367845Y-108651107D01*
X196549128Y-108538861D01*
X196706698Y-108395216D01*
X196835192Y-108225064D01*
X196930231Y-108034198D01*
X196988582Y-107829119D01*
X197008255Y-107616809D01*
X196988582Y-107404499D01*
X196930231Y-107199420D01*
X196930229Y-107199415D01*
X196930229Y-107199414D01*
X196835193Y-107008555D01*
X196706698Y-106838402D01*
X196629708Y-106768216D01*
X196549128Y-106694757D01*
X196367845Y-106582511D01*
X196367843Y-106582510D01*
X196242437Y-106533928D01*
X196169024Y-106505488D01*
X195959436Y-106466309D01*
X195746216Y-106466309D01*
X195536628Y-106505488D01*
X195536625Y-106505488D01*
X195536625Y-106505489D01*
X195337808Y-106582510D01*
X195337806Y-106582511D01*
X195156525Y-106694756D01*
X194998953Y-106838402D01*
X194870458Y-107008555D01*
X194775422Y-107199414D01*
X194775422Y-107199416D01*
X194717070Y-107404498D01*
X194697397Y-107616808D01*
X184100500Y-107616808D01*
X184100500Y-106920943D01*
X184059577Y-106768216D01*
X184016058Y-106692838D01*
X183999585Y-106624937D01*
X184022438Y-106558911D01*
X184077359Y-106515720D01*
X184078579Y-106515239D01*
X184157608Y-106484624D01*
X184338891Y-106372378D01*
X184496461Y-106228733D01*
X184624955Y-106058581D01*
X184663824Y-105980521D01*
X184719992Y-105867720D01*
X184719992Y-105867719D01*
X184719994Y-105867715D01*
X184778345Y-105662636D01*
X184798018Y-105450326D01*
X184789963Y-105363402D01*
X184777816Y-105232307D01*
X184779439Y-105232156D01*
X184785687Y-105170251D01*
X184812872Y-105129276D01*
X186858506Y-103083643D01*
X186858511Y-103083639D01*
X186868714Y-103073435D01*
X186868716Y-103073435D01*
X186980520Y-102961631D01*
X187059577Y-102824699D01*
X187100500Y-102671972D01*
X187100500Y-97420943D01*
X187067416Y-97297471D01*
X187059577Y-97268215D01*
X187019904Y-97199500D01*
X186999153Y-97163558D01*
X186980521Y-97131285D01*
X186864385Y-97015149D01*
X186864374Y-97015139D01*
X180849234Y-90999999D01*
X182319464Y-90999999D01*
X182319464Y-91000000D01*
X182339564Y-91216918D01*
X182339564Y-91216920D01*
X182339565Y-91216923D01*
X182394765Y-91410932D01*
X182399184Y-91426462D01*
X182475168Y-91579057D01*
X182496288Y-91621472D01*
X182627573Y-91795322D01*
X182788568Y-91942088D01*
X182788575Y-91942092D01*
X182788576Y-91942093D01*
X182973786Y-92056770D01*
X182973792Y-92056773D01*
X182992610Y-92064063D01*
X183176931Y-92135470D01*
X183391074Y-92175500D01*
X183391076Y-92175500D01*
X183608924Y-92175500D01*
X183608926Y-92175500D01*
X183823069Y-92135470D01*
X184026210Y-92056772D01*
X184211432Y-91942088D01*
X184372427Y-91795322D01*
X184401359Y-91757009D01*
X184457465Y-91715373D01*
X184527177Y-91710680D01*
X184588360Y-91744421D01*
X184599267Y-91757009D01*
X184627942Y-91794981D01*
X184627949Y-91794989D01*
X184788868Y-91941685D01*
X184974012Y-92056322D01*
X184974023Y-92056327D01*
X185177060Y-92134984D01*
X185250000Y-92148619D01*
X185250000Y-91315686D01*
X185254394Y-91320080D01*
X185345606Y-91372741D01*
X185447339Y-91400000D01*
X185552661Y-91400000D01*
X185654394Y-91372741D01*
X185745606Y-91320080D01*
X185750000Y-91315686D01*
X185750000Y-92148619D01*
X185822939Y-92134984D01*
X186025976Y-92056327D01*
X186025987Y-92056322D01*
X186211130Y-91941685D01*
X186211131Y-91941685D01*
X186372054Y-91794985D01*
X186503284Y-91621208D01*
X186600348Y-91426280D01*
X186650505Y-91250000D01*
X185815686Y-91250000D01*
X185820080Y-91245606D01*
X185872741Y-91154394D01*
X185900000Y-91052661D01*
X185900000Y-90947339D01*
X185872741Y-90845606D01*
X185820080Y-90754394D01*
X185815686Y-90750000D01*
X186650505Y-90750000D01*
X186650505Y-90749999D01*
X186600348Y-90573719D01*
X186503284Y-90378791D01*
X186372056Y-90205017D01*
X186247684Y-90091638D01*
X186211403Y-90031927D01*
X186212208Y-89999996D01*
X188194435Y-89999996D01*
X188194435Y-90000003D01*
X188214630Y-90179249D01*
X188214631Y-90179254D01*
X188274211Y-90349523D01*
X188305614Y-90399500D01*
X188367341Y-90497738D01*
X188370185Y-90502263D01*
X188372445Y-90505097D01*
X188373334Y-90507275D01*
X188373889Y-90508158D01*
X188373734Y-90508255D01*
X188398855Y-90569783D01*
X188399500Y-90582412D01*
X188399500Y-95413330D01*
X188399499Y-95413348D01*
X188399499Y-95579054D01*
X188399498Y-95579054D01*
X188412698Y-95628316D01*
X188440423Y-95731785D01*
X188440424Y-95731786D01*
X188454856Y-95756785D01*
X188454857Y-95756786D01*
X188519475Y-95868709D01*
X188519481Y-95868717D01*
X188638349Y-95987585D01*
X188638355Y-95987590D01*
X191863181Y-99212416D01*
X191896666Y-99273739D01*
X191899500Y-99300097D01*
X191899500Y-103506245D01*
X191899499Y-103506263D01*
X191899499Y-103671969D01*
X191899498Y-103671969D01*
X191926768Y-103773739D01*
X191940423Y-103824700D01*
X191965836Y-103868716D01*
X191967355Y-103871347D01*
X192019479Y-103961629D01*
X192019481Y-103961632D01*
X192138349Y-104080500D01*
X192138355Y-104080505D01*
X193187125Y-105129275D01*
X193220610Y-105190598D01*
X193221221Y-105232217D01*
X193222184Y-105232307D01*
X193201982Y-105450325D01*
X193201982Y-105450326D01*
X193221655Y-105662636D01*
X193280007Y-105867718D01*
X193280007Y-105867720D01*
X193375043Y-106058579D01*
X193408589Y-106103000D01*
X193503539Y-106228733D01*
X193661109Y-106372378D01*
X193842392Y-106484624D01*
X194041213Y-106561647D01*
X194250801Y-106600826D01*
X194250803Y-106600826D01*
X194464019Y-106600826D01*
X194464021Y-106600826D01*
X194673609Y-106561647D01*
X194872430Y-106484624D01*
X195053713Y-106372378D01*
X195211283Y-106228733D01*
X195339777Y-106058581D01*
X195378646Y-105980521D01*
X195434814Y-105867720D01*
X195434814Y-105867719D01*
X195434816Y-105867715D01*
X195493167Y-105662636D01*
X195512840Y-105450326D01*
X195493167Y-105238016D01*
X195434816Y-105032937D01*
X195434814Y-105032932D01*
X195434814Y-105032931D01*
X195339778Y-104842072D01*
X195211283Y-104671919D01*
X195191960Y-104654304D01*
X195053713Y-104528274D01*
X194872430Y-104416028D01*
X194872428Y-104416027D01*
X194750305Y-104368717D01*
X194673609Y-104339005D01*
X194464021Y-104299826D01*
X194250801Y-104299826D01*
X194204910Y-104308404D01*
X194151049Y-104318472D01*
X194081534Y-104311440D01*
X194040584Y-104284264D01*
X193955550Y-104199230D01*
X193922065Y-104137907D01*
X193927049Y-104068215D01*
X193968921Y-104012282D01*
X194034385Y-103987865D01*
X194043231Y-103987549D01*
X194146710Y-103987549D01*
X194146712Y-103987549D01*
X194356300Y-103948370D01*
X194555121Y-103871347D01*
X194736404Y-103759101D01*
X194893974Y-103615456D01*
X194973698Y-103509885D01*
X194991115Y-103486822D01*
X195047224Y-103445186D01*
X195090069Y-103437549D01*
X195576282Y-103437549D01*
X195576298Y-103437550D01*
X195583894Y-103437550D01*
X195742005Y-103437550D01*
X195742008Y-103437550D01*
X195894736Y-103396626D01*
X195956216Y-103361130D01*
X196031667Y-103317569D01*
X196143471Y-103205765D01*
X196143471Y-103205763D01*
X196153675Y-103195560D01*
X196153679Y-103195555D01*
X196858506Y-102490728D01*
X196858511Y-102490724D01*
X196868714Y-102480520D01*
X196868716Y-102480520D01*
X196980520Y-102368716D01*
X197033202Y-102277467D01*
X197059577Y-102231785D01*
X197100501Y-102079057D01*
X197100501Y-101920943D01*
X197100501Y-101913348D01*
X197100500Y-101913330D01*
X197100500Y-100089060D01*
X197100501Y-100089047D01*
X197100501Y-99920944D01*
X197096948Y-99907685D01*
X197098611Y-99837835D01*
X197137773Y-99779973D01*
X197193934Y-99753703D01*
X197260221Y-99741313D01*
X197459042Y-99664290D01*
X197640325Y-99552044D01*
X197691961Y-99504970D01*
X197754765Y-99474353D01*
X197824152Y-99482550D01*
X197878092Y-99526959D01*
X197899461Y-99593481D01*
X197899500Y-99596607D01*
X197899500Y-104226468D01*
X197899499Y-104226486D01*
X197899499Y-104392192D01*
X197899498Y-104392192D01*
X197899499Y-104392195D01*
X197940423Y-104544923D01*
X197952471Y-104565791D01*
X197969358Y-104595038D01*
X197969359Y-104595042D01*
X197969360Y-104595042D01*
X198019479Y-104681852D01*
X198019481Y-104681855D01*
X198138349Y-104800723D01*
X198138355Y-104800728D01*
X200815624Y-107477998D01*
X200849109Y-107539321D01*
X200844125Y-107609013D01*
X200802253Y-107664946D01*
X200736789Y-107689363D01*
X200727943Y-107689679D01*
X200709626Y-107689679D01*
X200500038Y-107728858D01*
X200500035Y-107728858D01*
X200500035Y-107728859D01*
X200301218Y-107805880D01*
X200301216Y-107805881D01*
X200119935Y-107918126D01*
X199962363Y-108061772D01*
X199833868Y-108231925D01*
X199738832Y-108422784D01*
X199738832Y-108422786D01*
X199680480Y-108627868D01*
X199668133Y-108761122D01*
X199660807Y-108840179D01*
X199680480Y-109052489D01*
X199722875Y-109201491D01*
X199738832Y-109257571D01*
X199738832Y-109257573D01*
X199833868Y-109448432D01*
X199833870Y-109448434D01*
X199962364Y-109618586D01*
X200119934Y-109762231D01*
X200301217Y-109874477D01*
X200500038Y-109951500D01*
X200709626Y-109990679D01*
X200709628Y-109990679D01*
X200922844Y-109990679D01*
X200922846Y-109990679D01*
X201132434Y-109951500D01*
X201331255Y-109874477D01*
X201512538Y-109762231D01*
X201670108Y-109618586D01*
X201767249Y-109489952D01*
X201823358Y-109448316D01*
X201866203Y-109440679D01*
X202940372Y-109440679D01*
X202940388Y-109440680D01*
X202947984Y-109440680D01*
X203106097Y-109440680D01*
X203106099Y-109440680D01*
X203258826Y-109399756D01*
X203395757Y-109320699D01*
X203507561Y-109208895D01*
X203586618Y-109071964D01*
X203627542Y-108919237D01*
X203627542Y-108761122D01*
X203627220Y-108758678D01*
X203627542Y-108756612D01*
X203627542Y-108752994D01*
X203628106Y-108752994D01*
X203637982Y-108689642D01*
X203684359Y-108637384D01*
X203684881Y-108637059D01*
X203843476Y-108538861D01*
X204001046Y-108395216D01*
X204129540Y-108225064D01*
X204224579Y-108034198D01*
X204282930Y-107829119D01*
X204302603Y-107616809D01*
X204282930Y-107404499D01*
X204224579Y-107199420D01*
X204224577Y-107199415D01*
X204224577Y-107199414D01*
X204129541Y-107008555D01*
X204001046Y-106838402D01*
X203924056Y-106768216D01*
X203843476Y-106694757D01*
X203662193Y-106582511D01*
X203662191Y-106582510D01*
X203536785Y-106533928D01*
X203463372Y-106505488D01*
X203253784Y-106466309D01*
X203040564Y-106466309D01*
X203001603Y-106473592D01*
X202940813Y-106484955D01*
X202871298Y-106477923D01*
X202830348Y-106450747D01*
X201636819Y-105257218D01*
X201603334Y-105195895D01*
X201600500Y-105169537D01*
X201600500Y-99864604D01*
X201620185Y-99797565D01*
X201672989Y-99751810D01*
X201742147Y-99741866D01*
X201747233Y-99742706D01*
X201949367Y-99780492D01*
X201949369Y-99780492D01*
X202162585Y-99780492D01*
X202162587Y-99780492D01*
X202372175Y-99741313D01*
X202570996Y-99664290D01*
X202752279Y-99552044D01*
X202909849Y-99408399D01*
X203038343Y-99238247D01*
X203069752Y-99175169D01*
X203133380Y-99047386D01*
X203133380Y-99047385D01*
X203133382Y-99047381D01*
X203182645Y-98874241D01*
X203219924Y-98815149D01*
X203283234Y-98785592D01*
X203352474Y-98794954D01*
X203405660Y-98840264D01*
X203425907Y-98907136D01*
X203425911Y-98908177D01*
X203425911Y-99325206D01*
X203406226Y-99392245D01*
X203367189Y-99430632D01*
X203350335Y-99441068D01*
X203330110Y-99453591D01*
X203172538Y-99597237D01*
X203044043Y-99767390D01*
X202949007Y-99958249D01*
X202949007Y-99958251D01*
X202890655Y-100163333D01*
X202870982Y-100375643D01*
X202870982Y-100375644D01*
X202890655Y-100587954D01*
X202949007Y-100793036D01*
X202949007Y-100793038D01*
X203044043Y-100983897D01*
X203153321Y-101128603D01*
X203172539Y-101154051D01*
X203330109Y-101297696D01*
X203511392Y-101409942D01*
X203710213Y-101486965D01*
X203919801Y-101526144D01*
X203919803Y-101526144D01*
X204133019Y-101526144D01*
X204133021Y-101526144D01*
X204342609Y-101486965D01*
X204541430Y-101409942D01*
X204710225Y-101305428D01*
X204777583Y-101286873D01*
X204844282Y-101307681D01*
X204889144Y-101361246D01*
X204899500Y-101410856D01*
X204899500Y-101574942D01*
X204879815Y-101641981D01*
X204827011Y-101687736D01*
X204798285Y-101696830D01*
X204643700Y-101725728D01*
X204643697Y-101725728D01*
X204643697Y-101725729D01*
X204444880Y-101802750D01*
X204444878Y-101802751D01*
X204263597Y-101914996D01*
X204106025Y-102058642D01*
X203977530Y-102228795D01*
X203882494Y-102419654D01*
X203882494Y-102419656D01*
X203824142Y-102624738D01*
X203814606Y-102727656D01*
X203804469Y-102837049D01*
X203824142Y-103049359D01*
X203876510Y-103233412D01*
X203882494Y-103254441D01*
X203882494Y-103254443D01*
X203977530Y-103445302D01*
X204106025Y-103615455D01*
X204106026Y-103615456D01*
X204263596Y-103759101D01*
X204444879Y-103871347D01*
X204643700Y-103948370D01*
X204853288Y-103987549D01*
X204853290Y-103987549D01*
X204956768Y-103987549D01*
X205023807Y-104007234D01*
X205069562Y-104060038D01*
X205079506Y-104129196D01*
X205050481Y-104192752D01*
X205044462Y-104199216D01*
X204992414Y-104251265D01*
X204959414Y-104284265D01*
X204898090Y-104317749D01*
X204848949Y-104318472D01*
X204816699Y-104312443D01*
X204749199Y-104299826D01*
X204535979Y-104299826D01*
X204326391Y-104339005D01*
X204326388Y-104339005D01*
X204326388Y-104339006D01*
X204127571Y-104416027D01*
X204127569Y-104416028D01*
X203946288Y-104528273D01*
X203788716Y-104671919D01*
X203660221Y-104842072D01*
X203565185Y-105032931D01*
X203565185Y-105032933D01*
X203506833Y-105238015D01*
X203487160Y-105450325D01*
X203487160Y-105450326D01*
X203506833Y-105662636D01*
X203565185Y-105867718D01*
X203565185Y-105867720D01*
X203660221Y-106058579D01*
X203693767Y-106103000D01*
X203788717Y-106228733D01*
X203946287Y-106372378D01*
X204127570Y-106484624D01*
X204326391Y-106561647D01*
X204535979Y-106600826D01*
X204535981Y-106600826D01*
X204749197Y-106600826D01*
X204749199Y-106600826D01*
X204958787Y-106561647D01*
X205157608Y-106484624D01*
X205338891Y-106372378D01*
X205496461Y-106228733D01*
X205624955Y-106058581D01*
X205663824Y-105980521D01*
X205719992Y-105867720D01*
X205719992Y-105867719D01*
X205719994Y-105867715D01*
X205778345Y-105662636D01*
X205798018Y-105450326D01*
X205789963Y-105363402D01*
X205777816Y-105232307D01*
X205779439Y-105232156D01*
X205785687Y-105170251D01*
X205812872Y-105129276D01*
X206858506Y-104083643D01*
X206858511Y-104083639D01*
X206868714Y-104073435D01*
X206868716Y-104073435D01*
X206980520Y-103961631D01*
X207034164Y-103868716D01*
X207059577Y-103824700D01*
X207100501Y-103671972D01*
X207100501Y-103513858D01*
X207100501Y-103506263D01*
X207100500Y-103506245D01*
X207100500Y-96920943D01*
X207094754Y-96899500D01*
X207077177Y-96833901D01*
X207059577Y-96768216D01*
X207052868Y-96756595D01*
X206980524Y-96631290D01*
X206980521Y-96631286D01*
X206980520Y-96631284D01*
X206868716Y-96519480D01*
X206868715Y-96519479D01*
X206864385Y-96515149D01*
X206864374Y-96515139D01*
X201349231Y-90999996D01*
X203145170Y-90999996D01*
X203145170Y-91000003D01*
X203164473Y-91331426D01*
X203164474Y-91331437D01*
X203222118Y-91658351D01*
X203222121Y-91658365D01*
X203317336Y-91976408D01*
X203448827Y-92281236D01*
X203448833Y-92281249D01*
X203614824Y-92568755D01*
X203812357Y-92834087D01*
X204884728Y-91761716D01*
X204970278Y-91879466D01*
X205120534Y-92029722D01*
X205238281Y-92115270D01*
X204169289Y-93184263D01*
X204295215Y-93289925D01*
X204572588Y-93472356D01*
X204869252Y-93621347D01*
X204869258Y-93621350D01*
X205181213Y-93734892D01*
X205181234Y-93734899D01*
X205504248Y-93811456D01*
X205504263Y-93811458D01*
X205834012Y-93849999D01*
X205834013Y-93850000D01*
X206165987Y-93850000D01*
X206165987Y-93849999D01*
X206495736Y-93811458D01*
X206495751Y-93811456D01*
X206818765Y-93734899D01*
X206818786Y-93734892D01*
X207130741Y-93621350D01*
X207130747Y-93621347D01*
X207427411Y-93472356D01*
X207704789Y-93289922D01*
X207830708Y-93184263D01*
X207830709Y-93184262D01*
X206761718Y-92115270D01*
X206879466Y-92029722D01*
X207029722Y-91879466D01*
X207115270Y-91761718D01*
X208187641Y-92834088D01*
X208385175Y-92568756D01*
X208551166Y-92281249D01*
X208551172Y-92281236D01*
X208682663Y-91976408D01*
X208777878Y-91658365D01*
X208777881Y-91658351D01*
X208835525Y-91331437D01*
X208835526Y-91331426D01*
X208854830Y-91000003D01*
X208854830Y-90999996D01*
X208835526Y-90668573D01*
X208835525Y-90668562D01*
X208777881Y-90341648D01*
X208777878Y-90341634D01*
X208682663Y-90023591D01*
X208551172Y-89718763D01*
X208551166Y-89718750D01*
X208385172Y-89431239D01*
X208187642Y-89165910D01*
X207115270Y-90238281D01*
X207029722Y-90120534D01*
X206879466Y-89970278D01*
X206761717Y-89884728D01*
X207830709Y-88815736D01*
X207830709Y-88815735D01*
X207704784Y-88710074D01*
X207427411Y-88527643D01*
X207130747Y-88378652D01*
X207130741Y-88378649D01*
X206818786Y-88265107D01*
X206818765Y-88265100D01*
X206495751Y-88188543D01*
X206495736Y-88188541D01*
X206165987Y-88150000D01*
X205834013Y-88150000D01*
X205504263Y-88188541D01*
X205504248Y-88188543D01*
X205181234Y-88265100D01*
X205181213Y-88265107D01*
X204869258Y-88378649D01*
X204869252Y-88378652D01*
X204572581Y-88527646D01*
X204295220Y-88710070D01*
X204295213Y-88710075D01*
X204169289Y-88815735D01*
X205238282Y-89884728D01*
X205120534Y-89970278D01*
X204970278Y-90120534D01*
X204884728Y-90238282D01*
X203812357Y-89165911D01*
X203812356Y-89165911D01*
X203614829Y-89431236D01*
X203614825Y-89431242D01*
X203448833Y-89718750D01*
X203448827Y-89718763D01*
X203317336Y-90023591D01*
X203222121Y-90341634D01*
X203222118Y-90341648D01*
X203164474Y-90668562D01*
X203164473Y-90668573D01*
X203145170Y-90999996D01*
X201349231Y-90999996D01*
X200987590Y-90638355D01*
X200987588Y-90638352D01*
X200868717Y-90519481D01*
X200868709Y-90519475D01*
X200766936Y-90460717D01*
X200766934Y-90460716D01*
X200731790Y-90440425D01*
X200731789Y-90440424D01*
X200579054Y-90399498D01*
X200570997Y-90398438D01*
X200571245Y-90396548D01*
X200514254Y-90379814D01*
X200482339Y-90350225D01*
X200372430Y-90204681D01*
X200361191Y-90194435D01*
X200248423Y-90091634D01*
X200212145Y-90031927D01*
X200213905Y-89962079D01*
X200248423Y-89908365D01*
X200372427Y-89795322D01*
X200503712Y-89621472D01*
X200600817Y-89426459D01*
X200660435Y-89216923D01*
X200680536Y-89000000D01*
X200660435Y-88783077D01*
X200600817Y-88573541D01*
X200503712Y-88378528D01*
X200372427Y-88204678D01*
X200345016Y-88179690D01*
X200247443Y-88090740D01*
X200211432Y-88057912D01*
X200211428Y-88057909D01*
X200211423Y-88057906D01*
X200026213Y-87943229D01*
X200026207Y-87943226D01*
X199941113Y-87910260D01*
X199823069Y-87864530D01*
X199608926Y-87824500D01*
X199391074Y-87824500D01*
X199176931Y-87864530D01*
X199133896Y-87881202D01*
X198973792Y-87943226D01*
X198973786Y-87943229D01*
X198788576Y-88057906D01*
X198788566Y-88057913D01*
X198627573Y-88204676D01*
X198598953Y-88242576D01*
X198542844Y-88284211D01*
X198473132Y-88288902D01*
X198411950Y-88255159D01*
X198401047Y-88242576D01*
X198372426Y-88204676D01*
X198211433Y-88057913D01*
X198211423Y-88057906D01*
X198026213Y-87943229D01*
X198026207Y-87943226D01*
X197941113Y-87910260D01*
X197823069Y-87864530D01*
X197608926Y-87824500D01*
X197391074Y-87824500D01*
X197176931Y-87864530D01*
X197133896Y-87881202D01*
X196973792Y-87943226D01*
X196973786Y-87943229D01*
X196788576Y-88057906D01*
X196788566Y-88057913D01*
X196627573Y-88204676D01*
X196598953Y-88242576D01*
X196542844Y-88284211D01*
X196473132Y-88288902D01*
X196411950Y-88255159D01*
X196401047Y-88242576D01*
X196372426Y-88204676D01*
X196211433Y-88057913D01*
X196211423Y-88057906D01*
X196026213Y-87943229D01*
X196026207Y-87943226D01*
X195941113Y-87910260D01*
X195823069Y-87864530D01*
X195608926Y-87824500D01*
X195391074Y-87824500D01*
X195176931Y-87864530D01*
X195133896Y-87881202D01*
X194973792Y-87943226D01*
X194973786Y-87943229D01*
X194788576Y-88057906D01*
X194788566Y-88057913D01*
X194627573Y-88204676D01*
X194598953Y-88242576D01*
X194542844Y-88284211D01*
X194473132Y-88288902D01*
X194411950Y-88255159D01*
X194401047Y-88242576D01*
X194372426Y-88204676D01*
X194211433Y-88057913D01*
X194211423Y-88057906D01*
X194026213Y-87943229D01*
X194026207Y-87943226D01*
X193941113Y-87910260D01*
X193823069Y-87864530D01*
X193608926Y-87824500D01*
X193391074Y-87824500D01*
X193176931Y-87864530D01*
X193133896Y-87881202D01*
X192973792Y-87943226D01*
X192973786Y-87943229D01*
X192788565Y-88057913D01*
X192777585Y-88067923D01*
X192714780Y-88098537D01*
X192645393Y-88090336D01*
X192594785Y-88050594D01*
X192568848Y-88015948D01*
X192532546Y-87967454D01*
X192532544Y-87967453D01*
X192532544Y-87967452D01*
X192417335Y-87881206D01*
X192417328Y-87881202D01*
X192282482Y-87830908D01*
X192282483Y-87830908D01*
X192222883Y-87824501D01*
X192222881Y-87824500D01*
X192222873Y-87824500D01*
X192222864Y-87824500D01*
X190777129Y-87824500D01*
X190777123Y-87824501D01*
X190717516Y-87830908D01*
X190582671Y-87881202D01*
X190582664Y-87881206D01*
X190467455Y-87967452D01*
X190467452Y-87967455D01*
X190381206Y-88082664D01*
X190381202Y-88082671D01*
X190330908Y-88217517D01*
X190324501Y-88277116D01*
X190324500Y-88277135D01*
X190324500Y-88336336D01*
X190304815Y-88403375D01*
X190262499Y-88443723D01*
X190131290Y-88519475D01*
X190131282Y-88519481D01*
X189624217Y-89026546D01*
X189624214Y-89026548D01*
X189624215Y-89026549D01*
X189519478Y-89131286D01*
X189499489Y-89165910D01*
X189483020Y-89194435D01*
X189483020Y-89194436D01*
X189483017Y-89194441D01*
X189473631Y-89210696D01*
X189423061Y-89258909D01*
X189354453Y-89272128D01*
X189325293Y-89265732D01*
X189179257Y-89214632D01*
X189179249Y-89214630D01*
X189000004Y-89194435D01*
X188999996Y-89194435D01*
X188820750Y-89214630D01*
X188820745Y-89214631D01*
X188650476Y-89274211D01*
X188497737Y-89370184D01*
X188370184Y-89497737D01*
X188274211Y-89650476D01*
X188214631Y-89820745D01*
X188214630Y-89820750D01*
X188194435Y-89999996D01*
X186212208Y-89999996D01*
X186213163Y-89962079D01*
X186247684Y-89908362D01*
X186372056Y-89794982D01*
X186503284Y-89621208D01*
X186600348Y-89426280D01*
X186650505Y-89250000D01*
X185815686Y-89250000D01*
X185820080Y-89245606D01*
X185872741Y-89154394D01*
X185900000Y-89052661D01*
X185900000Y-88947339D01*
X185872741Y-88845606D01*
X185820080Y-88754394D01*
X185815686Y-88750000D01*
X186650505Y-88750000D01*
X186650505Y-88749999D01*
X186600348Y-88573719D01*
X186503284Y-88378791D01*
X186372054Y-88205014D01*
X186211131Y-88058314D01*
X186025987Y-87943677D01*
X186025985Y-87943676D01*
X185822931Y-87865013D01*
X185822921Y-87865010D01*
X185750001Y-87851378D01*
X185750000Y-87851379D01*
X185750000Y-88684314D01*
X185745606Y-88679920D01*
X185654394Y-88627259D01*
X185552661Y-88600000D01*
X185447339Y-88600000D01*
X185345606Y-88627259D01*
X185254394Y-88679920D01*
X185250000Y-88684314D01*
X185250000Y-87851379D01*
X185249998Y-87851378D01*
X185177078Y-87865010D01*
X185177068Y-87865013D01*
X184974014Y-87943676D01*
X184974012Y-87943677D01*
X184788869Y-88058314D01*
X184788868Y-88058314D01*
X184777887Y-88068325D01*
X184715082Y-88098940D01*
X184645695Y-88090740D01*
X184595086Y-88050997D01*
X184532546Y-87967454D01*
X184500182Y-87943226D01*
X184417335Y-87881206D01*
X184417328Y-87881202D01*
X184282482Y-87830908D01*
X184282483Y-87830908D01*
X184222883Y-87824501D01*
X184222881Y-87824500D01*
X184222873Y-87824500D01*
X184222864Y-87824500D01*
X182777129Y-87824500D01*
X182777123Y-87824501D01*
X182717516Y-87830908D01*
X182582671Y-87881202D01*
X182582664Y-87881206D01*
X182467455Y-87967452D01*
X182467452Y-87967455D01*
X182381206Y-88082664D01*
X182381202Y-88082671D01*
X182330908Y-88217517D01*
X182324501Y-88277116D01*
X182324500Y-88277135D01*
X182324500Y-89722870D01*
X182324501Y-89722876D01*
X182330908Y-89782483D01*
X182381202Y-89917328D01*
X182381206Y-89917335D01*
X182443092Y-90000003D01*
X182467454Y-90032546D01*
X182553105Y-90096664D01*
X182594975Y-90152597D01*
X182599959Y-90222289D01*
X182577748Y-90270656D01*
X182496288Y-90378528D01*
X182399184Y-90573537D01*
X182383899Y-90627259D01*
X182348977Y-90749999D01*
X182339564Y-90783081D01*
X182319464Y-90999999D01*
X180849234Y-90999999D01*
X180487590Y-90638355D01*
X180487588Y-90638352D01*
X180368717Y-90519481D01*
X180368709Y-90519475D01*
X180266936Y-90460717D01*
X180266934Y-90460716D01*
X180231790Y-90440425D01*
X180231789Y-90440424D01*
X180219263Y-90437067D01*
X180079057Y-90399499D01*
X179920943Y-90399499D01*
X179913347Y-90399499D01*
X179913331Y-90399500D01*
X178581294Y-90399500D01*
X178514255Y-90379815D01*
X178482340Y-90350227D01*
X178372427Y-90204678D01*
X178248423Y-90091634D01*
X178212145Y-90031927D01*
X178213905Y-89962079D01*
X178248423Y-89908365D01*
X178372427Y-89795322D01*
X178503712Y-89621472D01*
X178600817Y-89426459D01*
X178660435Y-89216923D01*
X178680536Y-89000000D01*
X178660435Y-88783077D01*
X178600817Y-88573541D01*
X178503712Y-88378528D01*
X178372427Y-88204678D01*
X178345016Y-88179690D01*
X178247443Y-88090740D01*
X178211432Y-88057912D01*
X178211428Y-88057909D01*
X178211423Y-88057906D01*
X178026213Y-87943229D01*
X178026207Y-87943226D01*
X177941113Y-87910260D01*
X177823069Y-87864530D01*
X177608926Y-87824500D01*
X177391074Y-87824500D01*
X177176931Y-87864530D01*
X177133896Y-87881202D01*
X176973792Y-87943226D01*
X176973786Y-87943229D01*
X176788576Y-88057906D01*
X176788566Y-88057913D01*
X176627573Y-88204676D01*
X176598953Y-88242576D01*
X176542844Y-88284211D01*
X176473132Y-88288902D01*
X176411950Y-88255159D01*
X176401047Y-88242576D01*
X176372426Y-88204676D01*
X176211433Y-88057913D01*
X176211423Y-88057906D01*
X176026213Y-87943229D01*
X176026207Y-87943226D01*
X175941113Y-87910260D01*
X175823069Y-87864530D01*
X175608926Y-87824500D01*
X175391074Y-87824500D01*
X175176931Y-87864530D01*
X175133896Y-87881202D01*
X174973792Y-87943226D01*
X174973786Y-87943229D01*
X174788576Y-88057906D01*
X174788566Y-88057913D01*
X174627573Y-88204676D01*
X174598953Y-88242576D01*
X174542844Y-88284211D01*
X174473132Y-88288902D01*
X174411950Y-88255159D01*
X174401047Y-88242576D01*
X174372426Y-88204676D01*
X174211433Y-88057913D01*
X174211423Y-88057906D01*
X174026213Y-87943229D01*
X174026207Y-87943226D01*
X173941113Y-87910260D01*
X173823069Y-87864530D01*
X173608926Y-87824500D01*
X173391074Y-87824500D01*
X173176931Y-87864530D01*
X173133896Y-87881202D01*
X172973792Y-87943226D01*
X172973786Y-87943229D01*
X172788576Y-88057906D01*
X172788566Y-88057913D01*
X172627573Y-88204676D01*
X172598953Y-88242576D01*
X172542844Y-88284211D01*
X172473132Y-88288902D01*
X172411950Y-88255159D01*
X172401047Y-88242576D01*
X172372426Y-88204676D01*
X172211433Y-88057913D01*
X172211423Y-88057906D01*
X172026213Y-87943229D01*
X172026207Y-87943226D01*
X171941113Y-87910260D01*
X171823069Y-87864530D01*
X171608926Y-87824500D01*
X171391074Y-87824500D01*
X171176931Y-87864530D01*
X171133896Y-87881202D01*
X170973792Y-87943226D01*
X170973786Y-87943229D01*
X170788565Y-88057913D01*
X170777585Y-88067923D01*
X170714780Y-88098537D01*
X170645393Y-88090336D01*
X170594785Y-88050594D01*
X170568848Y-88015948D01*
X170532546Y-87967454D01*
X170532544Y-87967453D01*
X170532544Y-87967452D01*
X170417335Y-87881206D01*
X170417328Y-87881202D01*
X170282482Y-87830908D01*
X170282483Y-87830908D01*
X170222883Y-87824501D01*
X170222881Y-87824500D01*
X170222873Y-87824500D01*
X170222864Y-87824500D01*
X168777129Y-87824500D01*
X168777123Y-87824501D01*
X168717516Y-87830908D01*
X168582671Y-87881202D01*
X168582664Y-87881206D01*
X168467455Y-87967452D01*
X168467452Y-87967455D01*
X168381206Y-88082664D01*
X168381202Y-88082671D01*
X168330908Y-88217517D01*
X168324501Y-88277116D01*
X168324500Y-88277135D01*
X168324500Y-88336336D01*
X168304815Y-88403375D01*
X168262499Y-88443723D01*
X168131290Y-88519475D01*
X168131282Y-88519481D01*
X167624217Y-89026546D01*
X167624214Y-89026548D01*
X167624215Y-89026549D01*
X167519478Y-89131286D01*
X167499489Y-89165910D01*
X167483020Y-89194435D01*
X167470037Y-89216923D01*
X167441857Y-89265732D01*
X167440423Y-89268215D01*
X167399499Y-89420943D01*
X167399499Y-89420945D01*
X167399499Y-89496522D01*
X167379814Y-89563561D01*
X167327010Y-89609316D01*
X167257852Y-89619260D01*
X167194296Y-89590235D01*
X167170505Y-89562494D01*
X167129815Y-89497737D01*
X167002262Y-89370184D01*
X166849523Y-89274211D01*
X166679254Y-89214631D01*
X166679249Y-89214630D01*
X166500004Y-89194435D01*
X166499996Y-89194435D01*
X166320750Y-89214630D01*
X166320745Y-89214631D01*
X166150476Y-89274211D01*
X165997737Y-89370184D01*
X165870184Y-89497737D01*
X165774211Y-89650476D01*
X165714631Y-89820745D01*
X165714630Y-89820750D01*
X165694435Y-89999996D01*
X165694435Y-90000003D01*
X165714630Y-90179249D01*
X165714631Y-90179254D01*
X165774211Y-90349523D01*
X165805614Y-90399500D01*
X165867341Y-90497738D01*
X165870185Y-90502263D01*
X165872445Y-90505097D01*
X165873334Y-90507275D01*
X165873889Y-90508158D01*
X165873734Y-90508255D01*
X165898855Y-90569783D01*
X165899500Y-90582412D01*
X165899500Y-92199901D01*
X165879815Y-92266940D01*
X165863181Y-92287582D01*
X165624214Y-92526548D01*
X165624215Y-92526549D01*
X165519478Y-92631286D01*
X165511711Y-92644740D01*
X165483020Y-92694435D01*
X165440423Y-92768215D01*
X165399499Y-92920943D01*
X165399499Y-92920945D01*
X165399499Y-93089046D01*
X165399500Y-93089059D01*
X165399500Y-97913330D01*
X165399499Y-97913348D01*
X165399499Y-98079054D01*
X165399498Y-98079054D01*
X164100500Y-98079054D01*
X164100500Y-92079840D01*
X164120185Y-92012801D01*
X164159220Y-91974415D01*
X164211432Y-91942088D01*
X164372427Y-91795322D01*
X164503712Y-91621472D01*
X164600817Y-91426459D01*
X164660435Y-91216923D01*
X164680536Y-91000000D01*
X164660435Y-90783077D01*
X164600817Y-90573541D01*
X164503712Y-90378528D01*
X164372427Y-90204678D01*
X164248423Y-90091634D01*
X164212145Y-90031927D01*
X164213905Y-89962079D01*
X164248423Y-89908365D01*
X164372427Y-89795322D01*
X164503712Y-89621472D01*
X164600817Y-89426459D01*
X164660435Y-89216923D01*
X164680536Y-89000000D01*
X164660435Y-88783077D01*
X164600817Y-88573541D01*
X164503712Y-88378528D01*
X164372427Y-88204678D01*
X164345016Y-88179690D01*
X164247443Y-88090740D01*
X164211432Y-88057912D01*
X164211428Y-88057909D01*
X164211423Y-88057906D01*
X164026213Y-87943229D01*
X164026207Y-87943226D01*
X163941113Y-87910260D01*
X163823069Y-87864530D01*
X163608926Y-87824500D01*
X163391074Y-87824500D01*
X163176931Y-87864530D01*
X163133896Y-87881202D01*
X162973792Y-87943226D01*
X162973786Y-87943229D01*
X162788576Y-88057906D01*
X162788566Y-88057913D01*
X162627573Y-88204676D01*
X162598953Y-88242576D01*
X162542844Y-88284211D01*
X162473132Y-88288902D01*
X162411950Y-88255159D01*
X162401047Y-88242576D01*
X162372426Y-88204676D01*
X162211433Y-88057913D01*
X162211423Y-88057906D01*
X162026213Y-87943229D01*
X162026207Y-87943226D01*
X161941113Y-87910260D01*
X161823069Y-87864530D01*
X161608926Y-87824500D01*
X161391074Y-87824500D01*
X161176931Y-87864530D01*
X161133896Y-87881202D01*
X160973792Y-87943226D01*
X160973786Y-87943229D01*
X160788576Y-88057906D01*
X160788566Y-88057913D01*
X160627573Y-88204676D01*
X160598953Y-88242576D01*
X160542844Y-88284211D01*
X160473132Y-88288902D01*
X160411950Y-88255159D01*
X160401047Y-88242576D01*
X160372426Y-88204676D01*
X160211433Y-88057913D01*
X160211423Y-88057906D01*
X160026213Y-87943229D01*
X160026207Y-87943226D01*
X159941113Y-87910260D01*
X159823069Y-87864530D01*
X159608926Y-87824500D01*
X159391074Y-87824500D01*
X159176931Y-87864530D01*
X159133896Y-87881202D01*
X158973792Y-87943226D01*
X158973786Y-87943229D01*
X158788576Y-88057906D01*
X158788566Y-88057913D01*
X158627573Y-88204676D01*
X158598953Y-88242576D01*
X158542844Y-88284211D01*
X158473132Y-88288902D01*
X158411950Y-88255159D01*
X158401047Y-88242576D01*
X158372426Y-88204676D01*
X158211433Y-88057913D01*
X158211423Y-88057906D01*
X158026213Y-87943229D01*
X158026207Y-87943226D01*
X157941113Y-87910260D01*
X157823069Y-87864530D01*
X157608926Y-87824500D01*
X157391074Y-87824500D01*
X157176931Y-87864530D01*
X157133896Y-87881202D01*
X156973792Y-87943226D01*
X156973786Y-87943229D01*
X156788565Y-88057913D01*
X156777585Y-88067923D01*
X156714780Y-88098537D01*
X156645393Y-88090336D01*
X156594785Y-88050594D01*
X156568848Y-88015948D01*
X156532546Y-87967454D01*
X156532544Y-87967453D01*
X156532544Y-87967452D01*
X156417335Y-87881206D01*
X156417328Y-87881202D01*
X156282482Y-87830908D01*
X156282483Y-87830908D01*
X156222883Y-87824501D01*
X156222881Y-87824500D01*
X156222873Y-87824500D01*
X156222864Y-87824500D01*
X154777129Y-87824500D01*
X154777123Y-87824501D01*
X154717516Y-87830908D01*
X154582671Y-87881202D01*
X154582664Y-87881206D01*
X154467455Y-87967452D01*
X154467452Y-87967455D01*
X154381206Y-88082664D01*
X154381202Y-88082671D01*
X154330908Y-88217517D01*
X154324501Y-88277116D01*
X154324500Y-88277135D01*
X154324500Y-89274902D01*
X154304815Y-89341941D01*
X154288181Y-89362583D01*
X153513733Y-90137031D01*
X153511690Y-90134988D01*
X153466497Y-90167975D01*
X153396751Y-90172117D01*
X153335837Y-90137892D01*
X153303096Y-90076169D01*
X153301352Y-90037394D01*
X153305565Y-90000002D01*
X153305565Y-89999996D01*
X153285369Y-89820750D01*
X153285368Y-89820745D01*
X153276353Y-89794982D01*
X153225789Y-89650478D01*
X153213732Y-89631290D01*
X153129815Y-89497737D01*
X153002262Y-89370184D01*
X152849523Y-89274211D01*
X152679254Y-89214631D01*
X152679249Y-89214630D01*
X152500004Y-89194435D01*
X152499996Y-89194435D01*
X152320750Y-89214630D01*
X152320745Y-89214631D01*
X152150476Y-89274211D01*
X151997737Y-89370184D01*
X151870184Y-89497737D01*
X151774211Y-89650476D01*
X151714631Y-89820745D01*
X151714630Y-89820750D01*
X151694435Y-89999996D01*
X151694435Y-90000003D01*
X151714630Y-90179249D01*
X151714631Y-90179254D01*
X151774211Y-90349523D01*
X151805614Y-90399500D01*
X151867341Y-90497738D01*
X151870185Y-90502263D01*
X151872445Y-90505097D01*
X151873334Y-90507275D01*
X151873889Y-90508158D01*
X151873734Y-90508255D01*
X151898855Y-90569783D01*
X151899500Y-90582412D01*
X151899500Y-90699902D01*
X151879815Y-90766941D01*
X151863181Y-90787583D01*
X146019481Y-96631282D01*
X146019479Y-96631285D01*
X145981558Y-96696968D01*
X145981557Y-96696970D01*
X145940423Y-96768214D01*
X145940422Y-96768217D01*
X145899499Y-96920943D01*
X145899499Y-96920945D01*
X145899499Y-97089046D01*
X145899500Y-97089059D01*
X145899500Y-102506245D01*
X145899499Y-102506263D01*
X145899499Y-102671969D01*
X145899498Y-102671969D01*
X142100500Y-102671969D01*
X142100500Y-97420943D01*
X142067416Y-97297471D01*
X142059577Y-97268215D01*
X142019904Y-97199500D01*
X141999153Y-97163558D01*
X141980521Y-97131285D01*
X141864385Y-97015149D01*
X141864374Y-97015139D01*
X135487590Y-90638355D01*
X135487588Y-90638352D01*
X135368717Y-90519481D01*
X135368709Y-90519475D01*
X135266936Y-90460717D01*
X135266934Y-90460716D01*
X135231790Y-90440425D01*
X135231789Y-90440424D01*
X135219263Y-90437067D01*
X135079057Y-90399499D01*
X134920943Y-90399499D01*
X134913347Y-90399499D01*
X134913331Y-90399500D01*
X133581294Y-90399500D01*
X133514255Y-90379815D01*
X133482340Y-90350227D01*
X133372427Y-90204678D01*
X133248423Y-90091634D01*
X133212145Y-90031927D01*
X133213905Y-89962079D01*
X133248423Y-89908365D01*
X133372427Y-89795322D01*
X133503712Y-89621472D01*
X133600817Y-89426459D01*
X133660435Y-89216923D01*
X133680536Y-89000000D01*
X133660435Y-88783077D01*
X133600817Y-88573541D01*
X133503712Y-88378528D01*
X133372427Y-88204678D01*
X133345016Y-88179690D01*
X133247443Y-88090740D01*
X133211432Y-88057912D01*
X133211428Y-88057909D01*
X133211423Y-88057906D01*
X133026213Y-87943229D01*
X133026207Y-87943226D01*
X132941113Y-87910260D01*
X132823069Y-87864530D01*
X132608926Y-87824500D01*
X132391074Y-87824500D01*
X132176931Y-87864530D01*
X132133896Y-87881202D01*
X131973792Y-87943226D01*
X131973786Y-87943229D01*
X131788576Y-88057906D01*
X131788566Y-88057913D01*
X131627573Y-88204676D01*
X131598953Y-88242576D01*
X131542844Y-88284211D01*
X131473132Y-88288902D01*
X131411950Y-88255159D01*
X131401047Y-88242576D01*
X131372426Y-88204676D01*
X131211433Y-88057913D01*
X131211423Y-88057906D01*
X131026213Y-87943229D01*
X131026207Y-87943226D01*
X130941113Y-87910260D01*
X130823069Y-87864530D01*
X130608926Y-87824500D01*
X130391074Y-87824500D01*
X130176931Y-87864530D01*
X130133896Y-87881202D01*
X129973792Y-87943226D01*
X129973786Y-87943229D01*
X129788576Y-88057906D01*
X129788566Y-88057913D01*
X129627573Y-88204676D01*
X129598953Y-88242576D01*
X129542844Y-88284211D01*
X129473132Y-88288902D01*
X129411950Y-88255159D01*
X129401047Y-88242576D01*
X129372426Y-88204676D01*
X129211433Y-88057913D01*
X129211423Y-88057906D01*
X129026213Y-87943229D01*
X129026207Y-87943226D01*
X128941113Y-87910260D01*
X128823069Y-87864530D01*
X128608926Y-87824500D01*
X128391074Y-87824500D01*
X128176931Y-87864530D01*
X128133896Y-87881202D01*
X127973792Y-87943226D01*
X127973786Y-87943229D01*
X127788576Y-88057906D01*
X127788566Y-88057913D01*
X127627573Y-88204676D01*
X127598953Y-88242576D01*
X127542844Y-88284211D01*
X127473132Y-88288902D01*
X127411950Y-88255159D01*
X127401047Y-88242576D01*
X127372426Y-88204676D01*
X127211433Y-88057913D01*
X127211423Y-88057906D01*
X127026213Y-87943229D01*
X127026207Y-87943226D01*
X126941113Y-87910260D01*
X126823069Y-87864530D01*
X126608926Y-87824500D01*
X126391074Y-87824500D01*
X126176931Y-87864530D01*
X126133896Y-87881202D01*
X125973792Y-87943226D01*
X125973786Y-87943229D01*
X125788565Y-88057913D01*
X125777585Y-88067923D01*
X125714780Y-88098537D01*
X125645393Y-88090336D01*
X125594785Y-88050594D01*
X125568848Y-88015948D01*
X125532546Y-87967454D01*
X125532544Y-87967453D01*
X125532544Y-87967452D01*
X125417335Y-87881206D01*
X125417328Y-87881202D01*
X125282482Y-87830908D01*
X125282483Y-87830908D01*
X125222883Y-87824501D01*
X125222881Y-87824500D01*
X125222873Y-87824500D01*
X125222864Y-87824500D01*
X123777129Y-87824500D01*
X123777123Y-87824501D01*
X123717516Y-87830908D01*
X123582671Y-87881202D01*
X123582664Y-87881206D01*
X123467455Y-87967452D01*
X123467452Y-87967455D01*
X123381206Y-88082664D01*
X123381202Y-88082671D01*
X123330908Y-88217517D01*
X123324501Y-88277116D01*
X123324500Y-88277135D01*
X123324500Y-88336336D01*
X123304815Y-88403375D01*
X123262499Y-88443723D01*
X123131290Y-88519475D01*
X123131282Y-88519481D01*
X122624217Y-89026546D01*
X122624214Y-89026548D01*
X122624215Y-89026549D01*
X122519478Y-89131286D01*
X122499489Y-89165910D01*
X122483020Y-89194435D01*
X122470037Y-89216923D01*
X122441857Y-89265732D01*
X122440423Y-89268215D01*
X122399499Y-89420943D01*
X122399499Y-89420945D01*
X122399499Y-89589046D01*
X122399500Y-89589059D01*
X122399500Y-90496523D01*
X122379815Y-90563562D01*
X122327011Y-90609317D01*
X122257853Y-90619261D01*
X122194297Y-90590236D01*
X122170507Y-90562496D01*
X122129817Y-90497739D01*
X122002262Y-90370184D01*
X121849523Y-90274211D01*
X121679254Y-90214631D01*
X121679249Y-90214630D01*
X121500004Y-90194435D01*
X121499996Y-90194435D01*
X121320750Y-90214630D01*
X121320745Y-90214631D01*
X121150476Y-90274211D01*
X120997737Y-90370184D01*
X120870184Y-90497737D01*
X120774210Y-90650478D01*
X120714630Y-90820750D01*
X120704837Y-90907666D01*
X120677770Y-90972080D01*
X120669299Y-90981462D01*
X120624237Y-91026524D01*
X120624212Y-91026552D01*
X120519477Y-91131287D01*
X120470037Y-91216922D01*
X120470036Y-91216921D01*
X120440424Y-91268211D01*
X120440423Y-91268215D01*
X120399499Y-91420943D01*
X120399499Y-91420945D01*
X120399499Y-91589046D01*
X120399500Y-91589059D01*
X120399500Y-98006245D01*
X120399499Y-98006263D01*
X120399499Y-98171969D01*
X120399498Y-98171969D01*
X118100500Y-98171969D01*
X118100500Y-97420943D01*
X118067416Y-97297471D01*
X118059577Y-97268215D01*
X118019904Y-97199500D01*
X117999153Y-97163558D01*
X117980521Y-97131285D01*
X117864385Y-97015149D01*
X117864374Y-97015139D01*
X111487590Y-90638355D01*
X111487588Y-90638352D01*
X111368717Y-90519481D01*
X111368709Y-90519475D01*
X111266936Y-90460717D01*
X111266934Y-90460716D01*
X111231790Y-90440425D01*
X111231789Y-90440424D01*
X111079054Y-90399498D01*
X111070997Y-90398438D01*
X111071245Y-90396548D01*
X111014254Y-90379814D01*
X110982339Y-90350225D01*
X110872430Y-90204681D01*
X110861191Y-90194435D01*
X110748423Y-90091634D01*
X110712145Y-90031927D01*
X110713905Y-89962079D01*
X110748423Y-89908365D01*
X110872427Y-89795322D01*
X111003712Y-89621472D01*
X111100817Y-89426459D01*
X111160435Y-89216923D01*
X111180536Y-89000000D01*
X111160435Y-88783077D01*
X111100817Y-88573541D01*
X111003712Y-88378528D01*
X110872427Y-88204678D01*
X110845016Y-88179690D01*
X110747443Y-88090740D01*
X110711432Y-88057912D01*
X110711428Y-88057909D01*
X110711423Y-88057906D01*
X110526213Y-87943229D01*
X110526207Y-87943226D01*
X110441113Y-87910260D01*
X110323069Y-87864530D01*
X110108926Y-87824500D01*
X109891074Y-87824500D01*
X109676931Y-87864530D01*
X109633896Y-87881202D01*
X109473792Y-87943226D01*
X109473786Y-87943229D01*
X109288576Y-88057906D01*
X109288566Y-88057913D01*
X109127573Y-88204676D01*
X109098953Y-88242576D01*
X109042844Y-88284211D01*
X108973132Y-88288902D01*
X108911950Y-88255159D01*
X108901047Y-88242576D01*
X108872426Y-88204676D01*
X108711433Y-88057913D01*
X108711423Y-88057906D01*
X108526213Y-87943229D01*
X108526207Y-87943226D01*
X108441113Y-87910260D01*
X108323069Y-87864530D01*
X108108926Y-87824500D01*
X107891074Y-87824500D01*
X107676931Y-87864530D01*
X107633896Y-87881202D01*
X107473792Y-87943226D01*
X107473786Y-87943229D01*
X107288576Y-88057906D01*
X107288566Y-88057913D01*
X107127573Y-88204676D01*
X107098953Y-88242576D01*
X107042844Y-88284211D01*
X106973132Y-88288902D01*
X106911950Y-88255159D01*
X106901047Y-88242576D01*
X106872426Y-88204676D01*
X106711433Y-88057913D01*
X106711423Y-88057906D01*
X106526213Y-87943229D01*
X106526207Y-87943226D01*
X106441113Y-87910260D01*
X106323069Y-87864530D01*
X106108926Y-87824500D01*
X105891074Y-87824500D01*
X105676931Y-87864530D01*
X105633896Y-87881202D01*
X105473792Y-87943226D01*
X105473786Y-87943229D01*
X105288576Y-88057906D01*
X105288566Y-88057913D01*
X105127573Y-88204676D01*
X105098953Y-88242576D01*
X105042844Y-88284211D01*
X104973132Y-88288902D01*
X104911950Y-88255159D01*
X104901047Y-88242576D01*
X104872426Y-88204676D01*
X104711433Y-88057913D01*
X104711423Y-88057906D01*
X104526213Y-87943229D01*
X104526207Y-87943226D01*
X104441113Y-87910260D01*
X104323069Y-87864530D01*
X104108926Y-87824500D01*
X103891074Y-87824500D01*
X103676931Y-87864530D01*
X103633896Y-87881202D01*
X103473792Y-87943226D01*
X103473786Y-87943229D01*
X103288565Y-88057913D01*
X103277585Y-88067923D01*
X103214780Y-88098537D01*
X103145393Y-88090336D01*
X103094785Y-88050594D01*
X103068848Y-88015948D01*
X103032546Y-87967454D01*
X103032544Y-87967453D01*
X103032544Y-87967452D01*
X102917335Y-87881206D01*
X102917328Y-87881202D01*
X102782482Y-87830908D01*
X102782483Y-87830908D01*
X102722883Y-87824501D01*
X102722881Y-87824500D01*
X102722873Y-87824500D01*
X102722864Y-87824500D01*
X101277129Y-87824500D01*
X101277123Y-87824501D01*
X101217516Y-87830908D01*
X101082671Y-87881202D01*
X101082664Y-87881206D01*
X100967455Y-87967452D01*
X100967452Y-87967455D01*
X100881206Y-88082664D01*
X100881202Y-88082671D01*
X100830908Y-88217517D01*
X100824501Y-88277116D01*
X100824500Y-88277135D01*
X100824500Y-88336336D01*
X100804815Y-88403375D01*
X100762499Y-88443723D01*
X100631290Y-88519475D01*
X100631282Y-88519481D01*
X100124217Y-89026546D01*
X100124214Y-89026548D01*
X100124215Y-89026549D01*
X100019478Y-89131286D01*
X99999489Y-89165910D01*
X99983020Y-89194435D01*
X99970037Y-89216923D01*
X99941857Y-89265732D01*
X99940423Y-89268215D01*
X99899499Y-89420943D01*
X99899499Y-89420945D01*
X99899499Y-89589046D01*
X99899500Y-89589059D01*
X99899500Y-90496523D01*
X99879815Y-90563562D01*
X99827011Y-90609317D01*
X99757853Y-90619261D01*
X99694297Y-90590236D01*
X99670507Y-90562496D01*
X99629817Y-90497739D01*
X99502262Y-90370184D01*
X99349523Y-90274211D01*
X99179254Y-90214631D01*
X99179249Y-90214630D01*
X99000004Y-90194435D01*
X98999996Y-90194435D01*
X98820750Y-90214630D01*
X98820745Y-90214631D01*
X98650476Y-90274211D01*
X98497737Y-90370184D01*
X98370184Y-90497737D01*
X98274210Y-90650478D01*
X98214630Y-90820750D01*
X98204837Y-90907666D01*
X98177770Y-90972080D01*
X98169299Y-90981462D01*
X98124237Y-91026524D01*
X98124212Y-91026552D01*
X98019477Y-91131287D01*
X97970037Y-91216922D01*
X97970036Y-91216921D01*
X97940424Y-91268211D01*
X97940423Y-91268215D01*
X97899499Y-91420943D01*
X97899499Y-91420945D01*
X97899499Y-91589046D01*
X97899500Y-91589059D01*
X97899500Y-99506245D01*
X97899499Y-99506263D01*
X97899499Y-99671969D01*
X97899498Y-99671969D01*
X97100500Y-99671969D01*
X97100500Y-91589060D01*
X97100501Y-91589047D01*
X97100501Y-91444866D01*
X97105235Y-91410932D01*
X97156205Y-91231790D01*
X97160435Y-91216923D01*
X97180536Y-91000000D01*
X97160435Y-90783077D01*
X97100817Y-90573541D01*
X97003712Y-90378528D01*
X96872427Y-90204678D01*
X96748423Y-90091634D01*
X96712145Y-90031927D01*
X96713905Y-89962079D01*
X96748423Y-89908365D01*
X96872427Y-89795322D01*
X97003712Y-89621472D01*
X97100817Y-89426459D01*
X97160435Y-89216923D01*
X97180536Y-89000000D01*
X97160435Y-88783077D01*
X97100817Y-88573541D01*
X97003712Y-88378528D01*
X96872427Y-88204678D01*
X96845016Y-88179690D01*
X96747443Y-88090740D01*
X96711432Y-88057912D01*
X96711428Y-88057909D01*
X96711423Y-88057906D01*
X96526213Y-87943229D01*
X96526207Y-87943226D01*
X96441113Y-87910260D01*
X96323069Y-87864530D01*
X96108926Y-87824500D01*
X95891074Y-87824500D01*
X95676931Y-87864530D01*
X95633896Y-87881202D01*
X95473792Y-87943226D01*
X95473786Y-87943229D01*
X95288576Y-88057906D01*
X95288566Y-88057913D01*
X95127573Y-88204676D01*
X95098953Y-88242576D01*
X95042844Y-88284211D01*
X94973132Y-88288902D01*
X94911950Y-88255159D01*
X94901047Y-88242576D01*
X94872426Y-88204676D01*
X94711433Y-88057913D01*
X94711423Y-88057906D01*
X94526213Y-87943229D01*
X94526207Y-87943226D01*
X94441113Y-87910260D01*
X94323069Y-87864530D01*
X94108926Y-87824500D01*
X93891074Y-87824500D01*
X93676931Y-87864530D01*
X93633896Y-87881202D01*
X93473792Y-87943226D01*
X93473786Y-87943229D01*
X93288576Y-88057906D01*
X93288566Y-88057913D01*
X93127573Y-88204676D01*
X93098953Y-88242576D01*
X93042844Y-88284211D01*
X92973132Y-88288902D01*
X92911950Y-88255159D01*
X92901047Y-88242576D01*
X92872426Y-88204676D01*
X92711433Y-88057913D01*
X92711423Y-88057906D01*
X92526213Y-87943229D01*
X92526207Y-87943226D01*
X92441113Y-87910260D01*
X92323069Y-87864530D01*
X92108926Y-87824500D01*
X91891074Y-87824500D01*
X91676931Y-87864530D01*
X91633896Y-87881202D01*
X91473792Y-87943226D01*
X91473786Y-87943229D01*
X91288576Y-88057906D01*
X91288566Y-88057913D01*
X91127573Y-88204676D01*
X91098953Y-88242576D01*
X91042844Y-88284211D01*
X90973132Y-88288902D01*
X90911950Y-88255159D01*
X90901047Y-88242576D01*
X90872426Y-88204676D01*
X90711433Y-88057913D01*
X90711423Y-88057906D01*
X90526213Y-87943229D01*
X90526207Y-87943226D01*
X90441113Y-87910260D01*
X90323069Y-87864530D01*
X90108926Y-87824500D01*
X89891074Y-87824500D01*
X89676931Y-87864530D01*
X89633896Y-87881202D01*
X89473792Y-87943226D01*
X89473786Y-87943229D01*
X89288565Y-88057913D01*
X89277585Y-88067923D01*
X89214780Y-88098537D01*
X89145393Y-88090336D01*
X89094785Y-88050594D01*
X89068848Y-88015948D01*
X89032546Y-87967454D01*
X89032544Y-87967453D01*
X89032544Y-87967452D01*
X88917335Y-87881206D01*
X88917328Y-87881202D01*
X88782482Y-87830908D01*
X88782483Y-87830908D01*
X88722883Y-87824501D01*
X88722881Y-87824500D01*
X88722873Y-87824500D01*
X88722864Y-87824500D01*
X87277129Y-87824500D01*
X87277123Y-87824501D01*
X87217516Y-87830908D01*
X87082671Y-87881202D01*
X87082664Y-87881206D01*
X86967455Y-87967452D01*
X86967452Y-87967455D01*
X86881206Y-88082664D01*
X86881202Y-88082671D01*
X86830908Y-88217517D01*
X86824501Y-88277116D01*
X86824500Y-88277135D01*
X86824500Y-88336336D01*
X86804815Y-88403375D01*
X86762499Y-88443723D01*
X86631290Y-88519475D01*
X86631282Y-88519481D01*
X85519481Y-89631282D01*
X85519475Y-89631290D01*
X85480117Y-89699462D01*
X85480117Y-89699464D01*
X85440423Y-89768214D01*
X85433158Y-89795328D01*
X85399499Y-89920943D01*
X85399499Y-89920945D01*
X85399499Y-90089046D01*
X85399500Y-90089059D01*
X85399500Y-95699902D01*
X85379815Y-95766941D01*
X85363181Y-95787583D01*
X83345896Y-97804867D01*
X83345894Y-97804870D01*
X83341673Y-97812181D01*
X83302231Y-97880499D01*
X83295776Y-97891679D01*
X83295774Y-97891681D01*
X83266840Y-97941794D01*
X83266839Y-97941795D01*
X83266838Y-97941800D01*
X83225914Y-98094528D01*
X83225914Y-98094530D01*
X83225914Y-98262631D01*
X83225915Y-98262644D01*
X83225915Y-99325206D01*
X83206230Y-99392245D01*
X83167193Y-99430632D01*
X83150339Y-99441068D01*
X83130114Y-99453591D01*
X82972542Y-99597237D01*
X82844047Y-99767390D01*
X82749011Y-99958249D01*
X82749011Y-99958251D01*
X82690659Y-100163333D01*
X82670986Y-100375643D01*
X77500500Y-100375643D01*
X77500500Y-92999996D01*
X79145170Y-92999996D01*
X79145170Y-93000003D01*
X79164473Y-93331426D01*
X79164474Y-93331437D01*
X79222118Y-93658351D01*
X79222121Y-93658365D01*
X79317336Y-93976408D01*
X79448827Y-94281236D01*
X79448833Y-94281249D01*
X79614824Y-94568755D01*
X79812357Y-94834087D01*
X80884728Y-93761716D01*
X80970278Y-93879466D01*
X81120534Y-94029722D01*
X81238281Y-94115270D01*
X80169289Y-95184263D01*
X80295215Y-95289925D01*
X80572588Y-95472356D01*
X80869252Y-95621347D01*
X80869258Y-95621350D01*
X81181213Y-95734892D01*
X81181234Y-95734899D01*
X81504248Y-95811456D01*
X81504263Y-95811458D01*
X81834012Y-95849999D01*
X81834013Y-95850000D01*
X82165987Y-95850000D01*
X82165987Y-95849999D01*
X82495736Y-95811458D01*
X82495751Y-95811456D01*
X82818765Y-95734899D01*
X82818786Y-95734892D01*
X83130741Y-95621350D01*
X83130747Y-95621347D01*
X83427411Y-95472356D01*
X83704789Y-95289922D01*
X83830708Y-95184263D01*
X83830709Y-95184262D01*
X82761718Y-94115270D01*
X82879466Y-94029722D01*
X83029722Y-93879466D01*
X83115270Y-93761717D01*
X84187641Y-94834088D01*
X84385175Y-94568756D01*
X84551166Y-94281249D01*
X84551172Y-94281236D01*
X84682663Y-93976408D01*
X84777878Y-93658365D01*
X84777881Y-93658351D01*
X84835525Y-93331437D01*
X84835526Y-93331426D01*
X84854830Y-93000003D01*
X84854830Y-92999996D01*
X84835526Y-92668573D01*
X84835525Y-92668562D01*
X84777881Y-92341648D01*
X84777878Y-92341634D01*
X84682663Y-92023591D01*
X84551172Y-91718763D01*
X84551166Y-91718750D01*
X84385172Y-91431239D01*
X84187642Y-91165910D01*
X83115270Y-92238281D01*
X83029722Y-92120534D01*
X82879466Y-91970278D01*
X82761717Y-91884728D01*
X83830709Y-90815736D01*
X83830709Y-90815735D01*
X83704784Y-90710074D01*
X83427411Y-90527643D01*
X83130747Y-90378652D01*
X83130741Y-90378649D01*
X82818786Y-90265107D01*
X82818765Y-90265100D01*
X82495751Y-90188543D01*
X82495736Y-90188541D01*
X82165987Y-90150000D01*
X81834013Y-90150000D01*
X81504263Y-90188541D01*
X81504248Y-90188543D01*
X81181234Y-90265100D01*
X81181213Y-90265107D01*
X80869258Y-90378649D01*
X80869252Y-90378652D01*
X80572581Y-90527646D01*
X80295220Y-90710070D01*
X80295213Y-90710075D01*
X80169289Y-90815735D01*
X81238282Y-91884728D01*
X81120534Y-91970278D01*
X80970278Y-92120534D01*
X80884728Y-92238282D01*
X79812357Y-91165911D01*
X79812356Y-91165911D01*
X79614829Y-91431236D01*
X79614825Y-91431242D01*
X79448833Y-91718750D01*
X79448827Y-91718763D01*
X79317336Y-92023591D01*
X79222121Y-92341634D01*
X79222118Y-92341648D01*
X79164474Y-92668562D01*
X79164473Y-92668573D01*
X79145170Y-92999996D01*
X77500500Y-92999996D01*
X77500500Y-87624500D01*
X77520185Y-87557461D01*
X77572989Y-87511706D01*
X77624500Y-87500500D01*
X210375500Y-87500500D01*
X210442539Y-87520185D01*
G37*
%TD.AperFunction*%
%TD*%
M02*
