%TF.GenerationSoftware,KiCad,Pcbnew,8.0.4+dfsg-1*%
%TF.CreationDate,2025-04-01T21:10:26+02:00*%
%TF.ProjectId,nixie-top,6e697869-652d-4746-9f70-2e6b69636164,rev?*%
%TF.SameCoordinates,Original*%
%TF.FileFunction,Copper,L1,Top*%
%TF.FilePolarity,Positive*%
%FSLAX46Y46*%
G04 Gerber Fmt 4.6, Leading zero omitted, Abs format (unit mm)*
G04 Created by KiCad (PCBNEW 8.0.4+dfsg-1) date 2025-04-01 21:10:26*
%MOMM*%
%LPD*%
G01*
G04 APERTURE LIST*
G04 APERTURE END LIST*
%TA.AperFunction,NonConductor*%
G36*
X237442539Y-60020185D02*
G01*
X237488294Y-60072989D01*
X237499500Y-60124500D01*
X237499500Y-98875500D01*
X237479815Y-98942539D01*
X237427011Y-98988294D01*
X237375500Y-98999500D01*
X70624500Y-98999500D01*
X70557461Y-98979815D01*
X70511706Y-98927011D01*
X70500500Y-98875500D01*
X70500500Y-79426595D01*
X87982514Y-79426595D01*
X87982514Y-79573579D01*
X87982525Y-79573754D01*
X87982556Y-79816104D01*
X87982557Y-79816128D01*
X88020526Y-80447197D01*
X88020529Y-80447226D01*
X88096326Y-81074836D01*
X88096334Y-81074886D01*
X88209690Y-81696832D01*
X88209692Y-81696841D01*
X88209694Y-81696849D01*
X88360208Y-82310899D01*
X88360209Y-82310902D01*
X88360219Y-82310937D01*
X88547326Y-82914799D01*
X88770370Y-83506350D01*
X88770374Y-83506359D01*
X88770380Y-83506375D01*
X88980153Y-83975284D01*
X89028560Y-84083490D01*
X89247225Y-84502732D01*
X89320931Y-84644048D01*
X89338270Y-84672918D01*
X89611187Y-85127341D01*
X89646441Y-85186040D01*
X89747212Y-85333039D01*
X90003915Y-85707502D01*
X90003920Y-85707509D01*
X90392058Y-86206550D01*
X90392084Y-86206582D01*
X90702793Y-86560032D01*
X90809481Y-86681397D01*
X90809486Y-86681402D01*
X90809501Y-86681419D01*
X91254629Y-87130278D01*
X91254647Y-87130295D01*
X91254664Y-87130312D01*
X91565290Y-87408004D01*
X91726001Y-87551677D01*
X92221798Y-87943976D01*
X92221811Y-87943985D01*
X92740271Y-88305798D01*
X93158978Y-88562045D01*
X93279518Y-88635815D01*
X93692166Y-88855440D01*
X93837619Y-88932855D01*
X94412538Y-89195834D01*
X94412540Y-89195834D01*
X94412556Y-89195842D01*
X95002248Y-89423824D01*
X95604567Y-89615978D01*
X95604579Y-89615981D01*
X95604585Y-89615983D01*
X95789315Y-89662901D01*
X96217340Y-89771612D01*
X96838353Y-89890162D01*
X97465366Y-89971202D01*
X98096113Y-90014439D01*
X98728319Y-90019716D01*
X99359701Y-89987014D01*
X99987978Y-89916452D01*
X100610884Y-89808284D01*
X101226169Y-89662900D01*
X101831612Y-89480827D01*
X102425028Y-89262720D01*
X102425042Y-89262713D01*
X102425047Y-89262712D01*
X102988256Y-89016373D01*
X103004272Y-89009368D01*
X103567256Y-88721684D01*
X104111945Y-88400709D01*
X104636374Y-88047599D01*
X105138650Y-87663631D01*
X105616958Y-87250190D01*
X106069573Y-86808770D01*
X106494859Y-86340963D01*
X106891282Y-85848458D01*
X107257411Y-85333035D01*
X107385707Y-85127334D01*
X107393830Y-85115824D01*
X107395269Y-85114011D01*
X107395274Y-85114007D01*
X107426508Y-85061948D01*
X107427545Y-85060256D01*
X107428303Y-85059041D01*
X107431799Y-85053745D01*
X107568175Y-84858251D01*
X107578836Y-84845006D01*
X107738037Y-84672911D01*
X107750412Y-84661253D01*
X107931672Y-84512589D01*
X107945520Y-84502740D01*
X108145444Y-84380293D01*
X108160512Y-84372433D01*
X108375312Y-84278524D01*
X108391312Y-84272801D01*
X108616957Y-84209193D01*
X108633602Y-84205713D01*
X108865815Y-84173609D01*
X108882797Y-84172441D01*
X109117201Y-84172441D01*
X109134183Y-84173609D01*
X109366392Y-84205713D01*
X109383042Y-84209193D01*
X109608680Y-84272800D01*
X109624690Y-84278526D01*
X109839479Y-84372430D01*
X109854559Y-84380297D01*
X110054470Y-84502735D01*
X110068331Y-84512595D01*
X110190989Y-84613194D01*
X110249577Y-84661246D01*
X110261967Y-84672918D01*
X110421150Y-84844995D01*
X110431824Y-84858255D01*
X110568192Y-85053737D01*
X110571744Y-85059121D01*
X110572522Y-85060370D01*
X110573601Y-85062135D01*
X110604724Y-85114008D01*
X110606172Y-85115831D01*
X110614294Y-85127341D01*
X110671711Y-85219398D01*
X110742587Y-85333034D01*
X111008595Y-85707510D01*
X111108720Y-85848463D01*
X111108724Y-85848468D01*
X111505121Y-86340940D01*
X111505148Y-86340973D01*
X111930412Y-86808754D01*
X111930426Y-86808769D01*
X112383040Y-87250190D01*
X112861348Y-87663631D01*
X112861365Y-87663644D01*
X112861370Y-87663648D01*
X113363601Y-88047582D01*
X113363611Y-88047589D01*
X113363624Y-88047599D01*
X113363639Y-88047609D01*
X113888040Y-88400701D01*
X113888043Y-88400703D01*
X113888051Y-88400708D01*
X113888053Y-88400709D01*
X114432742Y-88721685D01*
X114995726Y-89009368D01*
X115574971Y-89262721D01*
X116168386Y-89480827D01*
X116773829Y-89662901D01*
X117389114Y-89808284D01*
X118012020Y-89916453D01*
X118640298Y-89987015D01*
X119271680Y-90019717D01*
X119903886Y-90014440D01*
X120534634Y-89971203D01*
X121161646Y-89890164D01*
X121590564Y-89808284D01*
X121782645Y-89771616D01*
X121782647Y-89771615D01*
X121782660Y-89771613D01*
X122273000Y-89647074D01*
X122395413Y-89615984D01*
X122395419Y-89615982D01*
X122395432Y-89615979D01*
X122997752Y-89423825D01*
X123587444Y-89195843D01*
X124162379Y-88932857D01*
X124720482Y-88635816D01*
X125259738Y-88305793D01*
X125778200Y-87943979D01*
X126273996Y-87551680D01*
X126745336Y-87130313D01*
X126745371Y-87130278D01*
X127190498Y-86681420D01*
X127190504Y-86681412D01*
X127190519Y-86681398D01*
X127607938Y-86206557D01*
X127996085Y-85707504D01*
X128353559Y-85186040D01*
X128679070Y-84644049D01*
X128869713Y-84278530D01*
X128971436Y-84083498D01*
X128971440Y-84083490D01*
X128971442Y-84083486D01*
X129229621Y-83506376D01*
X129452673Y-82914802D01*
X129452674Y-82914800D01*
X129639781Y-82310938D01*
X129639793Y-82310900D01*
X129790307Y-81696849D01*
X129903670Y-81074868D01*
X129979474Y-80447201D01*
X130017444Y-79816114D01*
X130017474Y-79574710D01*
X130017485Y-79574579D01*
X130017485Y-79426595D01*
X132982514Y-79426595D01*
X132982514Y-79573579D01*
X132982525Y-79573754D01*
X132982556Y-79816104D01*
X132982557Y-79816128D01*
X133020526Y-80447197D01*
X133020529Y-80447226D01*
X133096326Y-81074836D01*
X133096334Y-81074886D01*
X133209690Y-81696832D01*
X133209692Y-81696841D01*
X133209694Y-81696849D01*
X133360208Y-82310899D01*
X133360209Y-82310902D01*
X133360219Y-82310937D01*
X133547326Y-82914799D01*
X133770370Y-83506350D01*
X133770374Y-83506359D01*
X133770380Y-83506375D01*
X133980153Y-83975284D01*
X134028560Y-84083490D01*
X134247225Y-84502732D01*
X134320931Y-84644048D01*
X134338270Y-84672918D01*
X134611187Y-85127341D01*
X134646441Y-85186040D01*
X134747212Y-85333039D01*
X135003915Y-85707502D01*
X135003920Y-85707509D01*
X135392058Y-86206550D01*
X135392084Y-86206582D01*
X135702793Y-86560032D01*
X135809481Y-86681397D01*
X135809486Y-86681402D01*
X135809501Y-86681419D01*
X136254629Y-87130278D01*
X136254647Y-87130295D01*
X136254664Y-87130312D01*
X136565290Y-87408004D01*
X136726001Y-87551677D01*
X137221798Y-87943976D01*
X137221811Y-87943985D01*
X137740271Y-88305798D01*
X138158978Y-88562045D01*
X138279518Y-88635815D01*
X138692166Y-88855440D01*
X138837619Y-88932855D01*
X139412538Y-89195834D01*
X139412540Y-89195834D01*
X139412556Y-89195842D01*
X140002248Y-89423824D01*
X140604567Y-89615978D01*
X140604579Y-89615981D01*
X140604585Y-89615983D01*
X140789315Y-89662901D01*
X141217340Y-89771612D01*
X141838353Y-89890162D01*
X142465366Y-89971202D01*
X143096113Y-90014439D01*
X143728319Y-90019716D01*
X144359701Y-89987014D01*
X144987978Y-89916452D01*
X145610884Y-89808284D01*
X146226169Y-89662900D01*
X146831612Y-89480827D01*
X147425028Y-89262720D01*
X147425042Y-89262713D01*
X147425047Y-89262712D01*
X147988256Y-89016373D01*
X148004272Y-89009368D01*
X148567256Y-88721684D01*
X149111945Y-88400709D01*
X149636374Y-88047599D01*
X150138650Y-87663631D01*
X150616958Y-87250190D01*
X151069573Y-86808770D01*
X151494859Y-86340963D01*
X151891282Y-85848458D01*
X152257411Y-85333035D01*
X152385707Y-85127334D01*
X152393830Y-85115824D01*
X152395269Y-85114011D01*
X152395274Y-85114007D01*
X152426508Y-85061948D01*
X152427545Y-85060256D01*
X152428303Y-85059041D01*
X152431799Y-85053745D01*
X152568175Y-84858251D01*
X152578836Y-84845006D01*
X152738037Y-84672911D01*
X152750412Y-84661253D01*
X152931672Y-84512589D01*
X152945520Y-84502740D01*
X153145444Y-84380293D01*
X153160512Y-84372433D01*
X153375312Y-84278524D01*
X153391312Y-84272801D01*
X153616957Y-84209193D01*
X153633602Y-84205713D01*
X153865815Y-84173609D01*
X153882797Y-84172441D01*
X154117201Y-84172441D01*
X154134183Y-84173609D01*
X154366392Y-84205713D01*
X154383042Y-84209193D01*
X154608680Y-84272800D01*
X154624690Y-84278526D01*
X154839479Y-84372430D01*
X154854559Y-84380297D01*
X155054470Y-84502735D01*
X155068331Y-84512595D01*
X155190989Y-84613194D01*
X155249577Y-84661246D01*
X155261967Y-84672918D01*
X155421150Y-84844995D01*
X155431824Y-84858255D01*
X155568192Y-85053737D01*
X155571744Y-85059121D01*
X155572522Y-85060370D01*
X155573601Y-85062135D01*
X155604724Y-85114008D01*
X155606172Y-85115831D01*
X155614294Y-85127341D01*
X155671711Y-85219398D01*
X155742587Y-85333034D01*
X156008595Y-85707510D01*
X156108720Y-85848463D01*
X156108724Y-85848468D01*
X156505121Y-86340940D01*
X156505148Y-86340973D01*
X156930412Y-86808754D01*
X156930426Y-86808769D01*
X157383040Y-87250190D01*
X157861348Y-87663631D01*
X157861365Y-87663644D01*
X157861370Y-87663648D01*
X158363601Y-88047582D01*
X158363611Y-88047589D01*
X158363624Y-88047599D01*
X158363639Y-88047609D01*
X158888040Y-88400701D01*
X158888043Y-88400703D01*
X158888051Y-88400708D01*
X158888053Y-88400709D01*
X159432742Y-88721685D01*
X159995726Y-89009368D01*
X160574971Y-89262721D01*
X161168386Y-89480827D01*
X161773829Y-89662901D01*
X162389114Y-89808284D01*
X163012020Y-89916453D01*
X163640298Y-89987015D01*
X164271680Y-90019717D01*
X164903886Y-90014440D01*
X165534634Y-89971203D01*
X166161646Y-89890164D01*
X166590564Y-89808284D01*
X166782645Y-89771616D01*
X166782647Y-89771615D01*
X166782660Y-89771613D01*
X167273000Y-89647074D01*
X167395413Y-89615984D01*
X167395419Y-89615982D01*
X167395432Y-89615979D01*
X167997752Y-89423825D01*
X168587444Y-89195843D01*
X169162379Y-88932857D01*
X169720482Y-88635816D01*
X170259738Y-88305793D01*
X170778200Y-87943979D01*
X171273996Y-87551680D01*
X171745336Y-87130313D01*
X171745371Y-87130278D01*
X172190498Y-86681420D01*
X172190504Y-86681412D01*
X172190519Y-86681398D01*
X172607938Y-86206557D01*
X172996085Y-85707504D01*
X173353559Y-85186040D01*
X173679070Y-84644049D01*
X173869713Y-84278530D01*
X173971436Y-84083498D01*
X173971440Y-84083490D01*
X173971442Y-84083486D01*
X174229621Y-83506376D01*
X174452673Y-82914802D01*
X174452674Y-82914800D01*
X174639781Y-82310938D01*
X174639793Y-82310900D01*
X174790307Y-81696849D01*
X174903670Y-81074868D01*
X174979474Y-80447201D01*
X175017444Y-79816114D01*
X175017474Y-79574710D01*
X175017485Y-79574579D01*
X175017485Y-79426595D01*
X177982514Y-79426595D01*
X177982514Y-79573579D01*
X177982525Y-79573754D01*
X177982556Y-79816104D01*
X177982557Y-79816128D01*
X178020526Y-80447197D01*
X178020529Y-80447226D01*
X178096326Y-81074836D01*
X178096334Y-81074886D01*
X178209690Y-81696832D01*
X178209692Y-81696841D01*
X178209694Y-81696849D01*
X178360208Y-82310899D01*
X178360209Y-82310902D01*
X178360219Y-82310937D01*
X178547326Y-82914799D01*
X178770370Y-83506350D01*
X178770374Y-83506359D01*
X178770380Y-83506375D01*
X178980153Y-83975284D01*
X179028560Y-84083490D01*
X179247225Y-84502732D01*
X179320931Y-84644048D01*
X179338270Y-84672918D01*
X179611187Y-85127341D01*
X179646441Y-85186040D01*
X179747212Y-85333039D01*
X180003915Y-85707502D01*
X180003920Y-85707509D01*
X180392058Y-86206550D01*
X180392084Y-86206582D01*
X180702793Y-86560032D01*
X180809481Y-86681397D01*
X180809486Y-86681402D01*
X180809501Y-86681419D01*
X181254629Y-87130278D01*
X181254647Y-87130295D01*
X181254664Y-87130312D01*
X181565290Y-87408004D01*
X181726001Y-87551677D01*
X182221798Y-87943976D01*
X182221811Y-87943985D01*
X182740271Y-88305798D01*
X183158978Y-88562045D01*
X183279518Y-88635815D01*
X183692166Y-88855440D01*
X183837619Y-88932855D01*
X184412538Y-89195834D01*
X184412540Y-89195834D01*
X184412556Y-89195842D01*
X185002248Y-89423824D01*
X185604567Y-89615978D01*
X185604579Y-89615981D01*
X185604585Y-89615983D01*
X185789315Y-89662901D01*
X186217340Y-89771612D01*
X186838353Y-89890162D01*
X187465366Y-89971202D01*
X188096113Y-90014439D01*
X188728319Y-90019716D01*
X189359701Y-89987014D01*
X189987978Y-89916452D01*
X190610884Y-89808284D01*
X191226169Y-89662900D01*
X191831612Y-89480827D01*
X192425028Y-89262720D01*
X192425042Y-89262713D01*
X192425047Y-89262712D01*
X192988256Y-89016373D01*
X193004272Y-89009368D01*
X193567256Y-88721684D01*
X194111945Y-88400709D01*
X194636374Y-88047599D01*
X195138650Y-87663631D01*
X195616958Y-87250190D01*
X196069573Y-86808770D01*
X196494859Y-86340963D01*
X196891282Y-85848458D01*
X197257411Y-85333035D01*
X197385707Y-85127334D01*
X197393830Y-85115824D01*
X197395269Y-85114011D01*
X197395274Y-85114007D01*
X197426508Y-85061948D01*
X197427545Y-85060256D01*
X197428303Y-85059041D01*
X197431799Y-85053745D01*
X197568175Y-84858251D01*
X197578836Y-84845006D01*
X197738037Y-84672911D01*
X197750412Y-84661253D01*
X197931672Y-84512589D01*
X197945520Y-84502740D01*
X198145444Y-84380293D01*
X198160512Y-84372433D01*
X198375312Y-84278524D01*
X198391312Y-84272801D01*
X198616957Y-84209193D01*
X198633602Y-84205713D01*
X198865815Y-84173609D01*
X198882797Y-84172441D01*
X199117201Y-84172441D01*
X199134183Y-84173609D01*
X199366392Y-84205713D01*
X199383042Y-84209193D01*
X199608680Y-84272800D01*
X199624690Y-84278526D01*
X199839479Y-84372430D01*
X199854559Y-84380297D01*
X200054470Y-84502735D01*
X200068331Y-84512595D01*
X200190989Y-84613194D01*
X200249577Y-84661246D01*
X200261967Y-84672918D01*
X200421150Y-84844995D01*
X200431824Y-84858255D01*
X200568192Y-85053737D01*
X200571744Y-85059121D01*
X200572522Y-85060370D01*
X200573601Y-85062135D01*
X200604724Y-85114008D01*
X200606172Y-85115831D01*
X200614294Y-85127341D01*
X200671711Y-85219398D01*
X200742587Y-85333034D01*
X201008595Y-85707510D01*
X201108720Y-85848463D01*
X201108724Y-85848468D01*
X201505121Y-86340940D01*
X201505148Y-86340973D01*
X201930412Y-86808754D01*
X201930426Y-86808769D01*
X202383040Y-87250190D01*
X202861348Y-87663631D01*
X202861365Y-87663644D01*
X202861370Y-87663648D01*
X203363601Y-88047582D01*
X203363611Y-88047589D01*
X203363624Y-88047599D01*
X203363639Y-88047609D01*
X203888040Y-88400701D01*
X203888043Y-88400703D01*
X203888051Y-88400708D01*
X203888053Y-88400709D01*
X204432742Y-88721685D01*
X204995726Y-89009368D01*
X205574971Y-89262721D01*
X206168386Y-89480827D01*
X206773829Y-89662901D01*
X207389114Y-89808284D01*
X208012020Y-89916453D01*
X208640298Y-89987015D01*
X209271680Y-90019717D01*
X209903886Y-90014440D01*
X210534634Y-89971203D01*
X211161646Y-89890164D01*
X211590564Y-89808284D01*
X211782645Y-89771616D01*
X211782647Y-89771615D01*
X211782660Y-89771613D01*
X212273000Y-89647074D01*
X212395413Y-89615984D01*
X212395419Y-89615982D01*
X212395432Y-89615979D01*
X212997752Y-89423825D01*
X213587444Y-89195843D01*
X214162379Y-88932857D01*
X214720482Y-88635816D01*
X215259738Y-88305793D01*
X215778200Y-87943979D01*
X216273996Y-87551680D01*
X216745336Y-87130313D01*
X216745371Y-87130278D01*
X217190498Y-86681420D01*
X217190504Y-86681412D01*
X217190519Y-86681398D01*
X217607938Y-86206557D01*
X217996085Y-85707504D01*
X218353559Y-85186040D01*
X218679070Y-84644049D01*
X218869713Y-84278530D01*
X218971436Y-84083498D01*
X218971440Y-84083490D01*
X218971442Y-84083486D01*
X219229621Y-83506376D01*
X219452673Y-82914802D01*
X219452674Y-82914800D01*
X219639781Y-82310938D01*
X219639793Y-82310900D01*
X219790307Y-81696849D01*
X219903670Y-81074868D01*
X219979474Y-80447201D01*
X220017444Y-79816114D01*
X220017474Y-79574710D01*
X220017485Y-79574579D01*
X220017485Y-79425684D01*
X220017474Y-79425548D01*
X220017444Y-79183886D01*
X219979474Y-78552799D01*
X219903670Y-77925132D01*
X219790307Y-77303151D01*
X219639793Y-76689101D01*
X219596840Y-76550476D01*
X219452674Y-76085199D01*
X219229630Y-75493648D01*
X219229624Y-75493632D01*
X219229621Y-75493624D01*
X218971442Y-74916514D01*
X218971440Y-74916511D01*
X218971436Y-74916501D01*
X218679075Y-74355960D01*
X218679072Y-74355956D01*
X218679070Y-74355951D01*
X218353559Y-73813960D01*
X217996085Y-73292496D01*
X217886450Y-73151535D01*
X217607942Y-72793448D01*
X217607916Y-72793416D01*
X217317453Y-72462997D01*
X217190520Y-72318602D01*
X216745336Y-71869688D01*
X216273996Y-71448320D01*
X216273980Y-71448307D01*
X215778202Y-71056023D01*
X215778189Y-71056014D01*
X215259736Y-70694205D01*
X214720494Y-70364191D01*
X214720489Y-70364188D01*
X214720482Y-70364184D01*
X214307834Y-70144559D01*
X214162380Y-70067143D01*
X213587461Y-69804164D01*
X213587452Y-69804160D01*
X213587444Y-69804157D01*
X213194316Y-69652169D01*
X212997753Y-69576175D01*
X212674866Y-69473166D01*
X212395433Y-69384021D01*
X212395428Y-69384019D01*
X212395414Y-69384015D01*
X211782673Y-69228390D01*
X211782671Y-69228389D01*
X211590552Y-69191714D01*
X211161647Y-69109837D01*
X210923374Y-69079040D01*
X210534645Y-69028798D01*
X210534638Y-69028797D01*
X210534634Y-69028797D01*
X209903886Y-68985560D01*
X209271683Y-68980283D01*
X209271673Y-68980283D01*
X208640309Y-69012984D01*
X208640295Y-69012985D01*
X208012039Y-69083544D01*
X208012025Y-69083546D01*
X208012021Y-69083547D01*
X207750226Y-69129007D01*
X207389118Y-69191714D01*
X206773843Y-69337095D01*
X206773830Y-69337099D01*
X206168387Y-69519172D01*
X205715300Y-69685701D01*
X205574958Y-69737284D01*
X204995725Y-69990632D01*
X204432744Y-70278314D01*
X203888044Y-70599296D01*
X203888041Y-70599298D01*
X203363640Y-70952389D01*
X203363602Y-70952416D01*
X202861371Y-71336350D01*
X202861330Y-71336383D01*
X202383049Y-71749801D01*
X202383032Y-71749817D01*
X202069882Y-72055222D01*
X201971686Y-72150991D01*
X201930412Y-72191244D01*
X201505149Y-72659025D01*
X201505122Y-72659058D01*
X201108724Y-73151530D01*
X201108709Y-73151550D01*
X200742592Y-73666957D01*
X200742585Y-73666967D01*
X200614284Y-73872672D01*
X200606175Y-73884166D01*
X200604726Y-73885990D01*
X200573570Y-73937915D01*
X200572468Y-73939716D01*
X200571723Y-73940911D01*
X200568197Y-73946254D01*
X200431826Y-74141744D01*
X200421151Y-74155005D01*
X200261968Y-74327081D01*
X200249578Y-74338753D01*
X200068337Y-74487401D01*
X200054466Y-74497267D01*
X199854565Y-74619699D01*
X199839473Y-74627572D01*
X199624700Y-74721469D01*
X199608672Y-74727202D01*
X199383049Y-74790804D01*
X199366387Y-74794287D01*
X199134184Y-74826391D01*
X199117202Y-74827559D01*
X198882798Y-74827559D01*
X198865816Y-74826391D01*
X198633612Y-74794287D01*
X198616950Y-74790804D01*
X198391327Y-74727202D01*
X198375299Y-74721469D01*
X198160526Y-74627572D01*
X198145434Y-74619699D01*
X197945533Y-74497267D01*
X197931662Y-74487401D01*
X197750421Y-74338753D01*
X197738031Y-74327081D01*
X197578848Y-74155004D01*
X197568174Y-74141744D01*
X197431805Y-73946260D01*
X197428311Y-73940969D01*
X197427492Y-73939655D01*
X197426422Y-73937905D01*
X197411048Y-73912282D01*
X197395275Y-73885993D01*
X197395272Y-73885990D01*
X197393832Y-73884176D01*
X197385716Y-73872674D01*
X197257415Y-73666967D01*
X197257414Y-73666965D01*
X196891285Y-73151541D01*
X196494861Y-72659037D01*
X196494859Y-72659035D01*
X196494851Y-72659025D01*
X196069588Y-72191244D01*
X196069585Y-72191241D01*
X196069575Y-72191230D01*
X195616960Y-71749809D01*
X195616951Y-71749801D01*
X195138670Y-71336383D01*
X195138660Y-71336375D01*
X195138652Y-71336368D01*
X195138639Y-71336358D01*
X195138629Y-71336350D01*
X194636398Y-70952416D01*
X194636382Y-70952405D01*
X194636376Y-70952400D01*
X194580118Y-70914520D01*
X194111959Y-70599297D01*
X194111956Y-70599295D01*
X193597167Y-70295939D01*
X193567258Y-70278314D01*
X193305505Y-70144559D01*
X193004275Y-69990631D01*
X192425042Y-69737283D01*
X192425032Y-69737279D01*
X192425029Y-69737278D01*
X191831614Y-69519172D01*
X191226171Y-69337098D01*
X191226167Y-69337097D01*
X191226157Y-69337094D01*
X190610882Y-69191714D01*
X190380676Y-69151738D01*
X189987980Y-69083546D01*
X189987972Y-69083545D01*
X189987961Y-69083543D01*
X189359705Y-69012984D01*
X189359691Y-69012983D01*
X188728322Y-68980282D01*
X188728320Y-68980282D01*
X188096114Y-68985559D01*
X188096112Y-68985559D01*
X187696048Y-69012983D01*
X187465366Y-69028796D01*
X187465365Y-69028796D01*
X187465352Y-69028797D01*
X186838357Y-69109834D01*
X186838322Y-69109840D01*
X186217354Y-69228382D01*
X186217326Y-69228389D01*
X185604585Y-69384014D01*
X185604570Y-69384019D01*
X185002246Y-69576174D01*
X184609120Y-69728162D01*
X184412556Y-69804156D01*
X184412551Y-69804157D01*
X184412538Y-69804163D01*
X183837618Y-70067142D01*
X183279504Y-70364190D01*
X182740263Y-70694204D01*
X182221810Y-71056013D01*
X182221797Y-71056022D01*
X181726000Y-71448321D01*
X181254661Y-71869689D01*
X180809484Y-72318596D01*
X180809478Y-72318603D01*
X180392067Y-72793434D01*
X180392055Y-72793448D01*
X180003918Y-73292488D01*
X180003913Y-73292495D01*
X179646435Y-73813966D01*
X179646433Y-73813969D01*
X179320927Y-74355954D01*
X179028559Y-74916507D01*
X178770374Y-75493632D01*
X178770368Y-75493648D01*
X178547324Y-76085199D01*
X178360217Y-76689061D01*
X178360207Y-76689096D01*
X178209690Y-77303158D01*
X178209688Y-77303167D01*
X178096332Y-77925113D01*
X178096324Y-77925163D01*
X178020527Y-78552773D01*
X178020524Y-78552802D01*
X177982555Y-79183871D01*
X177982554Y-79183895D01*
X177982522Y-79426447D01*
X177982514Y-79426595D01*
X175017485Y-79426595D01*
X175017485Y-79425684D01*
X175017474Y-79425548D01*
X175017444Y-79183886D01*
X174979474Y-78552799D01*
X174903670Y-77925132D01*
X174790307Y-77303151D01*
X174639793Y-76689101D01*
X174596840Y-76550476D01*
X174452674Y-76085199D01*
X174229630Y-75493648D01*
X174229624Y-75493632D01*
X174229621Y-75493624D01*
X173971442Y-74916514D01*
X173971440Y-74916511D01*
X173971436Y-74916501D01*
X173679075Y-74355960D01*
X173679072Y-74355956D01*
X173679070Y-74355951D01*
X173353559Y-73813960D01*
X172996085Y-73292496D01*
X172886450Y-73151535D01*
X172607942Y-72793448D01*
X172607916Y-72793416D01*
X172317453Y-72462997D01*
X172190520Y-72318602D01*
X171745336Y-71869688D01*
X171273996Y-71448320D01*
X171273980Y-71448307D01*
X170778202Y-71056023D01*
X170778189Y-71056014D01*
X170259736Y-70694205D01*
X169720494Y-70364191D01*
X169720489Y-70364188D01*
X169720482Y-70364184D01*
X169307834Y-70144559D01*
X169162380Y-70067143D01*
X168587461Y-69804164D01*
X168587452Y-69804160D01*
X168587444Y-69804157D01*
X168194316Y-69652169D01*
X167997753Y-69576175D01*
X167674866Y-69473166D01*
X167395433Y-69384021D01*
X167395428Y-69384019D01*
X167395414Y-69384015D01*
X166782673Y-69228390D01*
X166782671Y-69228389D01*
X166590552Y-69191714D01*
X166161647Y-69109837D01*
X165923374Y-69079040D01*
X165534645Y-69028798D01*
X165534638Y-69028797D01*
X165534634Y-69028797D01*
X164903886Y-68985560D01*
X164271683Y-68980283D01*
X164271673Y-68980283D01*
X163640309Y-69012984D01*
X163640295Y-69012985D01*
X163012039Y-69083544D01*
X163012025Y-69083546D01*
X163012021Y-69083547D01*
X162750226Y-69129007D01*
X162389118Y-69191714D01*
X161773843Y-69337095D01*
X161773830Y-69337099D01*
X161168387Y-69519172D01*
X160715300Y-69685701D01*
X160574958Y-69737284D01*
X159995725Y-69990632D01*
X159432744Y-70278314D01*
X158888044Y-70599296D01*
X158888041Y-70599298D01*
X158363640Y-70952389D01*
X158363602Y-70952416D01*
X157861371Y-71336350D01*
X157861330Y-71336383D01*
X157383049Y-71749801D01*
X157383032Y-71749817D01*
X157069882Y-72055222D01*
X156971686Y-72150991D01*
X156930412Y-72191244D01*
X156505149Y-72659025D01*
X156505122Y-72659058D01*
X156108724Y-73151530D01*
X156108709Y-73151550D01*
X155742592Y-73666957D01*
X155742585Y-73666967D01*
X155614284Y-73872672D01*
X155606175Y-73884166D01*
X155604726Y-73885990D01*
X155573570Y-73937915D01*
X155572468Y-73939716D01*
X155571723Y-73940911D01*
X155568197Y-73946254D01*
X155431826Y-74141744D01*
X155421151Y-74155005D01*
X155261968Y-74327081D01*
X155249578Y-74338753D01*
X155068337Y-74487401D01*
X155054466Y-74497267D01*
X154854565Y-74619699D01*
X154839473Y-74627572D01*
X154624700Y-74721469D01*
X154608672Y-74727202D01*
X154383049Y-74790804D01*
X154366387Y-74794287D01*
X154134184Y-74826391D01*
X154117202Y-74827559D01*
X153882798Y-74827559D01*
X153865816Y-74826391D01*
X153633612Y-74794287D01*
X153616950Y-74790804D01*
X153391327Y-74727202D01*
X153375299Y-74721469D01*
X153160526Y-74627572D01*
X153145434Y-74619699D01*
X152945533Y-74497267D01*
X152931662Y-74487401D01*
X152750421Y-74338753D01*
X152738031Y-74327081D01*
X152578848Y-74155004D01*
X152568174Y-74141744D01*
X152431805Y-73946260D01*
X152428311Y-73940969D01*
X152427492Y-73939655D01*
X152426422Y-73937905D01*
X152411048Y-73912282D01*
X152395275Y-73885993D01*
X152395272Y-73885990D01*
X152393832Y-73884176D01*
X152385716Y-73872674D01*
X152257415Y-73666967D01*
X152257414Y-73666965D01*
X151891285Y-73151541D01*
X151494861Y-72659037D01*
X151494859Y-72659035D01*
X151494851Y-72659025D01*
X151069588Y-72191244D01*
X151069585Y-72191241D01*
X151069575Y-72191230D01*
X150616960Y-71749809D01*
X150616951Y-71749801D01*
X150138670Y-71336383D01*
X150138660Y-71336375D01*
X150138652Y-71336368D01*
X150138639Y-71336358D01*
X150138629Y-71336350D01*
X149636398Y-70952416D01*
X149636382Y-70952405D01*
X149636376Y-70952400D01*
X149580118Y-70914520D01*
X149111959Y-70599297D01*
X149111956Y-70599295D01*
X148597167Y-70295939D01*
X148567258Y-70278314D01*
X148305505Y-70144559D01*
X148004275Y-69990631D01*
X147425042Y-69737283D01*
X147425032Y-69737279D01*
X147425029Y-69737278D01*
X146831614Y-69519172D01*
X146226171Y-69337098D01*
X146226167Y-69337097D01*
X146226157Y-69337094D01*
X145610882Y-69191714D01*
X145380676Y-69151738D01*
X144987980Y-69083546D01*
X144987972Y-69083545D01*
X144987961Y-69083543D01*
X144359705Y-69012984D01*
X144359691Y-69012983D01*
X143728322Y-68980282D01*
X143728320Y-68980282D01*
X143096114Y-68985559D01*
X143096112Y-68985559D01*
X142696048Y-69012983D01*
X142465366Y-69028796D01*
X142465365Y-69028796D01*
X142465352Y-69028797D01*
X141838357Y-69109834D01*
X141838322Y-69109840D01*
X141217354Y-69228382D01*
X141217326Y-69228389D01*
X140604585Y-69384014D01*
X140604570Y-69384019D01*
X140002246Y-69576174D01*
X139609120Y-69728162D01*
X139412556Y-69804156D01*
X139412551Y-69804157D01*
X139412538Y-69804163D01*
X138837618Y-70067142D01*
X138279504Y-70364190D01*
X137740263Y-70694204D01*
X137221810Y-71056013D01*
X137221797Y-71056022D01*
X136726000Y-71448321D01*
X136254661Y-71869689D01*
X135809484Y-72318596D01*
X135809478Y-72318603D01*
X135392067Y-72793434D01*
X135392055Y-72793448D01*
X135003918Y-73292488D01*
X135003913Y-73292495D01*
X134646435Y-73813966D01*
X134646433Y-73813969D01*
X134320927Y-74355954D01*
X134028559Y-74916507D01*
X133770374Y-75493632D01*
X133770368Y-75493648D01*
X133547324Y-76085199D01*
X133360217Y-76689061D01*
X133360207Y-76689096D01*
X133209690Y-77303158D01*
X133209688Y-77303167D01*
X133096332Y-77925113D01*
X133096324Y-77925163D01*
X133020527Y-78552773D01*
X133020524Y-78552802D01*
X132982555Y-79183871D01*
X132982554Y-79183895D01*
X132982522Y-79426447D01*
X132982514Y-79426595D01*
X130017485Y-79426595D01*
X130017485Y-79425684D01*
X130017474Y-79425548D01*
X130017444Y-79183886D01*
X129979474Y-78552799D01*
X129903670Y-77925132D01*
X129790307Y-77303151D01*
X129639793Y-76689101D01*
X129596840Y-76550476D01*
X129452674Y-76085199D01*
X129229630Y-75493648D01*
X129229624Y-75493632D01*
X129229621Y-75493624D01*
X128971442Y-74916514D01*
X128971440Y-74916511D01*
X128971436Y-74916501D01*
X128679075Y-74355960D01*
X128679072Y-74355956D01*
X128679070Y-74355951D01*
X128353559Y-73813960D01*
X127996085Y-73292496D01*
X127886450Y-73151535D01*
X127607942Y-72793448D01*
X127607916Y-72793416D01*
X127317453Y-72462997D01*
X127190520Y-72318602D01*
X126745336Y-71869688D01*
X126273996Y-71448320D01*
X126273980Y-71448307D01*
X125778202Y-71056023D01*
X125778189Y-71056014D01*
X125259736Y-70694205D01*
X124720494Y-70364191D01*
X124720489Y-70364188D01*
X124720482Y-70364184D01*
X124307834Y-70144559D01*
X124162380Y-70067143D01*
X123587461Y-69804164D01*
X123587452Y-69804160D01*
X123587444Y-69804157D01*
X123194316Y-69652169D01*
X122997753Y-69576175D01*
X122674866Y-69473166D01*
X122395433Y-69384021D01*
X122395428Y-69384019D01*
X122395414Y-69384015D01*
X121782673Y-69228390D01*
X121782671Y-69228389D01*
X121590552Y-69191714D01*
X121161647Y-69109837D01*
X120923374Y-69079040D01*
X120534645Y-69028798D01*
X120534638Y-69028797D01*
X120534634Y-69028797D01*
X119903886Y-68985560D01*
X119271683Y-68980283D01*
X119271673Y-68980283D01*
X118640309Y-69012984D01*
X118640295Y-69012985D01*
X118012039Y-69083544D01*
X118012025Y-69083546D01*
X118012021Y-69083547D01*
X117750226Y-69129007D01*
X117389118Y-69191714D01*
X116773843Y-69337095D01*
X116773830Y-69337099D01*
X116168387Y-69519172D01*
X115715300Y-69685701D01*
X115574958Y-69737284D01*
X114995725Y-69990632D01*
X114432744Y-70278314D01*
X113888044Y-70599296D01*
X113888041Y-70599298D01*
X113363640Y-70952389D01*
X113363602Y-70952416D01*
X112861371Y-71336350D01*
X112861330Y-71336383D01*
X112383049Y-71749801D01*
X112383032Y-71749817D01*
X112069882Y-72055222D01*
X111971686Y-72150991D01*
X111930412Y-72191244D01*
X111505149Y-72659025D01*
X111505122Y-72659058D01*
X111108724Y-73151530D01*
X111108709Y-73151550D01*
X110742592Y-73666957D01*
X110742585Y-73666967D01*
X110614284Y-73872672D01*
X110606175Y-73884166D01*
X110604726Y-73885990D01*
X110573570Y-73937915D01*
X110572468Y-73939716D01*
X110571723Y-73940911D01*
X110568197Y-73946254D01*
X110431826Y-74141744D01*
X110421151Y-74155005D01*
X110261968Y-74327081D01*
X110249578Y-74338753D01*
X110068337Y-74487401D01*
X110054466Y-74497267D01*
X109854565Y-74619699D01*
X109839473Y-74627572D01*
X109624700Y-74721469D01*
X109608672Y-74727202D01*
X109383049Y-74790804D01*
X109366387Y-74794287D01*
X109134184Y-74826391D01*
X109117202Y-74827559D01*
X108882798Y-74827559D01*
X108865816Y-74826391D01*
X108633612Y-74794287D01*
X108616950Y-74790804D01*
X108391327Y-74727202D01*
X108375299Y-74721469D01*
X108160526Y-74627572D01*
X108145434Y-74619699D01*
X107945533Y-74497267D01*
X107931662Y-74487401D01*
X107750421Y-74338753D01*
X107738031Y-74327081D01*
X107578848Y-74155004D01*
X107568174Y-74141744D01*
X107431805Y-73946260D01*
X107428311Y-73940969D01*
X107427492Y-73939655D01*
X107426422Y-73937905D01*
X107411048Y-73912282D01*
X107395275Y-73885993D01*
X107395272Y-73885990D01*
X107393832Y-73884176D01*
X107385716Y-73872674D01*
X107257415Y-73666967D01*
X107257414Y-73666965D01*
X106891285Y-73151541D01*
X106494861Y-72659037D01*
X106494859Y-72659035D01*
X106494851Y-72659025D01*
X106069588Y-72191244D01*
X106069585Y-72191241D01*
X106069575Y-72191230D01*
X105616960Y-71749809D01*
X105616951Y-71749801D01*
X105138670Y-71336383D01*
X105138660Y-71336375D01*
X105138652Y-71336368D01*
X105138639Y-71336358D01*
X105138629Y-71336350D01*
X104636398Y-70952416D01*
X104636382Y-70952405D01*
X104636376Y-70952400D01*
X104580118Y-70914520D01*
X104111959Y-70599297D01*
X104111956Y-70599295D01*
X103597167Y-70295939D01*
X103567258Y-70278314D01*
X103305505Y-70144559D01*
X103004275Y-69990631D01*
X102425042Y-69737283D01*
X102425032Y-69737279D01*
X102425029Y-69737278D01*
X101831614Y-69519172D01*
X101226171Y-69337098D01*
X101226167Y-69337097D01*
X101226157Y-69337094D01*
X100610882Y-69191714D01*
X100380676Y-69151738D01*
X99987980Y-69083546D01*
X99987972Y-69083545D01*
X99987961Y-69083543D01*
X99359705Y-69012984D01*
X99359691Y-69012983D01*
X98728322Y-68980282D01*
X98728320Y-68980282D01*
X98096114Y-68985559D01*
X98096112Y-68985559D01*
X97696048Y-69012983D01*
X97465366Y-69028796D01*
X97465365Y-69028796D01*
X97465352Y-69028797D01*
X96838357Y-69109834D01*
X96838322Y-69109840D01*
X96217354Y-69228382D01*
X96217326Y-69228389D01*
X95604585Y-69384014D01*
X95604570Y-69384019D01*
X95002246Y-69576174D01*
X94609120Y-69728162D01*
X94412556Y-69804156D01*
X94412551Y-69804157D01*
X94412538Y-69804163D01*
X93837618Y-70067142D01*
X93279504Y-70364190D01*
X92740263Y-70694204D01*
X92221810Y-71056013D01*
X92221797Y-71056022D01*
X91726000Y-71448321D01*
X91254661Y-71869689D01*
X90809484Y-72318596D01*
X90809478Y-72318603D01*
X90392067Y-72793434D01*
X90392055Y-72793448D01*
X90003918Y-73292488D01*
X90003913Y-73292495D01*
X89646435Y-73813966D01*
X89646433Y-73813969D01*
X89320927Y-74355954D01*
X89028559Y-74916507D01*
X88770374Y-75493632D01*
X88770368Y-75493648D01*
X88547324Y-76085199D01*
X88360217Y-76689061D01*
X88360207Y-76689096D01*
X88209690Y-77303158D01*
X88209688Y-77303167D01*
X88096332Y-77925113D01*
X88096324Y-77925163D01*
X88020527Y-78552773D01*
X88020524Y-78552802D01*
X87982555Y-79183871D01*
X87982554Y-79183895D01*
X87982522Y-79426447D01*
X87982514Y-79426595D01*
X70500500Y-79426595D01*
X70500500Y-60124500D01*
X70520185Y-60057461D01*
X70572989Y-60011706D01*
X70624500Y-60000500D01*
X237375500Y-60000500D01*
X237442539Y-60020185D01*
G37*
%TD.AperFunction*%
M02*
