%TF.GenerationSoftware,KiCad,Pcbnew,8.0.4+dfsg-1*%
%TF.CreationDate,2025-04-01T21:10:26+02:00*%
%TF.ProjectId,nixie-top,6e697869-652d-4746-9f70-2e6b69636164,rev?*%
%TF.SameCoordinates,Original*%
%TF.FileFunction,Profile,NP*%
%FSLAX46Y46*%
G04 Gerber Fmt 4.6, Leading zero omitted, Abs format (unit mm)*
G04 Created by KiCad (PCBNEW 8.0.4+dfsg-1) date 2025-04-01 21:10:26*
%MOMM*%
%LPD*%
G01*
G04 APERTURE LIST*
%TA.AperFunction,Profile*%
%ADD10C,0.100000*%
%TD*%
G04 APERTURE END LIST*
D10*
X88483014Y-79500000D02*
G75*
G02*
X107000001Y-74200000I10016986J1D01*
G01*
X110999999Y-74200000D02*
G75*
G02*
X107000001Y-74200000I-1999999J1200000D01*
G01*
X174516985Y-79500000D02*
G75*
G02*
X155999997Y-84800001I-10016987J0D01*
G01*
X200999999Y-74200000D02*
G75*
G02*
X197000001Y-74200000I-1999999J1200000D01*
G01*
X106999999Y-84800000D02*
G75*
G02*
X88483014Y-79500000I-8500000J5299999D01*
G01*
X133483014Y-79500000D02*
G75*
G02*
X152000001Y-74200000I10016986J1D01*
G01*
X155999999Y-74200000D02*
G75*
G02*
X152000001Y-74200000I-1999999J1200000D01*
G01*
X151999999Y-84800000D02*
G75*
G02*
X133483013Y-79500000I-8500000J5300001D01*
G01*
X156000000Y-74200000D02*
G75*
G02*
X174516983Y-79500000I8499999J-5299999D01*
G01*
X201000000Y-74200000D02*
G75*
G02*
X219516983Y-79500000I8499999J-5299999D01*
G01*
X238000000Y-59500000D02*
X238000000Y-79500000D01*
X238000000Y-99500000D02*
X70000000Y-99500000D01*
X238000000Y-79500000D02*
X238000000Y-99500000D01*
X70000000Y-59500000D02*
X238000000Y-59500000D01*
X219516985Y-79500000D02*
G75*
G02*
X200999997Y-84800001I-10016987J0D01*
G01*
X196999999Y-84800000D02*
G75*
G02*
X178483013Y-79500000I-8500000J5300001D01*
G01*
X111000000Y-74200000D02*
G75*
G02*
X129516983Y-79500000I8499999J-5299999D01*
G01*
X107000000Y-84800000D02*
G75*
G02*
X110999998Y-84800000I1999999J-1199999D01*
G01*
X178483014Y-79500000D02*
G75*
G02*
X197000001Y-74200000I10016986J1D01*
G01*
X152000000Y-84800000D02*
G75*
G02*
X155999998Y-84800000I1999999J-1199999D01*
G01*
X129516985Y-79500000D02*
G75*
G02*
X110999997Y-84800001I-10016987J0D01*
G01*
X70000000Y-99500000D02*
X70000000Y-79500000D01*
X70000000Y-79500000D02*
X70000000Y-59500000D01*
X197000000Y-84800000D02*
G75*
G02*
X200999998Y-84800000I1999999J-1199999D01*
G01*
M02*
