%TF.GenerationSoftware,KiCad,Pcbnew,8.0.4+dfsg-1*%
%TF.CreationDate,2025-03-03T18:40:41+01:00*%
%TF.ProjectId,nixie-clock-psu,6e697869-652d-4636-9c6f-636b2d707375,rev?*%
%TF.SameCoordinates,Original*%
%TF.FileFunction,Copper,L1,Top*%
%TF.FilePolarity,Positive*%
%FSLAX46Y46*%
G04 Gerber Fmt 4.6, Leading zero omitted, Abs format (unit mm)*
G04 Created by KiCad (PCBNEW 8.0.4+dfsg-1) date 2025-03-03 18:40:41*
%MOMM*%
%LPD*%
G01*
G04 APERTURE LIST*
G04 Aperture macros list*
%AMRoundRect*
0 Rectangle with rounded corners*
0 $1 Rounding radius*
0 $2 $3 $4 $5 $6 $7 $8 $9 X,Y pos of 4 corners*
0 Add a 4 corners polygon primitive as box body*
4,1,4,$2,$3,$4,$5,$6,$7,$8,$9,$2,$3,0*
0 Add four circle primitives for the rounded corners*
1,1,$1+$1,$2,$3*
1,1,$1+$1,$4,$5*
1,1,$1+$1,$6,$7*
1,1,$1+$1,$8,$9*
0 Add four rect primitives between the rounded corners*
20,1,$1+$1,$2,$3,$4,$5,0*
20,1,$1+$1,$4,$5,$6,$7,0*
20,1,$1+$1,$6,$7,$8,$9,0*
20,1,$1+$1,$8,$9,$2,$3,0*%
G04 Aperture macros list end*
%ADD10C,0.300000*%
%TA.AperFunction,NonConductor*%
%ADD11C,0.300000*%
%TD*%
%TA.AperFunction,SMDPad,CuDef*%
%ADD12RoundRect,0.150000X-0.725000X-0.150000X0.725000X-0.150000X0.725000X0.150000X-0.725000X0.150000X0*%
%TD*%
%TA.AperFunction,ComponentPad*%
%ADD13R,1.700000X2.500000*%
%TD*%
%TA.AperFunction,ComponentPad*%
%ADD14O,1.700000X2.500000*%
%TD*%
%TA.AperFunction,SMDPad,CuDef*%
%ADD15RoundRect,0.250000X-0.337500X-0.475000X0.337500X-0.475000X0.337500X0.475000X-0.337500X0.475000X0*%
%TD*%
%TA.AperFunction,SMDPad,CuDef*%
%ADD16RoundRect,0.250000X-0.625000X0.312500X-0.625000X-0.312500X0.625000X-0.312500X0.625000X0.312500X0*%
%TD*%
%TA.AperFunction,ComponentPad*%
%ADD17C,4.700000*%
%TD*%
%TA.AperFunction,SMDPad,CuDef*%
%ADD18RoundRect,0.250000X0.550000X-1.250000X0.550000X1.250000X-0.550000X1.250000X-0.550000X-1.250000X0*%
%TD*%
%TA.AperFunction,SMDPad,CuDef*%
%ADD19RoundRect,0.250000X-0.550000X1.500000X-0.550000X-1.500000X0.550000X-1.500000X0.550000X1.500000X0*%
%TD*%
%TA.AperFunction,ComponentPad*%
%ADD20R,4.600000X2.000000*%
%TD*%
%TA.AperFunction,ComponentPad*%
%ADD21O,4.200000X2.000000*%
%TD*%
%TA.AperFunction,ComponentPad*%
%ADD22O,2.000000X4.200000*%
%TD*%
%TA.AperFunction,SMDPad,CuDef*%
%ADD23RoundRect,0.250000X1.000000X0.900000X-1.000000X0.900000X-1.000000X-0.900000X1.000000X-0.900000X0*%
%TD*%
%TA.AperFunction,SMDPad,CuDef*%
%ADD24RoundRect,0.250000X0.475000X-0.337500X0.475000X0.337500X-0.475000X0.337500X-0.475000X-0.337500X0*%
%TD*%
%TA.AperFunction,SMDPad,CuDef*%
%ADD25RoundRect,0.250000X1.000000X-1.950000X1.000000X1.950000X-1.000000X1.950000X-1.000000X-1.950000X0*%
%TD*%
%TA.AperFunction,SMDPad,CuDef*%
%ADD26RoundRect,0.250000X-2.050000X-0.300000X2.050000X-0.300000X2.050000X0.300000X-2.050000X0.300000X0*%
%TD*%
%TA.AperFunction,SMDPad,CuDef*%
%ADD27RoundRect,0.250000X-2.025000X-2.375000X2.025000X-2.375000X2.025000X2.375000X-2.025000X2.375000X0*%
%TD*%
%TA.AperFunction,SMDPad,CuDef*%
%ADD28RoundRect,0.250002X-4.449998X-5.149998X4.449998X-5.149998X4.449998X5.149998X-4.449998X5.149998X0*%
%TD*%
%TA.AperFunction,SMDPad,CuDef*%
%ADD29RoundRect,0.250000X-0.475000X0.337500X-0.475000X-0.337500X0.475000X-0.337500X0.475000X0.337500X0*%
%TD*%
%TA.AperFunction,SMDPad,CuDef*%
%ADD30R,1.100000X3.700000*%
%TD*%
%TA.AperFunction,SMDPad,CuDef*%
%ADD31RoundRect,0.250000X0.337500X0.475000X-0.337500X0.475000X-0.337500X-0.475000X0.337500X-0.475000X0*%
%TD*%
%TA.AperFunction,SMDPad,CuDef*%
%ADD32R,7.500000X2.200000*%
%TD*%
%TA.AperFunction,ComponentPad*%
%ADD33R,1.700000X1.700000*%
%TD*%
%TA.AperFunction,ComponentPad*%
%ADD34O,1.700000X1.700000*%
%TD*%
%TA.AperFunction,ViaPad*%
%ADD35C,0.600000*%
%TD*%
%TA.AperFunction,Conductor*%
%ADD36C,2.000000*%
%TD*%
%TA.AperFunction,Conductor*%
%ADD37C,1.000000*%
%TD*%
%TA.AperFunction,Conductor*%
%ADD38C,0.800000*%
%TD*%
%TA.AperFunction,Conductor*%
%ADD39C,0.500000*%
%TD*%
G04 APERTURE END LIST*
D10*
D11*
X150249757Y-111142855D02*
X150249757Y-110428570D01*
X150678328Y-111285712D02*
X149178328Y-110785712D01*
X149178328Y-110785712D02*
X150678328Y-110285712D01*
X150678328Y-108928570D02*
X149964042Y-109428570D01*
X150678328Y-109785713D02*
X149178328Y-109785713D01*
X149178328Y-109785713D02*
X149178328Y-109214284D01*
X149178328Y-109214284D02*
X149249757Y-109071427D01*
X149249757Y-109071427D02*
X149321185Y-108999998D01*
X149321185Y-108999998D02*
X149464042Y-108928570D01*
X149464042Y-108928570D02*
X149678328Y-108928570D01*
X149678328Y-108928570D02*
X149821185Y-108999998D01*
X149821185Y-108999998D02*
X149892614Y-109071427D01*
X149892614Y-109071427D02*
X149964042Y-109214284D01*
X149964042Y-109214284D02*
X149964042Y-109785713D01*
X150678328Y-107571427D02*
X150678328Y-108285713D01*
X150678328Y-108285713D02*
X149178328Y-108285713D01*
X149321185Y-105999998D02*
X149249757Y-105928570D01*
X149249757Y-105928570D02*
X149178328Y-105785713D01*
X149178328Y-105785713D02*
X149178328Y-105428570D01*
X149178328Y-105428570D02*
X149249757Y-105285713D01*
X149249757Y-105285713D02*
X149321185Y-105214284D01*
X149321185Y-105214284D02*
X149464042Y-105142855D01*
X149464042Y-105142855D02*
X149606900Y-105142855D01*
X149606900Y-105142855D02*
X149821185Y-105214284D01*
X149821185Y-105214284D02*
X150678328Y-106071427D01*
X150678328Y-106071427D02*
X150678328Y-105142855D01*
X149178328Y-104214284D02*
X149178328Y-104071427D01*
X149178328Y-104071427D02*
X149249757Y-103928570D01*
X149249757Y-103928570D02*
X149321185Y-103857142D01*
X149321185Y-103857142D02*
X149464042Y-103785713D01*
X149464042Y-103785713D02*
X149749757Y-103714284D01*
X149749757Y-103714284D02*
X150106900Y-103714284D01*
X150106900Y-103714284D02*
X150392614Y-103785713D01*
X150392614Y-103785713D02*
X150535471Y-103857142D01*
X150535471Y-103857142D02*
X150606900Y-103928570D01*
X150606900Y-103928570D02*
X150678328Y-104071427D01*
X150678328Y-104071427D02*
X150678328Y-104214284D01*
X150678328Y-104214284D02*
X150606900Y-104357142D01*
X150606900Y-104357142D02*
X150535471Y-104428570D01*
X150535471Y-104428570D02*
X150392614Y-104499999D01*
X150392614Y-104499999D02*
X150106900Y-104571427D01*
X150106900Y-104571427D02*
X149749757Y-104571427D01*
X149749757Y-104571427D02*
X149464042Y-104499999D01*
X149464042Y-104499999D02*
X149321185Y-104428570D01*
X149321185Y-104428570D02*
X149249757Y-104357142D01*
X149249757Y-104357142D02*
X149178328Y-104214284D01*
X149321185Y-103142856D02*
X149249757Y-103071428D01*
X149249757Y-103071428D02*
X149178328Y-102928571D01*
X149178328Y-102928571D02*
X149178328Y-102571428D01*
X149178328Y-102571428D02*
X149249757Y-102428571D01*
X149249757Y-102428571D02*
X149321185Y-102357142D01*
X149321185Y-102357142D02*
X149464042Y-102285713D01*
X149464042Y-102285713D02*
X149606900Y-102285713D01*
X149606900Y-102285713D02*
X149821185Y-102357142D01*
X149821185Y-102357142D02*
X150678328Y-103214285D01*
X150678328Y-103214285D02*
X150678328Y-102285713D01*
X149178328Y-100928571D02*
X149178328Y-101642857D01*
X149178328Y-101642857D02*
X149892614Y-101714285D01*
X149892614Y-101714285D02*
X149821185Y-101642857D01*
X149821185Y-101642857D02*
X149749757Y-101500000D01*
X149749757Y-101500000D02*
X149749757Y-101142857D01*
X149749757Y-101142857D02*
X149821185Y-101000000D01*
X149821185Y-101000000D02*
X149892614Y-100928571D01*
X149892614Y-100928571D02*
X150035471Y-100857142D01*
X150035471Y-100857142D02*
X150392614Y-100857142D01*
X150392614Y-100857142D02*
X150535471Y-100928571D01*
X150535471Y-100928571D02*
X150606900Y-101000000D01*
X150606900Y-101000000D02*
X150678328Y-101142857D01*
X150678328Y-101142857D02*
X150678328Y-101500000D01*
X150678328Y-101500000D02*
X150606900Y-101642857D01*
X150606900Y-101642857D02*
X150535471Y-101714285D01*
D12*
%TO.P,U1,1,EXT*%
%TO.N,Net-(Q1-G)*%
X176425000Y-102695000D03*
%TO.P,U1,2,V+*%
%TO.N,VCC*%
X176425000Y-103965000D03*
%TO.P,U1,3,FB*%
%TO.N,Net-(U1-FB)*%
X176425000Y-105235000D03*
%TO.P,U1,4,SHDN*%
%TO.N,GND*%
X176425000Y-106505000D03*
%TO.P,U1,5,REF*%
%TO.N,Net-(U1-REF)*%
X181575000Y-106505000D03*
%TO.P,U1,6,AGND*%
%TO.N,GND*%
X181575000Y-105235000D03*
%TO.P,U1,7,GND*%
X181575000Y-103965000D03*
%TO.P,U1,8,CS*%
%TO.N,Net-(Q1-S)*%
X181575000Y-102695000D03*
%TD*%
D13*
%TO.P,U2,1,IN*%
%TO.N,Net-(U2-IN)*%
X175320000Y-117600000D03*
D14*
%TO.P,U2,2,GND*%
%TO.N,GND*%
X177860000Y-117600000D03*
%TO.P,U2,3,OUT*%
%TO.N,+5V*%
X180400000Y-117600000D03*
%TD*%
D15*
%TO.P,C3,1*%
%TO.N,Net-(U2-IN)*%
X172562500Y-109200000D03*
%TO.P,C3,2*%
%TO.N,+5V*%
X174637500Y-109200000D03*
%TD*%
%TO.P,C10,1*%
%TO.N,GND*%
X197962500Y-113500000D03*
%TO.P,C10,2*%
%TO.N,+170*%
X200037500Y-113500000D03*
%TD*%
D16*
%TO.P,R2,1*%
%TO.N,Net-(U1-FB)*%
X198000000Y-99537500D03*
%TO.P,R2,2*%
%TO.N,GND*%
X198000000Y-102462500D03*
%TD*%
D17*
%TO.P,H4,1,1*%
%TO.N,GND*%
X206000000Y-91000000D03*
%TD*%
D15*
%TO.P,C4,1*%
%TO.N,GND*%
X192962500Y-113500000D03*
%TO.P,C4,2*%
%TO.N,+5V*%
X195037500Y-113500000D03*
%TD*%
D18*
%TO.P,C5,1*%
%TO.N,+5V*%
X187200000Y-117600000D03*
%TO.P,C5,2*%
%TO.N,GND*%
X187200000Y-113200000D03*
%TD*%
D19*
%TO.P,C6,1*%
%TO.N,VCC*%
X191200000Y-104550000D03*
%TO.P,C6,2*%
%TO.N,GND*%
X191200000Y-109950000D03*
%TD*%
D17*
%TO.P,H2,1,1*%
%TO.N,GND*%
X150000000Y-116000000D03*
%TD*%
%TO.P,H3,1,1*%
%TO.N,GND*%
X150000000Y-91000000D03*
%TD*%
D20*
%TO.P,J2,1*%
%TO.N,VCC*%
X158455000Y-101000000D03*
D21*
%TO.P,J2,2*%
%TO.N,GND*%
X158455000Y-94700000D03*
D22*
%TO.P,J2,3*%
%TO.N,unconnected-(J2-Pad3)*%
X153655000Y-98100000D03*
%TD*%
D23*
%TO.P,D2,1,K*%
%TO.N,+170*%
X193850000Y-89500000D03*
%TO.P,D2,2,A*%
%TO.N,Net-(D2-A)*%
X189550000Y-89500000D03*
%TD*%
D24*
%TO.P,C1,1*%
%TO.N,GND*%
X163600000Y-118237500D03*
%TO.P,C1,2*%
%TO.N,VCC*%
X163600000Y-116162500D03*
%TD*%
D25*
%TO.P,C7,1*%
%TO.N,+170*%
X205500000Y-109200000D03*
%TO.P,C7,2*%
%TO.N,GND*%
X205500000Y-100800000D03*
%TD*%
D16*
%TO.P,R1,1*%
%TO.N,+170*%
X198000000Y-94037500D03*
%TO.P,R1,2*%
%TO.N,Net-(U1-FB)*%
X198000000Y-96962500D03*
%TD*%
%TO.P,R3,1*%
%TO.N,Net-(Q1-S)*%
X169400000Y-99629500D03*
%TO.P,R3,2*%
%TO.N,GND*%
X169400000Y-102554500D03*
%TD*%
D26*
%TO.P,Q1,1,G*%
%TO.N,Net-(Q1-G)*%
X169350000Y-90460000D03*
D27*
%TO.P,Q1,2,D*%
%TO.N,Net-(D2-A)*%
X176075000Y-90225000D03*
X176075000Y-95775000D03*
D28*
X178500000Y-93000000D03*
D27*
X180925000Y-90225000D03*
X180925000Y-95775000D03*
D26*
%TO.P,Q1,3,S*%
%TO.N,Net-(Q1-S)*%
X169350000Y-95540000D03*
%TD*%
D29*
%TO.P,C11,1*%
%TO.N,GND*%
X201450000Y-94462500D03*
%TO.P,C11,2*%
%TO.N,Net-(U1-FB)*%
X201450000Y-96537500D03*
%TD*%
D30*
%TO.P,L1,1*%
%TO.N,VCC*%
X167000000Y-117000000D03*
%TO.P,L1,2*%
%TO.N,Net-(U2-IN)*%
X170000000Y-117000000D03*
%TD*%
D15*
%TO.P,C2,1*%
%TO.N,GND*%
X165562500Y-109200000D03*
%TO.P,C2,2*%
%TO.N,Net-(U2-IN)*%
X167637500Y-109200000D03*
%TD*%
D31*
%TO.P,C9,1*%
%TO.N,GND*%
X181637500Y-100200000D03*
%TO.P,C9,2*%
%TO.N,VCC*%
X179562500Y-100200000D03*
%TD*%
D32*
%TO.P,L2,1*%
%TO.N,VCC*%
X191200000Y-100000000D03*
%TO.P,L2,2*%
%TO.N,Net-(D2-A)*%
X191200000Y-94000000D03*
%TD*%
D17*
%TO.P,H1,1,1*%
%TO.N,GND*%
X206000000Y-116000000D03*
%TD*%
D15*
%TO.P,C8,1*%
%TO.N,GND*%
X179562500Y-109200000D03*
%TO.P,C8,2*%
%TO.N,Net-(U1-REF)*%
X181637500Y-109200000D03*
%TD*%
D33*
%TO.P,J1,1,Pin_1*%
%TO.N,GND*%
X193000000Y-117000000D03*
D34*
%TO.P,J1,2,Pin_2*%
%TO.N,+5V*%
X195540000Y-117000000D03*
%TO.P,J1,3,Pin_3*%
%TO.N,GND*%
X198080000Y-117000000D03*
%TO.P,J1,4,Pin_4*%
%TO.N,+170*%
X200620000Y-117000000D03*
%TD*%
D35*
%TO.N,VCC*%
X158242000Y-106426000D03*
X158242000Y-105410000D03*
X158242000Y-104394000D03*
X158242000Y-103378000D03*
%TO.N,GND*%
X209804000Y-88392000D03*
X209804000Y-93472000D03*
X185420000Y-95504000D03*
X155702000Y-88392000D03*
X185420000Y-92710000D03*
X203800000Y-100800000D03*
X178200000Y-109200000D03*
X164846000Y-96012000D03*
X147828000Y-94996000D03*
X202600000Y-100800000D03*
X191200000Y-112400000D03*
X166116000Y-88392000D03*
X162200000Y-118200000D03*
X187200000Y-111000000D03*
X200914000Y-88138000D03*
X178816000Y-110998000D03*
X152654000Y-102870000D03*
X171800000Y-115800000D03*
X160782000Y-88392000D03*
X209550000Y-119126000D03*
X195580000Y-110744000D03*
X195580000Y-103124000D03*
X192800000Y-110000000D03*
X171400000Y-111000000D03*
X177800000Y-115200000D03*
X207800000Y-100800000D03*
X182000000Y-115600000D03*
X169400000Y-103342000D03*
X174800000Y-106600000D03*
X152654000Y-106680000D03*
X161400000Y-94600000D03*
X189600000Y-110000000D03*
X158400000Y-96600000D03*
X183200000Y-104000000D03*
X155600000Y-94600000D03*
X188800000Y-113400000D03*
X183200000Y-105200000D03*
X158400000Y-92800000D03*
X156464000Y-119126000D03*
X169400000Y-103942000D03*
X203454000Y-119126000D03*
X185600000Y-113400000D03*
X169400000Y-102742000D03*
X161036000Y-119126000D03*
X207200000Y-100800000D03*
X152654000Y-110236000D03*
X165000000Y-118200000D03*
X198000000Y-103800000D03*
X203200000Y-100800000D03*
X194056000Y-97028000D03*
X208400000Y-100800000D03*
%TO.N,+170*%
X198000000Y-90800000D03*
X207200000Y-109200000D03*
X203800000Y-109200000D03*
X200600000Y-115400000D03*
X196600000Y-89400000D03*
X207800000Y-109200000D03*
X202600000Y-109200000D03*
X208400000Y-109200000D03*
X203200000Y-109200000D03*
X197400000Y-89400000D03*
X198000000Y-90000000D03*
%TO.N,VCC*%
X177600000Y-100200000D03*
X186000000Y-100000000D03*
X160200000Y-114400000D03*
X158200000Y-114600000D03*
X185400000Y-100000000D03*
X166200000Y-114400000D03*
X186600000Y-100000000D03*
X159200000Y-114400000D03*
X164400000Y-114400000D03*
X191200000Y-102200000D03*
X167000000Y-114400000D03*
X163600000Y-115200000D03*
X163600000Y-114400000D03*
X191200000Y-101400000D03*
%TO.N,Net-(U1-FB)*%
X198000000Y-98200000D03*
X177800000Y-105156000D03*
%TO.N,Net-(Q1-G)*%
X169672000Y-88646000D03*
X174600000Y-102800000D03*
X175200000Y-102800000D03*
X169600000Y-91600000D03*
X169672000Y-89408000D03*
X178054000Y-102870000D03*
X169600000Y-92200000D03*
%TO.N,Net-(Q1-S)*%
X169418000Y-96774000D03*
X183134000Y-102362000D03*
%TD*%
D36*
%TO.N,VCC*%
X158200000Y-112500000D02*
X158200000Y-101255000D01*
X158200000Y-101255000D02*
X158455000Y-101000000D01*
D37*
%TO.N,GND*%
X205500000Y-100800000D02*
X203800000Y-100800000D01*
X207200000Y-100800000D02*
X207800000Y-100800000D01*
X169400000Y-102742000D02*
X169400000Y-103342000D01*
X193000000Y-117000000D02*
X190800000Y-117000000D01*
X202600000Y-100800000D02*
X207200000Y-100800000D01*
D38*
X198000000Y-102462500D02*
X198000000Y-103800000D01*
D37*
X207800000Y-100800000D02*
X208400000Y-100800000D01*
X169400000Y-102554500D02*
X169400000Y-102742000D01*
X203800000Y-100800000D02*
X203200000Y-100800000D01*
X193000000Y-117000000D02*
X193000000Y-115400000D01*
X203200000Y-100800000D02*
X202600000Y-100800000D01*
X169400000Y-103342000D02*
X169400000Y-103942000D01*
X169400000Y-103942000D02*
X169400000Y-103742000D01*
%TO.N,+170*%
X202600000Y-109200000D02*
X208400000Y-109200000D01*
D38*
X198000000Y-94037500D02*
X198000000Y-89950000D01*
D39*
X200600000Y-115400000D02*
X200620000Y-115420000D01*
X200620000Y-115220000D02*
X200620000Y-115380000D01*
X200620000Y-115380000D02*
X200600000Y-115400000D01*
X200037500Y-113500000D02*
X200037500Y-114637500D01*
D38*
X197000000Y-89400000D02*
X197400000Y-89400000D01*
D39*
X200620000Y-115420000D02*
X200620000Y-117000000D01*
D38*
X197400000Y-89400000D02*
X197800000Y-89800000D01*
D39*
X200037500Y-114637500D02*
X200620000Y-115220000D01*
D38*
X197000000Y-89400000D02*
X194500000Y-89400000D01*
X194500000Y-89400000D02*
X194400000Y-89500000D01*
D39*
%TO.N,+5V*%
X195540000Y-115140000D02*
X195540000Y-117000000D01*
X195037500Y-113500000D02*
X195037500Y-114637500D01*
D37*
X194742081Y-119000000D02*
X195540000Y-118202081D01*
X187200000Y-117600000D02*
X187200000Y-119000000D01*
D39*
X195037500Y-114637500D02*
X195540000Y-115140000D01*
X180400000Y-114962500D02*
X180400000Y-117600000D01*
D37*
X187200000Y-119000000D02*
X194742081Y-119000000D01*
X187200000Y-117600000D02*
X180400000Y-117600000D01*
X195540000Y-118202081D02*
X195540000Y-117000000D01*
D39*
X174637500Y-109200000D02*
X180400000Y-114962500D01*
D37*
%TO.N,VCC*%
X159200000Y-114400000D02*
X158400000Y-114400000D01*
X191200000Y-102200000D02*
X191200000Y-101400000D01*
X158400000Y-114400000D02*
X158200000Y-114600000D01*
X160200000Y-114400000D02*
X159200000Y-114400000D01*
X191200000Y-101400000D02*
X191200000Y-100000000D01*
X163600000Y-114400000D02*
X160200000Y-114400000D01*
X179562500Y-100200000D02*
X177600000Y-100200000D01*
X163600000Y-116162500D02*
X163600000Y-115200000D01*
X163600000Y-114400000D02*
X164400000Y-114400000D01*
X191200000Y-100000000D02*
X191200000Y-104600000D01*
X163600000Y-115200000D02*
X163600000Y-114400000D01*
X167000000Y-114400000D02*
X167000000Y-117000000D01*
X186600000Y-100000000D02*
X186000000Y-100000000D01*
D36*
X158200000Y-112500000D02*
X158200000Y-114600000D01*
D37*
X166200000Y-114400000D02*
X167000000Y-114400000D01*
D39*
X179600000Y-103400000D02*
X179562500Y-103362500D01*
D37*
X186000000Y-100000000D02*
X185400000Y-100000000D01*
D39*
X176425000Y-103965000D02*
X179035000Y-103965000D01*
X179562500Y-103362500D02*
X179562500Y-100200000D01*
X179035000Y-103965000D02*
X179600000Y-103400000D01*
D37*
X164400000Y-114400000D02*
X166200000Y-114400000D01*
X191200000Y-104550000D02*
X191200000Y-102200000D01*
%TO.N,Net-(U2-IN)*%
X170600000Y-117600000D02*
X170000000Y-117000000D01*
X175320000Y-117600000D02*
X170600000Y-117600000D01*
D39*
X170000000Y-109200000D02*
X172562500Y-109200000D01*
X170000000Y-109200000D02*
X170000000Y-117000000D01*
X167637500Y-109200000D02*
X170000000Y-109200000D01*
%TO.N,Net-(U1-REF)*%
X181637500Y-109200000D02*
X181637500Y-106567500D01*
X181637500Y-106567500D02*
X181575000Y-106505000D01*
D38*
%TO.N,Net-(U1-FB)*%
X197950000Y-96962500D02*
X201025000Y-96962500D01*
X201025000Y-96962500D02*
X201450000Y-96537500D01*
X198000000Y-99537500D02*
X198000000Y-98200000D01*
D39*
X177721000Y-105235000D02*
X177800000Y-105156000D01*
X176425000Y-105235000D02*
X177721000Y-105235000D01*
D38*
X198000000Y-98200000D02*
X198000000Y-96962500D01*
D36*
%TO.N,Net-(D2-A)*%
X189000000Y-89500000D02*
X189000000Y-91800000D01*
X189000000Y-89500000D02*
X181650000Y-89500000D01*
X189000000Y-91800000D02*
X191200000Y-94000000D01*
X181650000Y-89500000D02*
X180925000Y-90225000D01*
D39*
%TO.N,Net-(Q1-G)*%
X176425000Y-102695000D02*
X177371000Y-102695000D01*
D36*
X169672000Y-89408000D02*
X169600000Y-92200000D01*
D39*
X169600000Y-88900000D02*
X169600000Y-90210000D01*
X176425000Y-102775000D02*
X176400000Y-102800000D01*
X174600000Y-102800000D02*
X174800000Y-102800000D01*
D36*
X169672000Y-88646000D02*
X169672000Y-89408000D01*
D39*
X169600000Y-90210000D02*
X169350000Y-90460000D01*
X176425000Y-102695000D02*
X176425000Y-102775000D01*
X176400000Y-102800000D02*
X175200000Y-102800000D01*
D36*
X169600000Y-88900000D02*
X169672000Y-88646000D01*
D39*
X177371000Y-102695000D02*
X177546000Y-102870000D01*
D37*
%TO.N,Net-(Q1-S)*%
X169350000Y-95540000D02*
X169400000Y-95590000D01*
X169400000Y-95590000D02*
X169400000Y-96756000D01*
X169400000Y-96756000D02*
X169418000Y-96774000D01*
D39*
X169418000Y-99611500D02*
X169400000Y-99629500D01*
D37*
X169418000Y-96774000D02*
X169418000Y-99611500D01*
X169418000Y-96774000D02*
X169400000Y-96792000D01*
D39*
X182801000Y-102695000D02*
X183134000Y-102362000D01*
X181575000Y-102695000D02*
X182801000Y-102695000D01*
%TD*%
%TA.AperFunction,Conductor*%
%TO.N,GND*%
G36*
X168470857Y-87520185D02*
G01*
X168516612Y-87572989D01*
X168526556Y-87642147D01*
X168497531Y-87705703D01*
X168494765Y-87708789D01*
X168491232Y-87712600D01*
X168491230Y-87712603D01*
X168491228Y-87712606D01*
X168472567Y-87740452D01*
X168442631Y-87785124D01*
X168439942Y-87788977D01*
X168388656Y-87859568D01*
X168388653Y-87859573D01*
X168379031Y-87878458D01*
X168371559Y-87891188D01*
X168359750Y-87908811D01*
X168323097Y-87988037D01*
X168321042Y-87992266D01*
X168281435Y-88069999D01*
X168281432Y-88070008D01*
X168274877Y-88090180D01*
X168269491Y-88103915D01*
X168260583Y-88123172D01*
X168236788Y-88207115D01*
X168235420Y-88211614D01*
X168208448Y-88294628D01*
X168208446Y-88294637D01*
X168205128Y-88315583D01*
X168201955Y-88329999D01*
X168124172Y-88604403D01*
X168096100Y-88838908D01*
X168096100Y-88838915D01*
X168105059Y-89074929D01*
X168141907Y-89261470D01*
X168135587Y-89331054D01*
X168092651Y-89386174D01*
X168026730Y-89409331D01*
X168020258Y-89409500D01*
X167249998Y-89409500D01*
X167249980Y-89409501D01*
X167147203Y-89420000D01*
X167147200Y-89420001D01*
X166980668Y-89475185D01*
X166980663Y-89475187D01*
X166831342Y-89567289D01*
X166707289Y-89691342D01*
X166615187Y-89840663D01*
X166615185Y-89840668D01*
X166587349Y-89924670D01*
X166560001Y-90007203D01*
X166560001Y-90007204D01*
X166560000Y-90007204D01*
X166549500Y-90109983D01*
X166549500Y-90810001D01*
X166549501Y-90810019D01*
X166560000Y-90912796D01*
X166560001Y-90912799D01*
X166586482Y-90992712D01*
X166615186Y-91079334D01*
X166707288Y-91228656D01*
X166831344Y-91352712D01*
X166980666Y-91444814D01*
X167147203Y-91499999D01*
X167249991Y-91510500D01*
X167989542Y-91510499D01*
X168056581Y-91530183D01*
X168102336Y-91582987D01*
X168113501Y-91637695D01*
X168096954Y-92279375D01*
X168127874Y-92513519D01*
X168127875Y-92513522D01*
X168195045Y-92739953D01*
X168296810Y-92953088D01*
X168346730Y-93025660D01*
X168430664Y-93147680D01*
X168430671Y-93147688D01*
X168593307Y-93318935D01*
X168780745Y-93462643D01*
X168988351Y-93575257D01*
X169211019Y-93654009D01*
X169443265Y-93696957D01*
X169679371Y-93703046D01*
X169913522Y-93672125D01*
X170139953Y-93604955D01*
X170353088Y-93503190D01*
X170547680Y-93369336D01*
X170718937Y-93206690D01*
X170862643Y-93019255D01*
X170975257Y-92811649D01*
X171054009Y-92588981D01*
X171096957Y-92356735D01*
X171115664Y-91631302D01*
X171137070Y-91564793D01*
X171191036Y-91520414D01*
X171239623Y-91510499D01*
X171450002Y-91510499D01*
X171450008Y-91510499D01*
X171552797Y-91499999D01*
X171719334Y-91444814D01*
X171868656Y-91352712D01*
X171992712Y-91228656D01*
X172084814Y-91079334D01*
X172139999Y-90912797D01*
X172150500Y-90810009D01*
X172150499Y-90109992D01*
X172139999Y-90007203D01*
X172084814Y-89840666D01*
X171992712Y-89691344D01*
X171868656Y-89567288D01*
X171719334Y-89475186D01*
X171552797Y-89420001D01*
X171552795Y-89420000D01*
X171450016Y-89409500D01*
X171450009Y-89409500D01*
X171296500Y-89409500D01*
X171229461Y-89389815D01*
X171183706Y-89337011D01*
X171172500Y-89285500D01*
X171172500Y-88742887D01*
X171173379Y-88728148D01*
X171175900Y-88707090D01*
X171172589Y-88619865D01*
X171172500Y-88615161D01*
X171172500Y-88527908D01*
X171169181Y-88506953D01*
X171167745Y-88492279D01*
X171166941Y-88471076D01*
X171150019Y-88385412D01*
X171149215Y-88380894D01*
X171135553Y-88294632D01*
X171129000Y-88274463D01*
X171125283Y-88260185D01*
X171121172Y-88239370D01*
X171091056Y-88157405D01*
X171089550Y-88153054D01*
X171062568Y-88070008D01*
X171052941Y-88051114D01*
X171047033Y-88037583D01*
X171039719Y-88017676D01*
X170997182Y-87941483D01*
X170994967Y-87937333D01*
X170983683Y-87915187D01*
X170955343Y-87859567D01*
X170955341Y-87859564D01*
X170955340Y-87859562D01*
X170942876Y-87842406D01*
X170934927Y-87829970D01*
X170924589Y-87811454D01*
X170924585Y-87811448D01*
X170870645Y-87742840D01*
X170867836Y-87739125D01*
X170837509Y-87697383D01*
X170814031Y-87631576D01*
X170829858Y-87563522D01*
X170879965Y-87514829D01*
X170937829Y-87500500D01*
X173203462Y-87500500D01*
X173270501Y-87520185D01*
X173316256Y-87572989D01*
X173326200Y-87642147D01*
X173321169Y-87663499D01*
X173319516Y-87668490D01*
X173310001Y-87697203D01*
X173308428Y-87712604D01*
X173308428Y-87712606D01*
X173299500Y-87799985D01*
X173299500Y-98200001D01*
X173299501Y-98200018D01*
X173310000Y-98302796D01*
X173310001Y-98302799D01*
X173344169Y-98405909D01*
X173365186Y-98469334D01*
X173457288Y-98618656D01*
X173581344Y-98742712D01*
X173730666Y-98834814D01*
X173897203Y-98889999D01*
X173981925Y-98898654D01*
X173989233Y-98900499D01*
X173993665Y-98900499D01*
X174006280Y-98901142D01*
X174013432Y-98901873D01*
X174021384Y-98900499D01*
X178694895Y-98900499D01*
X178761934Y-98920184D01*
X178807689Y-98972988D01*
X178817633Y-99042146D01*
X178788608Y-99105702D01*
X178759995Y-99130036D01*
X178756343Y-99132288D01*
X178725451Y-99163181D01*
X178664128Y-99196666D01*
X178637770Y-99199500D01*
X177501457Y-99199500D01*
X177308170Y-99237947D01*
X177308160Y-99237950D01*
X177126092Y-99313364D01*
X177126079Y-99313371D01*
X176962218Y-99422860D01*
X176962214Y-99422863D01*
X176822863Y-99562214D01*
X176822860Y-99562218D01*
X176713371Y-99726079D01*
X176713364Y-99726092D01*
X176637950Y-99908160D01*
X176637947Y-99908170D01*
X176599500Y-100101456D01*
X176599500Y-100101459D01*
X176599500Y-100298541D01*
X176599500Y-100298543D01*
X176599499Y-100298543D01*
X176637947Y-100491829D01*
X176637950Y-100491839D01*
X176713364Y-100673907D01*
X176713371Y-100673920D01*
X176822860Y-100837781D01*
X176822863Y-100837785D01*
X176962214Y-100977136D01*
X176962218Y-100977139D01*
X177126079Y-101086628D01*
X177126092Y-101086635D01*
X177273936Y-101147873D01*
X177308165Y-101162051D01*
X177308169Y-101162051D01*
X177308170Y-101162052D01*
X177501456Y-101200500D01*
X177501459Y-101200500D01*
X178637770Y-101200500D01*
X178704809Y-101220185D01*
X178725451Y-101236819D01*
X178756345Y-101267713D01*
X178762013Y-101272195D01*
X178760570Y-101274019D01*
X178799820Y-101317654D01*
X178812000Y-101371248D01*
X178812000Y-102196560D01*
X178792315Y-102263599D01*
X178739511Y-102309354D01*
X178670353Y-102319298D01*
X178606797Y-102290273D01*
X178600319Y-102284241D01*
X178556262Y-102240184D01*
X178403523Y-102144211D01*
X178233254Y-102084631D01*
X178233249Y-102084630D01*
X178054004Y-102064435D01*
X178053996Y-102064435D01*
X177867825Y-102085411D01*
X177867603Y-102083443D01*
X177807593Y-102079756D01*
X177780873Y-102066250D01*
X177767743Y-102057477D01*
X177726495Y-102029916D01*
X177726488Y-102029912D01*
X177589917Y-101973343D01*
X177589907Y-101973340D01*
X177444920Y-101944500D01*
X177444918Y-101944500D01*
X177432328Y-101944500D01*
X177397733Y-101939576D01*
X177252573Y-101897402D01*
X177252567Y-101897401D01*
X177215701Y-101894500D01*
X177215694Y-101894500D01*
X175634306Y-101894500D01*
X175634298Y-101894500D01*
X175597432Y-101897401D01*
X175597426Y-101897402D01*
X175439606Y-101943254D01*
X175439605Y-101943254D01*
X175364308Y-101987784D01*
X175296584Y-102004965D01*
X175287305Y-102004271D01*
X175200004Y-101994435D01*
X175199996Y-101994435D01*
X175020746Y-102014631D01*
X175020745Y-102014631D01*
X174940952Y-102042551D01*
X174871173Y-102046112D01*
X174859045Y-102042551D01*
X174779257Y-102014632D01*
X174779249Y-102014630D01*
X174600004Y-101994435D01*
X174599996Y-101994435D01*
X174420750Y-102014630D01*
X174420745Y-102014631D01*
X174250476Y-102074211D01*
X174097737Y-102170184D01*
X173970184Y-102297737D01*
X173874211Y-102450476D01*
X173814631Y-102620745D01*
X173814630Y-102620750D01*
X173794435Y-102799996D01*
X173794435Y-102800003D01*
X173814630Y-102979249D01*
X173814631Y-102979254D01*
X173874211Y-103149523D01*
X173954908Y-103277951D01*
X173970184Y-103302262D01*
X174097738Y-103429816D01*
X174144751Y-103459356D01*
X174249220Y-103524999D01*
X174250478Y-103525789D01*
X174394967Y-103576348D01*
X174420745Y-103585368D01*
X174420750Y-103585369D01*
X174599996Y-103605565D01*
X174600000Y-103605565D01*
X174600004Y-103605565D01*
X174779248Y-103585369D01*
X174779248Y-103585368D01*
X174779255Y-103585368D01*
X174859047Y-103557446D01*
X174928821Y-103553884D01*
X174940930Y-103557439D01*
X174972238Y-103568394D01*
X175029012Y-103609114D01*
X175054759Y-103674067D01*
X175053264Y-103707710D01*
X175052401Y-103712430D01*
X175049500Y-103749298D01*
X175049500Y-104180701D01*
X175052401Y-104217567D01*
X175052402Y-104217573D01*
X175098254Y-104375393D01*
X175098255Y-104375396D01*
X175181917Y-104516862D01*
X175186702Y-104523031D01*
X175184256Y-104524927D01*
X175210857Y-104573642D01*
X175205873Y-104643334D01*
X175185069Y-104675703D01*
X175186702Y-104676969D01*
X175181917Y-104683137D01*
X175098255Y-104824603D01*
X175098254Y-104824606D01*
X175052402Y-104982426D01*
X175052401Y-104982432D01*
X175049500Y-105019298D01*
X175049500Y-105450701D01*
X175052401Y-105487567D01*
X175052402Y-105487573D01*
X175098254Y-105645393D01*
X175098255Y-105645396D01*
X175181917Y-105786862D01*
X175186702Y-105793031D01*
X175184369Y-105794840D01*
X175211210Y-105843995D01*
X175206226Y-105913687D01*
X175185470Y-105946021D01*
X175187097Y-105947283D01*
X175182313Y-105953449D01*
X175098718Y-106094801D01*
X175052899Y-106252513D01*
X175052704Y-106254998D01*
X175052705Y-106255000D01*
X177797295Y-106255000D01*
X177797295Y-106254998D01*
X177797100Y-106252511D01*
X177797099Y-106252505D01*
X177761366Y-106129512D01*
X177761565Y-106059643D01*
X177799507Y-106000973D01*
X177856251Y-105973300D01*
X177939905Y-105956660D01*
X177939906Y-105956659D01*
X177939913Y-105956658D01*
X177964178Y-105946605D01*
X177972745Y-105943878D01*
X177972673Y-105943671D01*
X177979255Y-105941368D01*
X178149522Y-105881789D01*
X178302262Y-105785816D01*
X178429816Y-105658262D01*
X178525789Y-105505522D01*
X178585368Y-105335255D01*
X178605565Y-105156000D01*
X178590163Y-105019306D01*
X178585369Y-104976750D01*
X178585366Y-104976737D01*
X178551675Y-104880455D01*
X178548112Y-104810676D01*
X178582841Y-104750049D01*
X178644834Y-104717821D01*
X178668716Y-104715500D01*
X179108920Y-104715500D01*
X179206462Y-104696096D01*
X179253913Y-104686658D01*
X179390495Y-104630084D01*
X179439729Y-104597186D01*
X179513416Y-104547952D01*
X179988319Y-104073046D01*
X180049642Y-104039562D01*
X180119333Y-104044546D01*
X180175267Y-104086417D01*
X180199684Y-104151882D01*
X180200000Y-104160728D01*
X180200000Y-104180649D01*
X180202899Y-104217489D01*
X180202900Y-104217495D01*
X180248716Y-104375193D01*
X180248717Y-104375196D01*
X180332314Y-104516552D01*
X180337100Y-104522722D01*
X180334753Y-104524542D01*
X180361564Y-104573642D01*
X180356580Y-104643334D01*
X180335541Y-104676069D01*
X180337100Y-104677278D01*
X180332314Y-104683447D01*
X180248718Y-104824801D01*
X180202899Y-104982513D01*
X180202704Y-104984998D01*
X180202705Y-104985000D01*
X181325000Y-104985000D01*
X181825000Y-104985000D01*
X182947295Y-104985000D01*
X182947295Y-104984998D01*
X182947100Y-104982513D01*
X182901281Y-104824801D01*
X182817685Y-104683447D01*
X182812900Y-104677278D01*
X182815252Y-104675453D01*
X182788445Y-104626405D01*
X182793402Y-104556712D01*
X182814465Y-104523936D01*
X182812900Y-104522722D01*
X182817685Y-104516552D01*
X182901281Y-104375198D01*
X182947100Y-104217486D01*
X182947295Y-104215001D01*
X182947295Y-104215000D01*
X181825000Y-104215000D01*
X181825000Y-104985000D01*
X181325000Y-104985000D01*
X181325000Y-103839000D01*
X181344685Y-103771961D01*
X181397489Y-103726206D01*
X181449000Y-103715000D01*
X182947295Y-103715000D01*
X182947295Y-103714998D01*
X182947100Y-103712511D01*
X182947099Y-103712505D01*
X182907542Y-103576348D01*
X182907741Y-103506478D01*
X182945683Y-103447808D01*
X183002427Y-103420136D01*
X183019913Y-103416658D01*
X183156495Y-103360084D01*
X183239638Y-103304530D01*
X183279416Y-103277952D01*
X183442060Y-103115306D01*
X183478134Y-103092650D01*
X183477248Y-103090810D01*
X183483510Y-103087792D01*
X183483522Y-103087789D01*
X183636262Y-102991816D01*
X183763816Y-102864262D01*
X183859789Y-102711522D01*
X183919368Y-102541255D01*
X183921709Y-102520478D01*
X183939565Y-102362003D01*
X183939565Y-102361996D01*
X183919369Y-102182750D01*
X183919368Y-102182745D01*
X183884621Y-102083443D01*
X183859789Y-102012478D01*
X183763816Y-101859738D01*
X183636262Y-101732184D01*
X183624031Y-101724499D01*
X183483523Y-101636211D01*
X183313254Y-101576631D01*
X183313249Y-101576630D01*
X183134004Y-101556435D01*
X183133996Y-101556435D01*
X182954750Y-101576630D01*
X182954745Y-101576631D01*
X182784476Y-101636211D01*
X182631739Y-101732183D01*
X182502276Y-101861646D01*
X182440953Y-101895130D01*
X182404869Y-101897582D01*
X182365706Y-101894500D01*
X182365694Y-101894500D01*
X180784306Y-101894500D01*
X180784298Y-101894500D01*
X180747432Y-101897401D01*
X180747426Y-101897402D01*
X180589606Y-101943254D01*
X180589605Y-101943254D01*
X180500120Y-101996175D01*
X180432396Y-102013357D01*
X180366134Y-101991196D01*
X180322371Y-101936730D01*
X180313000Y-101889442D01*
X180313000Y-101371248D01*
X180332685Y-101304209D01*
X180363996Y-101273471D01*
X180362987Y-101272195D01*
X180368654Y-101267713D01*
X180368653Y-101267713D01*
X180368656Y-101267712D01*
X180492712Y-101143656D01*
X180494752Y-101140347D01*
X180496745Y-101138555D01*
X180497193Y-101137989D01*
X180497289Y-101138065D01*
X180546694Y-101093623D01*
X180615656Y-101082395D01*
X180679740Y-101110234D01*
X180705829Y-101140339D01*
X180707681Y-101143341D01*
X180707683Y-101143344D01*
X180831654Y-101267315D01*
X180980875Y-101359356D01*
X180980880Y-101359358D01*
X181147302Y-101414505D01*
X181147309Y-101414506D01*
X181250019Y-101424999D01*
X181387499Y-101424999D01*
X181887500Y-101424999D01*
X182024972Y-101424999D01*
X182024986Y-101424998D01*
X182127697Y-101414505D01*
X182294119Y-101359358D01*
X182294124Y-101359356D01*
X182443345Y-101267315D01*
X182567315Y-101143345D01*
X182659356Y-100994124D01*
X182659358Y-100994119D01*
X182714505Y-100827697D01*
X182714506Y-100827690D01*
X182724999Y-100724986D01*
X182725000Y-100724973D01*
X182725000Y-100450000D01*
X181887500Y-100450000D01*
X181887500Y-101424999D01*
X181387499Y-101424999D01*
X181387500Y-101424998D01*
X181387500Y-100098543D01*
X184399499Y-100098543D01*
X184437947Y-100291829D01*
X184437950Y-100291839D01*
X184513364Y-100473907D01*
X184513371Y-100473920D01*
X184622860Y-100637781D01*
X184622863Y-100637785D01*
X184762214Y-100777136D01*
X184762218Y-100777139D01*
X184926079Y-100886628D01*
X184926092Y-100886635D01*
X185108160Y-100962049D01*
X185108165Y-100962051D01*
X185108169Y-100962051D01*
X185108170Y-100962052D01*
X185301456Y-101000500D01*
X185301459Y-101000500D01*
X186698543Y-101000500D01*
X186774191Y-100985452D01*
X186801308Y-100980058D01*
X186870899Y-100986285D01*
X186926077Y-101029147D01*
X186949322Y-101095037D01*
X186949500Y-101101672D01*
X186949500Y-101147868D01*
X186949501Y-101147876D01*
X186955908Y-101207483D01*
X187006202Y-101342328D01*
X187006206Y-101342335D01*
X187092452Y-101457544D01*
X187092455Y-101457547D01*
X187207664Y-101543793D01*
X187207671Y-101543797D01*
X187342517Y-101594091D01*
X187342516Y-101594091D01*
X187349444Y-101594835D01*
X187402127Y-101600500D01*
X190075500Y-101600499D01*
X190142539Y-101620184D01*
X190188294Y-101672987D01*
X190199500Y-101724499D01*
X190199500Y-102387769D01*
X190179815Y-102454808D01*
X190163182Y-102475450D01*
X190057287Y-102581345D01*
X189965187Y-102730663D01*
X189965186Y-102730666D01*
X189910001Y-102897203D01*
X189910001Y-102897204D01*
X189910000Y-102897204D01*
X189899500Y-102999983D01*
X189899500Y-106100001D01*
X189899501Y-106100018D01*
X189910000Y-106202796D01*
X189910001Y-106202799D01*
X189965185Y-106369331D01*
X189965186Y-106369334D01*
X190057288Y-106518656D01*
X190181344Y-106642712D01*
X190330666Y-106734814D01*
X190497203Y-106789999D01*
X190599991Y-106800500D01*
X191800008Y-106800499D01*
X191902797Y-106789999D01*
X192069334Y-106734814D01*
X192218656Y-106642712D01*
X192342712Y-106518656D01*
X192434814Y-106369334D01*
X192489999Y-106202797D01*
X192500500Y-106100009D01*
X192500499Y-102999992D01*
X192489999Y-102897203D01*
X192466069Y-102824986D01*
X196625001Y-102824986D01*
X196635494Y-102927697D01*
X196690641Y-103094119D01*
X196690643Y-103094124D01*
X196782684Y-103243345D01*
X196906654Y-103367315D01*
X197055875Y-103459356D01*
X197055880Y-103459358D01*
X197222302Y-103514505D01*
X197222309Y-103514506D01*
X197325019Y-103524999D01*
X197749999Y-103524999D01*
X198250000Y-103524999D01*
X198674972Y-103524999D01*
X198674986Y-103524998D01*
X198777697Y-103514505D01*
X198944119Y-103459358D01*
X198944124Y-103459356D01*
X199093345Y-103367315D01*
X199217315Y-103243345D01*
X199309356Y-103094124D01*
X199309358Y-103094119D01*
X199364505Y-102927697D01*
X199364506Y-102927690D01*
X199374999Y-102824986D01*
X199375000Y-102824973D01*
X199375000Y-102799986D01*
X203750001Y-102799986D01*
X203760494Y-102902697D01*
X203815641Y-103069119D01*
X203815643Y-103069124D01*
X203907684Y-103218345D01*
X204031654Y-103342315D01*
X204180875Y-103434356D01*
X204180880Y-103434358D01*
X204347302Y-103489505D01*
X204347309Y-103489506D01*
X204450019Y-103499999D01*
X205249999Y-103499999D01*
X205750000Y-103499999D01*
X206549972Y-103499999D01*
X206549986Y-103499998D01*
X206652697Y-103489505D01*
X206819119Y-103434358D01*
X206819124Y-103434356D01*
X206968345Y-103342315D01*
X207092315Y-103218345D01*
X207184356Y-103069124D01*
X207184358Y-103069119D01*
X207239505Y-102902697D01*
X207239506Y-102902690D01*
X207249999Y-102799986D01*
X207250000Y-102799973D01*
X207250000Y-101050000D01*
X205750000Y-101050000D01*
X205750000Y-103499999D01*
X205249999Y-103499999D01*
X205250000Y-103499998D01*
X205250000Y-101050000D01*
X203750001Y-101050000D01*
X203750001Y-102799986D01*
X199375000Y-102799986D01*
X199375000Y-102712500D01*
X198250000Y-102712500D01*
X198250000Y-103524999D01*
X197749999Y-103524999D01*
X197750000Y-103524998D01*
X197750000Y-102712500D01*
X196625001Y-102712500D01*
X196625001Y-102824986D01*
X192466069Y-102824986D01*
X192434814Y-102730666D01*
X192342712Y-102581344D01*
X192236818Y-102475450D01*
X192203334Y-102414127D01*
X192200500Y-102387769D01*
X192200500Y-102100013D01*
X196625000Y-102100013D01*
X196625000Y-102212500D01*
X197750000Y-102212500D01*
X198250000Y-102212500D01*
X199374999Y-102212500D01*
X199374999Y-102100028D01*
X199374998Y-102100013D01*
X199364505Y-101997302D01*
X199309358Y-101830880D01*
X199309356Y-101830875D01*
X199217315Y-101681654D01*
X199093345Y-101557684D01*
X198944124Y-101465643D01*
X198944119Y-101465641D01*
X198777697Y-101410494D01*
X198777690Y-101410493D01*
X198674986Y-101400000D01*
X198250000Y-101400000D01*
X198250000Y-102212500D01*
X197750000Y-102212500D01*
X197750000Y-101400000D01*
X197325028Y-101400000D01*
X197325012Y-101400001D01*
X197222302Y-101410494D01*
X197055880Y-101465641D01*
X197055875Y-101465643D01*
X196906654Y-101557684D01*
X196782684Y-101681654D01*
X196690643Y-101830875D01*
X196690641Y-101830880D01*
X196635494Y-101997302D01*
X196635493Y-101997309D01*
X196625000Y-102100013D01*
X192200500Y-102100013D01*
X192200500Y-101724499D01*
X192220185Y-101657460D01*
X192272989Y-101611705D01*
X192324500Y-101600499D01*
X194997871Y-101600499D01*
X194997872Y-101600499D01*
X195057483Y-101594091D01*
X195192331Y-101543796D01*
X195307546Y-101457546D01*
X195393796Y-101342331D01*
X195444091Y-101207483D01*
X195450500Y-101147873D01*
X195450499Y-98852128D01*
X195444091Y-98792517D01*
X195430599Y-98756344D01*
X195393797Y-98657671D01*
X195393793Y-98657664D01*
X195307547Y-98542455D01*
X195307544Y-98542452D01*
X195192335Y-98456206D01*
X195192328Y-98456202D01*
X195057482Y-98405908D01*
X195057483Y-98405908D01*
X194997883Y-98399501D01*
X194997881Y-98399500D01*
X194997873Y-98399500D01*
X194997864Y-98399500D01*
X187402129Y-98399500D01*
X187402123Y-98399501D01*
X187342516Y-98405908D01*
X187207671Y-98456202D01*
X187207664Y-98456206D01*
X187092455Y-98542452D01*
X187092452Y-98542455D01*
X187006206Y-98657664D01*
X187006202Y-98657671D01*
X186955908Y-98792517D01*
X186949501Y-98852116D01*
X186949501Y-98852123D01*
X186949500Y-98852135D01*
X186949500Y-98898324D01*
X186929815Y-98965363D01*
X186877011Y-99011118D01*
X186807853Y-99021062D01*
X186801309Y-99019941D01*
X186698545Y-98999500D01*
X186698541Y-98999500D01*
X186098541Y-98999500D01*
X185301459Y-98999500D01*
X185301457Y-98999500D01*
X185108170Y-99037947D01*
X185108160Y-99037950D01*
X184926092Y-99113364D01*
X184926079Y-99113371D01*
X184762218Y-99222860D01*
X184762214Y-99222863D01*
X184622863Y-99362214D01*
X184622860Y-99362218D01*
X184513371Y-99526079D01*
X184513364Y-99526092D01*
X184437950Y-99708160D01*
X184437947Y-99708170D01*
X184399500Y-99901456D01*
X184399500Y-99901459D01*
X184399500Y-100098541D01*
X184399500Y-100098543D01*
X184399499Y-100098543D01*
X181387500Y-100098543D01*
X181387500Y-100074000D01*
X181407185Y-100006961D01*
X181459989Y-99961206D01*
X181511500Y-99950000D01*
X182724999Y-99950000D01*
X182724999Y-99675028D01*
X182724998Y-99675013D01*
X182714505Y-99572302D01*
X182659358Y-99405880D01*
X182659356Y-99405875D01*
X182567315Y-99256654D01*
X182443345Y-99132684D01*
X182439055Y-99130038D01*
X182392331Y-99078090D01*
X182381109Y-99009127D01*
X182408952Y-98945045D01*
X182467021Y-98906189D01*
X182504151Y-98900499D01*
X183000008Y-98900499D01*
X183102797Y-98889999D01*
X183269334Y-98834814D01*
X183418656Y-98742712D01*
X183542712Y-98618656D01*
X183634814Y-98469334D01*
X183689999Y-98302797D01*
X183700500Y-98200009D01*
X183700500Y-96599983D01*
X196624500Y-96599983D01*
X196624500Y-97325001D01*
X196624501Y-97325019D01*
X196635000Y-97427796D01*
X196635001Y-97427799D01*
X196690185Y-97594331D01*
X196690187Y-97594336D01*
X196702932Y-97614999D01*
X196782288Y-97743656D01*
X196906344Y-97867712D01*
X197040597Y-97950519D01*
X197087321Y-98002465D01*
X197099500Y-98056057D01*
X197099500Y-98443942D01*
X197079815Y-98510981D01*
X197040598Y-98549479D01*
X196980548Y-98586519D01*
X196906342Y-98632289D01*
X196782289Y-98756342D01*
X196690187Y-98905663D01*
X196690185Y-98905668D01*
X196685375Y-98920184D01*
X196635001Y-99072203D01*
X196635001Y-99072204D01*
X196635000Y-99072204D01*
X196624500Y-99174983D01*
X196624500Y-99900001D01*
X196624501Y-99900019D01*
X196635000Y-100002796D01*
X196635001Y-100002799D01*
X196690185Y-100169331D01*
X196690187Y-100169336D01*
X196695230Y-100177512D01*
X196782288Y-100318656D01*
X196906344Y-100442712D01*
X197055666Y-100534814D01*
X197222203Y-100589999D01*
X197324991Y-100600500D01*
X198675008Y-100600499D01*
X198777797Y-100589999D01*
X198944334Y-100534814D01*
X199093656Y-100442712D01*
X199217712Y-100318656D01*
X199309814Y-100169334D01*
X199364999Y-100002797D01*
X199375500Y-99900009D01*
X199375499Y-99174992D01*
X199374292Y-99163181D01*
X199364999Y-99072203D01*
X199364998Y-99072200D01*
X199355039Y-99042146D01*
X199309814Y-98905666D01*
X199244647Y-98800013D01*
X203750000Y-98800013D01*
X203750000Y-100550000D01*
X205250000Y-100550000D01*
X205750000Y-100550000D01*
X207249999Y-100550000D01*
X207249999Y-98800028D01*
X207249998Y-98800013D01*
X207239505Y-98697302D01*
X207184358Y-98530880D01*
X207184356Y-98530875D01*
X207092315Y-98381654D01*
X206968345Y-98257684D01*
X206819124Y-98165643D01*
X206819119Y-98165641D01*
X206652697Y-98110494D01*
X206652690Y-98110493D01*
X206549986Y-98100000D01*
X205750000Y-98100000D01*
X205750000Y-100550000D01*
X205250000Y-100550000D01*
X205250000Y-98100000D01*
X204450028Y-98100000D01*
X204450012Y-98100001D01*
X204347302Y-98110494D01*
X204180880Y-98165641D01*
X204180875Y-98165643D01*
X204031654Y-98257684D01*
X203907684Y-98381654D01*
X203815643Y-98530875D01*
X203815641Y-98530880D01*
X203760494Y-98697302D01*
X203760493Y-98697309D01*
X203750000Y-98800013D01*
X199244647Y-98800013D01*
X199217712Y-98756344D01*
X199093656Y-98632288D01*
X198959402Y-98549480D01*
X198912679Y-98497533D01*
X198900500Y-98443942D01*
X198900500Y-98056057D01*
X198920185Y-97989018D01*
X198959401Y-97950520D01*
X199071365Y-97881460D01*
X199136461Y-97863000D01*
X201113693Y-97863000D01*
X201113694Y-97862999D01*
X201287666Y-97828395D01*
X201374323Y-97792500D01*
X201451547Y-97760513D01*
X201545496Y-97697738D01*
X201599036Y-97661964D01*
X201599039Y-97661961D01*
X201599183Y-97661818D01*
X201599276Y-97661766D01*
X201603746Y-97658099D01*
X201604441Y-97658946D01*
X201660506Y-97628333D01*
X201686864Y-97625499D01*
X201975002Y-97625499D01*
X201975008Y-97625499D01*
X202077797Y-97614999D01*
X202244334Y-97559814D01*
X202393656Y-97467712D01*
X202517712Y-97343656D01*
X202609814Y-97194334D01*
X202664999Y-97027797D01*
X202675500Y-96925009D01*
X202675499Y-96149992D01*
X202664999Y-96047203D01*
X202609814Y-95880666D01*
X202517712Y-95731344D01*
X202393656Y-95607288D01*
X202390342Y-95605243D01*
X202388546Y-95603248D01*
X202387989Y-95602807D01*
X202388064Y-95602711D01*
X202343618Y-95553297D01*
X202332397Y-95484334D01*
X202360240Y-95420252D01*
X202390348Y-95394165D01*
X202393342Y-95392318D01*
X202517315Y-95268345D01*
X202609356Y-95119124D01*
X202609358Y-95119119D01*
X202664505Y-94952697D01*
X202664506Y-94952690D01*
X202674999Y-94849986D01*
X202675000Y-94849973D01*
X202675000Y-94712500D01*
X200225001Y-94712500D01*
X200225001Y-94849986D01*
X200235494Y-94952697D01*
X200290641Y-95119119D01*
X200290643Y-95119124D01*
X200382684Y-95268345D01*
X200506655Y-95392316D01*
X200506659Y-95392319D01*
X200509656Y-95394168D01*
X200511279Y-95395972D01*
X200512323Y-95396798D01*
X200512181Y-95396976D01*
X200556381Y-95446116D01*
X200567602Y-95515079D01*
X200539759Y-95579161D01*
X200509661Y-95605241D01*
X200506349Y-95607283D01*
X200506343Y-95607288D01*
X200382289Y-95731342D01*
X200290187Y-95880663D01*
X200290185Y-95880668D01*
X200280466Y-95910000D01*
X200262179Y-95965187D01*
X200258263Y-95977004D01*
X200218490Y-96034449D01*
X200153974Y-96061272D01*
X200140557Y-96062000D01*
X199136461Y-96062000D01*
X199071366Y-96043539D01*
X198944334Y-95965186D01*
X198777797Y-95910001D01*
X198777795Y-95910000D01*
X198675010Y-95899500D01*
X197324998Y-95899500D01*
X197324981Y-95899501D01*
X197222203Y-95910000D01*
X197222200Y-95910001D01*
X197055668Y-95965185D01*
X197055663Y-95965187D01*
X196906342Y-96057289D01*
X196782289Y-96181342D01*
X196690187Y-96330663D01*
X196690186Y-96330666D01*
X196635001Y-96497203D01*
X196635001Y-96497204D01*
X196635000Y-96497204D01*
X196624500Y-96599983D01*
X183700500Y-96599983D01*
X183700500Y-95793949D01*
X183700499Y-92656142D01*
X183700500Y-92656122D01*
X183700500Y-91124500D01*
X183720185Y-91057461D01*
X183772989Y-91011706D01*
X183824500Y-91000500D01*
X187375500Y-91000500D01*
X187442539Y-91020185D01*
X187488294Y-91072989D01*
X187499500Y-91124500D01*
X187499500Y-91918097D01*
X187536447Y-92151369D01*
X187536447Y-92151372D01*
X187564329Y-92237182D01*
X187566324Y-92307023D01*
X187530244Y-92366856D01*
X187467543Y-92397684D01*
X187446401Y-92399500D01*
X187402131Y-92399500D01*
X187402123Y-92399501D01*
X187342516Y-92405908D01*
X187207671Y-92456202D01*
X187207664Y-92456206D01*
X187092455Y-92542452D01*
X187092452Y-92542455D01*
X187006206Y-92657664D01*
X187006202Y-92657671D01*
X186955908Y-92792517D01*
X186951439Y-92834088D01*
X186949501Y-92852123D01*
X186949500Y-92852135D01*
X186949500Y-95147870D01*
X186949501Y-95147876D01*
X186955908Y-95207483D01*
X187006202Y-95342328D01*
X187006206Y-95342335D01*
X187092452Y-95457544D01*
X187092455Y-95457547D01*
X187207664Y-95543793D01*
X187207671Y-95543797D01*
X187342517Y-95594091D01*
X187342516Y-95594091D01*
X187349444Y-95594835D01*
X187402127Y-95600500D01*
X194997872Y-95600499D01*
X195057483Y-95594091D01*
X195192331Y-95543796D01*
X195307546Y-95457546D01*
X195393796Y-95342331D01*
X195444091Y-95207483D01*
X195450500Y-95147873D01*
X195450499Y-92852128D01*
X195444091Y-92792517D01*
X195393796Y-92657669D01*
X195393795Y-92657668D01*
X195393793Y-92657664D01*
X195307547Y-92542455D01*
X195307544Y-92542452D01*
X195192335Y-92456206D01*
X195192328Y-92456202D01*
X195057482Y-92405908D01*
X195057483Y-92405908D01*
X194997883Y-92399501D01*
X194997881Y-92399500D01*
X194997873Y-92399500D01*
X194997865Y-92399500D01*
X191772889Y-92399500D01*
X191705850Y-92379815D01*
X191685208Y-92363181D01*
X190664104Y-91342077D01*
X190630619Y-91280754D01*
X190635603Y-91211062D01*
X190677475Y-91155129D01*
X190712777Y-91136691D01*
X190869334Y-91084814D01*
X191018656Y-90992712D01*
X191142712Y-90868656D01*
X191234814Y-90719334D01*
X191289999Y-90552797D01*
X191300500Y-90450009D01*
X191300499Y-88549992D01*
X191300498Y-88549983D01*
X192099500Y-88549983D01*
X192099500Y-90450001D01*
X192099501Y-90450018D01*
X192110000Y-90552796D01*
X192110001Y-90552799D01*
X192141033Y-90646446D01*
X192165186Y-90719334D01*
X192257288Y-90868656D01*
X192381344Y-90992712D01*
X192530666Y-91084814D01*
X192697203Y-91139999D01*
X192799991Y-91150500D01*
X194900008Y-91150499D01*
X195002797Y-91139999D01*
X195169334Y-91084814D01*
X195318656Y-90992712D01*
X195442712Y-90868656D01*
X195534814Y-90719334D01*
X195589999Y-90552797D01*
X195600500Y-90450009D01*
X195600500Y-90424500D01*
X195620185Y-90357461D01*
X195672989Y-90311706D01*
X195724500Y-90300500D01*
X196911309Y-90300500D01*
X196975500Y-90300500D01*
X197042539Y-90320185D01*
X197088294Y-90372989D01*
X197099500Y-90424500D01*
X197099500Y-92943942D01*
X197079815Y-93010981D01*
X197040598Y-93049479D01*
X196954209Y-93102764D01*
X196906342Y-93132289D01*
X196782289Y-93256342D01*
X196690187Y-93405663D01*
X196690186Y-93405666D01*
X196635001Y-93572203D01*
X196635001Y-93572204D01*
X196635000Y-93572204D01*
X196624500Y-93674983D01*
X196624500Y-94400001D01*
X196624501Y-94400019D01*
X196635000Y-94502796D01*
X196635001Y-94502799D01*
X196652361Y-94555186D01*
X196690186Y-94669334D01*
X196782288Y-94818656D01*
X196906344Y-94942712D01*
X197055666Y-95034814D01*
X197222203Y-95089999D01*
X197324991Y-95100500D01*
X198675008Y-95100499D01*
X198777797Y-95089999D01*
X198944334Y-95034814D01*
X199093656Y-94942712D01*
X199217712Y-94818656D01*
X199309814Y-94669334D01*
X199364999Y-94502797D01*
X199375500Y-94400009D01*
X199375500Y-94075013D01*
X200225000Y-94075013D01*
X200225000Y-94212500D01*
X201200000Y-94212500D01*
X201700000Y-94212500D01*
X202674999Y-94212500D01*
X202674999Y-94075028D01*
X202674998Y-94075013D01*
X202664505Y-93972302D01*
X202609358Y-93805880D01*
X202609356Y-93805875D01*
X202517315Y-93656654D01*
X202393345Y-93532684D01*
X202244124Y-93440643D01*
X202244119Y-93440641D01*
X202077697Y-93385494D01*
X202077690Y-93385493D01*
X201974986Y-93375000D01*
X201700000Y-93375000D01*
X201700000Y-94212500D01*
X201200000Y-94212500D01*
X201200000Y-93375000D01*
X200925029Y-93375000D01*
X200925012Y-93375001D01*
X200822302Y-93385494D01*
X200655880Y-93440641D01*
X200655875Y-93440643D01*
X200506654Y-93532684D01*
X200382684Y-93656654D01*
X200290643Y-93805875D01*
X200290641Y-93805880D01*
X200235494Y-93972302D01*
X200235493Y-93972309D01*
X200225000Y-94075013D01*
X199375500Y-94075013D01*
X199375499Y-93674992D01*
X199370019Y-93621350D01*
X199364999Y-93572203D01*
X199364998Y-93572200D01*
X199331913Y-93472356D01*
X199309814Y-93405666D01*
X199217712Y-93256344D01*
X199093656Y-93132288D01*
X198959402Y-93049480D01*
X198912679Y-92997533D01*
X198900500Y-92943942D01*
X198900500Y-90999996D01*
X203145170Y-90999996D01*
X203145170Y-91000003D01*
X203164473Y-91331426D01*
X203164474Y-91331437D01*
X203222118Y-91658351D01*
X203222121Y-91658365D01*
X203317336Y-91976408D01*
X203448827Y-92281236D01*
X203448833Y-92281249D01*
X203614824Y-92568755D01*
X203812357Y-92834087D01*
X204884728Y-91761716D01*
X204970278Y-91879466D01*
X205120534Y-92029722D01*
X205238281Y-92115270D01*
X204169289Y-93184263D01*
X204295215Y-93289925D01*
X204572588Y-93472356D01*
X204869252Y-93621347D01*
X204869258Y-93621350D01*
X205181213Y-93734892D01*
X205181234Y-93734899D01*
X205504248Y-93811456D01*
X205504263Y-93811458D01*
X205834012Y-93849999D01*
X205834013Y-93850000D01*
X206165987Y-93850000D01*
X206165987Y-93849999D01*
X206495736Y-93811458D01*
X206495751Y-93811456D01*
X206818765Y-93734899D01*
X206818786Y-93734892D01*
X207130741Y-93621350D01*
X207130747Y-93621347D01*
X207427411Y-93472356D01*
X207704789Y-93289922D01*
X207830708Y-93184263D01*
X207830709Y-93184262D01*
X206761718Y-92115270D01*
X206879466Y-92029722D01*
X207029722Y-91879466D01*
X207115270Y-91761718D01*
X208187641Y-92834088D01*
X208385175Y-92568756D01*
X208551166Y-92281249D01*
X208551172Y-92281236D01*
X208682663Y-91976408D01*
X208777878Y-91658365D01*
X208777881Y-91658351D01*
X208835525Y-91331437D01*
X208835526Y-91331426D01*
X208854830Y-91000003D01*
X208854830Y-90999996D01*
X208835526Y-90668573D01*
X208835525Y-90668562D01*
X208777881Y-90341648D01*
X208777878Y-90341634D01*
X208682663Y-90023591D01*
X208551172Y-89718763D01*
X208551166Y-89718750D01*
X208385172Y-89431239D01*
X208187642Y-89165910D01*
X207115270Y-90238281D01*
X207029722Y-90120534D01*
X206879466Y-89970278D01*
X206761717Y-89884728D01*
X207830709Y-88815736D01*
X207830709Y-88815735D01*
X207704784Y-88710074D01*
X207427411Y-88527643D01*
X207130747Y-88378652D01*
X207130741Y-88378649D01*
X206818786Y-88265107D01*
X206818765Y-88265100D01*
X206495751Y-88188543D01*
X206495736Y-88188541D01*
X206165987Y-88150000D01*
X205834013Y-88150000D01*
X205504263Y-88188541D01*
X205504248Y-88188543D01*
X205181234Y-88265100D01*
X205181213Y-88265107D01*
X204869258Y-88378649D01*
X204869252Y-88378652D01*
X204572581Y-88527646D01*
X204295220Y-88710070D01*
X204295213Y-88710075D01*
X204169289Y-88815735D01*
X205238282Y-89884728D01*
X205120534Y-89970278D01*
X204970278Y-90120534D01*
X204884728Y-90238282D01*
X203812357Y-89165911D01*
X203812356Y-89165911D01*
X203614829Y-89431236D01*
X203614825Y-89431242D01*
X203448833Y-89718750D01*
X203448827Y-89718763D01*
X203317336Y-90023591D01*
X203222121Y-90341634D01*
X203222118Y-90341648D01*
X203164474Y-90668562D01*
X203164473Y-90668573D01*
X203145170Y-90999996D01*
X198900500Y-90999996D01*
X198900500Y-89861306D01*
X198900499Y-89861304D01*
X198865896Y-89687341D01*
X198865893Y-89687332D01*
X198798016Y-89523459D01*
X198798009Y-89523446D01*
X198699464Y-89375965D01*
X198699461Y-89375961D01*
X198574035Y-89250535D01*
X198476791Y-89185559D01*
X198433504Y-89156635D01*
X198414717Y-89141217D01*
X197974041Y-88700540D01*
X197974038Y-88700537D01*
X197905753Y-88654911D01*
X197826544Y-88601985D01*
X197826542Y-88601984D01*
X197744607Y-88568046D01*
X197744606Y-88568046D01*
X197662666Y-88534105D01*
X197662658Y-88534103D01*
X197488696Y-88499500D01*
X197488692Y-88499500D01*
X197488691Y-88499500D01*
X197088691Y-88499500D01*
X195696870Y-88499500D01*
X195629831Y-88479815D01*
X195584076Y-88427011D01*
X195579164Y-88414505D01*
X195551161Y-88329999D01*
X195534814Y-88280666D01*
X195442712Y-88131344D01*
X195318656Y-88007288D01*
X195225888Y-87950069D01*
X195169336Y-87915187D01*
X195169331Y-87915185D01*
X195167862Y-87914698D01*
X195002797Y-87860001D01*
X195002795Y-87860000D01*
X194900010Y-87849500D01*
X192799998Y-87849500D01*
X192799981Y-87849501D01*
X192697203Y-87860000D01*
X192697200Y-87860001D01*
X192530668Y-87915185D01*
X192530663Y-87915187D01*
X192381342Y-88007289D01*
X192257289Y-88131342D01*
X192165187Y-88280663D01*
X192165185Y-88280668D01*
X192137349Y-88364670D01*
X192110001Y-88447203D01*
X192110001Y-88447204D01*
X192110000Y-88447204D01*
X192099500Y-88549983D01*
X191300498Y-88549983D01*
X191296104Y-88506972D01*
X191289999Y-88447203D01*
X191289998Y-88447200D01*
X191279164Y-88414505D01*
X191234814Y-88280666D01*
X191142712Y-88131344D01*
X191018656Y-88007288D01*
X190925888Y-87950069D01*
X190869336Y-87915187D01*
X190869331Y-87915185D01*
X190867862Y-87914698D01*
X190702797Y-87860001D01*
X190702795Y-87860000D01*
X190600010Y-87849500D01*
X188499998Y-87849500D01*
X188499981Y-87849501D01*
X188397203Y-87860000D01*
X188397200Y-87860001D01*
X188230668Y-87915185D01*
X188230659Y-87915189D01*
X188123900Y-87981039D01*
X188058804Y-87999500D01*
X183824499Y-87999500D01*
X183757460Y-87979815D01*
X183711705Y-87927011D01*
X183700499Y-87875500D01*
X183700499Y-87799998D01*
X183700498Y-87799981D01*
X183689999Y-87697203D01*
X183689997Y-87697195D01*
X183678833Y-87663505D01*
X183676430Y-87593677D01*
X183712161Y-87533635D01*
X183774681Y-87502442D01*
X183796538Y-87500500D01*
X210375500Y-87500500D01*
X210442539Y-87520185D01*
X210488294Y-87572989D01*
X210499500Y-87624500D01*
X210499500Y-119375500D01*
X210479815Y-119442539D01*
X210427011Y-119488294D01*
X210375500Y-119499500D01*
X195956863Y-119499500D01*
X195889824Y-119479815D01*
X195844069Y-119427011D01*
X195834125Y-119357853D01*
X195863150Y-119294297D01*
X195869172Y-119287827D01*
X196177778Y-118979222D01*
X196177782Y-118979220D01*
X196317139Y-118839863D01*
X196426632Y-118675995D01*
X196502051Y-118493916D01*
X196514632Y-118430663D01*
X196540500Y-118300624D01*
X196540500Y-117960758D01*
X196560185Y-117893719D01*
X196576819Y-117873077D01*
X196578495Y-117871401D01*
X196708730Y-117685405D01*
X196763307Y-117641781D01*
X196832805Y-117634587D01*
X196895160Y-117666110D01*
X196911879Y-117685405D01*
X197041890Y-117871078D01*
X197208917Y-118038105D01*
X197402421Y-118173600D01*
X197616507Y-118273429D01*
X197616516Y-118273433D01*
X197830000Y-118330634D01*
X197830000Y-117433012D01*
X197887007Y-117465925D01*
X198014174Y-117500000D01*
X198145826Y-117500000D01*
X198272993Y-117465925D01*
X198330000Y-117433012D01*
X198330000Y-118330633D01*
X198543483Y-118273433D01*
X198543492Y-118273429D01*
X198757578Y-118173600D01*
X198951082Y-118038105D01*
X199118105Y-117871082D01*
X199248119Y-117685405D01*
X199302696Y-117641781D01*
X199372195Y-117634588D01*
X199434549Y-117666110D01*
X199451269Y-117685405D01*
X199581505Y-117871401D01*
X199748599Y-118038495D01*
X199808044Y-118080119D01*
X199942165Y-118174032D01*
X199942167Y-118174033D01*
X199942170Y-118174035D01*
X200156337Y-118273903D01*
X200384592Y-118335063D01*
X200572918Y-118351539D01*
X200619999Y-118355659D01*
X200620000Y-118355659D01*
X200620001Y-118355659D01*
X200659234Y-118352226D01*
X200855408Y-118335063D01*
X201083663Y-118273903D01*
X201297830Y-118174035D01*
X201491401Y-118038495D01*
X201658495Y-117871401D01*
X201794035Y-117677830D01*
X201893903Y-117463663D01*
X201955063Y-117235408D01*
X201975659Y-117000000D01*
X201955063Y-116764592D01*
X201893903Y-116536337D01*
X201794035Y-116322171D01*
X201792890Y-116320535D01*
X201658494Y-116128597D01*
X201529893Y-115999996D01*
X203145170Y-115999996D01*
X203145170Y-116000003D01*
X203164473Y-116331426D01*
X203164474Y-116331437D01*
X203222118Y-116658351D01*
X203222121Y-116658365D01*
X203317336Y-116976408D01*
X203448827Y-117281236D01*
X203448833Y-117281249D01*
X203614824Y-117568755D01*
X203812357Y-117834087D01*
X204884728Y-116761716D01*
X204970278Y-116879466D01*
X205120534Y-117029722D01*
X205238281Y-117115270D01*
X204169289Y-118184263D01*
X204295215Y-118289925D01*
X204572588Y-118472356D01*
X204869252Y-118621347D01*
X204869258Y-118621350D01*
X205181213Y-118734892D01*
X205181234Y-118734899D01*
X205504248Y-118811456D01*
X205504263Y-118811458D01*
X205834012Y-118849999D01*
X205834013Y-118850000D01*
X206165987Y-118850000D01*
X206165987Y-118849999D01*
X206495736Y-118811458D01*
X206495751Y-118811456D01*
X206818765Y-118734899D01*
X206818786Y-118734892D01*
X207130741Y-118621350D01*
X207130747Y-118621347D01*
X207427411Y-118472356D01*
X207704789Y-118289922D01*
X207830708Y-118184263D01*
X207830709Y-118184262D01*
X206761718Y-117115270D01*
X206879466Y-117029722D01*
X207029722Y-116879466D01*
X207115270Y-116761717D01*
X208187641Y-117834088D01*
X208385175Y-117568756D01*
X208551166Y-117281249D01*
X208551172Y-117281236D01*
X208682663Y-116976408D01*
X208777878Y-116658365D01*
X208777881Y-116658351D01*
X208835525Y-116331437D01*
X208835526Y-116331426D01*
X208854830Y-116000003D01*
X208854830Y-115999996D01*
X208835526Y-115668573D01*
X208835525Y-115668562D01*
X208777881Y-115341648D01*
X208777878Y-115341634D01*
X208682663Y-115023591D01*
X208551172Y-114718763D01*
X208551166Y-114718750D01*
X208385172Y-114431239D01*
X208187642Y-114165910D01*
X207115270Y-115238281D01*
X207029722Y-115120534D01*
X206879466Y-114970278D01*
X206761717Y-114884728D01*
X207830709Y-113815736D01*
X207830709Y-113815735D01*
X207704784Y-113710074D01*
X207427411Y-113527643D01*
X207130747Y-113378652D01*
X207130741Y-113378649D01*
X206818786Y-113265107D01*
X206818765Y-113265100D01*
X206495751Y-113188543D01*
X206495736Y-113188541D01*
X206165987Y-113150000D01*
X205834013Y-113150000D01*
X205504263Y-113188541D01*
X205504248Y-113188543D01*
X205181234Y-113265100D01*
X205181213Y-113265107D01*
X204869258Y-113378649D01*
X204869252Y-113378652D01*
X204572581Y-113527646D01*
X204295220Y-113710070D01*
X204295213Y-113710075D01*
X204169289Y-113815735D01*
X205238282Y-114884728D01*
X205120534Y-114970278D01*
X204970278Y-115120534D01*
X204884728Y-115238282D01*
X203812357Y-114165911D01*
X203812356Y-114165911D01*
X203614829Y-114431236D01*
X203614825Y-114431242D01*
X203448833Y-114718750D01*
X203448827Y-114718763D01*
X203317336Y-115023591D01*
X203222121Y-115341634D01*
X203222118Y-115341648D01*
X203164474Y-115668562D01*
X203164473Y-115668573D01*
X203145170Y-115999996D01*
X201529893Y-115999996D01*
X201491404Y-115961507D01*
X201423375Y-115913872D01*
X201379751Y-115859294D01*
X201370500Y-115812298D01*
X201370500Y-115642812D01*
X201377459Y-115601857D01*
X201385368Y-115579255D01*
X201391537Y-115524500D01*
X201405565Y-115400003D01*
X201405565Y-115399996D01*
X201385368Y-115220747D01*
X201385368Y-115220745D01*
X201377458Y-115198139D01*
X201370500Y-115157185D01*
X201370500Y-115146079D01*
X201341659Y-115001092D01*
X201341658Y-115001088D01*
X201341658Y-115001087D01*
X201321064Y-114951368D01*
X201285087Y-114864511D01*
X201285080Y-114864498D01*
X201202952Y-114741585D01*
X201151969Y-114690602D01*
X201098416Y-114637049D01*
X201013125Y-114551758D01*
X200979640Y-114490435D01*
X200984624Y-114420743D01*
X200995262Y-114398989D01*
X201059814Y-114294334D01*
X201114999Y-114127797D01*
X201125500Y-114025009D01*
X201125499Y-112974992D01*
X201114999Y-112872203D01*
X201059814Y-112705666D01*
X200967712Y-112556344D01*
X200843656Y-112432288D01*
X200694334Y-112340186D01*
X200527797Y-112285001D01*
X200527795Y-112285000D01*
X200425010Y-112274500D01*
X199649998Y-112274500D01*
X199649980Y-112274501D01*
X199547203Y-112285000D01*
X199547200Y-112285001D01*
X199380668Y-112340185D01*
X199380663Y-112340187D01*
X199231342Y-112432289D01*
X199107288Y-112556343D01*
X199107283Y-112556349D01*
X199105241Y-112559661D01*
X199103247Y-112561453D01*
X199102807Y-112562011D01*
X199102711Y-112561935D01*
X199053291Y-112606383D01*
X198984328Y-112617602D01*
X198920247Y-112589755D01*
X198894168Y-112559656D01*
X198892319Y-112556659D01*
X198892316Y-112556655D01*
X198768345Y-112432684D01*
X198619124Y-112340643D01*
X198619119Y-112340641D01*
X198452697Y-112285494D01*
X198452690Y-112285493D01*
X198349986Y-112275000D01*
X198212500Y-112275000D01*
X198212500Y-114724999D01*
X198349972Y-114724999D01*
X198349986Y-114724998D01*
X198452697Y-114714505D01*
X198619119Y-114659358D01*
X198619124Y-114659356D01*
X198768345Y-114567315D01*
X198892318Y-114443342D01*
X198894165Y-114440348D01*
X198895969Y-114438724D01*
X198896798Y-114437677D01*
X198896976Y-114437818D01*
X198946110Y-114393621D01*
X199015073Y-114382396D01*
X199079156Y-114410236D01*
X199105243Y-114440341D01*
X199107288Y-114443656D01*
X199107289Y-114443657D01*
X199231345Y-114567713D01*
X199237013Y-114572195D01*
X199235570Y-114574019D01*
X199274820Y-114617654D01*
X199287000Y-114671248D01*
X199287000Y-114711418D01*
X199287000Y-114711420D01*
X199286999Y-114711420D01*
X199315840Y-114856407D01*
X199315843Y-114856417D01*
X199372413Y-114992990D01*
X199372417Y-114992997D01*
X199377823Y-115001088D01*
X199454549Y-115115918D01*
X199770838Y-115432207D01*
X199804323Y-115493530D01*
X199806377Y-115506003D01*
X199814631Y-115579252D01*
X199814631Y-115579254D01*
X199814632Y-115579255D01*
X199847156Y-115672204D01*
X199862541Y-115716170D01*
X199869500Y-115757125D01*
X199869500Y-115812298D01*
X199849815Y-115879337D01*
X199816625Y-115913872D01*
X199748595Y-115961507D01*
X199581508Y-116128594D01*
X199451269Y-116314595D01*
X199396692Y-116358219D01*
X199327193Y-116365412D01*
X199264839Y-116333890D01*
X199248119Y-116314594D01*
X199118113Y-116128926D01*
X199118108Y-116128920D01*
X198951082Y-115961894D01*
X198757578Y-115826399D01*
X198543492Y-115726570D01*
X198543486Y-115726567D01*
X198330000Y-115669364D01*
X198330000Y-116566988D01*
X198272993Y-116534075D01*
X198145826Y-116500000D01*
X198014174Y-116500000D01*
X197887007Y-116534075D01*
X197830000Y-116566988D01*
X197830000Y-115669364D01*
X197829999Y-115669364D01*
X197616513Y-115726567D01*
X197616507Y-115726570D01*
X197402422Y-115826399D01*
X197402420Y-115826400D01*
X197208926Y-115961886D01*
X197208920Y-115961891D01*
X197041891Y-116128920D01*
X197041890Y-116128922D01*
X196911880Y-116314595D01*
X196857303Y-116358219D01*
X196787804Y-116365412D01*
X196725450Y-116333890D01*
X196708730Y-116314594D01*
X196578494Y-116128597D01*
X196411404Y-115961507D01*
X196343375Y-115913872D01*
X196299751Y-115859294D01*
X196290500Y-115812298D01*
X196290500Y-115066079D01*
X196261659Y-114921092D01*
X196261658Y-114921091D01*
X196261658Y-114921087D01*
X196256098Y-114907664D01*
X196205087Y-114784511D01*
X196205080Y-114784498D01*
X196122952Y-114661585D01*
X196074186Y-114612819D01*
X196018416Y-114557049D01*
X196013125Y-114551758D01*
X195979640Y-114490435D01*
X195984624Y-114420743D01*
X195995262Y-114398989D01*
X196059814Y-114294334D01*
X196114999Y-114127797D01*
X196125500Y-114025009D01*
X196125500Y-114024986D01*
X196875001Y-114024986D01*
X196885494Y-114127697D01*
X196940641Y-114294119D01*
X196940643Y-114294124D01*
X197032684Y-114443345D01*
X197156654Y-114567315D01*
X197305875Y-114659356D01*
X197305880Y-114659358D01*
X197472302Y-114714505D01*
X197472309Y-114714506D01*
X197575019Y-114724999D01*
X197712499Y-114724999D01*
X197712500Y-114724998D01*
X197712500Y-113750000D01*
X196875001Y-113750000D01*
X196875001Y-114024986D01*
X196125500Y-114024986D01*
X196125499Y-112975013D01*
X196875000Y-112975013D01*
X196875000Y-113250000D01*
X197712500Y-113250000D01*
X197712500Y-112275000D01*
X197575027Y-112275000D01*
X197575012Y-112275001D01*
X197472302Y-112285494D01*
X197305880Y-112340641D01*
X197305875Y-112340643D01*
X197156654Y-112432684D01*
X197032684Y-112556654D01*
X196940643Y-112705875D01*
X196940641Y-112705880D01*
X196885494Y-112872302D01*
X196885493Y-112872309D01*
X196875000Y-112975013D01*
X196125499Y-112975013D01*
X196125499Y-112974992D01*
X196114999Y-112872203D01*
X196059814Y-112705666D01*
X195967712Y-112556344D01*
X195843656Y-112432288D01*
X195694334Y-112340186D01*
X195527797Y-112285001D01*
X195527795Y-112285000D01*
X195425010Y-112274500D01*
X194649998Y-112274500D01*
X194649980Y-112274501D01*
X194547203Y-112285000D01*
X194547200Y-112285001D01*
X194380668Y-112340185D01*
X194380663Y-112340187D01*
X194231342Y-112432289D01*
X194107288Y-112556343D01*
X194107283Y-112556349D01*
X194105241Y-112559661D01*
X194103247Y-112561453D01*
X194102807Y-112562011D01*
X194102711Y-112561935D01*
X194053291Y-112606383D01*
X193984328Y-112617602D01*
X193920247Y-112589755D01*
X193894168Y-112559656D01*
X193892319Y-112556659D01*
X193892316Y-112556655D01*
X193768345Y-112432684D01*
X193619124Y-112340643D01*
X193619119Y-112340641D01*
X193452697Y-112285494D01*
X193452690Y-112285493D01*
X193349986Y-112275000D01*
X193212500Y-112275000D01*
X193212500Y-114724999D01*
X193349972Y-114724999D01*
X193349986Y-114724998D01*
X193452697Y-114714505D01*
X193619119Y-114659358D01*
X193619124Y-114659356D01*
X193768345Y-114567315D01*
X193892318Y-114443342D01*
X193894165Y-114440348D01*
X193895969Y-114438724D01*
X193896798Y-114437677D01*
X193896976Y-114437818D01*
X193946110Y-114393621D01*
X194015073Y-114382396D01*
X194079156Y-114410236D01*
X194105243Y-114440341D01*
X194107288Y-114443656D01*
X194107289Y-114443657D01*
X194231345Y-114567713D01*
X194237013Y-114572195D01*
X194235570Y-114574019D01*
X194274820Y-114617654D01*
X194287000Y-114671248D01*
X194287000Y-114711418D01*
X194287000Y-114711420D01*
X194286999Y-114711420D01*
X194315840Y-114856407D01*
X194315843Y-114856417D01*
X194372413Y-114992990D01*
X194372417Y-114992997D01*
X194377823Y-115001088D01*
X194405505Y-115042517D01*
X194454548Y-115115916D01*
X194753182Y-115414549D01*
X194786666Y-115475871D01*
X194789500Y-115502229D01*
X194789500Y-115812298D01*
X194769815Y-115879337D01*
X194736625Y-115913872D01*
X194668599Y-115961505D01*
X194546284Y-116083819D01*
X194484960Y-116117303D01*
X194415269Y-116112318D01*
X194359335Y-116070447D01*
X194342421Y-116039470D01*
X194293354Y-115907913D01*
X194293350Y-115907906D01*
X194207190Y-115792812D01*
X194207187Y-115792809D01*
X194092093Y-115706649D01*
X194092086Y-115706645D01*
X193957379Y-115656403D01*
X193957372Y-115656401D01*
X193897844Y-115650000D01*
X193250000Y-115650000D01*
X193250000Y-116566988D01*
X193192993Y-116534075D01*
X193065826Y-116500000D01*
X192934174Y-116500000D01*
X192807007Y-116534075D01*
X192750000Y-116566988D01*
X192750000Y-115650000D01*
X192102155Y-115650000D01*
X192042627Y-115656401D01*
X192042620Y-115656403D01*
X191907913Y-115706645D01*
X191907906Y-115706649D01*
X191792812Y-115792809D01*
X191792809Y-115792812D01*
X191706649Y-115907906D01*
X191706645Y-115907913D01*
X191656403Y-116042620D01*
X191656401Y-116042627D01*
X191650000Y-116102155D01*
X191650000Y-116750000D01*
X192566988Y-116750000D01*
X192534075Y-116807007D01*
X192500000Y-116934174D01*
X192500000Y-117065826D01*
X192534075Y-117192993D01*
X192566988Y-117250000D01*
X191650000Y-117250000D01*
X191650000Y-117875500D01*
X191630315Y-117942539D01*
X191577511Y-117988294D01*
X191526000Y-117999500D01*
X188624500Y-117999500D01*
X188557461Y-117979815D01*
X188511706Y-117927011D01*
X188500500Y-117875500D01*
X188500499Y-116299998D01*
X188500498Y-116299981D01*
X188489999Y-116197203D01*
X188489998Y-116197200D01*
X188481075Y-116170272D01*
X188434814Y-116030666D01*
X188342712Y-115881344D01*
X188218656Y-115757288D01*
X188080712Y-115672204D01*
X188069336Y-115665187D01*
X188069331Y-115665185D01*
X188067862Y-115664698D01*
X187902797Y-115610001D01*
X187902795Y-115610000D01*
X187800010Y-115599500D01*
X186599998Y-115599500D01*
X186599981Y-115599501D01*
X186497203Y-115610000D01*
X186497200Y-115610001D01*
X186330668Y-115665185D01*
X186330663Y-115665187D01*
X186181342Y-115757289D01*
X186057289Y-115881342D01*
X185965187Y-116030663D01*
X185965185Y-116030668D01*
X185947573Y-116083819D01*
X185910001Y-116197203D01*
X185910001Y-116197204D01*
X185910000Y-116197204D01*
X185899500Y-116299983D01*
X185899500Y-116475500D01*
X185879815Y-116542539D01*
X185827011Y-116588294D01*
X185775500Y-116599500D01*
X181685719Y-116599500D01*
X181618680Y-116579815D01*
X181575235Y-116531795D01*
X181555052Y-116492185D01*
X181555051Y-116492184D01*
X181430109Y-116320213D01*
X181279794Y-116169898D01*
X181279788Y-116169893D01*
X181201615Y-116113097D01*
X181158949Y-116057767D01*
X181150500Y-116012779D01*
X181150500Y-114888581D01*
X181144101Y-114856414D01*
X181144101Y-114856412D01*
X181121660Y-114743594D01*
X181121659Y-114743588D01*
X181082686Y-114649500D01*
X181069495Y-114617654D01*
X181065087Y-114607011D01*
X181065080Y-114606998D01*
X180993577Y-114499986D01*
X185900001Y-114499986D01*
X185910494Y-114602697D01*
X185965641Y-114769119D01*
X185965643Y-114769124D01*
X186057684Y-114918345D01*
X186181654Y-115042315D01*
X186330875Y-115134356D01*
X186330880Y-115134358D01*
X186497302Y-115189505D01*
X186497309Y-115189506D01*
X186600019Y-115199999D01*
X186949999Y-115199999D01*
X187450000Y-115199999D01*
X187799972Y-115199999D01*
X187799986Y-115199998D01*
X187902697Y-115189505D01*
X188069119Y-115134358D01*
X188069124Y-115134356D01*
X188218345Y-115042315D01*
X188342315Y-114918345D01*
X188434356Y-114769124D01*
X188434358Y-114769119D01*
X188489505Y-114602697D01*
X188489506Y-114602690D01*
X188499999Y-114499986D01*
X188500000Y-114499973D01*
X188500000Y-114024986D01*
X191875001Y-114024986D01*
X191885494Y-114127697D01*
X191940641Y-114294119D01*
X191940643Y-114294124D01*
X192032684Y-114443345D01*
X192156654Y-114567315D01*
X192305875Y-114659356D01*
X192305880Y-114659358D01*
X192472302Y-114714505D01*
X192472309Y-114714506D01*
X192575019Y-114724999D01*
X192712499Y-114724999D01*
X192712500Y-114724998D01*
X192712500Y-113750000D01*
X191875001Y-113750000D01*
X191875001Y-114024986D01*
X188500000Y-114024986D01*
X188500000Y-113450000D01*
X187450000Y-113450000D01*
X187450000Y-115199999D01*
X186949999Y-115199999D01*
X186950000Y-115199998D01*
X186950000Y-113450000D01*
X185900001Y-113450000D01*
X185900001Y-114499986D01*
X180993577Y-114499986D01*
X180982952Y-114484085D01*
X180936544Y-114437677D01*
X180878416Y-114379549D01*
X179473881Y-112975013D01*
X191875000Y-112975013D01*
X191875000Y-113250000D01*
X192712500Y-113250000D01*
X192712500Y-112275000D01*
X192575027Y-112275000D01*
X192575012Y-112275001D01*
X192472302Y-112285494D01*
X192305880Y-112340641D01*
X192305875Y-112340643D01*
X192156654Y-112432684D01*
X192032684Y-112556654D01*
X191940643Y-112705875D01*
X191940641Y-112705880D01*
X191885494Y-112872302D01*
X191885493Y-112872309D01*
X191875000Y-112975013D01*
X179473881Y-112975013D01*
X178398881Y-111900013D01*
X185900000Y-111900013D01*
X185900000Y-112950000D01*
X186950000Y-112950000D01*
X187450000Y-112950000D01*
X188499999Y-112950000D01*
X188499999Y-111900028D01*
X188499998Y-111900013D01*
X188489505Y-111797302D01*
X188434358Y-111630880D01*
X188434356Y-111630875D01*
X188353622Y-111499986D01*
X189900001Y-111499986D01*
X189910494Y-111602697D01*
X189965641Y-111769119D01*
X189965643Y-111769124D01*
X190057684Y-111918345D01*
X190181654Y-112042315D01*
X190330875Y-112134356D01*
X190330880Y-112134358D01*
X190497302Y-112189505D01*
X190497309Y-112189506D01*
X190600019Y-112199999D01*
X190949999Y-112199999D01*
X191450000Y-112199999D01*
X191799972Y-112199999D01*
X191799986Y-112199998D01*
X191902697Y-112189505D01*
X192069119Y-112134358D01*
X192069124Y-112134356D01*
X192218345Y-112042315D01*
X192342315Y-111918345D01*
X192434356Y-111769124D01*
X192434358Y-111769119D01*
X192489505Y-111602697D01*
X192489506Y-111602690D01*
X192499999Y-111499986D01*
X192500000Y-111499973D01*
X192500000Y-110200000D01*
X191450000Y-110200000D01*
X191450000Y-112199999D01*
X190949999Y-112199999D01*
X190950000Y-112199998D01*
X190950000Y-110200000D01*
X189900001Y-110200000D01*
X189900001Y-111499986D01*
X188353622Y-111499986D01*
X188342315Y-111481654D01*
X188218345Y-111357684D01*
X188069124Y-111265643D01*
X188069119Y-111265641D01*
X187902697Y-111210494D01*
X187902690Y-111210493D01*
X187799986Y-111200000D01*
X187450000Y-111200000D01*
X187450000Y-112950000D01*
X186950000Y-112950000D01*
X186950000Y-111200000D01*
X186600028Y-111200000D01*
X186600012Y-111200001D01*
X186497302Y-111210494D01*
X186330880Y-111265641D01*
X186330875Y-111265643D01*
X186181654Y-111357684D01*
X186057684Y-111481654D01*
X185965643Y-111630875D01*
X185965641Y-111630880D01*
X185910494Y-111797302D01*
X185910493Y-111797309D01*
X185900000Y-111900013D01*
X178398881Y-111900013D01*
X176223854Y-109724986D01*
X178475001Y-109724986D01*
X178485494Y-109827697D01*
X178540641Y-109994119D01*
X178540643Y-109994124D01*
X178632684Y-110143345D01*
X178756654Y-110267315D01*
X178905875Y-110359356D01*
X178905880Y-110359358D01*
X179072302Y-110414505D01*
X179072309Y-110414506D01*
X179175019Y-110424999D01*
X179312499Y-110424999D01*
X179312500Y-110424998D01*
X179312500Y-109450000D01*
X178475001Y-109450000D01*
X178475001Y-109724986D01*
X176223854Y-109724986D01*
X175761818Y-109262950D01*
X175728333Y-109201627D01*
X175725499Y-109175269D01*
X175725499Y-108675013D01*
X178475000Y-108675013D01*
X178475000Y-108950000D01*
X179312500Y-108950000D01*
X179312500Y-107975000D01*
X179812500Y-107975000D01*
X179812500Y-110424999D01*
X179949972Y-110424999D01*
X179949986Y-110424998D01*
X180052697Y-110414505D01*
X180219119Y-110359358D01*
X180219124Y-110359356D01*
X180368345Y-110267315D01*
X180492318Y-110143342D01*
X180494165Y-110140348D01*
X180495969Y-110138724D01*
X180496798Y-110137677D01*
X180496976Y-110137818D01*
X180546110Y-110093621D01*
X180615073Y-110082396D01*
X180679156Y-110110236D01*
X180705243Y-110140341D01*
X180707288Y-110143656D01*
X180831344Y-110267712D01*
X180980666Y-110359814D01*
X181147203Y-110414999D01*
X181249991Y-110425500D01*
X182025008Y-110425499D01*
X182025016Y-110425498D01*
X182025019Y-110425498D01*
X182081302Y-110419748D01*
X182127797Y-110414999D01*
X182294334Y-110359814D01*
X182443656Y-110267712D01*
X182567712Y-110143656D01*
X182659814Y-109994334D01*
X182714999Y-109827797D01*
X182725500Y-109725009D01*
X182725499Y-108674992D01*
X182714999Y-108572203D01*
X182659814Y-108405666D01*
X182656327Y-108400013D01*
X189900000Y-108400013D01*
X189900000Y-109700000D01*
X190950000Y-109700000D01*
X191450000Y-109700000D01*
X192499999Y-109700000D01*
X192499999Y-109298543D01*
X201599499Y-109298543D01*
X201637947Y-109491829D01*
X201637950Y-109491839D01*
X201713364Y-109673907D01*
X201713371Y-109673920D01*
X201822860Y-109837781D01*
X201822863Y-109837785D01*
X201962214Y-109977136D01*
X201962218Y-109977139D01*
X202126079Y-110086628D01*
X202126092Y-110086635D01*
X202263760Y-110143658D01*
X202308165Y-110162051D01*
X202308169Y-110162051D01*
X202308170Y-110162052D01*
X202501456Y-110200500D01*
X202501459Y-110200500D01*
X203625501Y-110200500D01*
X203692540Y-110220185D01*
X203738295Y-110272989D01*
X203749501Y-110324500D01*
X203749501Y-111200018D01*
X203760000Y-111302796D01*
X203760001Y-111302799D01*
X203815185Y-111469331D01*
X203815186Y-111469334D01*
X203907288Y-111618656D01*
X204031344Y-111742712D01*
X204180666Y-111834814D01*
X204347203Y-111889999D01*
X204449991Y-111900500D01*
X206550008Y-111900499D01*
X206652797Y-111889999D01*
X206819334Y-111834814D01*
X206968656Y-111742712D01*
X207092712Y-111618656D01*
X207184814Y-111469334D01*
X207239999Y-111302797D01*
X207250500Y-111200009D01*
X207250500Y-110324500D01*
X207270185Y-110257461D01*
X207322989Y-110211706D01*
X207374500Y-110200500D01*
X208498543Y-110200500D01*
X208628582Y-110174632D01*
X208691835Y-110162051D01*
X208873914Y-110086632D01*
X209037782Y-109977139D01*
X209177139Y-109837782D01*
X209286632Y-109673914D01*
X209362051Y-109491835D01*
X209400500Y-109298541D01*
X209400500Y-109101459D01*
X209400500Y-109101456D01*
X209362052Y-108908170D01*
X209362051Y-108908169D01*
X209362051Y-108908165D01*
X209362049Y-108908160D01*
X209286635Y-108726092D01*
X209286628Y-108726079D01*
X209177139Y-108562218D01*
X209177136Y-108562214D01*
X209037785Y-108422863D01*
X209037781Y-108422860D01*
X208873920Y-108313371D01*
X208873907Y-108313364D01*
X208691839Y-108237950D01*
X208691829Y-108237947D01*
X208498543Y-108199500D01*
X208498541Y-108199500D01*
X207374499Y-108199500D01*
X207307460Y-108179815D01*
X207261705Y-108127011D01*
X207250499Y-108075500D01*
X207250499Y-107199998D01*
X207250498Y-107199981D01*
X207239999Y-107097203D01*
X207239998Y-107097200D01*
X207226631Y-107056862D01*
X207184814Y-106930666D01*
X207092712Y-106781344D01*
X206968656Y-106657288D01*
X206819334Y-106565186D01*
X206652797Y-106510001D01*
X206652795Y-106510000D01*
X206550010Y-106499500D01*
X204449998Y-106499500D01*
X204449981Y-106499501D01*
X204347203Y-106510000D01*
X204347200Y-106510001D01*
X204180668Y-106565185D01*
X204180663Y-106565187D01*
X204031342Y-106657289D01*
X203907289Y-106781342D01*
X203815187Y-106930663D01*
X203815186Y-106930666D01*
X203760001Y-107097203D01*
X203760001Y-107097204D01*
X203760000Y-107097204D01*
X203749500Y-107199983D01*
X203749500Y-108075500D01*
X203729815Y-108142539D01*
X203677011Y-108188294D01*
X203625500Y-108199500D01*
X202501457Y-108199500D01*
X202308170Y-108237947D01*
X202308160Y-108237950D01*
X202126092Y-108313364D01*
X202126079Y-108313371D01*
X201962218Y-108422860D01*
X201962214Y-108422863D01*
X201822863Y-108562214D01*
X201822860Y-108562218D01*
X201713371Y-108726079D01*
X201713364Y-108726092D01*
X201637950Y-108908160D01*
X201637947Y-108908170D01*
X201599500Y-109101456D01*
X201599500Y-109101459D01*
X201599500Y-109298541D01*
X201599500Y-109298543D01*
X201599499Y-109298543D01*
X192499999Y-109298543D01*
X192499999Y-108400028D01*
X192499998Y-108400013D01*
X192489505Y-108297302D01*
X192434358Y-108130880D01*
X192434356Y-108130875D01*
X192342315Y-107981654D01*
X192218345Y-107857684D01*
X192069124Y-107765643D01*
X192069119Y-107765641D01*
X191902697Y-107710494D01*
X191902690Y-107710493D01*
X191799986Y-107700000D01*
X191450000Y-107700000D01*
X191450000Y-109700000D01*
X190950000Y-109700000D01*
X190950000Y-107700000D01*
X190600028Y-107700000D01*
X190600012Y-107700001D01*
X190497302Y-107710494D01*
X190330880Y-107765641D01*
X190330875Y-107765643D01*
X190181654Y-107857684D01*
X190057684Y-107981654D01*
X189965643Y-108130875D01*
X189965641Y-108130880D01*
X189910494Y-108297302D01*
X189910493Y-108297309D01*
X189900000Y-108400013D01*
X182656327Y-108400013D01*
X182567712Y-108256344D01*
X182443656Y-108132288D01*
X182437989Y-108127807D01*
X182439430Y-108125984D01*
X182400175Y-108082335D01*
X182388000Y-108028752D01*
X182388000Y-107399932D01*
X182407685Y-107332893D01*
X182460489Y-107287138D01*
X182477393Y-107280859D01*
X182560398Y-107256744D01*
X182701865Y-107173081D01*
X182818081Y-107056865D01*
X182901744Y-106915398D01*
X182947598Y-106757569D01*
X182950500Y-106720694D01*
X182950500Y-106289306D01*
X182947598Y-106252431D01*
X182933178Y-106202799D01*
X182911886Y-106129512D01*
X182901744Y-106094602D01*
X182818081Y-105953135D01*
X182818078Y-105953132D01*
X182813298Y-105946969D01*
X182815635Y-105945155D01*
X182788798Y-105896050D01*
X182793756Y-105826356D01*
X182814554Y-105793998D01*
X182812903Y-105792717D01*
X182817686Y-105786550D01*
X182901281Y-105645198D01*
X182947100Y-105487486D01*
X182947295Y-105485001D01*
X182947295Y-105485000D01*
X180202705Y-105485000D01*
X180202704Y-105485001D01*
X180202899Y-105487486D01*
X180248718Y-105645198D01*
X180332314Y-105786552D01*
X180337100Y-105792722D01*
X180334640Y-105794629D01*
X180361210Y-105843288D01*
X180356226Y-105912980D01*
X180335162Y-105945781D01*
X180336699Y-105946974D01*
X180331915Y-105953140D01*
X180248255Y-106094603D01*
X180248254Y-106094606D01*
X180202402Y-106252426D01*
X180202401Y-106252432D01*
X180199500Y-106289298D01*
X180199500Y-106720701D01*
X180202401Y-106757567D01*
X180202402Y-106757573D01*
X180248254Y-106915393D01*
X180248255Y-106915396D01*
X180248256Y-106915398D01*
X180257287Y-106930668D01*
X180331917Y-107056862D01*
X180331923Y-107056870D01*
X180448129Y-107173076D01*
X180448133Y-107173079D01*
X180448135Y-107173081D01*
X180589602Y-107256744D01*
X180631224Y-107268836D01*
X180747426Y-107302597D01*
X180747429Y-107302597D01*
X180747431Y-107302598D01*
X180772726Y-107304588D01*
X180838014Y-107329469D01*
X180879487Y-107385699D01*
X180887000Y-107428206D01*
X180887000Y-108028752D01*
X180867315Y-108095791D01*
X180836002Y-108126531D01*
X180837011Y-108127807D01*
X180831343Y-108132288D01*
X180707288Y-108256343D01*
X180707283Y-108256349D01*
X180705241Y-108259661D01*
X180703247Y-108261453D01*
X180702807Y-108262011D01*
X180702711Y-108261935D01*
X180653291Y-108306383D01*
X180584328Y-108317602D01*
X180520247Y-108289755D01*
X180494168Y-108259656D01*
X180492319Y-108256659D01*
X180492316Y-108256655D01*
X180368345Y-108132684D01*
X180219124Y-108040643D01*
X180219119Y-108040641D01*
X180052697Y-107985494D01*
X180052690Y-107985493D01*
X179949986Y-107975000D01*
X179812500Y-107975000D01*
X179312500Y-107975000D01*
X179175027Y-107975000D01*
X179175012Y-107975001D01*
X179072302Y-107985494D01*
X178905880Y-108040641D01*
X178905875Y-108040643D01*
X178756654Y-108132684D01*
X178632684Y-108256654D01*
X178540643Y-108405875D01*
X178540641Y-108405880D01*
X178485494Y-108572302D01*
X178485493Y-108572309D01*
X178475000Y-108675013D01*
X175725499Y-108675013D01*
X175725499Y-108674998D01*
X175725498Y-108674981D01*
X175714999Y-108572203D01*
X175714998Y-108572200D01*
X175711689Y-108562214D01*
X175659814Y-108405666D01*
X175567712Y-108256344D01*
X175443656Y-108132288D01*
X175294334Y-108040186D01*
X175127797Y-107985001D01*
X175127795Y-107985000D01*
X175025010Y-107974500D01*
X174249998Y-107974500D01*
X174249980Y-107974501D01*
X174147203Y-107985000D01*
X174147200Y-107985001D01*
X173980668Y-108040185D01*
X173980663Y-108040187D01*
X173831342Y-108132289D01*
X173707285Y-108256346D01*
X173705537Y-108259182D01*
X173703829Y-108260717D01*
X173702807Y-108262011D01*
X173702585Y-108261836D01*
X173653589Y-108305905D01*
X173584626Y-108317126D01*
X173520544Y-108289282D01*
X173494463Y-108259182D01*
X173492714Y-108256346D01*
X173368657Y-108132289D01*
X173368656Y-108132288D01*
X173219334Y-108040186D01*
X173052797Y-107985001D01*
X173052795Y-107985000D01*
X172950010Y-107974500D01*
X172174998Y-107974500D01*
X172174980Y-107974501D01*
X172072203Y-107985000D01*
X172072200Y-107985001D01*
X171905668Y-108040185D01*
X171905663Y-108040187D01*
X171756342Y-108132289D01*
X171632289Y-108256342D01*
X171549481Y-108390597D01*
X171497533Y-108437321D01*
X171443942Y-108449500D01*
X168756058Y-108449500D01*
X168689019Y-108429815D01*
X168650519Y-108390597D01*
X168567712Y-108256344D01*
X168443656Y-108132288D01*
X168294334Y-108040186D01*
X168127797Y-107985001D01*
X168127795Y-107985000D01*
X168025010Y-107974500D01*
X167249998Y-107974500D01*
X167249980Y-107974501D01*
X167147203Y-107985000D01*
X167147200Y-107985001D01*
X166980668Y-108040185D01*
X166980663Y-108040187D01*
X166831342Y-108132289D01*
X166707288Y-108256343D01*
X166707283Y-108256349D01*
X166705241Y-108259661D01*
X166703247Y-108261453D01*
X166702807Y-108262011D01*
X166702711Y-108261935D01*
X166653291Y-108306383D01*
X166584328Y-108317602D01*
X166520247Y-108289755D01*
X166494168Y-108259656D01*
X166492319Y-108256659D01*
X166492316Y-108256655D01*
X166368345Y-108132684D01*
X166219124Y-108040643D01*
X166219119Y-108040641D01*
X166052697Y-107985494D01*
X166052690Y-107985493D01*
X165949986Y-107975000D01*
X165812500Y-107975000D01*
X165812500Y-110424999D01*
X165949972Y-110424999D01*
X165949986Y-110424998D01*
X166052697Y-110414505D01*
X166219119Y-110359358D01*
X166219124Y-110359356D01*
X166368345Y-110267315D01*
X166492318Y-110143342D01*
X166494165Y-110140348D01*
X166495969Y-110138724D01*
X166496798Y-110137677D01*
X166496976Y-110137818D01*
X166546110Y-110093621D01*
X166615073Y-110082396D01*
X166679156Y-110110236D01*
X166705243Y-110140341D01*
X166707288Y-110143656D01*
X166831344Y-110267712D01*
X166980666Y-110359814D01*
X167147203Y-110414999D01*
X167249991Y-110425500D01*
X168025008Y-110425499D01*
X168025016Y-110425498D01*
X168025019Y-110425498D01*
X168081302Y-110419748D01*
X168127797Y-110414999D01*
X168294334Y-110359814D01*
X168443656Y-110267712D01*
X168567712Y-110143656D01*
X168650519Y-110009402D01*
X168702467Y-109962679D01*
X168756058Y-109950500D01*
X169125500Y-109950500D01*
X169192539Y-109970185D01*
X169238294Y-110022989D01*
X169249500Y-110074500D01*
X169249500Y-114612819D01*
X169229815Y-114679858D01*
X169199812Y-114712085D01*
X169092452Y-114792455D01*
X169006206Y-114907664D01*
X169006202Y-114907671D01*
X168955908Y-115042517D01*
X168953375Y-115066082D01*
X168949501Y-115102123D01*
X168949500Y-115102135D01*
X168949500Y-118897870D01*
X168949501Y-118897876D01*
X168955908Y-118957483D01*
X169006202Y-119092328D01*
X169006206Y-119092335D01*
X169092452Y-119207544D01*
X169092455Y-119207547D01*
X169184208Y-119276234D01*
X169226079Y-119332168D01*
X169231063Y-119401859D01*
X169197577Y-119463182D01*
X169136254Y-119496666D01*
X169109897Y-119499500D01*
X167890103Y-119499500D01*
X167823064Y-119479815D01*
X167777309Y-119427011D01*
X167767365Y-119357853D01*
X167796390Y-119294297D01*
X167815792Y-119276234D01*
X167875240Y-119231730D01*
X167907546Y-119207546D01*
X167993796Y-119092331D01*
X168044091Y-118957483D01*
X168050500Y-118897873D01*
X168050499Y-115102128D01*
X168044091Y-115042517D01*
X168025621Y-114992997D01*
X168008318Y-114946604D01*
X168000500Y-114903271D01*
X168000500Y-114301456D01*
X167962052Y-114108170D01*
X167962051Y-114108169D01*
X167962051Y-114108165D01*
X167927607Y-114025008D01*
X167886635Y-113926092D01*
X167886628Y-113926079D01*
X167777139Y-113762218D01*
X167777136Y-113762214D01*
X167637785Y-113622863D01*
X167637781Y-113622860D01*
X167473920Y-113513371D01*
X167473907Y-113513364D01*
X167291839Y-113437950D01*
X167291829Y-113437947D01*
X167098543Y-113399500D01*
X167098541Y-113399500D01*
X166298541Y-113399500D01*
X164498541Y-113399500D01*
X163698541Y-113399500D01*
X160298541Y-113399500D01*
X159824500Y-113399500D01*
X159757461Y-113379815D01*
X159711706Y-113327011D01*
X159700500Y-113275500D01*
X159700500Y-109724986D01*
X164475001Y-109724986D01*
X164485494Y-109827697D01*
X164540641Y-109994119D01*
X164540643Y-109994124D01*
X164632684Y-110143345D01*
X164756654Y-110267315D01*
X164905875Y-110359356D01*
X164905880Y-110359358D01*
X165072302Y-110414505D01*
X165072309Y-110414506D01*
X165175019Y-110424999D01*
X165312499Y-110424999D01*
X165312500Y-110424998D01*
X165312500Y-109450000D01*
X164475001Y-109450000D01*
X164475001Y-109724986D01*
X159700500Y-109724986D01*
X159700500Y-108675013D01*
X164475000Y-108675013D01*
X164475000Y-108950000D01*
X165312500Y-108950000D01*
X165312500Y-107975000D01*
X165175027Y-107975000D01*
X165175012Y-107975001D01*
X165072302Y-107985494D01*
X164905880Y-108040641D01*
X164905875Y-108040643D01*
X164756654Y-108132684D01*
X164632684Y-108256654D01*
X164540643Y-108405875D01*
X164540641Y-108405880D01*
X164485494Y-108572302D01*
X164485493Y-108572309D01*
X164475000Y-108675013D01*
X159700500Y-108675013D01*
X159700500Y-106755001D01*
X175052704Y-106755001D01*
X175052899Y-106757486D01*
X175098718Y-106915198D01*
X175182314Y-107056552D01*
X175182321Y-107056561D01*
X175298438Y-107172678D01*
X175298447Y-107172685D01*
X175439803Y-107256282D01*
X175439806Y-107256283D01*
X175597504Y-107302099D01*
X175597510Y-107302100D01*
X175634350Y-107304999D01*
X175634366Y-107305000D01*
X176175000Y-107305000D01*
X176675000Y-107305000D01*
X177215634Y-107305000D01*
X177215649Y-107304999D01*
X177252489Y-107302100D01*
X177252495Y-107302099D01*
X177410193Y-107256283D01*
X177410196Y-107256282D01*
X177551552Y-107172685D01*
X177551561Y-107172678D01*
X177667678Y-107056561D01*
X177667685Y-107056552D01*
X177751281Y-106915198D01*
X177797100Y-106757486D01*
X177797295Y-106755001D01*
X177797295Y-106755000D01*
X176675000Y-106755000D01*
X176675000Y-107305000D01*
X176175000Y-107305000D01*
X176175000Y-106755000D01*
X175052705Y-106755000D01*
X175052704Y-106755001D01*
X159700500Y-106755001D01*
X159700500Y-102916986D01*
X168025001Y-102916986D01*
X168035494Y-103019697D01*
X168090641Y-103186119D01*
X168090643Y-103186124D01*
X168182684Y-103335345D01*
X168306654Y-103459315D01*
X168455875Y-103551356D01*
X168455880Y-103551358D01*
X168622302Y-103606505D01*
X168622309Y-103606506D01*
X168725019Y-103616999D01*
X169149999Y-103616999D01*
X169650000Y-103616999D01*
X170074972Y-103616999D01*
X170074986Y-103616998D01*
X170177697Y-103606505D01*
X170344119Y-103551358D01*
X170344124Y-103551356D01*
X170493345Y-103459315D01*
X170617315Y-103335345D01*
X170709356Y-103186124D01*
X170709358Y-103186119D01*
X170764505Y-103019697D01*
X170764506Y-103019690D01*
X170774999Y-102916986D01*
X170775000Y-102916973D01*
X170775000Y-102804500D01*
X169650000Y-102804500D01*
X169650000Y-103616999D01*
X169149999Y-103616999D01*
X169150000Y-103616998D01*
X169150000Y-102804500D01*
X168025001Y-102804500D01*
X168025001Y-102916986D01*
X159700500Y-102916986D01*
X159700500Y-102624499D01*
X159720185Y-102557460D01*
X159772989Y-102511705D01*
X159824500Y-102500499D01*
X160802871Y-102500499D01*
X160802872Y-102500499D01*
X160862483Y-102494091D01*
X160997331Y-102443796D01*
X161112546Y-102357546D01*
X161198796Y-102242331D01*
X161217563Y-102192013D01*
X168025000Y-102192013D01*
X168025000Y-102304500D01*
X169150000Y-102304500D01*
X169650000Y-102304500D01*
X170774999Y-102304500D01*
X170774999Y-102192028D01*
X170774998Y-102192013D01*
X170764505Y-102089302D01*
X170709358Y-101922880D01*
X170709356Y-101922875D01*
X170617315Y-101773654D01*
X170493345Y-101649684D01*
X170344124Y-101557643D01*
X170344119Y-101557641D01*
X170177697Y-101502494D01*
X170177690Y-101502493D01*
X170074986Y-101492000D01*
X169650000Y-101492000D01*
X169650000Y-102304500D01*
X169150000Y-102304500D01*
X169150000Y-101492000D01*
X168725028Y-101492000D01*
X168725012Y-101492001D01*
X168622302Y-101502494D01*
X168455880Y-101557641D01*
X168455875Y-101557643D01*
X168306654Y-101649684D01*
X168182684Y-101773654D01*
X168090643Y-101922875D01*
X168090641Y-101922880D01*
X168035494Y-102089302D01*
X168035493Y-102089309D01*
X168025000Y-102192013D01*
X161217563Y-102192013D01*
X161249091Y-102107483D01*
X161255500Y-102047873D01*
X161255499Y-99952128D01*
X161249091Y-99892517D01*
X161198796Y-99757669D01*
X161198795Y-99757668D01*
X161198793Y-99757664D01*
X161112547Y-99642455D01*
X161112544Y-99642452D01*
X160997335Y-99556206D01*
X160997328Y-99556202D01*
X160862482Y-99505908D01*
X160862483Y-99505908D01*
X160802883Y-99499501D01*
X160802881Y-99499500D01*
X160802873Y-99499500D01*
X160802864Y-99499500D01*
X156107129Y-99499500D01*
X156107123Y-99499501D01*
X156047516Y-99505908D01*
X155912671Y-99556202D01*
X155912664Y-99556206D01*
X155797455Y-99642452D01*
X155797452Y-99642455D01*
X155711206Y-99757664D01*
X155711202Y-99757671D01*
X155660908Y-99892517D01*
X155654501Y-99952116D01*
X155654501Y-99952123D01*
X155654500Y-99952135D01*
X155654500Y-102047870D01*
X155654501Y-102047876D01*
X155660908Y-102107483D01*
X155711202Y-102242328D01*
X155711206Y-102242335D01*
X155797452Y-102357544D01*
X155797455Y-102357547D01*
X155912664Y-102443793D01*
X155912671Y-102443797D01*
X155948843Y-102457288D01*
X156047517Y-102494091D01*
X156107127Y-102500500D01*
X156575500Y-102500499D01*
X156642539Y-102520183D01*
X156688294Y-102572987D01*
X156699500Y-102624499D01*
X156699500Y-114718097D01*
X156736446Y-114951368D01*
X156809433Y-115175996D01*
X156868768Y-115292446D01*
X156916657Y-115386433D01*
X157055483Y-115577510D01*
X157222490Y-115744517D01*
X157413567Y-115883343D01*
X157473484Y-115913872D01*
X157624003Y-115990566D01*
X157624005Y-115990566D01*
X157624008Y-115990568D01*
X157744412Y-116029689D01*
X157848631Y-116063553D01*
X158081903Y-116100500D01*
X158081908Y-116100500D01*
X158318097Y-116100500D01*
X158551368Y-116063553D01*
X158569175Y-116057767D01*
X158775992Y-115990568D01*
X158986433Y-115883343D01*
X159177510Y-115744517D01*
X159344517Y-115577510D01*
X159435986Y-115451613D01*
X159491316Y-115408949D01*
X159536304Y-115400500D01*
X160101459Y-115400500D01*
X162303315Y-115400500D01*
X162370354Y-115420185D01*
X162416109Y-115472989D01*
X162426053Y-115542147D01*
X162421022Y-115563497D01*
X162385001Y-115672203D01*
X162385001Y-115672204D01*
X162385000Y-115672204D01*
X162374500Y-115774983D01*
X162374500Y-116550001D01*
X162374501Y-116550019D01*
X162385000Y-116652796D01*
X162385001Y-116652799D01*
X162436101Y-116807007D01*
X162440186Y-116819334D01*
X162532288Y-116968656D01*
X162656344Y-117092712D01*
X162657967Y-117093713D01*
X162659653Y-117094753D01*
X162661445Y-117096746D01*
X162662011Y-117097193D01*
X162661934Y-117097289D01*
X162706379Y-117146699D01*
X162717603Y-117215661D01*
X162689761Y-117279744D01*
X162659665Y-117305826D01*
X162656660Y-117307679D01*
X162656655Y-117307683D01*
X162532684Y-117431654D01*
X162440643Y-117580875D01*
X162440641Y-117580880D01*
X162385494Y-117747302D01*
X162385493Y-117747309D01*
X162375000Y-117850013D01*
X162375000Y-117987500D01*
X164824999Y-117987500D01*
X164824999Y-117850028D01*
X164824998Y-117850013D01*
X164814505Y-117747302D01*
X164759358Y-117580880D01*
X164759356Y-117580875D01*
X164667315Y-117431654D01*
X164543344Y-117307683D01*
X164543341Y-117307681D01*
X164540339Y-117305829D01*
X164538713Y-117304021D01*
X164537677Y-117303202D01*
X164537817Y-117303024D01*
X164493617Y-117253880D01*
X164482397Y-117184917D01*
X164510243Y-117120836D01*
X164540344Y-117094754D01*
X164543656Y-117092712D01*
X164667712Y-116968656D01*
X164759814Y-116819334D01*
X164814999Y-116652797D01*
X164825500Y-116550009D01*
X164825499Y-115774992D01*
X164814999Y-115672203D01*
X164778978Y-115563501D01*
X164776577Y-115493676D01*
X164812308Y-115433634D01*
X164874828Y-115402441D01*
X164896685Y-115400500D01*
X165825500Y-115400500D01*
X165892539Y-115420185D01*
X165938294Y-115472989D01*
X165949500Y-115524500D01*
X165949500Y-118897870D01*
X165949501Y-118897876D01*
X165955908Y-118957483D01*
X166006202Y-119092328D01*
X166006206Y-119092335D01*
X166092452Y-119207544D01*
X166092455Y-119207547D01*
X166184208Y-119276234D01*
X166226079Y-119332168D01*
X166231063Y-119401859D01*
X166197577Y-119463182D01*
X166136254Y-119496666D01*
X166109897Y-119499500D01*
X164437844Y-119499500D01*
X164370805Y-119479815D01*
X164325050Y-119427011D01*
X164315106Y-119357853D01*
X164344131Y-119294297D01*
X164388610Y-119264621D01*
X164387579Y-119262408D01*
X164394124Y-119259356D01*
X164543345Y-119167315D01*
X164667315Y-119043345D01*
X164759356Y-118894124D01*
X164759358Y-118894119D01*
X164814505Y-118727697D01*
X164814506Y-118727690D01*
X164824999Y-118624986D01*
X164825000Y-118624973D01*
X164825000Y-118487500D01*
X162375001Y-118487500D01*
X162375001Y-118624986D01*
X162385494Y-118727697D01*
X162440641Y-118894119D01*
X162440643Y-118894124D01*
X162532684Y-119043345D01*
X162656654Y-119167315D01*
X162805875Y-119259356D01*
X162812421Y-119262408D01*
X162811298Y-119264815D01*
X162858600Y-119297561D01*
X162885427Y-119362076D01*
X162873116Y-119430852D01*
X162825576Y-119482055D01*
X162762156Y-119499500D01*
X146624500Y-119499500D01*
X146557461Y-119479815D01*
X146511706Y-119427011D01*
X146500500Y-119375500D01*
X146500500Y-115999996D01*
X147145170Y-115999996D01*
X147145170Y-116000003D01*
X147164473Y-116331426D01*
X147164474Y-116331437D01*
X147222118Y-116658351D01*
X147222121Y-116658365D01*
X147317336Y-116976408D01*
X147448827Y-117281236D01*
X147448833Y-117281249D01*
X147614824Y-117568755D01*
X147812357Y-117834087D01*
X148884728Y-116761716D01*
X148970278Y-116879466D01*
X149120534Y-117029722D01*
X149238281Y-117115270D01*
X148169289Y-118184263D01*
X148295215Y-118289925D01*
X148572588Y-118472356D01*
X148869252Y-118621347D01*
X148869258Y-118621350D01*
X149181213Y-118734892D01*
X149181234Y-118734899D01*
X149504248Y-118811456D01*
X149504263Y-118811458D01*
X149834012Y-118849999D01*
X149834013Y-118850000D01*
X150165987Y-118850000D01*
X150165987Y-118849999D01*
X150495736Y-118811458D01*
X150495751Y-118811456D01*
X150818765Y-118734899D01*
X150818786Y-118734892D01*
X151130741Y-118621350D01*
X151130747Y-118621347D01*
X151427411Y-118472356D01*
X151704789Y-118289922D01*
X151830708Y-118184263D01*
X151830709Y-118184262D01*
X150761718Y-117115270D01*
X150879466Y-117029722D01*
X151029722Y-116879466D01*
X151115270Y-116761717D01*
X152187641Y-117834088D01*
X152385175Y-117568756D01*
X152551166Y-117281249D01*
X152551172Y-117281236D01*
X152682663Y-116976408D01*
X152777878Y-116658365D01*
X152777881Y-116658351D01*
X152835525Y-116331437D01*
X152835526Y-116331426D01*
X152854830Y-116000003D01*
X152854830Y-115999996D01*
X152835526Y-115668573D01*
X152835525Y-115668562D01*
X152777881Y-115341648D01*
X152777878Y-115341634D01*
X152682663Y-115023591D01*
X152551172Y-114718763D01*
X152551166Y-114718750D01*
X152385172Y-114431239D01*
X152187642Y-114165910D01*
X151115270Y-115238281D01*
X151029722Y-115120534D01*
X150879466Y-114970278D01*
X150761717Y-114884728D01*
X151830709Y-113815736D01*
X151830709Y-113815735D01*
X151704784Y-113710074D01*
X151427411Y-113527643D01*
X151130747Y-113378652D01*
X151130741Y-113378649D01*
X150818786Y-113265107D01*
X150818765Y-113265100D01*
X150495751Y-113188543D01*
X150495736Y-113188541D01*
X150165987Y-113150000D01*
X149834013Y-113150000D01*
X149504263Y-113188541D01*
X149504248Y-113188543D01*
X149181234Y-113265100D01*
X149181213Y-113265107D01*
X148869258Y-113378649D01*
X148869252Y-113378652D01*
X148572581Y-113527646D01*
X148295220Y-113710070D01*
X148295213Y-113710075D01*
X148169289Y-113815735D01*
X149238282Y-114884728D01*
X149120534Y-114970278D01*
X148970278Y-115120534D01*
X148884729Y-115238282D01*
X147812357Y-114165910D01*
X147812356Y-114165911D01*
X147614829Y-114431236D01*
X147614825Y-114431242D01*
X147448833Y-114718750D01*
X147448827Y-114718763D01*
X147317336Y-115023591D01*
X147222121Y-115341634D01*
X147222118Y-115341648D01*
X147164474Y-115668562D01*
X147164473Y-115668573D01*
X147145170Y-115999996D01*
X146500500Y-115999996D01*
X146500500Y-111942937D01*
X148520629Y-111942937D01*
X151336655Y-111942937D01*
X151336655Y-100199917D01*
X148520629Y-100199917D01*
X148520629Y-111942937D01*
X146500500Y-111942937D01*
X146500500Y-96881902D01*
X152154500Y-96881902D01*
X152154500Y-99318097D01*
X152191446Y-99551368D01*
X152264433Y-99775996D01*
X152354175Y-99952123D01*
X152371657Y-99986433D01*
X152510483Y-100177510D01*
X152677490Y-100344517D01*
X152868567Y-100483343D01*
X152967991Y-100534002D01*
X153079003Y-100590566D01*
X153079005Y-100590566D01*
X153079008Y-100590568D01*
X153190555Y-100626812D01*
X153303631Y-100663553D01*
X153536903Y-100700500D01*
X153536908Y-100700500D01*
X153773097Y-100700500D01*
X154006368Y-100663553D01*
X154085673Y-100637785D01*
X154230992Y-100590568D01*
X154441433Y-100483343D01*
X154632510Y-100344517D01*
X154799517Y-100177510D01*
X154938343Y-99986433D01*
X155045568Y-99775992D01*
X155118553Y-99551368D01*
X155138906Y-99422863D01*
X155155500Y-99318097D01*
X155155500Y-96881902D01*
X155118553Y-96648631D01*
X155069351Y-96497204D01*
X155045568Y-96424008D01*
X155045566Y-96424005D01*
X155045566Y-96424003D01*
X154938342Y-96213566D01*
X154928486Y-96200000D01*
X154799517Y-96022490D01*
X154632510Y-95855483D01*
X154441433Y-95716657D01*
X154230996Y-95609433D01*
X154006368Y-95536446D01*
X153773097Y-95499500D01*
X153773092Y-95499500D01*
X153536908Y-95499500D01*
X153536903Y-95499500D01*
X153303631Y-95536446D01*
X153079003Y-95609433D01*
X152868566Y-95716657D01*
X152762184Y-95793949D01*
X152677490Y-95855483D01*
X152677488Y-95855485D01*
X152677487Y-95855485D01*
X152510485Y-96022487D01*
X152510485Y-96022488D01*
X152510483Y-96022490D01*
X152495190Y-96043539D01*
X152371657Y-96213566D01*
X152264433Y-96424003D01*
X152191446Y-96648631D01*
X152154500Y-96881902D01*
X146500500Y-96881902D01*
X146500500Y-94450000D01*
X155875898Y-94450000D01*
X156921988Y-94450000D01*
X156889075Y-94507007D01*
X156855000Y-94634174D01*
X156855000Y-94765826D01*
X156889075Y-94892993D01*
X156921988Y-94950000D01*
X155875898Y-94950000D01*
X155891934Y-95051247D01*
X155964897Y-95275802D01*
X156072085Y-95486171D01*
X156210866Y-95677186D01*
X156377813Y-95844133D01*
X156568828Y-95982914D01*
X156779197Y-96090102D01*
X157003752Y-96163065D01*
X157003751Y-96163065D01*
X157236948Y-96200000D01*
X158205000Y-96200000D01*
X158205000Y-95200000D01*
X158705000Y-95200000D01*
X158705000Y-96200000D01*
X159673052Y-96200000D01*
X159906247Y-96163065D01*
X160130802Y-96090102D01*
X160341171Y-95982914D01*
X160532186Y-95844133D01*
X160699133Y-95677186D01*
X160837914Y-95486171D01*
X160945102Y-95275802D01*
X160972987Y-95189983D01*
X166549500Y-95189983D01*
X166549500Y-95890001D01*
X166549501Y-95890019D01*
X166560000Y-95992796D01*
X166560001Y-95992799D01*
X166615185Y-96159331D01*
X166615187Y-96159336D01*
X166628762Y-96181344D01*
X166707288Y-96308656D01*
X166831344Y-96432712D01*
X166980666Y-96524814D01*
X167147203Y-96579999D01*
X167249991Y-96590500D01*
X168275500Y-96590499D01*
X168342539Y-96610183D01*
X168388294Y-96662987D01*
X168399500Y-96714499D01*
X168399500Y-96890540D01*
X168399500Y-96890542D01*
X168399499Y-96890542D01*
X168415117Y-96969051D01*
X168417500Y-96993243D01*
X168417500Y-98586519D01*
X168397815Y-98653558D01*
X168358598Y-98692057D01*
X168306344Y-98724287D01*
X168182289Y-98848342D01*
X168090187Y-98997663D01*
X168090185Y-98997668D01*
X168063537Y-99078087D01*
X168035001Y-99164203D01*
X168035001Y-99164204D01*
X168035000Y-99164204D01*
X168024500Y-99266983D01*
X168024500Y-99992001D01*
X168024501Y-99992019D01*
X168035000Y-100094796D01*
X168035001Y-100094799D01*
X168090185Y-100261331D01*
X168090187Y-100261336D01*
X168125069Y-100317888D01*
X168182288Y-100410656D01*
X168306344Y-100534712D01*
X168455666Y-100626814D01*
X168622203Y-100681999D01*
X168724991Y-100692500D01*
X170075008Y-100692499D01*
X170177797Y-100681999D01*
X170344334Y-100626814D01*
X170493656Y-100534712D01*
X170617712Y-100410656D01*
X170709814Y-100261334D01*
X170764999Y-100094797D01*
X170775500Y-99992009D01*
X170775499Y-99266992D01*
X170774749Y-99259653D01*
X170764999Y-99164203D01*
X170764998Y-99164200D01*
X170764660Y-99163181D01*
X170709814Y-98997666D01*
X170617712Y-98848344D01*
X170493656Y-98724288D01*
X170493653Y-98724285D01*
X170477401Y-98714261D01*
X170430678Y-98662313D01*
X170418500Y-98608724D01*
X170418500Y-96714499D01*
X170438185Y-96647460D01*
X170490989Y-96601705D01*
X170542500Y-96590499D01*
X171450002Y-96590499D01*
X171450008Y-96590499D01*
X171552797Y-96579999D01*
X171719334Y-96524814D01*
X171868656Y-96432712D01*
X171992712Y-96308656D01*
X172084814Y-96159334D01*
X172139999Y-95992797D01*
X172150500Y-95890009D01*
X172150499Y-95189992D01*
X172146196Y-95147872D01*
X172139999Y-95087203D01*
X172139998Y-95087200D01*
X172122638Y-95034812D01*
X172084814Y-94920666D01*
X171992712Y-94771344D01*
X171868656Y-94647288D01*
X171719334Y-94555186D01*
X171552797Y-94500001D01*
X171552795Y-94500000D01*
X171450010Y-94489500D01*
X167249998Y-94489500D01*
X167249981Y-94489501D01*
X167147203Y-94500000D01*
X167147200Y-94500001D01*
X166980668Y-94555185D01*
X166980663Y-94555187D01*
X166831342Y-94647289D01*
X166707289Y-94771342D01*
X166615187Y-94920663D01*
X166615185Y-94920668D01*
X166604574Y-94952690D01*
X166560001Y-95087203D01*
X166560001Y-95087204D01*
X166560000Y-95087204D01*
X166549500Y-95189983D01*
X160972987Y-95189983D01*
X161018065Y-95051247D01*
X161034102Y-94950000D01*
X159988012Y-94950000D01*
X160020925Y-94892993D01*
X160055000Y-94765826D01*
X160055000Y-94634174D01*
X160020925Y-94507007D01*
X159988012Y-94450000D01*
X161034102Y-94450000D01*
X161018065Y-94348752D01*
X160945102Y-94124197D01*
X160837914Y-93913828D01*
X160699133Y-93722813D01*
X160532186Y-93555866D01*
X160341171Y-93417085D01*
X160130802Y-93309897D01*
X159906247Y-93236934D01*
X159906248Y-93236934D01*
X159673052Y-93200000D01*
X158705000Y-93200000D01*
X158705000Y-94200000D01*
X158205000Y-94200000D01*
X158205000Y-93200000D01*
X157236948Y-93200000D01*
X157003752Y-93236934D01*
X156779197Y-93309897D01*
X156568828Y-93417085D01*
X156377813Y-93555866D01*
X156210866Y-93722813D01*
X156072085Y-93913828D01*
X155964897Y-94124197D01*
X155891934Y-94348752D01*
X155875898Y-94450000D01*
X146500500Y-94450000D01*
X146500500Y-90999996D01*
X147145170Y-90999996D01*
X147145170Y-91000003D01*
X147164473Y-91331426D01*
X147164474Y-91331437D01*
X147222118Y-91658351D01*
X147222121Y-91658365D01*
X147317336Y-91976408D01*
X147448827Y-92281236D01*
X147448833Y-92281249D01*
X147614824Y-92568755D01*
X147812357Y-92834087D01*
X148884728Y-91761716D01*
X148970278Y-91879466D01*
X149120534Y-92029722D01*
X149238281Y-92115270D01*
X148169289Y-93184263D01*
X148295215Y-93289925D01*
X148572588Y-93472356D01*
X148869252Y-93621347D01*
X148869258Y-93621350D01*
X149181213Y-93734892D01*
X149181234Y-93734899D01*
X149504248Y-93811456D01*
X149504263Y-93811458D01*
X149834012Y-93849999D01*
X149834013Y-93850000D01*
X150165987Y-93850000D01*
X150165987Y-93849999D01*
X150495736Y-93811458D01*
X150495751Y-93811456D01*
X150818765Y-93734899D01*
X150818786Y-93734892D01*
X151130741Y-93621350D01*
X151130747Y-93621347D01*
X151427411Y-93472356D01*
X151704789Y-93289922D01*
X151830708Y-93184263D01*
X151830709Y-93184262D01*
X150761718Y-92115270D01*
X150879466Y-92029722D01*
X151029722Y-91879466D01*
X151115270Y-91761717D01*
X152187641Y-92834088D01*
X152385175Y-92568756D01*
X152551166Y-92281249D01*
X152551172Y-92281236D01*
X152682663Y-91976408D01*
X152777878Y-91658365D01*
X152777881Y-91658351D01*
X152835525Y-91331437D01*
X152835526Y-91331426D01*
X152854830Y-91000003D01*
X152854830Y-90999996D01*
X152835526Y-90668573D01*
X152835525Y-90668562D01*
X152777881Y-90341648D01*
X152777878Y-90341634D01*
X152682663Y-90023591D01*
X152551172Y-89718763D01*
X152551166Y-89718750D01*
X152385172Y-89431239D01*
X152187642Y-89165910D01*
X151115270Y-90238281D01*
X151029722Y-90120534D01*
X150879466Y-89970278D01*
X150761717Y-89884728D01*
X151830709Y-88815736D01*
X151830709Y-88815735D01*
X151704784Y-88710074D01*
X151427411Y-88527643D01*
X151130747Y-88378652D01*
X151130741Y-88378649D01*
X150818786Y-88265107D01*
X150818765Y-88265100D01*
X150495751Y-88188543D01*
X150495736Y-88188541D01*
X150165987Y-88150000D01*
X149834013Y-88150000D01*
X149504263Y-88188541D01*
X149504248Y-88188543D01*
X149181234Y-88265100D01*
X149181213Y-88265107D01*
X148869258Y-88378649D01*
X148869252Y-88378652D01*
X148572581Y-88527646D01*
X148295220Y-88710070D01*
X148295213Y-88710075D01*
X148169289Y-88815735D01*
X149238282Y-89884728D01*
X149120534Y-89970278D01*
X148970278Y-90120534D01*
X148884729Y-90238282D01*
X147812357Y-89165910D01*
X147812356Y-89165911D01*
X147614829Y-89431236D01*
X147614825Y-89431242D01*
X147448833Y-89718750D01*
X147448827Y-89718763D01*
X147317336Y-90023591D01*
X147222121Y-90341634D01*
X147222118Y-90341648D01*
X147164474Y-90668562D01*
X147164473Y-90668573D01*
X147145170Y-90999996D01*
X146500500Y-90999996D01*
X146500500Y-87624500D01*
X146520185Y-87557461D01*
X146572989Y-87511706D01*
X146624500Y-87500500D01*
X168403818Y-87500500D01*
X168470857Y-87520185D01*
G37*
%TD.AperFunction*%
%TA.AperFunction,Conductor*%
G36*
X171510981Y-109970185D02*
G01*
X171549479Y-110009401D01*
X171632288Y-110143656D01*
X171756344Y-110267712D01*
X171905666Y-110359814D01*
X172072203Y-110414999D01*
X172174991Y-110425500D01*
X172950008Y-110425499D01*
X172950016Y-110425498D01*
X172950019Y-110425498D01*
X173006302Y-110419748D01*
X173052797Y-110414999D01*
X173219334Y-110359814D01*
X173368656Y-110267712D01*
X173492712Y-110143656D01*
X173494461Y-110140819D01*
X173496169Y-110139283D01*
X173497193Y-110137989D01*
X173497414Y-110138163D01*
X173546406Y-110094096D01*
X173615368Y-110082872D01*
X173679451Y-110110713D01*
X173705537Y-110140817D01*
X173707288Y-110143656D01*
X173831344Y-110267712D01*
X173980666Y-110359814D01*
X174147203Y-110414999D01*
X174249991Y-110425500D01*
X174750269Y-110425499D01*
X174817308Y-110445183D01*
X174837950Y-110461818D01*
X179613181Y-115237048D01*
X179646666Y-115298371D01*
X179649500Y-115324729D01*
X179649500Y-116012779D01*
X179629815Y-116079818D01*
X179598385Y-116113097D01*
X179520211Y-116169893D01*
X179520205Y-116169898D01*
X179369890Y-116320213D01*
X179244949Y-116492182D01*
X179240202Y-116501499D01*
X179192227Y-116552293D01*
X179124405Y-116569087D01*
X179058271Y-116546548D01*
X179019234Y-116501495D01*
X179014622Y-116492444D01*
X178889727Y-116320540D01*
X178889723Y-116320535D01*
X178739464Y-116170276D01*
X178739459Y-116170272D01*
X178567557Y-116045379D01*
X178378215Y-115948903D01*
X178176124Y-115883241D01*
X178110000Y-115872768D01*
X178110000Y-117051517D01*
X178091591Y-117040889D01*
X177938991Y-117000000D01*
X177781009Y-117000000D01*
X177628409Y-117040889D01*
X177610000Y-117051517D01*
X177610000Y-115872768D01*
X177609999Y-115872768D01*
X177543875Y-115883241D01*
X177341784Y-115948903D01*
X177152442Y-116045379D01*
X176980541Y-116170271D01*
X176866865Y-116283947D01*
X176805542Y-116317431D01*
X176735850Y-116312447D01*
X176679917Y-116270575D01*
X176663002Y-116239598D01*
X176613797Y-116107671D01*
X176613793Y-116107664D01*
X176527547Y-115992455D01*
X176527544Y-115992452D01*
X176412335Y-115906206D01*
X176412328Y-115906202D01*
X176277482Y-115855908D01*
X176277483Y-115855908D01*
X176217883Y-115849501D01*
X176217881Y-115849500D01*
X176217873Y-115849500D01*
X176217864Y-115849500D01*
X174422129Y-115849500D01*
X174422123Y-115849501D01*
X174362516Y-115855908D01*
X174227671Y-115906202D01*
X174227664Y-115906206D01*
X174112455Y-115992452D01*
X174112452Y-115992455D01*
X174026206Y-116107664D01*
X174026202Y-116107671D01*
X173975908Y-116242517D01*
X173969501Y-116302116D01*
X173969500Y-116302135D01*
X173969500Y-116475500D01*
X173949815Y-116542539D01*
X173897011Y-116588294D01*
X173845500Y-116599500D01*
X171174499Y-116599500D01*
X171107460Y-116579815D01*
X171061705Y-116527011D01*
X171050499Y-116475500D01*
X171050499Y-115102129D01*
X171050498Y-115102123D01*
X171050497Y-115102116D01*
X171044091Y-115042517D01*
X171028640Y-115001092D01*
X170993797Y-114907671D01*
X170993793Y-114907664D01*
X170907547Y-114792455D01*
X170896935Y-114784511D01*
X170876381Y-114769124D01*
X170800188Y-114712085D01*
X170758318Y-114656151D01*
X170750500Y-114612819D01*
X170750500Y-110074500D01*
X170770185Y-110007461D01*
X170822989Y-109961706D01*
X170874500Y-109950500D01*
X171443942Y-109950500D01*
X171510981Y-109970185D01*
G37*
%TD.AperFunction*%
%TD*%
M02*
