%TF.GenerationSoftware,KiCad,Pcbnew,8.0.4+dfsg-1*%
%TF.CreationDate,2025-03-03T18:40:41+01:00*%
%TF.ProjectId,nixie-clock-psu,6e697869-652d-4636-9c6f-636b2d707375,rev?*%
%TF.SameCoordinates,Original*%
%TF.FileFunction,Legend,Bot*%
%TF.FilePolarity,Positive*%
%FSLAX46Y46*%
G04 Gerber Fmt 4.6, Leading zero omitted, Abs format (unit mm)*
G04 Created by KiCad (PCBNEW 8.0.4+dfsg-1) date 2025-03-03 18:40:41*
%MOMM*%
%LPD*%
G01*
G04 APERTURE LIST*
%ADD10C,0.150000*%
%ADD11C,0.120000*%
%ADD12R,1.700000X2.500000*%
%ADD13O,1.700000X2.500000*%
%ADD14C,4.700000*%
%ADD15R,4.600000X2.000000*%
%ADD16O,4.200000X2.000000*%
%ADD17O,2.000000X4.200000*%
%ADD18R,1.700000X1.700000*%
%ADD19O,1.700000X1.700000*%
G04 APERTURE END LIST*
D10*
X189684819Y-116666666D02*
X190399104Y-116666666D01*
X190399104Y-116666666D02*
X190541961Y-116619047D01*
X190541961Y-116619047D02*
X190637200Y-116523809D01*
X190637200Y-116523809D02*
X190684819Y-116380952D01*
X190684819Y-116380952D02*
X190684819Y-116285714D01*
X190684819Y-117666666D02*
X190684819Y-117095238D01*
X190684819Y-117380952D02*
X189684819Y-117380952D01*
X189684819Y-117380952D02*
X189827676Y-117285714D01*
X189827676Y-117285714D02*
X189922914Y-117190476D01*
X189922914Y-117190476D02*
X189970533Y-117095238D01*
D11*
%TO.C,J1*%
X191670000Y-118330000D02*
X191670000Y-117000000D01*
X193000000Y-118330000D02*
X191670000Y-118330000D01*
X194270000Y-118330000D02*
X194270000Y-115670000D01*
X201950000Y-115670000D02*
X194270000Y-115670000D01*
X201950000Y-118330000D02*
X194270000Y-118330000D01*
X201950000Y-118330000D02*
X201950000Y-115670000D01*
%TD*%
%LPC*%
D12*
%TO.C,U2*%
X175320000Y-117600000D03*
D13*
X177860000Y-117600000D03*
X180400000Y-117600000D03*
%TD*%
D14*
%TO.C,H4*%
X206000000Y-91000000D03*
%TD*%
%TO.C,H2*%
X150000000Y-116000000D03*
%TD*%
%TO.C,H3*%
X150000000Y-91000000D03*
%TD*%
D15*
%TO.C,J2*%
X158455000Y-101000000D03*
D16*
X158455000Y-94700000D03*
D17*
X153655000Y-98100000D03*
%TD*%
D14*
%TO.C,H1*%
X206000000Y-116000000D03*
%TD*%
D18*
%TO.C,J1*%
X193000000Y-117000000D03*
D19*
X195540000Y-117000000D03*
X198080000Y-117000000D03*
X200620000Y-117000000D03*
%TD*%
%LPD*%
M02*
