M48
; DRILL file {KiCad 8.0.4+dfsg-1} date 2025-03-03T18:40:41+0100
; FORMAT={-:-/ absolute / inch / decimal}
; #@! TF.CreationDate,2025-03-03T18:40:41+01:00
; #@! TF.GenerationSoftware,Kicad,Pcbnew,8.0.4+dfsg-1
; #@! TF.FileFunction,Plated,1,4,PTH
FMAT,2
INCH
; #@! TA.AperFunction,Plated,PTH,ViaDrill
T1C0.0118
; #@! TA.AperFunction,Plated,PTH,ComponentDrill
T2C0.0394
; #@! TA.AperFunction,Plated,PTH,ComponentDrill
T3C0.0472
; #@! TA.AperFunction,Plated,PTH,ComponentDrill
T4C0.1063
%
G90
G05
T1
X5.82Y-3.74
X6.01Y-4.05
X6.01Y-4.2
X6.01Y-4.34
X6.126Y-3.7244
X6.13Y-3.48
X6.16Y-4.69
X6.2283Y-4.5118
X6.23Y-4.07
X6.23Y-4.11
X6.23Y-4.15
X6.23Y-4.19
X6.2362Y-3.6535
X6.2362Y-3.8031
X6.2677Y-4.5039
X6.3071Y-4.5039
X6.33Y-3.48
X6.34Y-4.69
X6.3543Y-3.7244
X6.3858Y-4.6535
X6.4409Y-4.5039
X6.4409Y-4.5354
X6.4724Y-4.5039
X6.49Y-3.78
X6.4961Y-4.6535
X6.54Y-3.48
X6.5433Y-4.5039
X6.5748Y-4.5039
X6.6693Y-4.045
X6.6693Y-4.0686
X6.6693Y-4.0922
X6.67Y-3.81
X6.6772Y-3.6063
X6.6772Y-3.6299
X6.68Y-3.49
X6.68Y-3.52
X6.748Y-4.3701
X6.7638Y-4.5591
X6.874Y-4.0472
X6.8819Y-4.1969
X6.8976Y-4.0472
X6.9921Y-3.9449
X7.0Y-4.14
X7.0Y-4.5354
X7.01Y-4.05
X7.0157Y-4.2992
X7.04Y-4.37
X7.1654Y-4.5512
X7.21Y-4.03
X7.2126Y-4.0945
X7.2126Y-4.1417
X7.2992Y-3.937
X7.3Y-3.65
X7.3Y-3.76
X7.3071Y-4.4646
X7.3228Y-3.937
X7.3465Y-3.937
X7.3701Y-4.3701
X7.4331Y-4.4646
X7.4646Y-4.3307
X7.5276Y-3.9921
X7.5276Y-4.0236
X7.5276Y-4.4252
X7.5906Y-4.3307
X7.64Y-3.82
X7.7Y-4.06
X7.7Y-4.36
X7.7402Y-3.5197
X7.7717Y-3.5197
X7.7953Y-3.5433
X7.7953Y-3.5748
X7.7953Y-3.8661
X7.7953Y-4.0866
X7.8976Y-4.5433
X7.91Y-3.47
X7.9764Y-3.9685
X7.9764Y-4.2992
X8.0Y-3.9685
X8.0Y-4.2992
X8.01Y-4.69
X8.0236Y-3.9685
X8.0236Y-4.2992
X8.1575Y-3.9685
X8.1575Y-4.2992
X8.1811Y-3.9685
X8.1811Y-4.2992
X8.2047Y-3.9685
X8.2047Y-4.2992
X8.25Y-4.69
X8.26Y-3.48
X8.26Y-3.68
T2
X7.5984Y-4.6063
X7.6984Y-4.6063
X7.7984Y-4.6063
X7.8984Y-4.6063
T3
X6.9024Y-4.6299
X7.0024Y-4.6299
X7.1024Y-4.6299
T4
X5.9055Y-3.5827
X5.9055Y-4.5669
X8.1102Y-3.5827
X8.1102Y-4.5669
T2
G00X6.0494Y-3.9055
M15
G01X6.0494Y-3.8189
M16
G05
G00X6.2817Y-3.7283
M15
G01X6.1951Y-3.7283
M16
G05
G00X6.2896Y-3.9764
M15
G01X6.1872Y-3.9764
M16
G05
M30
