%TF.GenerationSoftware,KiCad,Pcbnew,8.0.4+dfsg-1*%
%TF.CreationDate,2025-02-17T17:51:02+01:00*%
%TF.ProjectId,nixie-clock,6e697869-652d-4636-9c6f-636b2e6b6963,rev?*%
%TF.SameCoordinates,Original*%
%TF.FileFunction,Copper,L2,Inr*%
%TF.FilePolarity,Positive*%
%FSLAX46Y46*%
G04 Gerber Fmt 4.6, Leading zero omitted, Abs format (unit mm)*
G04 Created by KiCad (PCBNEW 8.0.4+dfsg-1) date 2025-02-17 17:51:02*
%MOMM*%
%LPD*%
G01*
G04 APERTURE LIST*
%TA.AperFunction,ComponentPad*%
%ADD10R,1.700000X1.700000*%
%TD*%
%TA.AperFunction,ComponentPad*%
%ADD11O,1.700000X1.700000*%
%TD*%
%TA.AperFunction,ComponentPad*%
%ADD12R,1.600000X1.600000*%
%TD*%
%TA.AperFunction,ComponentPad*%
%ADD13O,1.600000X1.600000*%
%TD*%
%TA.AperFunction,ComponentPad*%
%ADD14C,4.700000*%
%TD*%
%TA.AperFunction,ComponentPad*%
%ADD15R,1.350000X1.350000*%
%TD*%
%TA.AperFunction,ComponentPad*%
%ADD16O,1.350000X1.350000*%
%TD*%
%TA.AperFunction,ViaPad*%
%ADD17C,0.600000*%
%TD*%
%TA.AperFunction,Conductor*%
%ADD18C,0.200000*%
%TD*%
%TA.AperFunction,Conductor*%
%ADD19C,0.500000*%
%TD*%
G04 APERTURE END LIST*
D10*
%TO.N,GND*%
%TO.C,J2*%
X193000000Y-117000000D03*
D11*
%TO.N,+5V*%
X195540000Y-117000000D03*
%TO.N,GND*%
X198080000Y-117000000D03*
%TO.N,+170*%
X200620000Y-117000000D03*
%TD*%
D12*
%TO.N,D4-8*%
%TO.C,U6*%
X146065000Y-104765000D03*
D13*
%TO.N,D4-9*%
X148605000Y-104765000D03*
%TO.N,4A*%
X151145000Y-104765000D03*
%TO.N,4D*%
X153685000Y-104765000D03*
%TO.N,+5V*%
X156225000Y-104765000D03*
%TO.N,4B*%
X158765000Y-104765000D03*
%TO.N,4C*%
X161305000Y-104765000D03*
%TO.N,D4-2*%
X163845000Y-104765000D03*
%TO.N,D4-3*%
X163845000Y-97145000D03*
%TO.N,D4-7*%
X161305000Y-97145000D03*
%TO.N,D4-6*%
X158765000Y-97145000D03*
%TO.N,GND*%
X156225000Y-97145000D03*
%TO.N,D4-4*%
X153685000Y-97145000D03*
%TO.N,D4-5*%
X151145000Y-97145000D03*
%TO.N,D4-1*%
X148605000Y-97145000D03*
%TO.N,D4-0*%
X146065000Y-97145000D03*
%TD*%
D12*
%TO.N,D6-8*%
%TO.C,U8*%
X191150000Y-104765000D03*
D13*
%TO.N,D6-9*%
X193690000Y-104765000D03*
%TO.N,6A*%
X196230000Y-104765000D03*
%TO.N,6D*%
X198770000Y-104765000D03*
%TO.N,+5V*%
X201310000Y-104765000D03*
%TO.N,6B*%
X203850000Y-104765000D03*
%TO.N,6C*%
X206390000Y-104765000D03*
%TO.N,D6-2*%
X208930000Y-104765000D03*
%TO.N,D6-3*%
X208930000Y-97145000D03*
%TO.N,D6-7*%
X206390000Y-97145000D03*
%TO.N,D6-6*%
X203850000Y-97145000D03*
%TO.N,GND*%
X201310000Y-97145000D03*
%TO.N,D6-4*%
X198770000Y-97145000D03*
%TO.N,D6-5*%
X196230000Y-97145000D03*
%TO.N,D6-1*%
X193690000Y-97145000D03*
%TO.N,D6-0*%
X191150000Y-97145000D03*
%TD*%
D12*
%TO.N,D1-8*%
%TO.C,U3*%
X78755000Y-104765000D03*
D13*
%TO.N,D1-9*%
X81295000Y-104765000D03*
%TO.N,1A*%
X83835000Y-104765000D03*
%TO.N,1D*%
X86375000Y-104765000D03*
%TO.N,+5V*%
X88915000Y-104765000D03*
%TO.N,1B*%
X91455000Y-104765000D03*
%TO.N,1C*%
X93995000Y-104765000D03*
%TO.N,D1-2*%
X96535000Y-104765000D03*
%TO.N,D1-3*%
X96535000Y-97145000D03*
%TO.N,D1-7*%
X93995000Y-97145000D03*
%TO.N,D1-6*%
X91455000Y-97145000D03*
%TO.N,GND*%
X88915000Y-97145000D03*
%TO.N,D1-4*%
X86375000Y-97145000D03*
%TO.N,D1-5*%
X83835000Y-97145000D03*
%TO.N,D1-1*%
X81295000Y-97145000D03*
%TO.N,D1-0*%
X78755000Y-97145000D03*
%TD*%
D12*
%TO.N,D3-8*%
%TO.C,U2*%
X123840000Y-104755000D03*
D13*
%TO.N,D3-9*%
X126380000Y-104755000D03*
%TO.N,3A*%
X128920000Y-104755000D03*
%TO.N,3D*%
X131460000Y-104755000D03*
%TO.N,+5V*%
X134000000Y-104755000D03*
%TO.N,3B*%
X136540000Y-104755000D03*
%TO.N,3C*%
X139080000Y-104755000D03*
%TO.N,D3-2*%
X141620000Y-104755000D03*
%TO.N,D3-3*%
X141620000Y-97135000D03*
%TO.N,D3-7*%
X139080000Y-97135000D03*
%TO.N,D3-6*%
X136540000Y-97135000D03*
%TO.N,GND*%
X134000000Y-97135000D03*
%TO.N,D3-4*%
X131460000Y-97135000D03*
%TO.N,D3-5*%
X128920000Y-97135000D03*
%TO.N,D3-1*%
X126380000Y-97135000D03*
%TO.N,D3-0*%
X123840000Y-97135000D03*
%TD*%
D14*
%TO.N,GND*%
%TO.C,H1*%
X206000000Y-116000000D03*
%TD*%
%TO.N,GND*%
%TO.C,H2*%
X206000000Y-91000000D03*
%TD*%
D12*
%TO.N,D5-8*%
%TO.C,U7*%
X168925000Y-104765000D03*
D13*
%TO.N,D5-9*%
X171465000Y-104765000D03*
%TO.N,5A*%
X174005000Y-104765000D03*
%TO.N,5D*%
X176545000Y-104765000D03*
%TO.N,+5V*%
X179085000Y-104765000D03*
%TO.N,5B*%
X181625000Y-104765000D03*
%TO.N,5C*%
X184165000Y-104765000D03*
%TO.N,D5-2*%
X186705000Y-104765000D03*
%TO.N,D5-3*%
X186705000Y-97145000D03*
%TO.N,D5-7*%
X184165000Y-97145000D03*
%TO.N,D5-6*%
X181625000Y-97145000D03*
%TO.N,GND*%
X179085000Y-97145000D03*
%TO.N,D5-4*%
X176545000Y-97145000D03*
%TO.N,D5-5*%
X174005000Y-97145000D03*
%TO.N,D5-1*%
X171465000Y-97145000D03*
%TO.N,D5-0*%
X168925000Y-97145000D03*
%TD*%
D14*
%TO.N,GND*%
%TO.C,H4*%
X150000000Y-116000000D03*
%TD*%
D12*
%TO.N,D2-8*%
%TO.C,U5*%
X100980000Y-104765000D03*
D13*
%TO.N,D2-9*%
X103520000Y-104765000D03*
%TO.N,2A*%
X106060000Y-104765000D03*
%TO.N,2D*%
X108600000Y-104765000D03*
%TO.N,+5V*%
X111140000Y-104765000D03*
%TO.N,2B*%
X113680000Y-104765000D03*
%TO.N,2C*%
X116220000Y-104765000D03*
%TO.N,D2-2*%
X118760000Y-104765000D03*
%TO.N,D2-3*%
X118760000Y-97145000D03*
%TO.N,D2-7*%
X116220000Y-97145000D03*
%TO.N,D2-6*%
X113680000Y-97145000D03*
%TO.N,GND*%
X111140000Y-97145000D03*
%TO.N,D2-4*%
X108600000Y-97145000D03*
%TO.N,D2-5*%
X106060000Y-97145000D03*
%TO.N,D2-1*%
X103520000Y-97145000D03*
%TO.N,D2-0*%
X100980000Y-97145000D03*
%TD*%
D10*
%TO.N,+3V3*%
%TO.C,J1*%
X86870000Y-114730000D03*
D11*
%TO.N,+5V*%
X86870000Y-117270000D03*
%TO.N,Net-(J1-SDA{slash}GPIO2)*%
X89410000Y-114730000D03*
%TO.N,+5V*%
X89410000Y-117270000D03*
%TO.N,Net-(J1-SCL{slash}GPIO3)*%
X91950000Y-114730000D03*
%TO.N,GND*%
X91950000Y-117270000D03*
%TO.N,unconnected-(J1-GCLK0{slash}GPIO4-Pad7)*%
X94490000Y-114730000D03*
%TO.N,unconnected-(J1-GPIO14{slash}TXD-Pad8)*%
X94490000Y-117270000D03*
%TO.N,GND*%
X97030000Y-114730000D03*
%TO.N,unconnected-(J1-GPIO15{slash}RXD-Pad10)*%
X97030000Y-117270000D03*
%TO.N,unconnected-(J1-GPIO17-Pad11)*%
X99570000Y-114730000D03*
%TO.N,PWM*%
X99570000Y-117270000D03*
%TO.N,unconnected-(J1-GPIO27-Pad13)*%
X102110000Y-114730000D03*
%TO.N,GND*%
X102110000Y-117270000D03*
%TO.N,unconnected-(J1-GPIO22-Pad15)*%
X104650000Y-114730000D03*
%TO.N,unconnected-(J1-GPIO23-Pad16)*%
X104650000Y-117270000D03*
%TO.N,+3V3*%
X107190000Y-114730000D03*
%TO.N,unconnected-(J1-GPIO24-Pad18)*%
X107190000Y-117270000D03*
%TO.N,unconnected-(J1-MOSI0{slash}GPIO10-Pad19)*%
X109730000Y-114730000D03*
%TO.N,GND*%
X109730000Y-117270000D03*
%TO.N,unconnected-(J1-MISO0{slash}GPIO9-Pad21)*%
X112270000Y-114730000D03*
%TO.N,unconnected-(J1-GPIO25-Pad22)*%
X112270000Y-117270000D03*
%TO.N,unconnected-(J1-SCLK0{slash}GPIO11-Pad23)*%
X114810000Y-114730000D03*
%TO.N,unconnected-(J1-~{CE0}{slash}GPIO8-Pad24)*%
X114810000Y-117270000D03*
%TO.N,GND*%
X117350000Y-114730000D03*
%TO.N,unconnected-(J1-~{CE1}{slash}GPIO7-Pad26)*%
X117350000Y-117270000D03*
%TO.N,unconnected-(J1-ID_SD{slash}GPIO0-Pad27)*%
X119890000Y-114730000D03*
%TO.N,unconnected-(J1-ID_SC{slash}GPIO1-Pad28)*%
X119890000Y-117270000D03*
%TO.N,unconnected-(J1-GCLK1{slash}GPIO5-Pad29)*%
X122430000Y-114730000D03*
%TO.N,GND*%
X122430000Y-117270000D03*
%TO.N,unconnected-(J1-GCLK2{slash}GPIO6-Pad31)*%
X124970000Y-114730000D03*
%TO.N,unconnected-(J1-PWM0{slash}GPIO12-Pad32)*%
X124970000Y-117270000D03*
%TO.N,unconnected-(J1-PWM1{slash}GPIO13-Pad33)*%
X127510000Y-114730000D03*
%TO.N,GND*%
X127510000Y-117270000D03*
%TO.N,unconnected-(J1-GPIO19{slash}MISO1-Pad35)*%
X130050000Y-114730000D03*
%TO.N,unconnected-(J1-GPIO16-Pad36)*%
X130050000Y-117270000D03*
%TO.N,unconnected-(J1-GPIO26-Pad37)*%
X132590000Y-114730000D03*
%TO.N,unconnected-(J1-GPIO20{slash}MOSI1-Pad38)*%
X132590000Y-117270000D03*
%TO.N,GND*%
X135130000Y-114730000D03*
%TO.N,unconnected-(J1-GPIO21{slash}SCLK1-Pad40)*%
X135130000Y-117270000D03*
%TD*%
D14*
%TO.N,GND*%
%TO.C,H3*%
X150000000Y-91000000D03*
%TD*%
D15*
%TO.N,D2-0*%
%TO.C,J5*%
X102000000Y-89000000D03*
D16*
%TO.N,D2-1*%
X102000000Y-91000000D03*
%TO.N,D2-5*%
X104000000Y-89000000D03*
%TO.N,D2-4*%
X104000000Y-91000000D03*
%TO.N,D2-8*%
X106000000Y-89000000D03*
%TO.N,D2-9*%
X106000000Y-91000000D03*
%TO.N,D2-6*%
X108000000Y-89000000D03*
%TO.N,D2-7*%
X108000000Y-91000000D03*
%TO.N,D2-2*%
X110000000Y-89000000D03*
%TO.N,D2-3*%
X110000000Y-91000000D03*
%TD*%
D15*
%TO.N,D4-0*%
%TO.C,J7*%
X155500000Y-89000000D03*
D16*
%TO.N,D4-1*%
X155500000Y-91000000D03*
%TO.N,D4-5*%
X157500000Y-89000000D03*
%TO.N,D4-4*%
X157500000Y-91000000D03*
%TO.N,D4-8*%
X159500000Y-89000000D03*
%TO.N,D4-9*%
X159500000Y-91000000D03*
%TO.N,D4-6*%
X161500000Y-89000000D03*
%TO.N,D4-7*%
X161500000Y-91000000D03*
%TO.N,D4-2*%
X163500000Y-89000000D03*
%TO.N,D4-3*%
X163500000Y-91000000D03*
%TD*%
D15*
%TO.N,D1-0*%
%TO.C,J3*%
X88000000Y-89000000D03*
D16*
%TO.N,D1-1*%
X88000000Y-91000000D03*
%TO.N,D1-5*%
X90000000Y-89000000D03*
%TO.N,D1-4*%
X90000000Y-91000000D03*
%TO.N,D1-8*%
X92000000Y-89000000D03*
%TO.N,D1-9*%
X92000000Y-91000000D03*
%TO.N,D1-6*%
X94000000Y-89000000D03*
%TO.N,D1-7*%
X94000000Y-91000000D03*
%TO.N,D1-2*%
X96000000Y-89000000D03*
%TO.N,D1-3*%
X96000000Y-91000000D03*
%TD*%
D15*
%TO.N,D6-0*%
%TO.C,J9*%
X191500000Y-89000000D03*
D16*
%TO.N,D6-1*%
X191500000Y-91000000D03*
%TO.N,D6-5*%
X193500000Y-89000000D03*
%TO.N,D6-4*%
X193500000Y-91000000D03*
%TO.N,D6-8*%
X195500000Y-89000000D03*
%TO.N,D6-9*%
X195500000Y-91000000D03*
%TO.N,D6-6*%
X197500000Y-89000000D03*
%TO.N,D6-7*%
X197500000Y-91000000D03*
%TO.N,D6-2*%
X199500000Y-89000000D03*
%TO.N,D6-3*%
X199500000Y-91000000D03*
%TD*%
D15*
%TO.N,D3-0*%
%TO.C,J6*%
X124500000Y-89000000D03*
D16*
%TO.N,D3-1*%
X124500000Y-91000000D03*
%TO.N,D3-5*%
X126500000Y-89000000D03*
%TO.N,D3-4*%
X126500000Y-91000000D03*
%TO.N,D3-8*%
X128500000Y-89000000D03*
%TO.N,D3-9*%
X128500000Y-91000000D03*
%TO.N,D3-6*%
X130500000Y-89000000D03*
%TO.N,D3-7*%
X130500000Y-91000000D03*
%TO.N,D3-2*%
X132500000Y-89000000D03*
%TO.N,D3-3*%
X132500000Y-91000000D03*
%TD*%
D15*
%TO.N,ANODE*%
%TO.C,J4*%
X183500000Y-89000000D03*
D16*
X183500000Y-91000000D03*
%TO.N,GND*%
X185500000Y-89000000D03*
X185500000Y-91000000D03*
%TD*%
D15*
%TO.N,D5-0*%
%TO.C,J8*%
X169500000Y-89000000D03*
D16*
%TO.N,D5-1*%
X169500000Y-91000000D03*
%TO.N,D5-5*%
X171500000Y-89000000D03*
%TO.N,D5-4*%
X171500000Y-91000000D03*
%TO.N,D5-8*%
X173500000Y-89000000D03*
%TO.N,D5-9*%
X173500000Y-91000000D03*
%TO.N,D5-6*%
X175500000Y-89000000D03*
%TO.N,D5-7*%
X175500000Y-91000000D03*
%TO.N,D5-2*%
X177500000Y-89000000D03*
%TO.N,D5-3*%
X177500000Y-91000000D03*
%TD*%
D17*
%TO.N,+5V*%
X141605000Y-109220000D03*
X179705000Y-115570000D03*
X156845000Y-114935000D03*
%TO.N,GND*%
X162600000Y-106300000D03*
X188500000Y-89000000D03*
X166300000Y-103100000D03*
X180340000Y-106045000D03*
X115500000Y-89000000D03*
X143500000Y-89000000D03*
X178000000Y-119000000D03*
X193040000Y-114935000D03*
X139700000Y-106680000D03*
X80000000Y-111500000D03*
X152400000Y-107315000D03*
X180340000Y-109220000D03*
X161925000Y-113030000D03*
X180300000Y-117000000D03*
X169600000Y-118700000D03*
X88000000Y-119000000D03*
X191135000Y-116840000D03*
X121000000Y-89000000D03*
X166500000Y-89000000D03*
X168900000Y-108600000D03*
X99000000Y-88500000D03*
X180500000Y-89000000D03*
X79000000Y-89000000D03*
%TO.N,+3V3*%
X137000000Y-107000000D03*
%TO.N,Net-(J1-SCL{slash}GPIO3)*%
X90170000Y-110490000D03*
%TO.N,Net-(J1-SDA{slash}GPIO2)*%
X97155000Y-109855000D03*
%TO.N,PWM*%
X189865000Y-118110000D03*
%TO.N,2D*%
X168275000Y-115570000D03*
%TO.N,1C*%
X164465000Y-114935000D03*
%TO.N,2A*%
X165735000Y-114935000D03*
%TO.N,1A*%
X163195000Y-116840000D03*
%TO.N,1D*%
X165100000Y-116205000D03*
%TO.N,1B*%
X163830000Y-115570000D03*
%TO.N,2C*%
X167640000Y-114935000D03*
%TO.N,2B*%
X167005000Y-114300000D03*
%TO.N,4C*%
X189230000Y-113665000D03*
X184785000Y-114935000D03*
%TO.N,4D*%
X188570737Y-114745734D03*
X163830000Y-102870000D03*
X185420000Y-115570000D03*
%TO.N,4A*%
X189299313Y-116274313D03*
X182880000Y-116840000D03*
%TO.N,4B*%
X184150000Y-116205000D03*
X188595000Y-115570000D03*
%TO.N,5D*%
X182274265Y-113529265D03*
%TO.N,5C*%
X186790000Y-114200000D03*
%TO.N,5A*%
X181935000Y-114300000D03*
%TO.N,5B*%
X184142662Y-113687724D03*
%TO.N,6B*%
X187040000Y-109500000D03*
%TO.N,6D*%
X185420000Y-108193497D03*
%TO.N,6C*%
X186425421Y-108987851D03*
%TO.N,6A*%
X187325000Y-107315000D03*
%TO.N,I2C_SDA*%
X159385000Y-113030000D03*
X173355000Y-113030000D03*
%TO.N,I2C_SCL*%
X160655000Y-113030000D03*
X175260000Y-113665000D03*
%TO.N,ANODE*%
X191135000Y-107315000D03*
X199000000Y-113000000D03*
%TD*%
D18*
%TO.N,Net-(J1-SCL{slash}GPIO3)*%
X91950000Y-114730000D02*
X91950000Y-112270000D01*
X91950000Y-112270000D02*
X90170000Y-110490000D01*
%TO.N,PWM*%
X189855000Y-118100000D02*
X153045000Y-118100000D01*
X151765000Y-119380000D02*
X101680000Y-119380000D01*
X101680000Y-119380000D02*
X99570000Y-117270000D01*
X153045000Y-118100000D02*
X151765000Y-119380000D01*
X189865000Y-118110000D02*
X189855000Y-118100000D01*
%TO.N,2D*%
X108600000Y-108600000D02*
X111030000Y-111030000D01*
X108600000Y-104765000D02*
X108600000Y-108600000D01*
X166370000Y-112395000D02*
X166370000Y-114935000D01*
X165005000Y-111030000D02*
X166370000Y-112395000D01*
X167005000Y-115570000D02*
X168275000Y-115570000D01*
X166370000Y-114935000D02*
X167005000Y-115570000D01*
X111030000Y-111030000D02*
X165005000Y-111030000D01*
%TO.N,1C*%
X162485099Y-115570000D02*
X163120099Y-114935000D01*
X95320000Y-111830000D02*
X156880343Y-111830000D01*
X93995000Y-110505000D02*
X95320000Y-111830000D01*
X93995000Y-104765000D02*
X93995000Y-110505000D01*
X156880343Y-111830000D02*
X160620343Y-115570000D01*
X93995000Y-104765000D02*
X93995000Y-105425000D01*
X163120099Y-114935000D02*
X164465000Y-114935000D01*
X160620343Y-115570000D02*
X162485099Y-115570000D01*
%TO.N,2A*%
X165735000Y-113665000D02*
X165735000Y-114935000D01*
X163500000Y-111430000D02*
X165735000Y-113665000D01*
X106060000Y-108905000D02*
X108585000Y-111430000D01*
X108585000Y-111430000D02*
X163500000Y-111430000D01*
X106060000Y-104765000D02*
X106060000Y-108905000D01*
%TO.N,1A*%
X160020000Y-116840000D02*
X163195000Y-116840000D01*
X88960000Y-109890000D02*
X91475000Y-109890000D01*
X156210000Y-113030000D02*
X160020000Y-116840000D01*
X91475000Y-109890000D02*
X94615000Y-113030000D01*
X83835000Y-104765000D02*
X88960000Y-109890000D01*
X94615000Y-113030000D02*
X156210000Y-113030000D01*
%TO.N,1D*%
X91370686Y-109220000D02*
X91640686Y-109490000D01*
X94780685Y-112630000D02*
X156445000Y-112630000D01*
X160255000Y-116440000D02*
X162746471Y-116440000D01*
X91875000Y-109724315D02*
X94780685Y-112630000D01*
X88900000Y-109220000D02*
X91370686Y-109220000D01*
X86375000Y-106695000D02*
X88900000Y-109220000D01*
X86375000Y-104765000D02*
X86375000Y-106695000D01*
X162981471Y-116205000D02*
X165100000Y-116205000D01*
X162746471Y-116440000D02*
X162981471Y-116205000D01*
X91640686Y-109490000D02*
X91875000Y-109724315D01*
X156445000Y-112630000D02*
X160255000Y-116440000D01*
%TO.N,1B*%
X95085000Y-112230000D02*
X156680000Y-112230000D01*
X163050785Y-115570000D02*
X163830000Y-115570000D01*
X162580785Y-116040000D02*
X163050785Y-115570000D01*
X160490000Y-116040000D02*
X162580785Y-116040000D01*
X156680000Y-112230000D02*
X160490000Y-116040000D01*
X91455000Y-108600000D02*
X95085000Y-112230000D01*
X91455000Y-104765000D02*
X91455000Y-108600000D01*
%TO.N,2C*%
X116220000Y-108570000D02*
X116205000Y-108585000D01*
X117850000Y-110230000D02*
X165475000Y-110230000D01*
X165475000Y-110230000D02*
X167640000Y-112395000D01*
X116220000Y-104765000D02*
X116220000Y-108570000D01*
X116205000Y-108585000D02*
X117850000Y-110230000D01*
X167640000Y-112395000D02*
X167640000Y-114935000D01*
%TO.N,2B*%
X113680000Y-108600000D02*
X115710000Y-110630000D01*
X167005000Y-112325686D02*
X167005000Y-114300000D01*
X115710000Y-110630000D02*
X165309314Y-110630000D01*
X113680000Y-104765000D02*
X113680000Y-108600000D01*
X165309314Y-110630000D02*
X167005000Y-112325686D01*
%TO.N,4C*%
X187431765Y-114935000D02*
X184785000Y-114935000D01*
X188701765Y-113665000D02*
X187431765Y-114935000D01*
X189230000Y-113665000D02*
X188701765Y-113665000D01*
%TO.N,4D*%
X153685000Y-103520000D02*
X153685000Y-104765000D01*
X185420000Y-115570000D02*
X187746471Y-115570000D01*
X153670000Y-103505000D02*
X153685000Y-103520000D01*
X187746471Y-115570000D02*
X188570737Y-114745734D01*
X163830000Y-102870000D02*
X154305000Y-102870000D01*
X154305000Y-102870000D02*
X153670000Y-103505000D01*
%TO.N,4A*%
X188733626Y-116840000D02*
X182880000Y-116840000D01*
X189299313Y-116274313D02*
X188733626Y-116840000D01*
%TO.N,4B*%
X187960000Y-116205000D02*
X184150000Y-116205000D01*
X188595000Y-115570000D02*
X187960000Y-116205000D01*
%TO.N,5D*%
X176545000Y-107800000D02*
X176545000Y-104765000D01*
X182274265Y-113529265D02*
X176545000Y-107800000D01*
%TO.N,5C*%
X186700000Y-114200000D02*
X184165000Y-111665000D01*
X186790000Y-114200000D02*
X186700000Y-114200000D01*
X184165000Y-111665000D02*
X184165000Y-104765000D01*
%TO.N,5A*%
X174005000Y-106370000D02*
X174005000Y-104765000D01*
X181935000Y-114300000D02*
X174005000Y-106370000D01*
%TO.N,5B*%
X184142662Y-113687724D02*
X181625000Y-111170062D01*
X181625000Y-111170062D02*
X181625000Y-104765000D01*
%TO.N,6B*%
X198120000Y-106680000D02*
X201935000Y-106680000D01*
X201935000Y-106680000D02*
X203850000Y-104765000D01*
X187040000Y-109500000D02*
X195300000Y-109500000D01*
X195300000Y-109500000D02*
X198120000Y-106680000D01*
%TO.N,6D*%
X187415550Y-108585000D02*
X194950000Y-108585000D01*
X185420000Y-108193497D02*
X187024047Y-108193497D01*
X187024047Y-108193497D02*
X187415550Y-108585000D01*
X194950000Y-108585000D02*
X198770000Y-104765000D01*
%TO.N,6C*%
X186425421Y-108987851D02*
X186440000Y-109002430D01*
X186440000Y-109748529D02*
X187181471Y-110490000D01*
X200665000Y-110490000D02*
X206390000Y-104765000D01*
X187181471Y-110490000D02*
X200665000Y-110490000D01*
X186440000Y-109002430D02*
X186440000Y-109748529D01*
%TO.N,6A*%
X187325000Y-107315000D02*
X187925000Y-107915000D01*
X187925000Y-107915000D02*
X193080000Y-107915000D01*
X193080000Y-107915000D02*
X196230000Y-104765000D01*
%TO.N,D1-5*%
X89000000Y-90000000D02*
X89000000Y-91440000D01*
X90000000Y-89000000D02*
X89000000Y-90000000D01*
X89000000Y-91440000D02*
X89000000Y-92000000D01*
X83835000Y-97145000D02*
X89000000Y-91980000D01*
X89000000Y-91980000D02*
X89000000Y-91440000D01*
%TO.N,D1-7*%
X93995000Y-97145000D02*
X93995000Y-93505000D01*
X94000000Y-91000000D02*
X94000000Y-93500000D01*
X93995000Y-93505000D02*
X94000000Y-93500000D01*
%TO.N,D1-0*%
X86500000Y-92000000D02*
X86500000Y-89500000D01*
X86500000Y-89500000D02*
X87000000Y-89000000D01*
X87000000Y-89000000D02*
X88000000Y-89000000D01*
X78755000Y-97145000D02*
X80400000Y-95500000D01*
X83000000Y-95500000D02*
X86500000Y-92000000D01*
X80400000Y-95500000D02*
X83000000Y-95500000D01*
%TO.N,D1-6*%
X91455000Y-94545000D02*
X93000000Y-93000000D01*
X91455000Y-97145000D02*
X91455000Y-94545000D01*
X93000000Y-93000000D02*
X93000000Y-90000000D01*
X93000000Y-90000000D02*
X94000000Y-89000000D01*
%TO.N,D1-9*%
X90170000Y-94830000D02*
X92000000Y-93000000D01*
X81295000Y-102220000D02*
X82550000Y-100965000D01*
X82550000Y-100965000D02*
X87630000Y-100965000D01*
X81295000Y-104765000D02*
X81295000Y-102220000D01*
X90170000Y-98425000D02*
X90170000Y-94830000D01*
X87630000Y-100965000D02*
X90170000Y-98425000D01*
X92000000Y-93000000D02*
X92000000Y-91000000D01*
%TO.N,D1-4*%
X86375000Y-97145000D02*
X86375000Y-95625000D01*
X86375000Y-95625000D02*
X90000000Y-92000000D01*
X90000000Y-92000000D02*
X90000000Y-91000000D01*
%TO.N,D1-8*%
X87630000Y-98425000D02*
X87630000Y-95370000D01*
X91000000Y-92000000D02*
X91000000Y-90000000D01*
X86360000Y-99695000D02*
X87630000Y-98425000D01*
X91000000Y-90000000D02*
X92000000Y-89000000D01*
X78755000Y-102855000D02*
X81915000Y-99695000D01*
X91500000Y-89000000D02*
X92000000Y-89000000D01*
X81915000Y-99695000D02*
X86360000Y-99695000D01*
X78755000Y-104765000D02*
X78755000Y-102855000D01*
X87630000Y-95370000D02*
X91000000Y-92000000D01*
%TO.N,D1-2*%
X97000000Y-89000000D02*
X96000000Y-89000000D01*
X98000000Y-90000000D02*
X97000000Y-89000000D01*
X98000000Y-99000000D02*
X98000000Y-90000000D01*
X96535000Y-100465000D02*
X98000000Y-99000000D01*
X96535000Y-104765000D02*
X96535000Y-100465000D01*
%TO.N,D1-1*%
X88000000Y-91500000D02*
X88000000Y-91000000D01*
X81295000Y-97145000D02*
X82440000Y-96000000D01*
X83500000Y-96000000D02*
X88000000Y-91500000D01*
X82440000Y-96000000D02*
X83500000Y-96000000D01*
%TO.N,D1-3*%
X96535000Y-97145000D02*
X96535000Y-93535000D01*
X96535000Y-93535000D02*
X96000000Y-93000000D01*
X96000000Y-93000000D02*
X96000000Y-91000000D01*
%TO.N,D2-4*%
X104000000Y-91000000D02*
X104000000Y-92545000D01*
X104000000Y-92545000D02*
X108600000Y-97145000D01*
%TO.N,D2-2*%
X113500000Y-89000000D02*
X120500000Y-96000000D01*
X120500000Y-96000000D02*
X120500000Y-98000000D01*
X118760000Y-99740000D02*
X118760000Y-104765000D01*
X110000000Y-89000000D02*
X113500000Y-89000000D01*
X120500000Y-98000000D02*
X118760000Y-99740000D01*
%TO.N,D2-9*%
X106000000Y-92500000D02*
X106000000Y-91000000D01*
X112395000Y-98425000D02*
X112395000Y-95895000D01*
X111000000Y-94500000D02*
X108000000Y-94500000D01*
X108000000Y-94500000D02*
X106000000Y-92500000D01*
X103520000Y-102220000D02*
X104775000Y-100965000D01*
X103520000Y-104765000D02*
X103520000Y-102220000D01*
X112395000Y-95895000D02*
X111000000Y-94500000D01*
X104775000Y-100965000D02*
X109855000Y-100965000D01*
X109855000Y-100965000D02*
X112395000Y-98425000D01*
%TO.N,D2-0*%
X100500000Y-94500000D02*
X100980000Y-94980000D01*
X102000000Y-89000000D02*
X101000000Y-89000000D01*
X101000000Y-89000000D02*
X100500000Y-89500000D01*
X100980000Y-94980000D02*
X100980000Y-97145000D01*
X100500000Y-89500000D02*
X100500000Y-94500000D01*
%TO.N,D2-5*%
X103000000Y-90000000D02*
X103000000Y-94085000D01*
X103000000Y-94085000D02*
X106060000Y-97145000D01*
X104000000Y-89000000D02*
X103000000Y-90000000D01*
%TO.N,D2-7*%
X108500000Y-93000000D02*
X112075000Y-93000000D01*
X112075000Y-93000000D02*
X116220000Y-97145000D01*
X108000000Y-91000000D02*
X108000000Y-92500000D01*
X108000000Y-92500000D02*
X108500000Y-93000000D01*
%TO.N,D2-8*%
X100980000Y-104765000D02*
X100980000Y-102855000D01*
X105000000Y-92500000D02*
X105000000Y-90000000D01*
X108585000Y-99695000D02*
X109855000Y-98425000D01*
X105000000Y-90000000D02*
X106000000Y-89000000D01*
X109855000Y-98425000D02*
X109855000Y-95855000D01*
X107500000Y-95000000D02*
X105000000Y-92500000D01*
X109855000Y-95855000D02*
X109000000Y-95000000D01*
X109000000Y-95000000D02*
X107500000Y-95000000D01*
X104140000Y-99695000D02*
X108585000Y-99695000D01*
X100980000Y-102855000D02*
X104140000Y-99695000D01*
%TO.N,D2-1*%
X102000000Y-91000000D02*
X102000000Y-95625000D01*
X102000000Y-95625000D02*
X103520000Y-97145000D01*
%TO.N,D2-6*%
X107000000Y-92500000D02*
X108000000Y-93500000D01*
X107000000Y-90000000D02*
X107000000Y-92500000D01*
X108000000Y-93500000D02*
X111500000Y-93500000D01*
X108000000Y-89000000D02*
X107000000Y-90000000D01*
X113680000Y-95680000D02*
X113680000Y-97145000D01*
X111500000Y-93500000D02*
X113680000Y-95680000D01*
%TO.N,D2-3*%
X110000000Y-91000000D02*
X112615000Y-91000000D01*
X112615000Y-91000000D02*
X118760000Y-97145000D01*
%TO.N,D3-4*%
X126500000Y-92175000D02*
X131460000Y-97135000D01*
X126500000Y-91000000D02*
X126500000Y-92175000D01*
%TO.N,D3-7*%
X130500000Y-91000000D02*
X130500000Y-92000000D01*
X134445000Y-92500000D02*
X139080000Y-97135000D01*
X131000000Y-92500000D02*
X134445000Y-92500000D01*
X130500000Y-92000000D02*
X131000000Y-92500000D01*
%TO.N,D3-5*%
X125500000Y-93715000D02*
X128920000Y-97135000D01*
X126500000Y-89000000D02*
X125500000Y-90000000D01*
X125500000Y-90000000D02*
X125500000Y-93715000D01*
%TO.N,D3-6*%
X134140000Y-93500000D02*
X136540000Y-95900000D01*
X129500000Y-90000000D02*
X129500000Y-92000000D01*
X131000000Y-93500000D02*
X134140000Y-93500000D01*
X130500000Y-89000000D02*
X129500000Y-90000000D01*
X136540000Y-95900000D02*
X136540000Y-97135000D01*
X129500000Y-92000000D02*
X131000000Y-93500000D01*
%TO.N,D3-9*%
X128500000Y-91000000D02*
X128500000Y-92000000D01*
X126380000Y-102250000D02*
X126365000Y-102235000D01*
X126380000Y-104755000D02*
X126380000Y-102250000D01*
X131000000Y-94500000D02*
X133350000Y-94500000D01*
X132715000Y-100965000D02*
X135255000Y-98425000D01*
X126365000Y-102235000D02*
X127635000Y-100965000D01*
X128500000Y-92000000D02*
X131000000Y-94500000D01*
X135255000Y-98425000D02*
X135255000Y-96405000D01*
X127635000Y-100965000D02*
X132715000Y-100965000D01*
X135255000Y-96405000D02*
X133350000Y-94500000D01*
%TO.N,D3-0*%
X123000000Y-95000000D02*
X123840000Y-95840000D01*
X123000000Y-89500000D02*
X123000000Y-95000000D01*
X123500000Y-89000000D02*
X123000000Y-89500000D01*
X123840000Y-95840000D02*
X123840000Y-97135000D01*
X124500000Y-89000000D02*
X123500000Y-89000000D01*
%TO.N,D3-8*%
X127500000Y-90000000D02*
X128500000Y-89000000D01*
X123825000Y-102870000D02*
X127000000Y-99695000D01*
X132715000Y-98425000D02*
X132715000Y-95850685D01*
X131445000Y-99695000D02*
X132715000Y-98425000D01*
X123840000Y-102885000D02*
X123825000Y-102870000D01*
X123840000Y-104755000D02*
X123840000Y-102885000D01*
X127000000Y-99695000D02*
X131445000Y-99695000D01*
X132364315Y-95500000D02*
X131000000Y-95500000D01*
X127500000Y-92000000D02*
X127500000Y-90000000D01*
X132715000Y-95850685D02*
X132364315Y-95500000D01*
X131000000Y-95500000D02*
X127500000Y-92000000D01*
%TO.N,D3-2*%
X132500000Y-89000000D02*
X140500000Y-89000000D01*
X143000000Y-103375000D02*
X141620000Y-104755000D01*
X143000000Y-91500000D02*
X143000000Y-103375000D01*
X140500000Y-89000000D02*
X143000000Y-91500000D01*
%TO.N,D3-3*%
X132500000Y-91000000D02*
X134500000Y-91000000D01*
X139000000Y-95500000D02*
X139985000Y-95500000D01*
X134500000Y-91000000D02*
X139000000Y-95500000D01*
X139985000Y-95500000D02*
X141620000Y-97135000D01*
%TO.N,D3-1*%
X124500000Y-95255000D02*
X126380000Y-97135000D01*
X124500000Y-91000000D02*
X124500000Y-95255000D01*
%TO.N,D4-2*%
X163500000Y-89000000D02*
X164500000Y-89000000D01*
X165500000Y-103110000D02*
X163845000Y-104765000D01*
X164500000Y-89000000D02*
X165500000Y-90000000D01*
X165500000Y-90000000D02*
X165500000Y-103110000D01*
%TO.N,D4-3*%
X163845000Y-93345000D02*
X163845000Y-97145000D01*
X163500000Y-91000000D02*
X163500000Y-93000000D01*
X163500000Y-93000000D02*
X163845000Y-93345000D01*
%TO.N,D4-1*%
X151500000Y-95000000D02*
X149500000Y-95000000D01*
X148605000Y-95895000D02*
X148605000Y-97145000D01*
X149500000Y-95000000D02*
X148605000Y-95895000D01*
X155500000Y-91000000D02*
X151500000Y-95000000D01*
%TO.N,D4-8*%
X149860000Y-99695000D02*
X153670000Y-99695000D01*
X158500000Y-93000000D02*
X158500000Y-90000000D01*
X154940000Y-96560000D02*
X158500000Y-93000000D01*
X146065000Y-104765000D02*
X146065000Y-103490000D01*
X154940000Y-98425000D02*
X154940000Y-96560000D01*
X146065000Y-103490000D02*
X149860000Y-99695000D01*
X158500000Y-90000000D02*
X159500000Y-89000000D01*
X153670000Y-99695000D02*
X154940000Y-98425000D01*
%TO.N,D4-7*%
X161305000Y-93330000D02*
X161305000Y-97145000D01*
X161500000Y-91000000D02*
X161500000Y-93135000D01*
X161500000Y-93135000D02*
X161305000Y-93330000D01*
%TO.N,D4-9*%
X159500000Y-93500000D02*
X159500000Y-91000000D01*
X151130000Y-100965000D02*
X154940000Y-100965000D01*
X154940000Y-100965000D02*
X157480000Y-98425000D01*
X148605000Y-103490000D02*
X151130000Y-100965000D01*
X148605000Y-104765000D02*
X148605000Y-103490000D01*
X157480000Y-98425000D02*
X157480000Y-95520000D01*
X157480000Y-95520000D02*
X159500000Y-93500000D01*
%TO.N,D4-5*%
X156500000Y-91790000D02*
X151145000Y-97145000D01*
X157500000Y-89000000D02*
X156500000Y-90000000D01*
X156500000Y-90000000D02*
X156500000Y-91790000D01*
%TO.N,D4-4*%
X153685000Y-95980000D02*
X153685000Y-97145000D01*
X157500000Y-91000000D02*
X157500000Y-92165000D01*
X157500000Y-92165000D02*
X153685000Y-95980000D01*
%TO.N,D4-0*%
X154000000Y-90500000D02*
X154000000Y-91500000D01*
X146065000Y-95935000D02*
X146065000Y-97145000D01*
X148000000Y-94000000D02*
X146065000Y-95935000D01*
X151500000Y-94000000D02*
X148000000Y-94000000D01*
X154000000Y-91500000D02*
X151500000Y-94000000D01*
X155500000Y-89000000D02*
X154000000Y-90500000D01*
%TO.N,D4-6*%
X161500000Y-89000000D02*
X160500000Y-90000000D01*
X160500000Y-90000000D02*
X160500000Y-95410000D01*
X160500000Y-95410000D02*
X158765000Y-97145000D01*
%TO.N,D5-6*%
X174500000Y-91500000D02*
X177000000Y-94000000D01*
X181625000Y-95625000D02*
X181625000Y-97145000D01*
X177000000Y-94000000D02*
X180000000Y-94000000D01*
X175500000Y-89000000D02*
X174500000Y-90000000D01*
X180000000Y-94000000D02*
X181625000Y-95625000D01*
X174500000Y-90000000D02*
X174500000Y-91500000D01*
%TO.N,D5-2*%
X186690000Y-104750000D02*
X186705000Y-104765000D01*
X177500000Y-89000000D02*
X178500000Y-89000000D01*
X183500000Y-94000000D02*
X186000000Y-94000000D01*
X186690000Y-99060000D02*
X186690000Y-104750000D01*
X178500000Y-89000000D02*
X183500000Y-94000000D01*
X187805000Y-95805000D02*
X187805000Y-97945000D01*
X187805000Y-97945000D02*
X186690000Y-99060000D01*
X186000000Y-94000000D02*
X187805000Y-95805000D01*
%TO.N,D5-9*%
X171450000Y-102235000D02*
X172720000Y-100965000D01*
X172720000Y-100965000D02*
X177800000Y-100965000D01*
X180340000Y-96520000D02*
X178820000Y-95000000D01*
X180340000Y-98425000D02*
X180340000Y-96520000D01*
X171465000Y-104765000D02*
X171465000Y-102250000D01*
X177800000Y-100965000D02*
X180340000Y-98425000D01*
X171465000Y-102250000D02*
X171450000Y-102235000D01*
X178820000Y-95000000D02*
X176750000Y-95000000D01*
X173500000Y-91750000D02*
X173500000Y-91000000D01*
X176750000Y-95000000D02*
X173500000Y-91750000D01*
%TO.N,D5-0*%
X167500000Y-95720000D02*
X168925000Y-97145000D01*
X169500000Y-89000000D02*
X168000000Y-89000000D01*
X168000000Y-89000000D02*
X167500000Y-89500000D01*
X167500000Y-89500000D02*
X167500000Y-95720000D01*
%TO.N,D5-1*%
X169500000Y-91000000D02*
X169500000Y-95180000D01*
X169500000Y-95180000D02*
X171465000Y-97145000D01*
%TO.N,D5-5*%
X171500000Y-89000000D02*
X170500000Y-90000000D01*
X170500000Y-93640000D02*
X174005000Y-97145000D01*
X170500000Y-90000000D02*
X170500000Y-93640000D01*
%TO.N,D5-8*%
X177000000Y-95500000D02*
X176000000Y-95500000D01*
X168910000Y-102870000D02*
X172085000Y-99695000D01*
X168925000Y-102885000D02*
X168910000Y-102870000D01*
X172500000Y-92000000D02*
X172500000Y-90000000D01*
X168925000Y-104765000D02*
X168925000Y-102885000D01*
X176000000Y-95500000D02*
X172500000Y-92000000D01*
X177800000Y-96300000D02*
X177000000Y-95500000D01*
X172500000Y-90000000D02*
X173500000Y-89000000D01*
X177800000Y-98425000D02*
X177800000Y-96300000D01*
X176530000Y-99695000D02*
X177800000Y-98425000D01*
X172085000Y-99695000D02*
X176530000Y-99695000D01*
%TO.N,D5-3*%
X183500000Y-95000000D02*
X186000000Y-95000000D01*
X186705000Y-95705000D02*
X186705000Y-97145000D01*
X179500000Y-91000000D02*
X183500000Y-95000000D01*
X186000000Y-95000000D02*
X186705000Y-95705000D01*
X177500000Y-91000000D02*
X179500000Y-91000000D01*
%TO.N,D5-7*%
X180020000Y-93000000D02*
X184165000Y-97145000D01*
X175500000Y-91500000D02*
X177000000Y-93000000D01*
X177000000Y-93000000D02*
X180020000Y-93000000D01*
X175500000Y-91000000D02*
X175500000Y-91500000D01*
%TO.N,D5-4*%
X171500000Y-92100000D02*
X176545000Y-97145000D01*
X171500000Y-91000000D02*
X171500000Y-92100000D01*
%TO.N,D6-8*%
X194500000Y-92000000D02*
X198000000Y-95500000D01*
X194500000Y-90000000D02*
X194500000Y-92000000D01*
X191135000Y-102235000D02*
X193675000Y-99695000D01*
X193675000Y-99695000D02*
X198755000Y-99695000D01*
X200025000Y-98425000D02*
X200025000Y-96525000D01*
X191150000Y-104765000D02*
X191150000Y-102250000D01*
X200025000Y-96525000D02*
X199000000Y-95500000D01*
X195500000Y-89000000D02*
X194500000Y-90000000D01*
X198000000Y-95500000D02*
X199000000Y-95500000D01*
X191150000Y-102250000D02*
X191135000Y-102235000D01*
X198755000Y-99695000D02*
X200025000Y-98425000D01*
%TO.N,D6-5*%
X193500000Y-89000000D02*
X192500000Y-90000000D01*
X192500000Y-93415000D02*
X196230000Y-97145000D01*
X192500000Y-90000000D02*
X192500000Y-93415000D01*
%TO.N,D6-6*%
X201500000Y-93500000D02*
X203850000Y-95850000D01*
X196500000Y-90000000D02*
X196500000Y-92000000D01*
X196500000Y-92000000D02*
X198000000Y-93500000D01*
X203850000Y-95850000D02*
X203850000Y-97145000D01*
X197500000Y-89000000D02*
X196500000Y-90000000D01*
X198000000Y-93500000D02*
X201500000Y-93500000D01*
%TO.N,D6-2*%
X202500000Y-88000000D02*
X207500000Y-88000000D01*
X210030000Y-103665000D02*
X208930000Y-104765000D01*
X207500000Y-88000000D02*
X210030000Y-90530000D01*
X201500000Y-89000000D02*
X202500000Y-88000000D01*
X210030000Y-90530000D02*
X210030000Y-103665000D01*
X199500000Y-89000000D02*
X201500000Y-89000000D01*
%TO.N,D6-9*%
X202565000Y-98425000D02*
X202565000Y-96042500D01*
X193690000Y-102250000D02*
X193675000Y-102235000D01*
X202565000Y-96042500D02*
X201022500Y-94500000D01*
X195500000Y-92000000D02*
X195500000Y-91000000D01*
X193675000Y-102235000D02*
X194945000Y-100965000D01*
X200025000Y-100965000D02*
X202565000Y-98425000D01*
X194945000Y-100965000D02*
X200025000Y-100965000D01*
X198000000Y-94500000D02*
X195500000Y-92000000D01*
X193690000Y-104765000D02*
X193690000Y-102250000D01*
X201022500Y-94500000D02*
X198000000Y-94500000D01*
%TO.N,D6-1*%
X191500000Y-94955000D02*
X193690000Y-97145000D01*
X191500000Y-91000000D02*
X191500000Y-94955000D01*
%TO.N,D6-7*%
X199000000Y-92500000D02*
X201745000Y-92500000D01*
X197500000Y-91000000D02*
X199000000Y-92500000D01*
X201745000Y-92500000D02*
X206390000Y-97145000D01*
%TO.N,D6-4*%
X193500000Y-91000000D02*
X193500000Y-91875000D01*
X193500000Y-91875000D02*
X198770000Y-97145000D01*
%TO.N,D6-0*%
X189500000Y-94500000D02*
X191150000Y-96150000D01*
X189500000Y-90000000D02*
X189500000Y-94500000D01*
X191500000Y-89000000D02*
X190500000Y-89000000D01*
X191150000Y-96150000D02*
X191150000Y-97145000D01*
X190500000Y-89000000D02*
X189500000Y-90000000D01*
%TO.N,D6-3*%
X199500000Y-91000000D02*
X201500000Y-91000000D01*
X206000000Y-95500000D02*
X207285000Y-95500000D01*
X207285000Y-95500000D02*
X208930000Y-97145000D01*
X201500000Y-91000000D02*
X206000000Y-95500000D01*
D19*
%TO.N,ANODE*%
X186055000Y-92710000D02*
X189230000Y-95885000D01*
X191200000Y-107315000D02*
X191200000Y-107315000D01*
X183500000Y-91000000D02*
X183500000Y-92060000D01*
X184150000Y-92710000D02*
X186055000Y-92710000D01*
X191135000Y-107315000D02*
X191200000Y-107315000D01*
X183500000Y-89000000D02*
X183500000Y-91000000D01*
X189230000Y-95885000D02*
X189230000Y-105345000D01*
X183500000Y-92060000D02*
X184150000Y-92710000D01*
X189230000Y-105345000D02*
X191135000Y-107250000D01*
X191135000Y-107250000D02*
X191135000Y-107315000D01*
%TD*%
M02*
