M48
; DRILL file {KiCad 8.0.4+dfsg-1} date 2025-02-17T17:51:02+0100
; FORMAT={-:-/ absolute / inch / decimal}
; #@! TF.CreationDate,2025-02-17T17:51:02+01:00
; #@! TF.GenerationSoftware,Kicad,Pcbnew,8.0.4+dfsg-1
; #@! TF.FileFunction,Plated,1,4,PTH
FMAT,2
INCH
; #@! TA.AperFunction,Plated,PTH,ViaDrill
T1C0.0118
; #@! TA.AperFunction,Plated,PTH,ComponentDrill
T2C0.0315
; #@! TA.AperFunction,Plated,PTH,ComponentDrill
T3C0.0394
; #@! TA.AperFunction,Plated,PTH,ComponentDrill
T4C0.1063
%
G90
G05
T1
X3.1102Y-3.5039
X3.1496Y-4.3898
X3.4646Y-4.685
X3.55Y-4.35
X3.825Y-4.325
X3.8976Y-3.4843
X4.5472Y-3.5039
X4.7638Y-3.5039
X5.3937Y-4.2126
X5.5Y-4.2
X5.575Y-4.3
X5.6496Y-3.5039
X6.0Y-4.225
X6.175Y-4.525
X6.275Y-4.45
X6.325Y-4.45
X6.375Y-4.45
X6.4016Y-4.185
X6.425Y-4.6
X6.45Y-4.05
X6.45Y-4.55
X6.475Y-4.525
X6.5Y-4.575
X6.525Y-4.525
X6.5472Y-4.0591
X6.5551Y-3.5039
X6.575Y-4.5
X6.6Y-4.525
X6.625Y-4.55
X6.6496Y-4.2756
X6.6772Y-4.6732
X6.825Y-4.45
X6.9Y-4.475
X7.0079Y-4.685
X7.075Y-4.55
X7.0984Y-4.6063
X7.1Y-4.175
X7.1Y-4.3
X7.1063Y-3.5039
X7.1628Y-4.5
X7.1762Y-4.4697
X7.2Y-4.6
X7.2497Y-4.4759
X7.25Y-4.575
X7.275Y-4.525
X7.3Y-4.2596
X7.3Y-4.55
X7.3396Y-4.2909
X7.3539Y-4.4961
X7.3638Y-4.311
X7.375Y-4.225
X7.4213Y-3.5039
X7.424Y-4.5175
X7.425Y-4.55
X7.45Y-4.475
X7.4527Y-4.5777
X7.475Y-4.65
X7.525Y-4.225
X7.525Y-4.6
X7.6Y-4.525
X7.8346Y-4.4488
T2
X3.1006Y-3.8246
X3.1006Y-4.1246
X3.2006Y-3.8246
X3.2006Y-4.1246
X3.3006Y-3.8246
X3.3006Y-4.1246
X3.4006Y-3.8246
X3.4006Y-4.1246
X3.4646Y-3.5039
X3.4646Y-3.5827
X3.5006Y-3.8246
X3.5006Y-4.1246
X3.5433Y-3.5039
X3.5433Y-3.5827
X3.6006Y-3.8246
X3.6006Y-4.1246
X3.622Y-3.5039
X3.622Y-3.5827
X3.7006Y-3.8246
X3.7006Y-4.1246
X3.7008Y-3.5039
X3.7008Y-3.5827
X3.7795Y-3.5039
X3.7795Y-3.5827
X3.8006Y-3.8246
X3.8006Y-4.1246
X3.9756Y-3.8246
X3.9756Y-4.1246
X4.0157Y-3.5039
X4.0157Y-3.5827
X4.0756Y-3.8246
X4.0756Y-4.1246
X4.0945Y-3.5039
X4.0945Y-3.5827
X4.1732Y-3.5039
X4.1732Y-3.5827
X4.1756Y-3.8246
X4.1756Y-4.1246
X4.252Y-3.5039
X4.252Y-3.5827
X4.2756Y-3.8246
X4.2756Y-4.1246
X4.3307Y-3.5039
X4.3307Y-3.5827
X4.3756Y-3.8246
X4.3756Y-4.1246
X4.4756Y-3.8246
X4.4756Y-4.1246
X4.5756Y-3.8246
X4.5756Y-4.1246
X4.6756Y-3.8246
X4.6756Y-4.1246
X4.8756Y-3.8242
X4.8756Y-4.1242
X4.9016Y-3.5039
X4.9016Y-3.5827
X4.9756Y-3.8242
X4.9756Y-4.1242
X4.9803Y-3.5039
X4.9803Y-3.5827
X5.0591Y-3.5039
X5.0591Y-3.5827
X5.0756Y-3.8242
X5.0756Y-4.1242
X5.1378Y-3.5039
X5.1378Y-3.5827
X5.1756Y-3.8242
X5.1756Y-4.1242
X5.2165Y-3.5039
X5.2165Y-3.5827
X5.2756Y-3.8242
X5.2756Y-4.1242
X5.3756Y-3.8242
X5.3756Y-4.1242
X5.4756Y-3.8242
X5.4756Y-4.1242
X5.5756Y-3.8242
X5.5756Y-4.1242
X5.7506Y-3.8246
X5.7506Y-4.1246
X5.8506Y-3.8246
X5.8506Y-4.1246
X5.9506Y-3.8246
X5.9506Y-4.1246
X6.0506Y-3.8246
X6.0506Y-4.1246
X6.122Y-3.5039
X6.122Y-3.5827
X6.1506Y-3.8246
X6.1506Y-4.1246
X6.2008Y-3.5039
X6.2008Y-3.5827
X6.2506Y-3.8246
X6.2506Y-4.1246
X6.2795Y-3.5039
X6.2795Y-3.5827
X6.3506Y-3.8246
X6.3506Y-4.1246
X6.3583Y-3.5039
X6.3583Y-3.5827
X6.437Y-3.5039
X6.437Y-3.5827
X6.4506Y-3.8246
X6.4506Y-4.1246
X6.6506Y-3.8246
X6.6506Y-4.1246
X6.6732Y-3.5039
X6.6732Y-3.5827
X6.7506Y-3.8246
X6.7506Y-4.1246
X6.752Y-3.5039
X6.752Y-3.5827
X6.8307Y-3.5039
X6.8307Y-3.5827
X6.8506Y-3.8246
X6.8506Y-4.1246
X6.9094Y-3.5039
X6.9094Y-3.5827
X6.9506Y-3.8246
X6.9506Y-4.1246
X6.9882Y-3.5039
X6.9882Y-3.5827
X7.0506Y-3.8246
X7.0506Y-4.1246
X7.1506Y-3.8246
X7.1506Y-4.1246
X7.2244Y-3.5039
X7.2244Y-3.5827
X7.2506Y-3.8246
X7.2506Y-4.1246
X7.3031Y-3.5039
X7.3031Y-3.5827
X7.3506Y-3.8246
X7.3506Y-4.1246
X7.5256Y-3.8246
X7.5256Y-4.1246
X7.5394Y-3.5039
X7.5394Y-3.5827
X7.6181Y-3.5039
X7.6181Y-3.5827
X7.6256Y-3.8246
X7.6256Y-4.1246
X7.6969Y-3.5039
X7.6969Y-3.5827
X7.7256Y-3.8246
X7.7256Y-4.1246
X7.7756Y-3.5039
X7.7756Y-3.5827
X7.8256Y-3.8246
X7.8256Y-4.1246
X7.8543Y-3.5039
X7.8543Y-3.5827
X7.9256Y-3.8246
X7.9256Y-4.1246
X8.0256Y-3.8246
X8.0256Y-4.1246
X8.1256Y-3.8246
X8.1256Y-4.1246
X8.2256Y-3.8246
X8.2256Y-4.1246
T3
X3.4201Y-4.5169
X3.4201Y-4.6169
X3.5201Y-4.5169
X3.5201Y-4.6169
X3.6201Y-4.5169
X3.6201Y-4.6169
X3.7201Y-4.5169
X3.7201Y-4.6169
X3.8201Y-4.5169
X3.8201Y-4.6169
X3.9201Y-4.5169
X3.9201Y-4.6169
X4.0201Y-4.5169
X4.0201Y-4.6169
X4.1201Y-4.5169
X4.1201Y-4.6169
X4.2201Y-4.5169
X4.2201Y-4.6169
X4.3201Y-4.5169
X4.3201Y-4.6169
X4.4201Y-4.5169
X4.4201Y-4.6169
X4.5201Y-4.5169
X4.5201Y-4.6169
X4.6201Y-4.5169
X4.6201Y-4.6169
X4.7201Y-4.5169
X4.7201Y-4.6169
X4.8201Y-4.5169
X4.8201Y-4.6169
X4.9201Y-4.5169
X4.9201Y-4.6169
X5.0201Y-4.5169
X5.0201Y-4.6169
X5.1201Y-4.5169
X5.1201Y-4.6169
X5.2201Y-4.5169
X5.2201Y-4.6169
X5.3201Y-4.5169
X5.3201Y-4.6169
X7.5984Y-4.6063
X7.6984Y-4.6063
X7.7984Y-4.6063
X7.8984Y-4.6063
T4
X5.9055Y-3.5827
X5.9055Y-4.5669
X8.1102Y-3.5827
X8.1102Y-4.5669
M30
