%TF.GenerationSoftware,KiCad,Pcbnew,8.0.4+dfsg-1*%
%TF.CreationDate,2025-02-17T17:51:02+01:00*%
%TF.ProjectId,nixie-clock,6e697869-652d-4636-9c6f-636b2e6b6963,rev?*%
%TF.SameCoordinates,Original*%
%TF.FileFunction,Soldermask,Top*%
%TF.FilePolarity,Negative*%
%FSLAX46Y46*%
G04 Gerber Fmt 4.6, Leading zero omitted, Abs format (unit mm)*
G04 Created by KiCad (PCBNEW 8.0.4+dfsg-1) date 2025-02-17 17:51:02*
%MOMM*%
%LPD*%
G01*
G04 APERTURE LIST*
G04 Aperture macros list*
%AMRoundRect*
0 Rectangle with rounded corners*
0 $1 Rounding radius*
0 $2 $3 $4 $5 $6 $7 $8 $9 X,Y pos of 4 corners*
0 Add a 4 corners polygon primitive as box body*
4,1,4,$2,$3,$4,$5,$6,$7,$8,$9,$2,$3,0*
0 Add four circle primitives for the rounded corners*
1,1,$1+$1,$2,$3*
1,1,$1+$1,$4,$5*
1,1,$1+$1,$6,$7*
1,1,$1+$1,$8,$9*
0 Add four rect primitives between the rounded corners*
20,1,$1+$1,$2,$3,$4,$5,0*
20,1,$1+$1,$4,$5,$6,$7,0*
20,1,$1+$1,$6,$7,$8,$9,0*
20,1,$1+$1,$8,$9,$2,$3,0*%
G04 Aperture macros list end*
%ADD10R,0.450000X1.750000*%
%ADD11RoundRect,0.250000X0.337500X0.475000X-0.337500X0.475000X-0.337500X-0.475000X0.337500X-0.475000X0*%
%ADD12R,1.700000X1.700000*%
%ADD13O,1.700000X1.700000*%
%ADD14R,1.600000X1.600000*%
%ADD15O,1.600000X1.600000*%
%ADD16RoundRect,0.250000X0.450000X-0.350000X0.450000X0.350000X-0.450000X0.350000X-0.450000X-0.350000X0*%
%ADD17RoundRect,0.250000X-0.475000X0.337500X-0.475000X-0.337500X0.475000X-0.337500X0.475000X0.337500X0*%
%ADD18RoundRect,0.250000X-0.350000X-0.450000X0.350000X-0.450000X0.350000X0.450000X-0.350000X0.450000X0*%
%ADD19C,4.700000*%
%ADD20C,6.000000*%
%ADD21R,0.300000X1.600000*%
%ADD22R,1.350000X1.350000*%
%ADD23O,1.350000X1.350000*%
G04 APERTURE END LIST*
D10*
%TO.C,U1*%
X168055000Y-111335000D03*
X167405000Y-111335000D03*
X166755000Y-111335000D03*
X166105000Y-111335000D03*
X165455000Y-111335000D03*
X164805000Y-111335000D03*
X164155000Y-111335000D03*
X163505000Y-111335000D03*
X162855000Y-111335000D03*
X162205000Y-111335000D03*
X161555000Y-111335000D03*
X160905000Y-111335000D03*
X160255000Y-111335000D03*
X159605000Y-111335000D03*
X159605000Y-118535000D03*
X160255000Y-118535000D03*
X160905000Y-118535000D03*
X161555000Y-118535000D03*
X162205000Y-118535000D03*
X162855000Y-118535000D03*
X163505000Y-118535000D03*
X164155000Y-118535000D03*
X164805000Y-118535000D03*
X165455000Y-118535000D03*
X166105000Y-118535000D03*
X166755000Y-118535000D03*
X167405000Y-118535000D03*
X168055000Y-118535000D03*
%TD*%
D11*
%TO.C,C7*%
X201189500Y-107569000D03*
X199114500Y-107569000D03*
%TD*%
D12*
%TO.C,J2*%
X193000000Y-117000000D03*
D13*
X195540000Y-117000000D03*
X198080000Y-117000000D03*
X200620000Y-117000000D03*
%TD*%
D14*
%TO.C,U6*%
X146065000Y-104765000D03*
D15*
X148605000Y-104765000D03*
X151145000Y-104765000D03*
X153685000Y-104765000D03*
X156225000Y-104765000D03*
X158765000Y-104765000D03*
X161305000Y-104765000D03*
X163845000Y-104765000D03*
X163845000Y-97145000D03*
X161305000Y-97145000D03*
X158765000Y-97145000D03*
X156225000Y-97145000D03*
X153685000Y-97145000D03*
X151145000Y-97145000D03*
X148605000Y-97145000D03*
X146065000Y-97145000D03*
%TD*%
D16*
%TO.C,R7*%
X171450000Y-117840000D03*
X171450000Y-115840000D03*
%TD*%
D17*
%TO.C,C10*%
X176530000Y-115802500D03*
X176530000Y-117877500D03*
%TD*%
D14*
%TO.C,U8*%
X191150000Y-104765000D03*
D15*
X193690000Y-104765000D03*
X196230000Y-104765000D03*
X198770000Y-104765000D03*
X201310000Y-104765000D03*
X203850000Y-104765000D03*
X206390000Y-104765000D03*
X208930000Y-104765000D03*
X208930000Y-97145000D03*
X206390000Y-97145000D03*
X203850000Y-97145000D03*
X201310000Y-97145000D03*
X198770000Y-97145000D03*
X196230000Y-97145000D03*
X193690000Y-97145000D03*
X191150000Y-97145000D03*
%TD*%
D14*
%TO.C,U3*%
X78755000Y-104765000D03*
D15*
X81295000Y-104765000D03*
X83835000Y-104765000D03*
X86375000Y-104765000D03*
X88915000Y-104765000D03*
X91455000Y-104765000D03*
X93995000Y-104765000D03*
X96535000Y-104765000D03*
X96535000Y-97145000D03*
X93995000Y-97145000D03*
X91455000Y-97145000D03*
X88915000Y-97145000D03*
X86375000Y-97145000D03*
X83835000Y-97145000D03*
X81295000Y-97145000D03*
X78755000Y-97145000D03*
%TD*%
D14*
%TO.C,U2*%
X123840000Y-104755000D03*
D15*
X126380000Y-104755000D03*
X128920000Y-104755000D03*
X131460000Y-104755000D03*
X134000000Y-104755000D03*
X136540000Y-104755000D03*
X139080000Y-104755000D03*
X141620000Y-104755000D03*
X141620000Y-97135000D03*
X139080000Y-97135000D03*
X136540000Y-97135000D03*
X134000000Y-97135000D03*
X131460000Y-97135000D03*
X128920000Y-97135000D03*
X126380000Y-97135000D03*
X123840000Y-97135000D03*
%TD*%
D18*
%TO.C,R5*%
X86630000Y-111760000D03*
X88630000Y-111760000D03*
%TD*%
D19*
%TO.C,H1*%
X206000000Y-116000000D03*
%TD*%
D16*
%TO.C,R6*%
X173990000Y-117840000D03*
X173990000Y-115840000D03*
%TD*%
D19*
%TO.C,H2*%
X206000000Y-91000000D03*
%TD*%
D14*
%TO.C,U7*%
X168925000Y-104765000D03*
D15*
X171465000Y-104765000D03*
X174005000Y-104765000D03*
X176545000Y-104765000D03*
X179085000Y-104765000D03*
X181625000Y-104765000D03*
X184165000Y-104765000D03*
X186705000Y-104765000D03*
X186705000Y-97145000D03*
X184165000Y-97145000D03*
X181625000Y-97145000D03*
X179085000Y-97145000D03*
X176545000Y-97145000D03*
X174005000Y-97145000D03*
X171465000Y-97145000D03*
X168925000Y-97145000D03*
%TD*%
D18*
%TO.C,R4*%
X86630000Y-109855000D03*
X88630000Y-109855000D03*
%TD*%
D11*
%TO.C,C2*%
X133752500Y-107315000D03*
X131677500Y-107315000D03*
%TD*%
D10*
%TO.C,U11*%
X187740000Y-111335000D03*
X187090000Y-111335000D03*
X186440000Y-111335000D03*
X185790000Y-111335000D03*
X185140000Y-111335000D03*
X184490000Y-111335000D03*
X183840000Y-111335000D03*
X183190000Y-111335000D03*
X182540000Y-111335000D03*
X181890000Y-111335000D03*
X181240000Y-111335000D03*
X180590000Y-111335000D03*
X179940000Y-111335000D03*
X179290000Y-111335000D03*
X179290000Y-118535000D03*
X179940000Y-118535000D03*
X180590000Y-118535000D03*
X181240000Y-118535000D03*
X181890000Y-118535000D03*
X182540000Y-118535000D03*
X183190000Y-118535000D03*
X183840000Y-118535000D03*
X184490000Y-118535000D03*
X185140000Y-118535000D03*
X185790000Y-118535000D03*
X186440000Y-118535000D03*
X187090000Y-118535000D03*
X187740000Y-118535000D03*
%TD*%
D19*
%TO.C,H4*%
X150000000Y-116000000D03*
%TD*%
D14*
%TO.C,U5*%
X100980000Y-104765000D03*
D15*
X103520000Y-104765000D03*
X106060000Y-104765000D03*
X108600000Y-104765000D03*
X111140000Y-104765000D03*
X113680000Y-104765000D03*
X116220000Y-104765000D03*
X118760000Y-104765000D03*
X118760000Y-97145000D03*
X116220000Y-97145000D03*
X113680000Y-97145000D03*
X111140000Y-97145000D03*
X108600000Y-97145000D03*
X106060000Y-97145000D03*
X103520000Y-97145000D03*
X100980000Y-97145000D03*
%TD*%
D11*
%TO.C,C3*%
X88667500Y-107315000D03*
X86592500Y-107315000D03*
%TD*%
D20*
%TO.C,J1*%
X82000000Y-116000000D03*
X140000000Y-116000000D03*
X82000000Y-93000000D03*
X140000000Y-93000000D03*
D12*
X86870000Y-114730000D03*
D13*
X86870000Y-117270000D03*
X89410000Y-114730000D03*
X89410000Y-117270000D03*
X91950000Y-114730000D03*
X91950000Y-117270000D03*
X94490000Y-114730000D03*
X94490000Y-117270000D03*
X97030000Y-114730000D03*
X97030000Y-117270000D03*
X99570000Y-114730000D03*
X99570000Y-117270000D03*
X102110000Y-114730000D03*
X102110000Y-117270000D03*
X104650000Y-114730000D03*
X104650000Y-117270000D03*
X107190000Y-114730000D03*
X107190000Y-117270000D03*
X109730000Y-114730000D03*
X109730000Y-117270000D03*
X112270000Y-114730000D03*
X112270000Y-117270000D03*
X114810000Y-114730000D03*
X114810000Y-117270000D03*
X117350000Y-114730000D03*
X117350000Y-117270000D03*
X119890000Y-114730000D03*
X119890000Y-117270000D03*
X122430000Y-114730000D03*
X122430000Y-117270000D03*
X124970000Y-114730000D03*
X124970000Y-117270000D03*
X127510000Y-114730000D03*
X127510000Y-117270000D03*
X130050000Y-114730000D03*
X130050000Y-117270000D03*
X132590000Y-114730000D03*
X132590000Y-117270000D03*
X135130000Y-114730000D03*
X135130000Y-117270000D03*
%TD*%
D11*
%TO.C,C4*%
X110892500Y-107315000D03*
X108817500Y-107315000D03*
%TD*%
%TO.C,C6*%
X178837500Y-107569000D03*
X176762500Y-107569000D03*
%TD*%
D19*
%TO.C,H3*%
X150000000Y-91000000D03*
%TD*%
D17*
%TO.C,C1*%
X156845000Y-115802500D03*
X156845000Y-117877500D03*
%TD*%
D21*
%TO.C,U4*%
X140040000Y-108155000D03*
X139390000Y-108155000D03*
X138740000Y-108155000D03*
X138090000Y-108155000D03*
X138090000Y-111555000D03*
X138740000Y-111555000D03*
X139390000Y-111555000D03*
X140040000Y-111555000D03*
%TD*%
D11*
%TO.C,C5*%
X155977500Y-107315000D03*
X153902500Y-107315000D03*
%TD*%
D22*
%TO.C,J5*%
X102000000Y-89000000D03*
D23*
X102000000Y-91000000D03*
X104000000Y-89000000D03*
X104000000Y-91000000D03*
X106000000Y-89000000D03*
X106000000Y-91000000D03*
X108000000Y-89000000D03*
X108000000Y-91000000D03*
X110000000Y-89000000D03*
X110000000Y-91000000D03*
%TD*%
D22*
%TO.C,J7*%
X155500000Y-89000000D03*
D23*
X155500000Y-91000000D03*
X157500000Y-89000000D03*
X157500000Y-91000000D03*
X159500000Y-89000000D03*
X159500000Y-91000000D03*
X161500000Y-89000000D03*
X161500000Y-91000000D03*
X163500000Y-89000000D03*
X163500000Y-91000000D03*
%TD*%
D22*
%TO.C,J3*%
X88000000Y-89000000D03*
D23*
X88000000Y-91000000D03*
X90000000Y-89000000D03*
X90000000Y-91000000D03*
X92000000Y-89000000D03*
X92000000Y-91000000D03*
X94000000Y-89000000D03*
X94000000Y-91000000D03*
X96000000Y-89000000D03*
X96000000Y-91000000D03*
%TD*%
D22*
%TO.C,J9*%
X191500000Y-89000000D03*
D23*
X191500000Y-91000000D03*
X193500000Y-89000000D03*
X193500000Y-91000000D03*
X195500000Y-89000000D03*
X195500000Y-91000000D03*
X197500000Y-89000000D03*
X197500000Y-91000000D03*
X199500000Y-89000000D03*
X199500000Y-91000000D03*
%TD*%
D22*
%TO.C,J6*%
X124500000Y-89000000D03*
D23*
X124500000Y-91000000D03*
X126500000Y-89000000D03*
X126500000Y-91000000D03*
X128500000Y-89000000D03*
X128500000Y-91000000D03*
X130500000Y-89000000D03*
X130500000Y-91000000D03*
X132500000Y-89000000D03*
X132500000Y-91000000D03*
%TD*%
D22*
%TO.C,J4*%
X183500000Y-89000000D03*
D23*
X183500000Y-91000000D03*
X185500000Y-89000000D03*
X185500000Y-91000000D03*
%TD*%
D22*
%TO.C,J8*%
X169500000Y-89000000D03*
D23*
X169500000Y-91000000D03*
X171500000Y-89000000D03*
X171500000Y-91000000D03*
X173500000Y-89000000D03*
X173500000Y-91000000D03*
X175500000Y-89000000D03*
X175500000Y-91000000D03*
X177500000Y-89000000D03*
X177500000Y-91000000D03*
%TD*%
M02*
