%TF.GenerationSoftware,KiCad,Pcbnew,8.0.4+dfsg-1*%
%TF.CreationDate,2025-02-17T17:51:02+01:00*%
%TF.ProjectId,nixie-clock,6e697869-652d-4636-9c6f-636b2e6b6963,rev?*%
%TF.SameCoordinates,Original*%
%TF.FileFunction,Paste,Top*%
%TF.FilePolarity,Positive*%
%FSLAX46Y46*%
G04 Gerber Fmt 4.6, Leading zero omitted, Abs format (unit mm)*
G04 Created by KiCad (PCBNEW 8.0.4+dfsg-1) date 2025-02-17 17:51:02*
%MOMM*%
%LPD*%
G01*
G04 APERTURE LIST*
G04 Aperture macros list*
%AMRoundRect*
0 Rectangle with rounded corners*
0 $1 Rounding radius*
0 $2 $3 $4 $5 $6 $7 $8 $9 X,Y pos of 4 corners*
0 Add a 4 corners polygon primitive as box body*
4,1,4,$2,$3,$4,$5,$6,$7,$8,$9,$2,$3,0*
0 Add four circle primitives for the rounded corners*
1,1,$1+$1,$2,$3*
1,1,$1+$1,$4,$5*
1,1,$1+$1,$6,$7*
1,1,$1+$1,$8,$9*
0 Add four rect primitives between the rounded corners*
20,1,$1+$1,$2,$3,$4,$5,0*
20,1,$1+$1,$4,$5,$6,$7,0*
20,1,$1+$1,$6,$7,$8,$9,0*
20,1,$1+$1,$8,$9,$2,$3,0*%
G04 Aperture macros list end*
%ADD10R,0.450000X1.750000*%
%ADD11RoundRect,0.250000X0.337500X0.475000X-0.337500X0.475000X-0.337500X-0.475000X0.337500X-0.475000X0*%
%ADD12RoundRect,0.250000X0.450000X-0.350000X0.450000X0.350000X-0.450000X0.350000X-0.450000X-0.350000X0*%
%ADD13RoundRect,0.250000X-0.475000X0.337500X-0.475000X-0.337500X0.475000X-0.337500X0.475000X0.337500X0*%
%ADD14RoundRect,0.250000X-0.350000X-0.450000X0.350000X-0.450000X0.350000X0.450000X-0.350000X0.450000X0*%
%ADD15R,0.300000X1.600000*%
G04 APERTURE END LIST*
D10*
%TO.C,U1*%
X168055000Y-111335000D03*
X167405000Y-111335000D03*
X166755000Y-111335000D03*
X166105000Y-111335000D03*
X165455000Y-111335000D03*
X164805000Y-111335000D03*
X164155000Y-111335000D03*
X163505000Y-111335000D03*
X162855000Y-111335000D03*
X162205000Y-111335000D03*
X161555000Y-111335000D03*
X160905000Y-111335000D03*
X160255000Y-111335000D03*
X159605000Y-111335000D03*
X159605000Y-118535000D03*
X160255000Y-118535000D03*
X160905000Y-118535000D03*
X161555000Y-118535000D03*
X162205000Y-118535000D03*
X162855000Y-118535000D03*
X163505000Y-118535000D03*
X164155000Y-118535000D03*
X164805000Y-118535000D03*
X165455000Y-118535000D03*
X166105000Y-118535000D03*
X166755000Y-118535000D03*
X167405000Y-118535000D03*
X168055000Y-118535000D03*
%TD*%
D11*
%TO.C,C7*%
X201189500Y-107569000D03*
X199114500Y-107569000D03*
%TD*%
D12*
%TO.C,R7*%
X171450000Y-117840000D03*
X171450000Y-115840000D03*
%TD*%
D13*
%TO.C,C10*%
X176530000Y-115802500D03*
X176530000Y-117877500D03*
%TD*%
D14*
%TO.C,R5*%
X86630000Y-111760000D03*
X88630000Y-111760000D03*
%TD*%
D12*
%TO.C,R6*%
X173990000Y-117840000D03*
X173990000Y-115840000D03*
%TD*%
D14*
%TO.C,R4*%
X86630000Y-109855000D03*
X88630000Y-109855000D03*
%TD*%
D11*
%TO.C,C2*%
X133752500Y-107315000D03*
X131677500Y-107315000D03*
%TD*%
D10*
%TO.C,U11*%
X187740000Y-111335000D03*
X187090000Y-111335000D03*
X186440000Y-111335000D03*
X185790000Y-111335000D03*
X185140000Y-111335000D03*
X184490000Y-111335000D03*
X183840000Y-111335000D03*
X183190000Y-111335000D03*
X182540000Y-111335000D03*
X181890000Y-111335000D03*
X181240000Y-111335000D03*
X180590000Y-111335000D03*
X179940000Y-111335000D03*
X179290000Y-111335000D03*
X179290000Y-118535000D03*
X179940000Y-118535000D03*
X180590000Y-118535000D03*
X181240000Y-118535000D03*
X181890000Y-118535000D03*
X182540000Y-118535000D03*
X183190000Y-118535000D03*
X183840000Y-118535000D03*
X184490000Y-118535000D03*
X185140000Y-118535000D03*
X185790000Y-118535000D03*
X186440000Y-118535000D03*
X187090000Y-118535000D03*
X187740000Y-118535000D03*
%TD*%
D11*
%TO.C,C3*%
X88667500Y-107315000D03*
X86592500Y-107315000D03*
%TD*%
%TO.C,C4*%
X110892500Y-107315000D03*
X108817500Y-107315000D03*
%TD*%
%TO.C,C6*%
X178837500Y-107569000D03*
X176762500Y-107569000D03*
%TD*%
D13*
%TO.C,C1*%
X156845000Y-115802500D03*
X156845000Y-117877500D03*
%TD*%
D15*
%TO.C,U4*%
X140040000Y-108155000D03*
X139390000Y-108155000D03*
X138740000Y-108155000D03*
X138090000Y-108155000D03*
X138090000Y-111555000D03*
X138740000Y-111555000D03*
X139390000Y-111555000D03*
X140040000Y-111555000D03*
%TD*%
D11*
%TO.C,C5*%
X155977500Y-107315000D03*
X153902500Y-107315000D03*
%TD*%
M02*
